<svg width="208" height="439" viewBox="0 0 208 439" fill="none" xmlns="http://www.w3.org/2000/svg">
<g clip-path="url(#clip0_291_4837)">
<rect x="0.44085" y="0.44085" width="204.995" height="437.764" rx="22.0425" fill="#B1B1B1" stroke="#414141" stroke-width="0.881701"/>
<g clip-path="url(#clip1_291_4837)">
<rect x="7" y="8" width="191.25" height="425" rx="10" fill="#1D1B20"/>
<path d="M18.9348 22.9802H18.9984C19.2908 22.9802 19.5344 22.942 19.7293 22.8658C19.9264 22.7874 20.0831 22.6793 20.1997 22.5416C20.3162 22.4039 20.3999 22.2418 20.4507 22.0554C20.5016 21.869 20.527 21.6666 20.527 21.4484V20.6508C20.527 20.4622 20.5069 20.297 20.4666 20.155C20.4285 20.0109 20.3734 19.8912 20.3013 19.7959C20.2314 19.6984 20.1499 19.6254 20.0566 19.5766C19.9655 19.5279 19.867 19.5035 19.7611 19.5035C19.6446 19.5035 19.5397 19.53 19.4465 19.583C19.3554 19.6338 19.2781 19.7048 19.2145 19.7959C19.1531 19.8849 19.1054 19.9898 19.0715 20.1105C19.0397 20.2292 19.0238 20.3563 19.0238 20.4919C19.0238 20.619 19.0387 20.7419 19.0683 20.8605C19.1001 20.977 19.1467 21.0808 19.2081 21.1719C19.2696 21.263 19.3469 21.3351 19.4401 21.388C19.5333 21.441 19.6425 21.4675 19.7675 21.4675C19.8861 21.4675 19.9952 21.4452 20.0948 21.4008C20.1944 21.3541 20.2812 21.2916 20.3554 21.2133C20.4295 21.1349 20.4878 21.0469 20.5302 20.9495C20.5725 20.852 20.5958 20.7525 20.6001 20.6508L20.8924 20.7397C20.8924 20.9008 20.8585 21.0597 20.7907 21.2164C20.7251 21.3711 20.6329 21.513 20.5143 21.6423C20.3977 21.7694 20.2611 21.8711 20.1043 21.9474C19.9497 22.0236 19.7812 22.0618 19.599 22.0618C19.3787 22.0618 19.1838 22.0204 19.0143 21.9378C18.8469 21.8531 18.7071 21.7387 18.5948 21.5946C18.4846 21.4505 18.402 21.2853 18.3469 21.0988C18.2918 20.9124 18.2643 20.7164 18.2643 20.5109C18.2643 20.2885 18.2982 20.0798 18.366 19.8849C18.4338 19.69 18.5323 19.5184 18.6615 19.3701C18.7908 19.2196 18.9476 19.1031 19.1319 19.0205C19.3183 18.9357 19.5291 18.8934 19.7643 18.8934C20.0143 18.8934 20.2336 18.9421 20.4221 19.0396C20.6107 19.137 20.7696 19.2715 20.8988 19.4431C21.028 19.6148 21.1255 19.8139 21.1912 20.0406C21.2568 20.2673 21.2897 20.5109 21.2897 20.7715V21.0416C21.2897 21.3149 21.2653 21.5787 21.2166 21.8329C21.1679 22.0851 21.0884 22.3192 20.9782 22.5353C20.8702 22.7492 20.7272 22.9378 20.5492 23.1009C20.3734 23.262 20.1573 23.388 19.9009 23.4791C19.6467 23.5681 19.348 23.6126 19.0048 23.6126H18.9348V22.9802ZM22.2001 23.2026C22.2001 23.084 22.2403 22.9844 22.3209 22.9039C22.4014 22.8213 22.5105 22.78 22.6482 22.78C22.788 22.78 22.8971 22.8213 22.9755 22.9039C23.056 22.9844 23.0963 23.084 23.0963 23.2026C23.0963 23.3213 23.056 23.4209 22.9755 23.5014C22.8971 23.5819 22.788 23.6221 22.6482 23.6221C22.5105 23.6221 22.4014 23.5819 22.3209 23.5014C22.2403 23.4209 22.2001 23.3213 22.2001 23.2026ZM22.2033 20.495C22.2033 20.3764 22.2435 20.2768 22.324 20.1963C22.4045 20.1137 22.5136 20.0724 22.6514 20.0724C22.7912 20.0724 22.9003 20.1137 22.9787 20.1963C23.0592 20.2768 23.0994 20.3764 23.0994 20.495C23.0994 20.6137 23.0592 20.7133 22.9787 20.7938C22.9003 20.8743 22.7912 20.9145 22.6514 20.9145C22.5136 20.9145 22.4045 20.8743 22.324 20.7938C22.2435 20.7133 22.2033 20.6137 22.2033 20.495ZM24.8266 20.9241H25.2842C25.4622 20.9241 25.6094 20.8933 25.7259 20.8319C25.8446 20.7705 25.9325 20.6857 25.9897 20.5777C26.0469 20.4696 26.0755 20.3457 26.0755 20.2059C26.0755 20.0597 26.049 19.9347 25.9961 19.8309C25.9452 19.7249 25.8668 19.6434 25.7609 19.5862C25.6571 19.529 25.5247 19.5004 25.3637 19.5004C25.2281 19.5004 25.1052 19.5279 24.995 19.583C24.887 19.6359 24.8012 19.7122 24.7376 19.8118C24.674 19.9092 24.6423 20.0258 24.6423 20.1614H23.8732C23.8732 19.9156 23.9378 19.6974 24.0671 19.5067C24.1963 19.316 24.3721 19.1667 24.5946 19.0586C24.8192 18.9485 25.0713 18.8934 25.3509 18.8934C25.6497 18.8934 25.9103 18.9432 26.1327 19.0427C26.3573 19.1402 26.5321 19.2864 26.6571 19.4813C26.7821 19.6762 26.8446 19.9177 26.8446 20.2059C26.8446 20.3372 26.8138 20.4707 26.7524 20.6063C26.691 20.7419 26.5999 20.8658 26.4791 20.9781C26.3583 21.0883 26.2079 21.1783 26.0278 21.2482C25.8478 21.316 25.6391 21.3499 25.4018 21.3499H24.8266V20.9241ZM24.8266 21.5215V21.102H25.4018C25.673 21.102 25.9039 21.1338 26.0946 21.1974C26.2874 21.2609 26.4441 21.3488 26.5649 21.4611C26.6857 21.5713 26.7736 21.6974 26.8287 21.8393C26.8859 21.9813 26.9145 22.1317 26.9145 22.2906C26.9145 22.5067 26.8753 22.6995 26.7969 22.869C26.7206 23.0363 26.6115 23.1783 26.4696 23.2948C26.3276 23.4113 26.1613 23.4992 25.9706 23.5586C25.7821 23.6179 25.5766 23.6475 25.3541 23.6475C25.155 23.6475 24.9643 23.62 24.7821 23.5649C24.5999 23.5098 24.4368 23.4283 24.2927 23.3202C24.1486 23.21 24.0342 23.0734 23.9495 22.9103C23.8668 22.745 23.8255 22.5543 23.8255 22.3382H24.5914C24.5914 22.4759 24.6232 22.5978 24.6868 22.7037C24.7524 22.8075 24.8435 22.8891 24.9601 22.9484C25.0787 23.0077 25.2143 23.0374 25.3668 23.0374C25.5278 23.0374 25.6666 23.0088 25.7831 22.9516C25.8997 22.8944 25.9886 22.8096 26.0501 22.6973C26.1136 22.5851 26.1454 22.4495 26.1454 22.2906C26.1454 22.1105 26.1105 21.9643 26.0405 21.852C25.9706 21.7397 25.8711 21.6571 25.7418 21.6041C25.6126 21.5491 25.46 21.5215 25.2842 21.5215H24.8266ZM30.7708 20.8827V21.6391C30.7708 22.0014 30.7348 22.3107 30.6628 22.567C30.5929 22.8213 30.4912 23.0278 30.3577 23.1867C30.2242 23.3456 30.0643 23.4622 29.8778 23.5363C29.6935 23.6105 29.4869 23.6475 29.2581 23.6475C29.0759 23.6475 28.9064 23.6242 28.7497 23.5776C28.595 23.531 28.4552 23.4579 28.3302 23.3584C28.2052 23.2588 28.0982 23.1306 28.0092 22.9738C27.9223 22.8149 27.8545 22.6253 27.8058 22.405C27.7592 22.1846 27.7359 21.9293 27.7359 21.6391V20.8827C27.7359 20.5183 27.7719 20.2111 27.844 19.9612C27.916 19.709 28.0187 19.5046 28.1522 19.3478C28.2857 19.1889 28.4446 19.0735 28.6289 19.0014C28.8153 18.9294 29.023 18.8934 29.2518 18.8934C29.4361 18.8934 29.6056 18.9167 29.7602 18.9633C29.917 19.0078 30.0569 19.0787 30.1797 19.1762C30.3047 19.2737 30.4107 19.4008 30.4975 19.5576C30.5865 19.7122 30.6543 19.8997 30.7009 20.12C30.7475 20.3383 30.7708 20.5925 30.7708 20.8827ZM30.0049 21.7471V20.7683C30.0049 20.584 29.9944 20.422 29.9732 20.2821C29.952 20.1402 29.9202 20.0205 29.8778 19.923C29.8376 19.8234 29.7867 19.7429 29.7253 19.6815C29.6638 19.6179 29.5939 19.5724 29.5155 19.5448C29.4372 19.5152 29.3492 19.5004 29.2518 19.5004C29.1331 19.5004 29.0272 19.5237 28.934 19.5703C28.8408 19.6148 28.7624 19.6868 28.6988 19.7864C28.6353 19.8859 28.5865 20.0173 28.5526 20.1804C28.5209 20.3414 28.505 20.5374 28.505 20.7683V21.7471C28.505 21.9336 28.5156 22.0978 28.5367 22.2397C28.5579 22.3817 28.5897 22.5035 28.6321 22.6052C28.6745 22.7048 28.7253 22.7874 28.7846 22.8531C28.8461 22.9166 28.916 22.9632 28.9944 22.9929C29.0749 23.0226 29.1628 23.0374 29.2581 23.0374C29.3789 23.0374 29.4859 23.0141 29.5791 22.9675C29.6723 22.9209 29.7507 22.8467 29.8143 22.745C29.8778 22.6412 29.9255 22.5067 29.9573 22.3414C29.9891 22.1762 30.0049 21.9781 30.0049 21.7471Z" fill="white"/>
<path opacity="0.1" d="M169.752 19.3394C168.172 19.3394 166.789 20.0309 165.801 21.1175L169.752 25.9252L173.704 21.1175C172.716 20.0309 171.333 19.3394 169.752 19.3394Z" fill="white"/>
<path d="M180.482 19.3394L173.896 25.9252H180.482V19.3394V19.3394Z" fill="white"/>
<path opacity="0.3" d="M186.024 19.1455H184.629V19.8428H183.932C183.675 19.8428 183.467 20.077 183.467 20.3658V25.5958C183.467 25.8846 183.675 26.1188 183.932 26.1188H186.721C186.978 26.1188 187.186 25.8846 187.186 25.5958V20.3658C187.186 20.077 186.978 19.8428 186.721 19.8428H186.024V19.1455Z" fill="white"/>
<path d="M183.467 22.8647C183.467 23.1359 183.467 25.3596 183.467 25.6308C183.467 25.9004 183.675 26.1189 183.932 26.1189H186.721C186.978 26.1189 187.186 25.9004 187.186 25.6308C187.186 25.3596 187.186 23.1359 187.186 22.8647H183.467Z" fill="white"/>
<path fill-rule="evenodd" clip-rule="evenodd" d="M102.811 15.4268C99.7303 15.4268 97.2324 17.9246 97.2324 21.0054C97.2324 24.0861 99.7303 26.584 102.811 26.584C105.892 26.584 108.39 24.0861 108.39 21.0054C108.39 17.9246 105.892 15.4268 102.811 15.4268Z" fill="#1D1B20"/>
<rect width="191.533" height="29.7526" transform="translate(6.85938 41.9253)" fill="#211F26"/>
<g clip-path="url(#clip2_291_4837)">
<path d="M23.5944 56.3367H17.9368L20.5355 53.738L19.8753 53.0825L16.1562 56.8016L19.8753 60.5207L20.5308 59.8652L17.9368 57.2665H23.5944V56.3367Z" fill="#CAC4D0"/>
</g>
<path d="M38.1262 56.4896H39.085C39.0351 56.949 38.9035 57.3602 38.6905 57.7231C38.4774 58.086 38.1761 58.3739 37.7866 58.587C37.3971 58.7968 36.911 58.9016 36.3284 58.9016C35.9022 58.9016 35.5144 58.8217 35.1648 58.6619C34.8186 58.5021 34.5206 58.2757 34.2709 57.9828C34.0212 57.6865 33.8281 57.3319 33.6916 56.9191C33.5584 56.5029 33.4918 56.0401 33.4918 55.5308V54.8067C33.4918 54.2973 33.5584 53.8362 33.6916 53.4233C33.8281 53.0072 34.0229 52.651 34.2759 52.3547C34.5322 52.0584 34.8402 51.8303 35.1998 51.6705C35.5593 51.5107 35.9638 51.4308 36.4133 51.4308C36.9626 51.4308 37.427 51.534 37.8066 51.7404C38.1861 51.9468 38.4807 52.2331 38.6905 52.5994C38.9035 52.9622 39.0351 53.3834 39.085 53.8628H38.1262C38.0796 53.5232 37.993 53.2319 37.8665 52.9889C37.74 52.7425 37.5602 52.5527 37.3271 52.4196C37.0941 52.2864 36.7895 52.2198 36.4133 52.2198C36.0903 52.2198 35.8057 52.2814 35.5593 52.4046C35.3163 52.5278 35.1115 52.7026 34.9451 52.929C34.7819 53.1553 34.6587 53.4267 34.5755 53.743C34.4923 54.0592 34.4507 54.4105 34.4507 54.7967V55.5308C34.4507 55.887 34.4873 56.2216 34.5605 56.5345C34.6371 56.8475 34.752 57.1221 34.9051 57.3585C35.0583 57.5949 35.253 57.7813 35.4894 57.9178C35.7258 58.051 36.0054 58.1176 36.3284 58.1176C36.7379 58.1176 37.0641 58.0527 37.3072 57.9228C37.5502 57.793 37.7333 57.6066 37.8565 57.3635C37.983 57.1205 38.0729 56.8292 38.1262 56.4896ZM41.1824 54.2473V58.8018H40.2586V53.3984H41.1574L41.1824 54.2473ZM42.8703 53.3684L42.8654 54.2274C42.7888 54.2107 42.7155 54.2007 42.6456 54.1974C42.579 54.1907 42.5025 54.1874 42.4159 54.1874C42.2028 54.1874 42.0147 54.2207 41.8516 54.2873C41.6885 54.3539 41.5503 54.4471 41.4371 54.5669C41.3239 54.6868 41.234 54.83 41.1674 54.9964C41.1042 55.1596 41.0626 55.3393 41.0426 55.5358L40.7829 55.6856C40.7829 55.3593 40.8145 55.053 40.8778 54.7667C40.9444 54.4804 41.0459 54.2274 41.1824 54.0076C41.3189 53.7846 41.492 53.6115 41.7018 53.4883C41.9149 53.3618 42.1679 53.2985 42.4609 53.2985C42.5274 53.2985 42.604 53.3068 42.6906 53.3235C42.7771 53.3368 42.8371 53.3518 42.8703 53.3684ZM45.8667 58.9016C45.4905 58.9016 45.1492 58.8384 44.8429 58.7119C44.54 58.582 44.2786 58.4006 44.0589 58.1675C43.8425 57.9345 43.676 57.6582 43.5595 57.3386C43.443 57.0189 43.3847 56.6694 43.3847 56.2898V56.0801C43.3847 55.6406 43.4496 55.2494 43.5795 54.9065C43.7093 54.5603 43.8858 54.2673 44.1088 54.0276C44.3319 53.7879 44.5849 53.6065 44.8679 53.4833C45.1509 53.3601 45.4439 53.2985 45.7468 53.2985C46.133 53.2985 46.4659 53.3651 46.7456 53.4983C47.0286 53.6314 47.26 53.8179 47.4398 54.0576C47.6195 54.2939 47.7527 54.5736 47.8393 54.8965C47.9258 55.2162 47.9691 55.5657 47.9691 55.9453V56.3598H43.934V55.6057H47.0452V55.5358C47.0319 55.2961 46.982 55.063 46.8954 54.8366C46.8122 54.6102 46.679 54.4238 46.4959 54.2773C46.3128 54.1308 46.0631 54.0576 45.7468 54.0576C45.5371 54.0576 45.344 54.1025 45.1675 54.1924C44.9911 54.279 44.8396 54.4088 44.7131 54.5819C44.5866 54.7551 44.4884 54.9665 44.4185 55.2162C44.3485 55.4658 44.3136 55.7538 44.3136 56.0801V56.2898C44.3136 56.5462 44.3485 56.7876 44.4185 57.0139C44.4917 57.237 44.5966 57.4334 44.7331 57.6032C44.8729 57.773 45.041 57.9062 45.2374 58.0027C45.4372 58.0993 45.6636 58.1476 45.9166 58.1476C46.2429 58.1476 46.5192 58.081 46.7456 57.9478C46.972 57.8146 47.1701 57.6365 47.3399 57.4135L47.8992 57.8579C47.7827 58.0344 47.6345 58.2025 47.4547 58.3623C47.275 58.5221 47.0536 58.6519 46.7905 58.7518C46.5309 58.8517 46.2229 58.9016 45.8667 58.9016ZM52.2339 57.8779V55.0963C52.2339 54.8832 52.1906 54.6985 52.104 54.542C52.0208 54.3822 51.8943 54.259 51.7245 54.1724C51.5547 54.0859 51.345 54.0426 51.0953 54.0426C50.8622 54.0426 50.6575 54.0825 50.481 54.1624C50.3079 54.2423 50.1714 54.3472 50.0715 54.4771C49.975 54.6069 49.9267 54.7467 49.9267 54.8965H49.0028C49.0028 54.7034 49.0528 54.512 49.1527 54.3222C49.2525 54.1325 49.3957 53.961 49.5821 53.8079C49.7719 53.6514 49.9983 53.5282 50.2613 53.4383C50.5276 53.3451 50.8239 53.2985 51.1502 53.2985C51.5431 53.2985 51.8893 53.3651 52.1889 53.4983C52.4919 53.6314 52.7283 53.8328 52.8981 54.1025C53.0712 54.3689 53.1577 54.7034 53.1577 55.1063V57.6232C53.1577 57.803 53.1727 57.9944 53.2027 58.1975C53.236 58.4006 53.2843 58.5754 53.3475 58.7219V58.8018H52.3837C52.3371 58.6952 52.3005 58.5537 52.2738 58.3773C52.2472 58.1975 52.2339 58.031 52.2339 57.8779ZM52.3937 55.5258L52.4037 56.175H51.4698C51.2068 56.175 50.9721 56.1966 50.7657 56.2399C50.5593 56.2798 50.3861 56.3414 50.2463 56.4247C50.1065 56.5079 49.9999 56.6128 49.9267 56.7393C49.8535 56.8625 49.8168 57.0073 49.8168 57.1738C49.8168 57.3435 49.8551 57.4984 49.9317 57.6382C50.0083 57.778 50.1231 57.8895 50.2763 57.9728C50.4327 58.0527 50.6242 58.0926 50.8506 58.0926C51.1336 58.0926 51.3833 58.0327 51.5997 57.9128C51.8161 57.793 51.9875 57.6465 52.114 57.4734C52.2439 57.3003 52.3138 57.1321 52.3238 56.969L52.7183 57.4135C52.695 57.5533 52.6317 57.7081 52.5285 57.8779C52.4253 58.0477 52.2871 58.2108 52.114 58.3673C51.9442 58.5204 51.7411 58.6486 51.5048 58.7518C51.2717 58.8517 51.0087 58.9016 50.7157 58.9016C50.3495 58.9016 50.0282 58.8301 49.7519 58.6869C49.4789 58.5437 49.2658 58.3523 49.1127 58.1126C48.9629 57.8696 48.888 57.5982 48.888 57.2986C48.888 57.009 48.9446 56.7543 49.0578 56.5345C49.171 56.3115 49.3341 56.1267 49.5472 55.9802C49.7602 55.8304 50.0166 55.7172 50.3162 55.6406C50.6159 55.5641 50.9504 55.5258 51.32 55.5258H52.3937ZM56.8732 53.3984V54.1075H53.9518V53.3984H56.8732ZM54.9406 52.085H55.8644V57.4634C55.8644 57.6465 55.8927 57.7847 55.9493 57.8779C56.0059 57.9711 56.0792 58.0327 56.1691 58.0627C56.2589 58.0926 56.3555 58.1076 56.4587 58.1076C56.5353 58.1076 56.6152 58.101 56.6984 58.0876C56.785 58.071 56.8499 58.0577 56.8932 58.0477L56.8982 58.8018C56.8249 58.8251 56.7284 58.8467 56.6085 58.8667C56.492 58.89 56.3505 58.9016 56.184 58.9016C55.9576 58.9016 55.7496 58.8567 55.5598 58.7668C55.37 58.6769 55.2185 58.5271 55.1054 58.3174C54.9955 58.1043 54.9406 57.818 54.9406 57.4584V52.085ZM60.1991 58.9016C59.8229 58.9016 59.4817 58.8384 59.1754 58.7119C58.8724 58.582 58.6111 58.4006 58.3913 58.1675C58.1749 57.9345 58.0085 57.6582 57.8919 57.3386C57.7754 57.0189 57.7172 56.6694 57.7172 56.2898V56.0801C57.7172 55.6406 57.7821 55.2494 57.9119 54.9065C58.0418 54.5603 58.2182 54.2673 58.4413 54.0276C58.6643 53.7879 58.9174 53.6065 59.2003 53.4833C59.4833 53.3601 59.7763 53.2985 60.0793 53.2985C60.4655 53.2985 60.7984 53.3651 61.078 53.4983C61.361 53.6314 61.5924 53.8179 61.7722 54.0576C61.952 54.2939 62.0851 54.5736 62.1717 54.8965C62.2583 55.2162 62.3015 55.5657 62.3015 55.9453V56.3598H58.2665V55.6057H61.3777V55.5358C61.3644 55.2961 61.3144 55.063 61.2279 54.8366C61.1446 54.6102 61.0115 54.4238 60.8283 54.2773C60.6452 54.1308 60.3955 54.0576 60.0793 54.0576C59.8695 54.0576 59.6764 54.1025 59.5 54.1924C59.3235 54.279 59.172 54.4088 59.0455 54.5819C58.919 54.7551 58.8208 54.9665 58.7509 55.2162C58.681 55.4658 58.646 55.7538 58.646 56.0801V56.2898C58.646 56.5462 58.681 56.7876 58.7509 57.0139C58.8241 57.237 58.929 57.4334 59.0655 57.6032C59.2053 57.773 59.3735 57.9062 59.5699 58.0027C59.7696 58.0993 59.996 58.1476 60.2491 58.1476C60.5753 58.1476 60.8516 58.081 61.078 57.9478C61.3044 57.8146 61.5025 57.6365 61.6723 57.4135L62.2316 57.8579C62.1151 58.0344 61.9669 58.2025 61.7872 58.3623C61.6074 58.5221 61.386 58.6519 61.123 58.7518C60.8633 58.8517 60.5553 58.9016 60.1991 58.9016ZM69.4178 53.3984H70.2568V58.6869C70.2568 59.163 70.1602 59.5692 69.9671 59.9054C69.774 60.2417 69.5044 60.4963 69.1581 60.6695C68.8152 60.8459 68.419 60.9341 67.9696 60.9341C67.7832 60.9341 67.5634 60.9042 67.3104 60.8443C67.0607 60.7877 66.8143 60.6894 66.5713 60.5496C66.3316 60.4131 66.1302 60.2283 65.967 59.9953L66.4514 59.446C66.6778 59.719 66.9142 59.9087 67.1606 60.0153C67.4103 60.1218 67.6566 60.1751 67.8997 60.1751C68.1926 60.1751 68.4457 60.1201 68.6587 60.0103C68.8718 59.9004 69.0366 59.7373 69.1531 59.5209C69.273 59.3078 69.3329 59.0448 69.3329 58.7318V54.5869L69.4178 53.3984ZM65.6974 56.16V56.0551C65.6974 55.6423 65.7456 55.2678 65.8422 54.9315C65.9421 54.5919 66.0836 54.3006 66.2667 54.0576C66.4531 53.8145 66.6778 53.6281 66.9408 53.4983C67.2039 53.3651 67.5002 53.2985 67.8298 53.2985C68.1693 53.2985 68.4656 53.3584 68.7187 53.4783C68.975 53.5948 69.1914 53.7663 69.3679 53.9927C69.5477 54.2157 69.6891 54.4854 69.7924 54.8017C69.8956 55.1179 69.9671 55.4758 70.0071 55.8753V56.3348C69.9705 56.731 69.8989 57.0872 69.7924 57.4035C69.6891 57.7198 69.5477 57.9894 69.3679 58.2125C69.1914 58.4355 68.975 58.607 68.7187 58.7268C68.4623 58.8434 68.1627 58.9016 67.8198 58.9016C67.4968 58.9016 67.2039 58.8334 66.9408 58.6969C66.6812 58.5604 66.4581 58.369 66.2717 58.1226C66.0852 57.8762 65.9421 57.5866 65.8422 57.2537C65.7456 56.9174 65.6974 56.5528 65.6974 56.16ZM66.6212 56.0551V56.16C66.6212 56.4297 66.6479 56.6827 66.7011 56.9191C66.7577 57.1554 66.8426 57.3635 66.9558 57.5433C67.0724 57.7231 67.2205 57.8646 67.4003 57.9678C67.5801 58.0677 67.7948 58.1176 68.0445 58.1176C68.3508 58.1176 68.6038 58.0527 68.8036 57.9228C69.0033 57.793 69.1615 57.6215 69.278 57.4085C69.3978 57.1954 69.4911 56.964 69.5576 56.7143V55.5108C69.521 55.3277 69.4644 55.1512 69.3879 54.9814C69.3146 54.8083 69.2181 54.6552 69.0982 54.522C68.9817 54.3855 68.8369 54.2773 68.6637 54.1974C68.4906 54.1175 68.2875 54.0775 68.0545 54.0775C67.8015 54.0775 67.5834 54.1308 67.4003 54.2374C67.2205 54.3406 67.0724 54.4837 66.9558 54.6668C66.8426 54.8466 66.7577 55.0563 66.7011 55.2961C66.6479 55.5324 66.6212 55.7855 66.6212 56.0551ZM72.5839 54.2473V58.8018H71.6601V53.3984H72.559L72.5839 54.2473ZM74.2719 53.3684L74.2669 54.2274C74.1903 54.2107 74.1171 54.2007 74.0471 54.1974C73.9806 54.1907 73.904 54.1874 73.8174 54.1874C73.6043 54.1874 73.4162 54.2207 73.2531 54.2873C73.09 54.3539 72.9518 54.4471 72.8386 54.5669C72.7254 54.6868 72.6355 54.83 72.569 54.9964C72.5057 55.1596 72.4641 55.3393 72.4441 55.5358L72.1844 55.6856C72.1844 55.3593 72.2161 55.053 72.2793 54.7667C72.3459 54.4804 72.4474 54.2274 72.5839 54.0076C72.7204 53.7846 72.8936 53.6115 73.1033 53.4883C73.3164 53.3618 73.5694 53.2985 73.8624 53.2985C73.929 53.2985 74.0055 53.3068 74.0921 53.3235C74.1786 53.3368 74.2386 53.3518 74.2719 53.3684ZM74.7812 56.16V56.0451C74.7812 55.6556 74.8378 55.2944 74.951 54.9615C75.0642 54.6252 75.2274 54.3339 75.4404 54.0875C75.6535 53.8378 75.9115 53.6447 76.2145 53.5082C76.5174 53.3684 76.857 53.2985 77.2332 53.2985C77.6128 53.2985 77.954 53.3684 78.257 53.5082C78.5633 53.6447 78.823 53.8378 79.036 54.0875C79.2524 54.3339 79.4172 54.6252 79.5304 54.9615C79.6436 55.2944 79.7002 55.6556 79.7002 56.0451V56.16C79.7002 56.5495 79.6436 56.9107 79.5304 57.2437C79.4172 57.5766 79.2524 57.8679 79.036 58.1176C78.823 58.364 78.5649 58.5571 78.262 58.6969C77.9623 58.8334 77.6228 58.9016 77.2432 58.9016C76.8637 58.9016 76.5224 58.8334 76.2195 58.6969C75.9165 58.5571 75.6568 58.364 75.4404 58.1176C75.2274 57.8679 75.0642 57.5766 74.951 57.2437C74.8378 56.9107 74.7812 56.5495 74.7812 56.16ZM75.7051 56.0451V56.16C75.7051 56.4297 75.7367 56.6844 75.8 56.9241C75.8632 57.1604 75.9581 57.3702 76.0846 57.5533C76.2145 57.7364 76.376 57.8812 76.569 57.9878C76.7621 58.091 76.9869 58.1426 77.2432 58.1426C77.4962 58.1426 77.7176 58.091 77.9074 57.9878C78.1005 57.8812 78.2603 57.7364 78.3868 57.5533C78.5133 57.3702 78.6082 57.1604 78.6715 56.9241C78.7381 56.6844 78.7714 56.4297 78.7714 56.16V56.0451C78.7714 55.7788 78.7381 55.5274 78.6715 55.2911C78.6082 55.0514 78.5117 54.8399 78.3818 54.6568C78.2553 54.4704 78.0955 54.3239 77.9024 54.2174C77.7126 54.1108 77.4896 54.0576 77.2332 54.0576C76.9802 54.0576 76.7572 54.1108 76.5641 54.2174C76.3743 54.3239 76.2145 54.4704 76.0846 54.6568C75.9581 54.8399 75.8632 55.0514 75.8 55.2911C75.7367 55.5274 75.7051 55.7788 75.7051 56.0451ZM84.1647 57.5533V53.3984H85.0936V58.8018H84.2097L84.1647 57.5533ZM84.3395 56.4147L84.7241 56.4047C84.7241 56.7643 84.6858 57.0972 84.6092 57.4035C84.536 57.7064 84.4161 57.9694 84.2496 58.1925C84.0832 58.4156 83.8651 58.5904 83.5954 58.7169C83.3258 58.84 82.9978 58.9016 82.6116 58.9016C82.3486 58.9016 82.1073 58.8633 81.8875 58.7868C81.6711 58.7102 81.4847 58.592 81.3282 58.4322C81.1717 58.2724 81.0502 58.0643 80.9637 57.808C80.8804 57.5516 80.8388 57.2437 80.8388 56.8841V53.3984H81.7627V56.8941C81.7627 57.1371 81.7893 57.3386 81.8426 57.4984C81.8992 57.6548 81.9741 57.7797 82.0673 57.8729C82.1639 57.9628 82.2704 58.026 82.3869 58.0627C82.5068 58.0993 82.63 58.1176 82.7565 58.1176C83.1493 58.1176 83.4606 58.0427 83.6903 57.8929C83.92 57.7397 84.0848 57.535 84.1847 57.2786C84.2879 57.0189 84.3395 56.731 84.3395 56.4147ZM87.4257 54.4371V60.8792H86.4969V53.3984H87.3458L87.4257 54.4371ZM91.0663 56.0551V56.16C91.0663 56.5528 91.0197 56.9174 90.9265 57.2537C90.8332 57.5866 90.6967 57.8762 90.517 58.1226C90.3405 58.369 90.1224 58.5604 89.8628 58.6969C89.6031 58.8334 89.3051 58.9016 88.9689 58.9016C88.6259 58.9016 88.323 58.845 88.06 58.7318C87.797 58.6186 87.5739 58.4539 87.3908 58.2374C87.2077 58.021 87.0612 57.7614 86.9513 57.4584C86.8448 57.1554 86.7715 56.8142 86.7316 56.4347V55.8753C86.7715 55.4758 86.8465 55.1179 86.9563 54.8017C87.0662 54.4854 87.211 54.2157 87.3908 53.9927C87.5739 53.7663 87.7953 53.5948 88.055 53.4783C88.3147 53.3584 88.6143 53.2985 88.9539 53.2985C89.2935 53.2985 89.5948 53.3651 89.8578 53.4983C90.1208 53.6281 90.3422 53.8145 90.522 54.0576C90.7017 54.3006 90.8366 54.5919 90.9265 54.9315C91.0197 55.2678 91.0663 55.6423 91.0663 56.0551ZM90.1374 56.16V56.0551C90.1374 55.7855 90.1091 55.5324 90.0525 55.2961C89.9959 55.0563 89.9077 54.8466 89.7879 54.6668C89.6713 54.4837 89.5215 54.3406 89.3384 54.2374C89.1553 54.1308 88.9372 54.0775 88.6842 54.0775C88.4512 54.0775 88.2481 54.1175 88.075 54.1974C87.9052 54.2773 87.7603 54.3855 87.6405 54.522C87.5206 54.6552 87.4224 54.8083 87.3458 54.9814C87.2726 55.1512 87.2177 55.3277 87.181 55.5108V56.8042C87.2476 57.0373 87.3408 57.257 87.4607 57.4634C87.5806 57.6665 87.7404 57.8313 87.9401 57.9578C88.1399 58.081 88.3912 58.1426 88.6942 58.1426C88.9439 58.1426 89.1586 58.091 89.3384 57.9878C89.5215 57.8812 89.6713 57.7364 89.7879 57.5533C89.9077 57.3702 89.9959 57.1604 90.0525 56.9241C90.1091 56.6844 90.1374 56.4297 90.1374 56.16Z" fill="#E6E0E9"/>
<rect x="16.3887" y="102.593" width="172.472" height="25.5687" rx="1.6271" stroke="#938F99" stroke-width="0.464885"/>
<path d="M28.1155 114.745V116.681C28.0501 116.777 27.946 116.886 27.8031 117.007C27.6603 117.126 27.4629 117.23 27.2111 117.32C26.9617 117.407 26.6397 117.451 26.245 117.451C25.923 117.451 25.6264 117.395 25.3552 117.283C25.0865 117.17 24.8528 117.005 24.6543 116.79C24.4581 116.572 24.3056 116.308 24.1966 115.998C24.0901 115.685 24.0368 115.332 24.0368 114.937V114.527C24.0368 114.132 24.0828 113.78 24.1749 113.47C24.2693 113.16 24.4073 112.897 24.5889 112.682C24.7705 112.464 24.9932 112.299 25.2572 112.188C25.5211 112.074 25.8237 112.017 26.1651 112.017C26.5695 112.017 26.9073 112.087 27.1784 112.228C27.4521 112.366 27.6651 112.557 27.8177 112.802C27.9726 113.046 28.0719 113.325 28.1155 113.637H27.4145C27.383 113.446 27.3201 113.271 27.2257 113.114C27.1337 112.957 27.0017 112.831 26.8298 112.736C26.6579 112.639 26.4363 112.591 26.1651 112.591C25.9206 112.591 25.7087 112.636 25.5296 112.725C25.3504 112.815 25.2027 112.943 25.0865 113.11C24.9702 113.278 24.8831 113.48 24.825 113.717C24.7693 113.954 24.7414 114.222 24.7414 114.52V114.937C24.7414 115.242 24.7765 115.515 24.8468 115.754C24.9194 115.994 25.0223 116.199 25.1555 116.368C25.2886 116.535 25.4472 116.662 25.6313 116.75C25.8177 116.837 26.0235 116.88 26.2487 116.88C26.4981 116.88 26.7002 116.86 26.8552 116.819C27.0102 116.775 27.1312 116.724 27.2184 116.666C27.3056 116.606 27.3721 116.549 27.4182 116.495V115.311H26.1942V114.745H28.1155ZM30.0803 114.066V117.378H29.4084V113.448H30.0622L30.0803 114.066ZM31.3079 113.426L31.3043 114.051C31.2486 114.039 31.1953 114.032 31.1445 114.029C31.0961 114.024 31.0404 114.022 30.9774 114.022C30.8225 114.022 30.6857 114.046 30.567 114.095C30.4484 114.143 30.3479 114.211 30.2656 114.298C30.1832 114.385 30.1179 114.489 30.0695 114.61C30.0234 114.729 29.9932 114.86 29.9787 115.003L29.7898 115.112C29.7898 114.874 29.8128 114.652 29.8588 114.443C29.9072 114.235 29.9811 114.051 30.0803 113.891C30.1796 113.729 30.3055 113.603 30.4581 113.514C30.613 113.422 30.797 113.376 31.0101 113.376C31.0585 113.376 31.1142 113.382 31.1772 113.394C31.2401 113.403 31.2837 113.414 31.3079 113.426ZM31.9108 115.457V115.373C31.9108 115.09 31.952 114.827 32.0343 114.585C32.1166 114.34 32.2353 114.129 32.3902 113.949C32.5452 113.768 32.7329 113.627 32.9532 113.528C33.1735 113.426 33.4205 113.376 33.6941 113.376C33.9701 113.376 34.2183 113.426 34.4386 113.528C34.6614 113.627 34.8503 113.768 35.0052 113.949C35.1626 114.129 35.2825 114.34 35.3648 114.585C35.4471 114.827 35.4883 115.09 35.4883 115.373V115.457C35.4883 115.74 35.4471 116.003 35.3648 116.245C35.2825 116.487 35.1626 116.699 35.0052 116.88C34.8503 117.06 34.6626 117.2 34.4423 117.302C34.2244 117.401 33.9774 117.451 33.7014 117.451C33.4253 117.451 33.1772 117.401 32.9568 117.302C32.7365 117.2 32.5476 117.06 32.3902 116.88C32.2353 116.699 32.1166 116.487 32.0343 116.245C31.952 116.003 31.9108 115.74 31.9108 115.457ZM32.5827 115.373V115.457C32.5827 115.653 32.6057 115.838 32.6517 116.012C32.6977 116.184 32.7668 116.337 32.8588 116.47C32.9532 116.603 33.0706 116.708 33.2111 116.786C33.3515 116.861 33.5149 116.899 33.7014 116.899C33.8854 116.899 34.0464 116.861 34.1844 116.786C34.3248 116.708 34.4411 116.603 34.5331 116.47C34.6251 116.337 34.6941 116.184 34.7401 116.012C34.7885 115.838 34.8127 115.653 34.8127 115.457V115.373C34.8127 115.179 34.7885 114.997 34.7401 114.825C34.6941 114.65 34.6239 114.497 34.5294 114.363C34.4374 114.228 34.3212 114.121 34.1808 114.044C34.0428 113.966 33.8805 113.928 33.6941 113.928C33.5101 113.928 33.3479 113.966 33.2074 114.044C33.0694 114.121 32.9532 114.228 32.8588 114.363C32.7668 114.497 32.6977 114.65 32.6517 114.825C32.6057 114.997 32.5827 115.179 32.5827 115.373ZM38.9676 116.47V113.448H39.6432V117.378H39.0003L38.9676 116.47ZM39.0948 115.642L39.3744 115.635C39.3744 115.896 39.3466 116.138 39.2909 116.361C39.2376 116.581 39.1504 116.773 39.0294 116.935C38.9083 117.097 38.7497 117.224 38.5536 117.316C38.3575 117.406 38.119 117.451 37.8381 117.451C37.6468 117.451 37.4713 117.423 37.3115 117.367C37.1541 117.311 37.0185 117.225 36.9047 117.109C36.7909 116.993 36.7025 116.842 36.6396 116.655C36.579 116.469 36.5488 116.245 36.5488 115.983V113.448H37.2207V115.991C37.2207 116.167 37.2401 116.314 37.2788 116.43C37.32 116.544 37.3744 116.635 37.4422 116.702C37.5124 116.768 37.5899 116.814 37.6747 116.84C37.7618 116.867 37.8514 116.88 37.9434 116.88C38.2291 116.88 38.4555 116.826 38.6226 116.717C38.7897 116.606 38.9095 116.457 38.9822 116.27C39.0572 116.081 39.0948 115.872 39.0948 115.642ZM41.5717 114.204V118.889H40.8962V113.448H41.5136L41.5717 114.204ZM44.2194 115.38V115.457C44.2194 115.742 44.1855 116.007 44.1177 116.252C44.0499 116.494 43.9506 116.705 43.8199 116.884C43.6915 117.063 43.533 117.202 43.3441 117.302C43.1552 117.401 42.9385 117.451 42.694 117.451C42.4446 117.451 42.2243 117.409 42.033 117.327C41.8417 117.245 41.6795 117.125 41.5463 116.968C41.4131 116.81 41.3066 116.621 41.2267 116.401C41.1492 116.181 41.0959 115.932 41.0669 115.656V115.25C41.0959 114.959 41.1504 114.699 41.2303 114.469C41.3102 114.239 41.4155 114.043 41.5463 113.88C41.6795 113.716 41.8405 113.591 42.0293 113.506C42.2182 113.419 42.4361 113.376 42.6831 113.376C42.9301 113.376 43.1492 113.424 43.3405 113.521C43.5317 113.615 43.6928 113.751 43.8235 113.928C43.9543 114.104 44.0523 114.316 44.1177 114.563C44.1855 114.808 44.2194 115.08 44.2194 115.38ZM43.5438 115.457V115.38C43.5438 115.184 43.5233 115 43.4821 114.828C43.4409 114.654 43.3768 114.501 43.2896 114.371C43.2049 114.238 43.0959 114.133 42.9627 114.058C42.8296 113.981 42.671 113.942 42.487 113.942C42.3175 113.942 42.1698 113.971 42.0439 114.029C41.9204 114.087 41.8151 114.166 41.7279 114.265C41.6407 114.362 41.5693 114.474 41.5136 114.6C41.4603 114.723 41.4204 114.851 41.3938 114.984V115.925C41.4422 116.095 41.51 116.254 41.5971 116.405C41.6843 116.552 41.8005 116.672 41.9458 116.764C42.0911 116.854 42.2739 116.899 42.4942 116.899C42.6758 116.899 42.832 116.861 42.9627 116.786C43.0959 116.708 43.2049 116.603 43.2896 116.47C43.3768 116.337 43.4409 116.184 43.4821 116.012C43.5233 115.838 43.5438 115.653 43.5438 115.457ZM48.0583 114.287V117.378H47.3864V113.448H48.022L48.0583 114.287ZM47.8985 115.264L47.6189 115.253C47.6213 114.984 47.6612 114.736 47.7387 114.509C47.8162 114.279 47.9251 114.079 48.0656 113.909C48.206 113.74 48.3731 113.609 48.5668 113.517C48.7629 113.423 48.9796 113.376 49.2169 113.376C49.4106 113.376 49.5849 113.402 49.7399 113.455C49.8949 113.506 50.0268 113.589 50.1358 113.702C50.2471 113.816 50.3319 113.964 50.39 114.146C50.4481 114.325 50.4772 114.544 50.4772 114.803V117.378H49.8016V114.796C49.8016 114.59 49.7714 114.425 49.7108 114.302C49.6503 114.176 49.5619 114.085 49.4457 114.029C49.3295 113.971 49.1866 113.942 49.0171 113.942C48.8501 113.942 48.6975 113.977 48.5595 114.047C48.4239 114.118 48.3065 114.215 48.2072 114.338C48.1104 114.462 48.0341 114.603 47.9784 114.763C47.9251 114.92 47.8985 115.087 47.8985 115.264ZM54.0473 116.706V114.683C54.0473 114.528 54.0159 114.394 53.9529 114.28C53.8924 114.164 53.8004 114.074 53.6769 114.011C53.5534 113.948 53.4009 113.917 53.2193 113.917C53.0498 113.917 52.9009 113.946 52.7725 114.004C52.6466 114.062 52.5474 114.138 52.4747 114.233C52.4045 114.327 52.3694 114.429 52.3694 114.538H51.6975C51.6975 114.397 51.7338 114.258 51.8064 114.12C51.8791 113.982 51.9832 113.857 52.1188 113.746C52.2568 113.632 52.4215 113.543 52.6127 113.477C52.8064 113.409 53.0219 113.376 53.2592 113.376C53.5449 113.376 53.7967 113.424 54.0146 113.521C54.235 113.618 54.4069 113.764 54.5304 113.96C54.6563 114.154 54.7192 114.397 54.7192 114.69V116.521C54.7192 116.652 54.7301 116.791 54.7519 116.938C54.7761 117.086 54.8112 117.213 54.8573 117.32V117.378H54.1563C54.1224 117.3 54.0958 117.198 54.0764 117.069C54.057 116.938 54.0473 116.817 54.0473 116.706ZM54.1636 114.995L54.1708 115.468H53.4917C53.3004 115.468 53.1297 115.483 52.9796 115.515C52.8294 115.544 52.7035 115.589 52.6018 115.649C52.5001 115.71 52.4227 115.786 52.3694 115.878C52.3161 115.968 52.2895 116.073 52.2895 116.194C52.2895 116.317 52.3173 116.43 52.373 116.532C52.4287 116.633 52.5122 116.715 52.6236 116.775C52.7374 116.833 52.8767 116.862 53.0413 116.862C53.2471 116.862 53.4287 116.819 53.5861 116.731C53.7435 116.644 53.8682 116.538 53.9602 116.412C54.0546 116.286 54.1054 116.164 54.1127 116.045L54.3996 116.368C54.3827 116.47 54.3367 116.583 54.2616 116.706C54.1866 116.83 54.0861 116.948 53.9602 117.062C53.8367 117.173 53.689 117.267 53.5171 117.342C53.3476 117.414 53.1563 117.451 52.9432 117.451C52.6769 117.451 52.4432 117.399 52.2423 117.294C52.0437 117.19 51.8888 117.051 51.7774 116.877C51.6684 116.7 51.614 116.503 51.614 116.285C51.614 116.074 51.6551 115.889 51.7374 115.729C51.8198 115.567 51.9384 115.432 52.0934 115.326C52.2483 115.217 52.4348 115.135 52.6527 115.079C52.8706 115.023 53.1139 114.995 53.3827 114.995H54.1636ZM56.6768 114.229V117.378H56.0013V113.448H56.6405L56.6768 114.229ZM56.5388 115.264L56.2265 115.253C56.2289 114.984 56.264 114.736 56.3318 114.509C56.3996 114.279 56.5001 114.079 56.6333 113.909C56.7664 113.74 56.9323 113.609 57.1308 113.517C57.3294 113.423 57.5594 113.376 57.8209 113.376C58.0049 113.376 58.1744 113.402 58.3294 113.455C58.4843 113.506 58.6187 113.587 58.7325 113.699C58.8463 113.81 58.9347 113.953 58.9976 114.127C59.0606 114.302 59.0921 114.512 59.0921 114.759V117.378H58.4202V114.792C58.4202 114.586 58.3851 114.422 58.3148 114.298C58.247 114.175 58.1502 114.085 58.0243 114.029C57.8984 113.971 57.7507 113.942 57.5812 113.942C57.3826 113.942 57.2168 113.977 57.0836 114.047C56.9504 114.118 56.8439 114.215 56.764 114.338C56.6841 114.462 56.626 114.603 56.5897 114.763C56.5558 114.92 56.5388 115.087 56.5388 115.264ZM59.0848 114.894L58.6344 115.032C58.6369 114.816 58.672 114.609 58.7398 114.411C58.81 114.212 58.9105 114.035 59.0412 113.88C59.1744 113.725 59.3378 113.603 59.5315 113.514C59.7252 113.422 59.9468 113.376 60.1962 113.376C60.4068 113.376 60.5933 113.403 60.7555 113.459C60.9201 113.515 61.0581 113.601 61.1695 113.717C61.2833 113.831 61.3693 113.977 61.4274 114.156C61.4855 114.336 61.5146 114.549 61.5146 114.796V117.378H60.839V114.788C60.839 114.568 60.8039 114.397 60.7337 114.276C60.6659 114.153 60.569 114.067 60.4431 114.018C60.3197 113.968 60.172 113.942 60 113.942C59.8523 113.942 59.7216 113.968 59.6078 114.018C59.494 114.069 59.3984 114.139 59.3209 114.229C59.2434 114.316 59.1841 114.417 59.1429 114.531C59.1042 114.644 59.0848 114.765 59.0848 114.894ZM64.3947 117.451C64.1211 117.451 63.8729 117.405 63.6501 117.313C63.4298 117.218 63.2397 117.086 63.0799 116.917C62.9225 116.747 62.8015 116.546 62.7167 116.314C62.632 116.081 62.5896 115.827 62.5896 115.551V115.399C62.5896 115.079 62.6368 114.794 62.7312 114.545C62.8257 114.293 62.954 114.08 63.1162 113.906C63.2784 113.731 63.4625 113.6 63.6683 113.51C63.8741 113.42 64.0872 113.376 64.3075 113.376C64.5884 113.376 64.8305 113.424 65.0339 113.521C65.2397 113.618 65.408 113.753 65.5387 113.928C65.6695 114.1 65.7663 114.303 65.8293 114.538C65.8922 114.77 65.9237 115.024 65.9237 115.3V115.602H62.9891V115.054H65.2518V115.003C65.2421 114.828 65.2058 114.659 65.1428 114.494C65.0823 114.33 64.9854 114.194 64.8523 114.087C64.7191 113.981 64.5375 113.928 64.3075 113.928C64.1549 113.928 64.0145 113.96 63.8862 114.026C63.7579 114.089 63.6477 114.183 63.5557 114.309C63.4637 114.435 63.3922 114.589 63.3414 114.77C63.2906 114.952 63.2651 115.161 63.2651 115.399V115.551C63.2651 115.738 63.2906 115.913 63.3414 116.078C63.3947 116.24 63.4709 116.383 63.5702 116.506C63.6719 116.63 63.7942 116.727 63.937 116.797C64.0823 116.867 64.247 116.902 64.431 116.902C64.6683 116.902 64.8692 116.854 65.0339 116.757C65.1985 116.66 65.3426 116.53 65.4661 116.368L65.8728 116.691C65.7881 116.82 65.6804 116.942 65.5496 117.058C65.4189 117.175 65.2578 117.269 65.0666 117.342C64.8777 117.414 64.6537 117.451 64.3947 117.451Z" fill="#CAC4D0"/>
<rect x="16.2637" y="137.857" width="172.472" height="25.5687" rx="1.6271" stroke="#938F99" stroke-width="0.464885"/>
<path d="M27.9905 150.009V151.945C27.9251 152.042 27.821 152.151 27.6781 152.272C27.5353 152.39 27.3379 152.494 27.0861 152.584C26.8367 152.671 26.5147 152.715 26.12 152.715C25.798 152.715 25.5014 152.659 25.2302 152.548C24.9615 152.434 24.7278 152.269 24.5293 152.054C24.3331 151.836 24.1806 151.572 24.0716 151.262C23.9651 150.95 23.9118 150.596 23.9118 150.201V149.791C23.9118 149.396 23.9578 149.044 24.0499 148.734C24.1443 148.424 24.2823 148.162 24.4639 147.946C24.6455 147.728 24.8682 147.563 25.1322 147.452C25.3961 147.338 25.6987 147.281 26.0401 147.281C26.4445 147.281 26.7823 147.352 27.0534 147.492C27.3271 147.63 27.5401 147.821 27.6927 148.066C27.8476 148.31 27.9469 148.589 27.9905 148.901H27.2895C27.258 148.71 27.1951 148.536 27.1007 148.378C27.0087 148.221 26.8767 148.095 26.7048 148.001C26.5329 147.904 26.3113 147.855 26.0401 147.855C25.7956 147.855 25.5837 147.9 25.4046 147.99C25.2254 148.079 25.0777 148.208 24.9615 148.375C24.8452 148.542 24.7581 148.744 24.7 148.981C24.6443 149.218 24.6164 149.486 24.6164 149.784V150.201C24.6164 150.507 24.6515 150.779 24.7218 151.019C24.7944 151.258 24.8973 151.463 25.0305 151.632C25.1636 151.799 25.3222 151.927 25.5063 152.014C25.6927 152.101 25.8985 152.145 26.1237 152.145C26.3731 152.145 26.5752 152.124 26.7302 152.083C26.8852 152.039 27.0062 151.988 27.0934 151.93C27.1806 151.87 27.2471 151.813 27.2932 151.76V150.576H26.0692V150.009H27.9905ZM29.9553 149.33V152.642H29.2834V148.712H29.9372L29.9553 149.33ZM31.1829 148.691L31.1793 149.315C31.1236 149.303 31.0703 149.296 31.0195 149.293C30.9711 149.289 30.9154 149.286 30.8524 149.286C30.6975 149.286 30.5607 149.31 30.442 149.359C30.3234 149.407 30.2229 149.475 30.1406 149.562C30.0582 149.649 29.9929 149.754 29.9445 149.875C29.8984 149.993 29.8682 150.124 29.8537 150.267L29.6648 150.376C29.6648 150.138 29.6878 149.916 29.7338 149.708C29.7822 149.499 29.8561 149.315 29.9553 149.155C30.0546 148.993 30.1805 148.867 30.3331 148.778C30.488 148.686 30.672 148.64 30.8851 148.64C30.9335 148.64 30.9892 148.646 31.0522 148.658C31.1151 148.668 31.1587 148.678 31.1829 148.691ZM31.7858 150.721V150.637C31.7858 150.354 31.827 150.091 31.9093 149.849C31.9916 149.605 32.1103 149.393 32.2652 149.214C32.4202 149.032 32.6079 148.892 32.8282 148.792C33.0485 148.691 33.2955 148.64 33.5691 148.64C33.8451 148.64 34.0933 148.691 34.3136 148.792C34.5364 148.892 34.7253 149.032 34.8802 149.214C35.0376 149.393 35.1575 149.605 35.2398 149.849C35.3221 150.091 35.3633 150.354 35.3633 150.637V150.721C35.3633 151.004 35.3221 151.267 35.2398 151.509C35.1575 151.751 35.0376 151.963 34.8802 152.145C34.7253 152.324 34.5376 152.464 34.3173 152.566C34.0994 152.665 33.8524 152.715 33.5764 152.715C33.3003 152.715 33.0522 152.665 32.8318 152.566C32.6115 152.464 32.4226 152.324 32.2652 152.145C32.1103 151.963 31.9916 151.751 31.9093 151.509C31.827 151.267 31.7858 151.004 31.7858 150.721ZM32.4577 150.637V150.721C32.4577 150.917 32.4807 151.102 32.5267 151.276C32.5727 151.448 32.6418 151.601 32.7338 151.734C32.8282 151.867 32.9456 151.973 33.0861 152.05C33.2265 152.125 33.3899 152.163 33.5764 152.163C33.7604 152.163 33.9214 152.125 34.0594 152.05C34.1998 151.973 34.3161 151.867 34.4081 151.734C34.5001 151.601 34.5691 151.448 34.6151 151.276C34.6635 151.102 34.6877 150.917 34.6877 150.721V150.637C34.6877 150.444 34.6635 150.261 34.6151 150.089C34.5691 149.915 34.4989 149.761 34.4044 149.628C34.3124 149.492 34.1962 149.385 34.0558 149.308C33.9178 149.231 33.7555 149.192 33.5691 149.192C33.3851 149.192 33.2229 149.231 33.0824 149.308C32.9444 149.385 32.8282 149.492 32.7338 149.628C32.6418 149.761 32.5727 149.915 32.5267 150.089C32.4807 150.261 32.4577 150.444 32.4577 150.637ZM38.8426 151.734V148.712H39.5182V152.642H38.8753L38.8426 151.734ZM38.9698 150.906L39.2494 150.899C39.2494 151.16 39.2216 151.402 39.1659 151.625C39.1126 151.845 39.0254 152.037 38.9044 152.199C38.7833 152.361 38.6247 152.488 38.4286 152.58C38.2325 152.67 37.994 152.715 37.7131 152.715C37.5218 152.715 37.3463 152.687 37.1865 152.631C37.0291 152.576 36.8935 152.49 36.7797 152.373C36.6659 152.257 36.5775 152.106 36.5146 151.919C36.454 151.733 36.4238 151.509 36.4238 151.247V148.712H37.0957V151.255C37.0957 151.431 37.1151 151.578 37.1538 151.694C37.195 151.808 37.2494 151.899 37.3172 151.967C37.3874 152.032 37.4649 152.078 37.5497 152.105C37.6368 152.131 37.7264 152.145 37.8184 152.145C38.1041 152.145 38.3305 152.09 38.4976 151.981C38.6647 151.87 38.7845 151.721 38.8572 151.534C38.9322 151.345 38.9698 151.136 38.9698 150.906ZM41.4467 149.468V154.153H40.7712V148.712H41.3886L41.4467 149.468ZM44.0944 150.645V150.721C44.0944 151.007 44.0605 151.272 43.9927 151.516C43.9249 151.758 43.8256 151.969 43.6949 152.148C43.5665 152.327 43.408 152.467 43.2191 152.566C43.0302 152.665 42.8135 152.715 42.569 152.715C42.3196 152.715 42.0993 152.674 41.908 152.591C41.7167 152.509 41.5545 152.389 41.4213 152.232C41.2881 152.074 41.1816 151.885 41.1017 151.665C41.0242 151.445 40.9709 151.197 40.9419 150.921V150.514C40.9709 150.223 41.0254 149.963 41.1053 149.733C41.1852 149.503 41.2905 149.307 41.4213 149.145C41.5545 148.98 41.7155 148.855 41.9043 148.77C42.0932 148.683 42.3111 148.64 42.5581 148.64C42.8051 148.64 43.0242 148.688 43.2155 148.785C43.4067 148.879 43.5678 149.015 43.6985 149.192C43.8293 149.369 43.9273 149.58 43.9927 149.827C44.0605 150.072 44.0944 150.344 44.0944 150.645ZM43.4188 150.721V150.645C43.4188 150.448 43.3983 150.264 43.3571 150.092C43.3159 149.918 43.2518 149.766 43.1646 149.635C43.0799 149.502 42.9709 149.398 42.8377 149.323C42.7046 149.245 42.546 149.206 42.362 149.206C42.1925 149.206 42.0448 149.235 41.9189 149.293C41.7954 149.352 41.6901 149.43 41.6029 149.53C41.5157 149.626 41.4443 149.738 41.3886 149.864C41.3353 149.987 41.2954 150.115 41.2688 150.249V151.189C41.3172 151.359 41.385 151.519 41.4721 151.669C41.5593 151.816 41.6755 151.936 41.8208 152.028C41.9661 152.118 42.1489 152.163 42.3692 152.163C42.5508 152.163 42.707 152.125 42.8377 152.05C42.9709 151.973 43.0799 151.867 43.1646 151.734C43.2518 151.601 43.3159 151.448 43.3571 151.276C43.3983 151.102 43.4188 150.917 43.4188 150.721ZM47.9333 149.468V154.153H47.2578V148.712H47.8752L47.9333 149.468ZM50.581 150.645V150.721C50.581 151.007 50.5471 151.272 50.4793 151.516C50.4115 151.758 50.3122 151.969 50.1815 152.148C50.0531 152.327 49.8945 152.467 49.7057 152.566C49.5168 152.665 49.3001 152.715 49.0556 152.715C48.8062 152.715 48.5858 152.674 48.3946 152.591C48.2033 152.509 48.0411 152.389 47.9079 152.232C47.7747 152.074 47.6682 151.885 47.5883 151.665C47.5108 151.445 47.4575 151.197 47.4285 150.921V150.514C47.4575 150.223 47.512 149.963 47.5919 149.733C47.6718 149.503 47.7771 149.307 47.9079 149.145C48.0411 148.98 48.2021 148.855 48.3909 148.77C48.5798 148.683 48.7977 148.64 49.0447 148.64C49.2916 148.64 49.5108 148.688 49.7021 148.785C49.8933 148.879 50.0544 149.015 50.1851 149.192C50.3158 149.369 50.4139 149.58 50.4793 149.827C50.5471 150.072 50.581 150.344 50.581 150.645ZM49.9054 150.721V150.645C49.9054 150.448 49.8849 150.264 49.8437 150.092C49.8025 149.918 49.7384 149.766 49.6512 149.635C49.5665 149.502 49.4575 149.398 49.3243 149.323C49.1912 149.245 49.0326 149.206 48.8486 149.206C48.6791 149.206 48.5314 149.235 48.4055 149.293C48.282 149.352 48.1767 149.43 48.0895 149.53C48.0023 149.626 47.9309 149.738 47.8752 149.864C47.8219 149.987 47.782 150.115 47.7553 150.249V151.189C47.8038 151.359 47.8716 151.519 47.9587 151.669C48.0459 151.816 48.1621 151.936 48.3074 152.028C48.4527 152.118 48.6355 152.163 48.8558 152.163C49.0374 152.163 49.1936 152.125 49.3243 152.05C49.4575 151.973 49.5665 151.867 49.6512 151.734C49.7384 151.601 49.8025 151.448 49.8437 151.276C49.8849 151.102 49.9054 150.917 49.9054 150.721ZM53.9877 151.97V149.947C53.9877 149.792 53.9562 149.658 53.8933 149.544C53.8327 149.428 53.7407 149.338 53.6173 149.275C53.4938 149.212 53.3412 149.181 53.1596 149.181C52.9901 149.181 52.8412 149.21 52.7129 149.268C52.587 149.326 52.4877 149.402 52.4151 149.497C52.3449 149.591 52.3098 149.693 52.3098 149.802H51.6379C51.6379 149.662 51.6742 149.522 51.7468 149.384C51.8195 149.246 51.9236 149.122 52.0592 149.01C52.1972 148.896 52.3618 148.807 52.5531 148.741C52.7468 148.674 52.9623 148.64 53.1996 148.64C53.4853 148.64 53.7371 148.688 53.955 148.785C54.1754 148.882 54.3473 149.028 54.4708 149.224C54.5967 149.418 54.6596 149.662 54.6596 149.954V151.785C54.6596 151.916 54.6705 152.055 54.6923 152.203C54.7165 152.35 54.7516 152.477 54.7976 152.584V152.642H54.0967C54.0628 152.565 54.0361 152.462 54.0168 152.333C53.9974 152.203 53.9877 152.082 53.9877 151.97ZM54.1039 150.26L54.1112 150.732H53.432C53.2407 150.732 53.07 150.747 52.9199 150.779C52.7698 150.808 52.6439 150.853 52.5422 150.913C52.4405 150.974 52.363 151.05 52.3098 151.142C52.2565 151.232 52.2299 151.337 52.2299 151.458C52.2299 151.582 52.2577 151.694 52.3134 151.796C52.3691 151.898 52.4526 151.979 52.564 152.039C52.6778 152.097 52.817 152.126 52.9817 152.126C53.1875 152.126 53.3691 152.083 53.5265 151.996C53.6838 151.908 53.8085 151.802 53.9005 151.676C53.995 151.55 54.0458 151.428 54.0531 151.309L54.34 151.632C54.3231 151.734 54.2771 151.847 54.202 151.97C54.1269 152.094 54.0265 152.212 53.9005 152.326C53.7771 152.437 53.6294 152.531 53.4575 152.606C53.288 152.678 53.0967 152.715 52.8836 152.715C52.6173 152.715 52.3836 152.663 52.1827 152.559C51.9841 152.454 51.8291 152.315 51.7178 152.141C51.6088 151.964 51.5543 151.767 51.5543 151.549C51.5543 151.338 51.5955 151.153 51.6778 150.993C51.7601 150.831 51.8788 150.697 52.0337 150.59C52.1887 150.481 52.3751 150.399 52.5931 150.343C52.811 150.287 53.0543 150.26 53.3231 150.26H54.1039ZM58.2371 151.6C58.2371 151.503 58.2153 151.413 58.1717 151.331C58.1305 151.246 58.0446 151.17 57.9138 151.102C57.7855 151.032 57.5918 150.971 57.3327 150.921C57.1148 150.875 56.9175 150.82 56.7407 150.757C56.5664 150.694 56.4175 150.618 56.294 150.528C56.1729 150.439 56.0797 150.333 56.0143 150.212C55.9489 150.091 55.9163 149.95 55.9163 149.787C55.9163 149.632 55.9502 149.486 56.018 149.348C56.0882 149.21 56.1862 149.088 56.3121 148.981C56.4405 148.875 56.5942 148.791 56.7734 148.731C56.9526 148.67 57.1523 148.64 57.3727 148.64C57.6874 148.64 57.9562 148.695 58.1789 148.807C58.4017 148.918 58.5724 149.067 58.691 149.254C58.8097 149.438 58.869 149.642 58.869 149.867H58.1971C58.1971 149.758 58.1644 149.653 58.099 149.551C58.0361 149.447 57.9429 149.361 57.8194 149.293C57.6983 149.226 57.5494 149.192 57.3727 149.192C57.1862 149.192 57.0349 149.221 56.9187 149.279C56.8049 149.335 56.7213 149.406 56.6681 149.493C56.6172 149.58 56.5918 149.672 56.5918 149.769C56.5918 149.842 56.6039 149.907 56.6281 149.965C56.6547 150.021 56.7008 150.073 56.7661 150.122C56.8315 150.168 56.9235 150.211 57.0422 150.252C57.1608 150.293 57.3121 150.335 57.4961 150.376C57.8182 150.448 58.0833 150.536 58.2915 150.637C58.4998 150.739 58.6547 150.864 58.7564 151.011C58.8581 151.159 58.909 151.338 58.909 151.549C58.909 151.721 58.8726 151.878 58.8 152.021C58.7298 152.164 58.6269 152.287 58.4913 152.391C58.3581 152.493 58.1983 152.573 58.0119 152.631C57.8279 152.687 57.6208 152.715 57.3908 152.715C57.0446 152.715 56.7516 152.653 56.5119 152.53C56.2722 152.406 56.0906 152.246 55.9671 152.05C55.8436 151.854 55.7819 151.647 55.7819 151.429H56.4574C56.4671 151.613 56.5204 151.76 56.6172 151.868C56.7141 151.975 56.8327 152.051 56.9731 152.097C57.1136 152.141 57.2528 152.163 57.3908 152.163C57.5748 152.163 57.7286 152.138 57.8521 152.09C57.978 152.042 58.0736 151.975 58.139 151.89C58.2044 151.806 58.2371 151.709 58.2371 151.6ZM62.3121 151.6C62.3121 151.503 62.2903 151.413 62.2467 151.331C62.2055 151.246 62.1196 151.17 61.9888 151.102C61.8605 151.032 61.6668 150.971 61.4077 150.921C61.1898 150.875 60.9925 150.82 60.8157 150.757C60.6414 150.694 60.4925 150.618 60.369 150.528C60.2479 150.439 60.1547 150.333 60.0893 150.212C60.024 150.091 59.9913 149.95 59.9913 149.787C59.9913 149.632 60.0252 149.486 60.093 149.348C60.1632 149.21 60.2612 149.088 60.3871 148.981C60.5155 148.875 60.6692 148.791 60.8484 148.731C61.0276 148.67 61.2273 148.64 61.4477 148.64C61.7624 148.64 62.0312 148.695 62.2539 148.807C62.4767 148.918 62.6474 149.067 62.766 149.254C62.8847 149.438 62.944 149.642 62.944 149.867H62.2721C62.2721 149.758 62.2394 149.653 62.174 149.551C62.1111 149.447 62.0179 149.361 61.8944 149.293C61.7733 149.226 61.6244 149.192 61.4477 149.192C61.2612 149.192 61.1099 149.221 60.9937 149.279C60.8799 149.335 60.7963 149.406 60.7431 149.493C60.6922 149.58 60.6668 149.672 60.6668 149.769C60.6668 149.842 60.6789 149.907 60.7031 149.965C60.7298 150.021 60.7758 150.073 60.8411 150.122C60.9065 150.168 60.9985 150.211 61.1172 150.252C61.2358 150.293 61.3871 150.335 61.5711 150.376C61.8932 150.448 62.1583 150.536 62.3665 150.637C62.5748 150.739 62.7297 150.864 62.8314 151.011C62.9331 151.159 62.984 151.338 62.984 151.549C62.984 151.721 62.9476 151.878 62.875 152.021C62.8048 152.164 62.7019 152.287 62.5663 152.391C62.4331 152.493 62.2733 152.573 62.0869 152.631C61.9029 152.687 61.6958 152.715 61.4658 152.715C61.1196 152.715 60.8266 152.653 60.5869 152.53C60.3472 152.406 60.1656 152.246 60.0421 152.05C59.9186 151.854 59.8569 151.647 59.8569 151.429H60.5324C60.5421 151.613 60.5954 151.76 60.6922 151.868C60.7891 151.975 60.9077 152.051 61.0482 152.097C61.1886 152.141 61.3278 152.163 61.4658 152.163C61.6498 152.163 61.8036 152.138 61.9271 152.09C62.053 152.042 62.1486 151.975 62.214 151.89C62.2794 151.806 62.3121 151.709 62.3121 151.6ZM65.0941 151.945L66.1038 148.712H66.5469L66.4597 149.355L65.4319 152.642H64.9997L65.0941 151.945ZM64.4149 148.712L65.2757 151.981L65.3374 152.642H64.8834L63.743 148.712H64.4149ZM67.513 151.956L68.3338 148.712H69.002L67.8616 152.642H67.4113L67.513 151.956ZM66.6449 148.712L67.6328 151.89L67.7454 152.642H67.3168L66.2599 149.348L66.1728 148.712H66.6449ZM69.7466 150.721V150.637C69.7466 150.354 69.7877 150.091 69.8701 149.849C69.9524 149.605 70.071 149.393 70.226 149.214C70.381 149.032 70.5686 148.892 70.7889 148.792C71.0093 148.691 71.2562 148.64 71.5299 148.64C71.8059 148.64 72.0541 148.691 72.2744 148.792C72.4971 148.892 72.686 149.032 72.841 149.214C72.9984 149.393 73.1182 149.605 73.2005 149.849C73.2829 150.091 73.324 150.354 73.324 150.637V150.721C73.324 151.004 73.2829 151.267 73.2005 151.509C73.1182 151.751 72.9984 151.963 72.841 152.145C72.686 152.324 72.4984 152.464 72.278 152.566C72.0601 152.665 71.8131 152.715 71.5371 152.715C71.2611 152.715 71.0129 152.665 70.7926 152.566C70.5722 152.464 70.3834 152.324 70.226 152.145C70.071 151.963 69.9524 151.751 69.8701 151.509C69.7877 151.267 69.7466 151.004 69.7466 150.721ZM70.4185 150.637V150.721C70.4185 150.917 70.4415 151.102 70.4875 151.276C70.5335 151.448 70.6025 151.601 70.6945 151.734C70.7889 151.867 70.9064 151.973 71.0468 152.05C71.1872 152.125 71.3507 152.163 71.5371 152.163C71.7211 152.163 71.8821 152.125 72.0202 152.05C72.1606 151.973 72.2768 151.867 72.3688 151.734C72.4608 151.601 72.5298 151.448 72.5758 151.276C72.6243 151.102 72.6485 150.917 72.6485 150.721V150.637C72.6485 150.444 72.6243 150.261 72.5758 150.089C72.5298 149.915 72.4596 149.761 72.3652 149.628C72.2732 149.492 72.157 149.385 72.0165 149.308C71.8785 149.231 71.7163 149.192 71.5299 149.192C71.3458 149.192 71.1836 149.231 71.0432 149.308C70.9052 149.385 70.7889 149.492 70.6945 149.628C70.6025 149.761 70.5335 149.915 70.4875 150.089C70.4415 150.261 70.4185 150.444 70.4185 150.637ZM75.071 149.33V152.642H74.3991V148.712H75.0528L75.071 149.33ZM76.2986 148.691L76.2949 149.315C76.2392 149.303 76.186 149.296 76.1351 149.293C76.0867 149.289 76.031 149.286 75.968 149.286C75.8131 149.286 75.6763 149.31 75.5576 149.359C75.439 149.407 75.3385 149.475 75.2562 149.562C75.1739 149.649 75.1085 149.754 75.0601 149.875C75.0141 149.993 74.9838 150.124 74.9693 150.267L74.7804 150.376C74.7804 150.138 74.8034 149.916 74.8494 149.708C74.8978 149.499 74.9717 149.315 75.071 149.155C75.1702 148.993 75.2961 148.867 75.4487 148.778C75.6036 148.686 75.7877 148.64 76.0007 148.64C76.0492 148.64 76.1049 148.646 76.1678 148.658C76.2308 148.668 76.2743 148.678 76.2986 148.691ZM79.5564 151.879V147.063H80.2319V152.642H79.6145L79.5564 151.879ZM76.9123 150.721V150.645C76.9123 150.344 76.9487 150.072 77.0213 149.827C77.0964 149.58 77.2017 149.369 77.3373 149.192C77.4753 149.015 77.6387 148.879 77.8276 148.785C78.0189 148.688 78.2319 148.64 78.4668 148.64C78.7138 148.64 78.9293 148.683 79.1133 148.77C79.2997 148.855 79.4571 148.98 79.5854 149.145C79.7162 149.307 79.8191 149.503 79.8941 149.733C79.9692 149.963 80.0213 150.223 80.0503 150.514V150.848C80.0237 151.136 79.9716 151.395 79.8941 151.625C79.8191 151.855 79.7162 152.051 79.5854 152.214C79.4571 152.376 79.2997 152.5 79.1133 152.588C78.9268 152.672 78.7089 152.715 78.4595 152.715C78.2295 152.715 78.0189 152.665 77.8276 152.566C77.6387 152.467 77.4753 152.327 77.3373 152.148C77.2017 151.969 77.0964 151.758 77.0213 151.516C76.9487 151.272 76.9123 151.007 76.9123 150.721ZM77.5879 150.645V150.721C77.5879 150.917 77.6073 151.101 77.646 151.273C77.6872 151.445 77.7501 151.596 77.8349 151.727C77.9196 151.858 78.0273 151.961 78.1581 152.036C78.2888 152.108 78.445 152.145 78.6266 152.145C78.8494 152.145 79.0322 152.097 79.175 152.003C79.3203 151.908 79.4365 151.784 79.5237 151.629C79.6109 151.474 79.6787 151.306 79.7271 151.124V150.249C79.698 150.115 79.6557 149.987 79.6 149.864C79.5467 149.738 79.4765 149.626 79.3893 149.53C79.3046 149.43 79.1992 149.352 79.0733 149.293C78.9498 149.235 78.8034 149.206 78.6339 149.206C78.4499 149.206 78.2913 149.245 78.1581 149.323C78.0273 149.398 77.9196 149.502 77.8349 149.635C77.7501 149.766 77.6872 149.918 77.646 150.092C77.6073 150.264 77.5879 150.448 77.5879 150.645Z" fill="#CAC4D0"/>
<path d="M19.3596 90.1177H20.1541C20.1287 90.4206 20.0439 90.6908 19.8998 90.9281C19.7558 91.1632 19.5535 91.3486 19.2929 91.4842C19.0323 91.6198 18.7155 91.6876 18.3427 91.6876C18.0566 91.6876 17.7992 91.6367 17.5704 91.535C17.3416 91.4312 17.1456 91.285 16.9825 91.0965C16.8194 90.9058 16.6944 90.6759 16.6075 90.4069C16.5228 90.1378 16.4804 89.837 16.4804 89.5043V89.1198C16.4804 88.7872 16.5238 88.4864 16.6107 88.2173C16.6997 87.9482 16.8268 87.7184 16.992 87.5277C17.1573 87.3349 17.3554 87.1876 17.5863 87.0859C17.8194 86.9843 18.081 86.9334 18.3713 86.9334C18.7399 86.9334 19.0513 87.0012 19.3056 87.1368C19.5598 87.2724 19.7568 87.4599 19.8967 87.6993C20.0386 87.9387 20.1255 88.2131 20.1573 88.5224H19.3628C19.3416 88.3232 19.295 88.1527 19.2229 88.0107C19.153 87.8688 19.0492 87.7607 18.9115 87.6866C18.7738 87.6103 18.5937 87.5722 18.3713 87.5722C18.1891 87.5722 18.0302 87.6061 17.8946 87.6739C17.759 87.7417 17.6456 87.8412 17.5545 87.9726C17.4634 88.1039 17.3946 88.266 17.348 88.4588C17.3035 88.6495 17.2812 88.8677 17.2812 89.1135V89.5043C17.2812 89.7374 17.3014 89.9493 17.3416 90.1399C17.384 90.3285 17.4475 90.4906 17.5323 90.6262C17.6192 90.7617 17.7293 90.8666 17.8628 90.9408C17.9963 91.0149 18.1562 91.052 18.3427 91.052C18.5694 91.052 18.7526 91.016 18.8924 90.9439C19.0344 90.8719 19.1414 90.767 19.2134 90.6293C19.2876 90.4895 19.3363 90.319 19.3596 90.1177ZM21.8039 88.8402V91.624H21.038V88.1855H21.7689L21.8039 88.8402ZM22.8558 88.1633L22.8494 88.8751C22.8028 88.8666 22.752 88.8603 22.6969 88.8561C22.6439 88.8518 22.5909 88.8497 22.538 88.8497C22.4066 88.8497 22.2912 88.8688 22.1916 88.9069C22.092 88.9429 22.0083 88.9959 21.9405 89.0658C21.8748 89.1336 21.824 89.2162 21.788 89.3137C21.752 89.4111 21.7308 89.5202 21.7244 89.641L21.5496 89.6537C21.5496 89.4376 21.5708 89.2374 21.6132 89.0531C21.6556 88.8688 21.7191 88.7067 21.8039 88.5669C21.8907 88.427 21.9988 88.3179 22.128 88.2395C22.2594 88.1611 22.4109 88.122 22.5825 88.122C22.6291 88.122 22.6789 88.1262 22.7318 88.1347C22.7869 88.1431 22.8282 88.1527 22.8558 88.1633ZM25.0204 91.6876C24.7662 91.6876 24.5363 91.6463 24.3308 91.5636C24.1274 91.4789 23.9537 91.3613 23.8096 91.2109C23.6677 91.0605 23.5585 90.8836 23.4823 90.6802C23.406 90.4768 23.3679 90.2575 23.3679 90.0223V89.8952C23.3679 89.6262 23.4071 89.3825 23.4855 89.1643C23.5638 88.9461 23.6729 88.7597 23.8128 88.605C23.9526 88.4482 24.1179 88.3285 24.3085 88.2459C24.4992 88.1633 24.7058 88.122 24.9282 88.122C25.174 88.122 25.389 88.1633 25.5733 88.2459C25.7577 88.3285 25.9102 88.445 26.031 88.5955C26.1538 88.7438 26.2449 88.9207 26.3043 89.1262C26.3657 89.3317 26.3964 89.5584 26.3964 89.8063V90.1336H23.7397V89.5838H25.6401V89.5234C25.6358 89.3857 25.6083 89.2565 25.5575 89.1357C25.5087 89.0149 25.4335 88.9175 25.3318 88.8433C25.2301 88.7692 25.0945 88.7321 24.925 88.7321C24.7979 88.7321 24.6846 88.7597 24.585 88.8147C24.4876 88.8677 24.406 88.945 24.3403 89.0467C24.2746 89.1484 24.2238 89.2713 24.1878 89.4154C24.1539 89.5573 24.1369 89.7173 24.1369 89.8952V90.0223C24.1369 90.1728 24.1571 90.3126 24.1973 90.4418C24.2397 90.569 24.3011 90.6802 24.3816 90.7755C24.4621 90.8709 24.5596 90.9461 24.674 91.0012C24.7884 91.0541 24.9187 91.0806 25.0649 91.0806C25.2492 91.0806 25.4134 91.0435 25.5575 90.9694C25.7015 90.8952 25.8265 90.7903 25.9325 90.6548L26.336 91.0456C26.2619 91.1537 26.1655 91.2575 26.0469 91.3571C25.9282 91.4545 25.7831 91.534 25.6115 91.5954C25.442 91.6569 25.245 91.6876 25.0204 91.6876ZM29.1649 90.9344V89.2946C29.1649 89.1717 29.1426 89.0658 29.0981 88.9768C29.0536 88.8878 28.9858 88.819 28.8947 88.7702C28.8057 88.7215 28.6935 88.6972 28.5579 88.6972C28.4329 88.6972 28.3248 88.7183 28.2337 88.7607C28.1426 88.8031 28.0716 88.8603 28.0208 88.9323C27.97 89.0044 27.9445 89.0859 27.9445 89.177H27.1818C27.1818 89.0414 27.2147 88.9101 27.2803 88.783C27.346 88.6558 27.4414 88.5425 27.5664 88.4429C27.6914 88.3433 27.8407 88.265 28.0144 88.2078C28.1882 88.1506 28.3831 88.122 28.5992 88.122C28.8577 88.122 29.0865 88.1654 29.2856 88.2522C29.4869 88.3391 29.6447 88.4705 29.7591 88.6463C29.8756 88.82 29.9339 89.0383 29.9339 89.301V90.8295C29.9339 90.9863 29.9445 91.1272 29.9657 91.2522C29.989 91.3751 30.0218 91.4821 30.0642 91.5732V91.624H29.2793C29.2432 91.5414 29.2146 91.4365 29.1935 91.3094C29.1744 91.1802 29.1649 91.0552 29.1649 90.9344ZM29.2761 89.5329L29.2824 90.0065H28.7327C28.5907 90.0065 28.4657 90.0202 28.3577 90.0478C28.2496 90.0732 28.1596 90.1113 28.0875 90.1622C28.0155 90.213 27.9615 90.2745 27.9255 90.3465C27.8894 90.4185 27.8714 90.5001 27.8714 90.5912C27.8714 90.6823 27.8926 90.766 27.935 90.8423C27.9774 90.9164 28.0388 90.9747 28.1193 91.017C28.2019 91.0594 28.3015 91.0806 28.418 91.0806C28.5748 91.0806 28.7115 91.0488 28.828 90.9853C28.9466 90.9196 29.0399 90.8401 29.1077 90.7469C29.1754 90.6516 29.2115 90.5615 29.2157 90.4768L29.4636 90.8168C29.4382 90.9037 29.3947 90.9969 29.3333 91.0965C29.2718 91.1961 29.1913 91.2914 29.0918 91.3825C28.9943 91.4715 28.8767 91.5446 28.739 91.6018C28.6034 91.659 28.4466 91.6876 28.2687 91.6876C28.0441 91.6876 27.8439 91.6431 27.6681 91.5541C27.4922 91.463 27.3545 91.3412 27.2549 91.1886C27.1553 91.034 27.1056 90.8592 27.1056 90.6643C27.1056 90.4821 27.1395 90.3211 27.2073 90.1812C27.2772 90.0393 27.3789 89.9207 27.5123 89.8253C27.6479 89.73 27.8132 89.6579 28.0081 89.6092C28.203 89.5584 28.4255 89.5329 28.6755 89.5329H29.2761ZM32.5434 88.1855V88.7448H30.6049V88.1855H32.5434ZM31.1642 87.3434H31.9301V90.6738C31.9301 90.7798 31.9449 90.8613 31.9746 90.9185C32.0064 90.9736 32.0498 91.0107 32.1049 91.0298C32.16 91.0488 32.2246 91.0584 32.2987 91.0584C32.3517 91.0584 32.4026 91.0552 32.4513 91.0488C32.5 91.0425 32.5392 91.0361 32.5689 91.0298L32.572 91.6145C32.5085 91.6336 32.4343 91.6505 32.3496 91.6653C32.267 91.6802 32.1716 91.6876 32.0636 91.6876C31.8877 91.6876 31.732 91.6569 31.5964 91.5954C31.4608 91.5319 31.3549 91.4291 31.2786 91.2872C31.2024 91.1452 31.1642 90.9567 31.1642 90.7215V87.3434ZM34.8828 91.6876C34.6286 91.6876 34.3987 91.6463 34.1932 91.5636C33.9898 91.4789 33.8161 91.3613 33.6721 91.2109C33.5301 91.0605 33.421 90.8836 33.3447 90.6802C33.2685 90.4768 33.2303 90.2575 33.2303 90.0223V89.8952C33.2303 89.6262 33.2695 89.3825 33.3479 89.1643C33.4263 88.9461 33.5354 88.7597 33.6752 88.605C33.8151 88.4482 33.9803 88.3285 34.171 88.2459C34.3617 88.1633 34.5682 88.122 34.7907 88.122C35.0364 88.122 35.2515 88.1633 35.4358 88.2459C35.6201 88.3285 35.7727 88.445 35.8934 88.5955C36.0163 88.7438 36.1074 88.9207 36.1667 89.1262C36.2282 89.3317 36.2589 89.5584 36.2589 89.8063V90.1336H33.6021V89.5838H35.5025V89.5234C35.4983 89.3857 35.4708 89.2565 35.4199 89.1357C35.3712 89.0149 35.296 88.9175 35.1943 88.8433C35.0926 88.7692 34.957 88.7321 34.7875 88.7321C34.6604 88.7321 34.547 88.7597 34.4475 88.8147C34.35 88.8677 34.2684 88.945 34.2028 89.0467C34.1371 89.1484 34.0862 89.2713 34.0502 89.4154C34.0163 89.5573 33.9994 89.7173 33.9994 89.8952V90.0223C33.9994 90.1728 34.0195 90.3126 34.0598 90.4418C34.1021 90.569 34.1636 90.6802 34.2441 90.7755C34.3246 90.8709 34.422 90.9461 34.5365 91.0012C34.6509 91.0541 34.7812 91.0806 34.9273 91.0806C35.1117 91.0806 35.2758 91.0435 35.4199 90.9694C35.564 90.8952 35.689 90.7903 35.7949 90.6548L36.1985 91.0456C36.1244 91.1537 36.028 91.2575 35.9093 91.3571C35.7907 91.4545 35.6455 91.534 35.4739 91.5954C35.3045 91.6569 35.1074 91.6876 34.8828 91.6876ZM39.7015 88.9196V91.624H38.9356V88.1855H39.657L39.7015 88.9196ZM39.5648 89.7776L39.317 89.7745C39.3191 89.5308 39.353 89.3073 39.4187 89.1039C39.4864 88.9005 39.5797 88.7258 39.6983 88.5796C39.8191 88.4334 39.9631 88.3211 40.1305 88.2427C40.2979 88.1622 40.4843 88.122 40.6898 88.122C40.8551 88.122 41.0044 88.1453 41.1379 88.1919C41.2735 88.2364 41.389 88.3094 41.4843 88.4111C41.5818 88.5128 41.6559 88.6452 41.7068 88.8084C41.7576 88.9694 41.783 89.1675 41.783 89.4027V91.624H41.014V89.3995C41.014 89.2342 40.9896 89.1039 40.9409 89.0086C40.8943 88.9111 40.8254 88.8423 40.7343 88.802C40.6453 88.7597 40.5341 88.7385 40.4006 88.7385C40.2693 88.7385 40.1517 88.766 40.0479 88.8211C39.9441 88.8762 39.8561 88.9514 39.7841 89.0467C39.7142 89.1421 39.6602 89.2522 39.622 89.3772C39.5839 89.5022 39.5648 89.6357 39.5648 89.7776ZM44.3131 91.6876C44.0589 91.6876 43.829 91.6463 43.6235 91.5636C43.4201 91.4789 43.2464 91.3613 43.1023 91.2109C42.9604 91.0605 42.8513 90.8836 42.775 90.6802C42.6987 90.4768 42.6606 90.2575 42.6606 90.0223V89.8952C42.6606 89.6262 42.6998 89.3825 42.7782 89.1643C42.8566 88.9461 42.9657 88.7597 43.1055 88.605C43.2453 88.4482 43.4106 88.3285 43.6013 88.2459C43.7919 88.1633 43.9985 88.122 44.2209 88.122C44.4667 88.122 44.6817 88.1633 44.8661 88.2459C45.0504 88.3285 45.2029 88.445 45.3237 88.5955C45.4466 88.7438 45.5377 88.9207 45.597 89.1262C45.6584 89.3317 45.6891 89.5584 45.6891 89.8063V90.1336H43.0324V89.5838H44.9328V89.5234C44.9286 89.3857 44.901 89.2565 44.8502 89.1357C44.8014 89.0149 44.7262 88.9175 44.6245 88.8433C44.5229 88.7692 44.3873 88.7321 44.2178 88.7321C44.0907 88.7321 43.9773 88.7597 43.8777 88.8147C43.7803 88.8677 43.6987 88.945 43.633 89.0467C43.5674 89.1484 43.5165 89.2713 43.4805 89.4154C43.4466 89.5573 43.4296 89.7173 43.4296 89.8952V90.0223C43.4296 90.1728 43.4498 90.3126 43.49 90.4418C43.5324 90.569 43.5938 90.6802 43.6743 90.7755C43.7549 90.8709 43.8523 90.9461 43.9667 91.0012C44.0811 91.0541 44.2114 91.0806 44.3576 91.0806C44.5419 91.0806 44.7061 91.0435 44.8502 90.9694C44.9942 90.8952 45.1192 90.7903 45.2252 90.6548L45.6288 91.0456C45.5546 91.1537 45.4582 91.2575 45.3396 91.3571C45.2209 91.4545 45.0758 91.534 44.9042 91.5954C44.7347 91.6569 44.5377 91.6876 44.3131 91.6876ZM47.4533 90.8613L48.2478 88.1855H48.7372L48.6038 88.9863L47.8029 91.624H47.3644L47.4533 90.8613ZM46.9862 88.1855L47.6059 90.874L47.6567 91.624H47.1673L46.2362 88.1855H46.9862ZM49.4809 90.8423L50.0815 88.1855H50.8283L49.9004 91.624H49.411L49.4809 90.8423ZM48.8199 88.1855L49.6048 90.8295L49.7033 91.624H49.2648L48.4544 88.9832L48.3209 88.1855H48.8199ZM55.6374 88.1855H56.3334V91.5287C56.3334 91.838 56.2677 92.1007 56.1363 92.3168C56.005 92.5329 55.8217 92.6971 55.5866 92.8094C55.3514 92.9238 55.0792 92.981 54.7698 92.981C54.6385 92.981 54.4923 92.9619 54.3313 92.9238C54.1724 92.8857 54.0177 92.8242 53.8673 92.7395C53.719 92.6568 53.5951 92.5477 53.4955 92.4121L53.8546 91.9609C53.9775 92.1071 54.1131 92.2141 54.2614 92.2819C54.4097 92.3496 54.5654 92.3835 54.7285 92.3835C54.9044 92.3835 55.0537 92.3507 55.1766 92.285C55.3016 92.2215 55.398 92.1272 55.4658 92.0022C55.5336 91.8772 55.5675 91.7247 55.5675 91.5446V88.9641L55.6374 88.1855ZM53.3016 89.9429V89.8762C53.3016 89.6156 53.3334 89.3783 53.397 89.1643C53.4605 88.9482 53.5516 88.7628 53.6703 88.6082C53.7889 88.4514 53.933 88.3317 54.1025 88.2491C54.272 88.1643 54.4637 88.122 54.6777 88.122C54.9001 88.122 55.0897 88.1622 55.2465 88.2427C55.4054 88.3232 55.5378 88.4387 55.6438 88.5891C55.7497 88.7374 55.8323 88.9154 55.8916 89.123C55.9531 89.3285 55.9986 89.5573 56.0283 89.8094V90.0223C56.0008 90.2681 55.9541 90.4927 55.8885 90.6961C55.8228 90.8995 55.7359 91.0753 55.6279 91.2236C55.5198 91.3719 55.3864 91.4863 55.2275 91.5668C55.0707 91.6473 54.8853 91.6876 54.6713 91.6876C54.4616 91.6876 54.272 91.6442 54.1025 91.5573C53.9351 91.4704 53.791 91.3486 53.6703 91.1918C53.5516 91.035 53.4605 90.8507 53.397 90.6389C53.3334 90.4249 53.3016 90.1929 53.3016 89.9429ZM54.0675 89.8762V89.9429C54.0675 90.0997 54.0823 90.2459 54.112 90.3815C54.1438 90.517 54.1915 90.6367 54.255 90.7406C54.3207 90.8423 54.4033 90.9228 54.5029 90.9821C54.6046 91.0393 54.7243 91.0679 54.862 91.0679C55.0421 91.0679 55.1893 91.0298 55.3037 90.9535C55.4203 90.8772 55.5092 90.7745 55.5707 90.6452C55.6342 90.5139 55.6787 90.3677 55.7041 90.2067V89.6315C55.6914 89.5065 55.665 89.3899 55.6247 89.2819C55.5866 89.1738 55.5347 89.0796 55.469 88.9991C55.4033 88.9164 55.3207 88.8529 55.2211 88.8084C55.1215 88.7618 55.0039 88.7385 54.8684 88.7385C54.7306 88.7385 54.6109 88.7681 54.5092 88.8275C54.4076 88.8868 54.3239 88.9683 54.2582 89.0722C54.1946 89.176 54.147 89.2967 54.1152 89.4344C54.0834 89.5721 54.0675 89.7194 54.0675 89.8762ZM58.1294 88.8402V91.624H57.3635V88.1855H58.0944L58.1294 88.8402ZM59.1812 88.1633L59.1749 88.8751C59.1283 88.8666 59.0774 88.8603 59.0224 88.8561C58.9694 88.8518 58.9164 88.8497 58.8635 88.8497C58.7321 88.8497 58.6166 88.8688 58.5171 88.9069C58.4175 88.9429 58.3338 88.9959 58.266 89.0658C58.2003 89.1336 58.1495 89.2162 58.1135 89.3137C58.0775 89.4111 58.0563 89.5202 58.0499 89.641L57.8751 89.6537C57.8751 89.4376 57.8963 89.2374 57.9387 89.0531C57.9811 88.8688 58.0446 88.7067 58.1294 88.5669C58.2162 88.427 58.3243 88.3179 58.4535 88.2395C58.5849 88.1611 58.7363 88.122 58.9079 88.122C58.9546 88.122 59.0043 88.1262 59.0573 88.1347C59.1124 88.1431 59.1537 88.1527 59.1812 88.1633ZM59.6647 89.9429V89.8698C59.6647 89.6219 59.7008 89.3921 59.7728 89.1802C59.8448 88.9662 59.9486 88.7808 60.0842 88.6241C60.2219 88.4652 60.3893 88.3423 60.5863 88.2554C60.7855 88.1664 61.0101 88.122 61.2601 88.122C61.5122 88.122 61.7368 88.1664 61.9338 88.2554C62.1329 88.3423 62.3014 88.4652 62.4391 88.6241C62.5768 88.7808 62.6817 88.9662 62.7537 89.1802C62.8257 89.3921 62.8617 89.6219 62.8617 89.8698V89.9429C62.8617 90.1908 62.8257 90.4206 62.7537 90.6325C62.6817 90.8444 62.5768 91.0298 62.4391 91.1886C62.3014 91.3454 62.134 91.4683 61.937 91.5573C61.7399 91.6442 61.5164 91.6876 61.2664 91.6876C61.0143 91.6876 60.7887 91.6442 60.5895 91.5573C60.3925 91.4683 60.2251 91.3454 60.0874 91.1886C59.9497 91.0298 59.8448 90.8444 59.7728 90.6325C59.7008 90.4206 59.6647 90.1908 59.6647 89.9429ZM60.4306 89.8698V89.9429C60.4306 90.0976 60.4465 90.2437 60.4783 90.3815C60.5101 90.5192 60.5599 90.6399 60.6277 90.7437C60.6955 90.8476 60.7823 90.9291 60.8882 90.9884C60.9942 91.0478 61.1202 91.0774 61.2664 91.0774C61.4084 91.0774 61.5312 91.0478 61.6351 90.9884C61.741 90.9291 61.8279 90.8476 61.8957 90.7437C61.9634 90.6399 62.0132 90.5192 62.045 90.3815C62.0789 90.2437 62.0959 90.0976 62.0959 89.9429V89.8698C62.0959 89.7173 62.0789 89.5732 62.045 89.4376C62.0132 89.2999 61.9624 89.1781 61.8925 89.0722C61.8247 88.9662 61.7378 88.8836 61.6319 88.8243C61.5281 88.7628 61.4041 88.7321 61.2601 88.7321C61.116 88.7321 60.991 88.7628 60.8851 88.8243C60.7813 88.8836 60.6955 88.9662 60.6277 89.0722C60.5599 89.1781 60.5101 89.2999 60.4783 89.4376C60.4465 89.5732 60.4306 89.7173 60.4306 89.8698ZM65.805 90.8137V88.1855H66.574V91.624H65.8494L65.805 90.8137ZM65.913 90.0986L66.1704 90.0923C66.1704 90.3232 66.145 90.5361 66.0941 90.731C66.0433 90.9238 65.9649 91.0923 65.859 91.2363C65.753 91.3783 65.6175 91.4895 65.4522 91.57C65.2869 91.6484 65.0889 91.6876 64.8579 91.6876C64.6906 91.6876 64.537 91.6632 64.3971 91.6145C64.2573 91.5658 64.1365 91.4906 64.0348 91.3889C63.9353 91.2872 63.8579 91.1548 63.8029 90.9916C63.7478 90.8285 63.7202 90.6336 63.7202 90.4069V88.1855H64.4861V90.4132C64.4861 90.5382 64.5009 90.6431 64.5306 90.7278C64.5603 90.8105 64.6005 90.8772 64.6514 90.9281C64.7022 90.9789 64.7615 91.0149 64.8293 91.0361C64.8971 91.0573 64.9692 91.0679 65.0454 91.0679C65.2636 91.0679 65.4353 91.0255 65.5603 90.9408C65.6874 90.8539 65.7774 90.7374 65.8304 90.5912C65.8855 90.445 65.913 90.2808 65.913 90.0986ZM68.3605 88.8465V92.946H67.5946V88.1855H68.3001L68.3605 88.8465ZM70.6009 89.873V89.9397C70.6009 90.1897 70.5712 90.4217 70.5119 90.6357C70.4547 90.8476 70.3689 91.0329 70.2545 91.1918C70.1422 91.3486 70.0034 91.4704 69.8382 91.5573C69.6729 91.6442 69.4823 91.6876 69.2662 91.6876C69.0522 91.6876 68.8647 91.6484 68.7037 91.57C68.5448 91.4895 68.4102 91.3761 68.3001 91.23C68.1899 91.0838 68.1009 90.9122 68.0331 90.7151C67.9675 90.516 67.9208 90.2978 67.8933 90.0605V89.8031C67.9208 89.551 67.9675 89.3221 68.0331 89.1166C68.1009 88.9111 68.1899 88.7342 68.3001 88.5859C68.4102 88.4376 68.5448 88.3232 68.7037 88.2427C68.8626 88.1622 69.0479 88.122 69.2598 88.122C69.4759 88.122 69.6676 88.1643 69.835 88.2491C70.0024 88.3317 70.1433 88.4503 70.2577 88.605C70.3721 88.7575 70.4579 88.9419 70.5151 89.158C70.5723 89.3719 70.6009 89.6103 70.6009 89.873ZM69.835 89.9397V89.873C69.835 89.7141 69.8202 89.5668 69.7905 89.4313C69.7609 89.2935 69.7142 89.1728 69.6507 89.069C69.5871 88.9652 69.5056 88.8847 69.406 88.8275C69.3085 88.7681 69.191 88.7385 69.0532 88.7385C68.9177 88.7385 68.8011 88.7618 68.7037 88.8084C68.6062 88.8529 68.5246 88.9154 68.459 88.9959C68.3933 89.0764 68.3424 89.1707 68.3064 89.2787C68.2704 89.3846 68.245 89.5001 68.2302 89.6251V90.2416C68.2556 90.3942 68.299 90.534 68.3605 90.6611C68.4219 90.7882 68.5088 90.8899 68.621 90.9662C68.7354 91.0403 68.8816 91.0774 69.0596 91.0774C69.1973 91.0774 69.3149 91.0478 69.4123 90.9884C69.5098 90.9291 69.5893 90.8476 69.6507 90.7437C69.7142 90.6378 69.7609 90.516 69.7905 90.3783C69.8202 90.2406 69.835 90.0944 69.835 89.9397Z" fill="#E6E0E9"/>
<g clip-path="url(#clip3_291_4837)">
<rect x="128.658" y="172.688" width="61.3145" height="19.2977" rx="9.64885" fill="#D0BCFF"/>
<path d="M143.438 182.83H144.233C144.207 183.133 144.122 183.403 143.978 183.64C143.834 183.876 143.632 184.061 143.371 184.197C143.111 184.332 142.794 184.4 142.421 184.4C142.135 184.4 141.878 184.349 141.649 184.247C141.42 184.144 141.224 183.997 141.061 183.809C140.898 183.618 140.773 183.388 140.686 183.119C140.601 182.85 140.559 182.549 140.559 182.217V181.832C140.559 181.5 140.602 181.199 140.689 180.93C140.778 180.661 140.905 180.431 141.07 180.24C141.236 180.047 141.434 179.9 141.665 179.798C141.898 179.697 142.159 179.646 142.45 179.646C142.818 179.646 143.13 179.714 143.384 179.849C143.638 179.985 143.835 180.172 143.975 180.412C144.117 180.651 144.204 180.925 144.236 181.235H143.441C143.42 181.036 143.373 180.865 143.301 180.723C143.231 180.581 143.128 180.473 142.99 180.399C142.852 180.323 142.672 180.285 142.45 180.285C142.268 180.285 142.109 180.318 141.973 180.386C141.837 180.454 141.724 180.554 141.633 180.685C141.542 180.816 141.473 180.978 141.426 181.171C141.382 181.362 141.36 181.58 141.36 181.826V182.217C141.36 182.45 141.38 182.662 141.42 182.852C141.462 183.041 141.526 183.203 141.611 183.339C141.698 183.474 141.808 183.579 141.941 183.653C142.075 183.727 142.235 183.764 142.421 183.764C142.648 183.764 142.831 183.728 142.971 183.656C143.113 183.584 143.22 183.479 143.292 183.342C143.366 183.202 143.415 183.031 143.438 182.83ZM145.696 181.553V184.336H144.93V180.898H145.661L145.696 181.553ZM146.748 180.876L146.742 181.588C146.695 181.579 146.644 181.573 146.589 181.568C146.536 181.564 146.483 181.562 146.43 181.562C146.299 181.562 146.184 181.581 146.084 181.619C145.985 181.655 145.901 181.708 145.833 181.778C145.767 181.846 145.716 181.929 145.68 182.026C145.644 182.124 145.623 182.233 145.617 182.353L145.442 182.366C145.442 182.15 145.463 181.95 145.506 181.765C145.548 181.581 145.612 181.419 145.696 181.279C145.783 181.139 145.891 181.03 146.021 180.952C146.152 180.874 146.303 180.834 146.475 180.834C146.522 180.834 146.571 180.839 146.624 180.847C146.679 180.856 146.721 180.865 146.748 180.876ZM148.727 184.4C148.473 184.4 148.243 184.359 148.037 184.276C147.834 184.191 147.66 184.074 147.516 183.923C147.374 183.773 147.265 183.596 147.189 183.393C147.113 183.189 147.074 182.97 147.074 182.735V182.608C147.074 182.339 147.114 182.095 147.192 181.877C147.27 181.658 147.379 181.472 147.519 181.317C147.659 181.161 147.824 181.041 148.015 180.958C148.206 180.876 148.412 180.834 148.635 180.834C148.881 180.834 149.096 180.876 149.28 180.958C149.464 181.041 149.617 181.157 149.738 181.308C149.86 181.456 149.951 181.633 150.011 181.839C150.072 182.044 150.103 182.271 150.103 182.519V182.846H147.446V182.296H149.347V182.236C149.342 182.098 149.315 181.969 149.264 181.848C149.215 181.727 149.14 181.63 149.038 181.556C148.937 181.482 148.801 181.445 148.632 181.445C148.504 181.445 148.391 181.472 148.292 181.527C148.194 181.58 148.113 181.657 148.047 181.759C147.981 181.861 147.93 181.984 147.894 182.128C147.86 182.27 147.843 182.43 147.843 182.608V182.735C147.843 182.885 147.864 183.025 147.904 183.154C147.946 183.281 148.008 183.393 148.088 183.488C148.169 183.583 148.266 183.658 148.381 183.714C148.495 183.767 148.625 183.793 148.771 183.793C148.956 183.793 149.12 183.756 149.264 183.682C149.408 183.608 149.533 183.503 149.639 183.367L150.043 183.758C149.968 183.866 149.872 183.97 149.753 184.069C149.635 184.167 149.49 184.246 149.318 184.308C149.149 184.369 148.952 184.4 148.727 184.4ZM152.685 183.647V182.007C152.685 181.884 152.663 181.778 152.619 181.689C152.574 181.6 152.506 181.531 152.415 181.483C152.326 181.434 152.214 181.41 152.078 181.41C151.953 181.41 151.845 181.431 151.754 181.473C151.663 181.515 151.592 181.573 151.541 181.645C151.491 181.717 151.465 181.798 151.465 181.889H150.702C150.702 181.754 150.735 181.622 150.801 181.495C150.867 181.368 150.962 181.255 151.087 181.155C151.212 181.056 151.361 180.977 151.535 180.92C151.709 180.863 151.904 180.834 152.12 180.834C152.378 180.834 152.607 180.878 152.806 180.965C153.007 181.052 153.165 181.183 153.28 181.359C153.396 181.532 153.454 181.751 153.454 182.013V183.542C153.454 183.699 153.465 183.84 153.486 183.965C153.51 184.087 153.542 184.194 153.585 184.286V184.336H152.8C152.764 184.254 152.735 184.149 152.714 184.022C152.695 183.893 152.685 183.768 152.685 183.647ZM152.797 182.245L152.803 182.719H152.253C152.111 182.719 151.986 182.733 151.878 182.76C151.77 182.786 151.68 182.824 151.608 182.875C151.536 182.925 151.482 182.987 151.446 183.059C151.41 183.131 151.392 183.213 151.392 183.304C151.392 183.395 151.413 183.478 151.456 183.555C151.498 183.629 151.559 183.687 151.64 183.729C151.723 183.772 151.822 183.793 151.939 183.793C152.095 183.793 152.232 183.761 152.349 183.698C152.467 183.632 152.56 183.553 152.628 183.459C152.696 183.364 152.732 183.274 152.736 183.189L152.984 183.529C152.959 183.616 152.915 183.709 152.854 183.809C152.792 183.908 152.712 184.004 152.612 184.095C152.515 184.184 152.397 184.257 152.26 184.314C152.124 184.371 151.967 184.4 151.789 184.4C151.565 184.4 151.364 184.355 151.189 184.267C151.013 184.175 150.875 184.054 150.776 183.901C150.676 183.746 150.626 183.572 150.626 183.377C150.626 183.194 150.66 183.033 150.728 182.894C150.798 182.752 150.899 182.633 151.033 182.538C151.169 182.442 151.334 182.37 151.529 182.322C151.724 182.271 151.946 182.245 152.196 182.245H152.797ZM155.878 180.898V181.457H153.94V180.898H155.878ZM154.499 180.056H155.265V183.386C155.265 183.492 155.28 183.574 155.309 183.631C155.341 183.686 155.384 183.723 155.44 183.742C155.495 183.761 155.559 183.771 155.633 183.771C155.686 183.771 155.737 183.768 155.786 183.761C155.835 183.755 155.874 183.749 155.903 183.742L155.907 184.327C155.843 184.346 155.769 184.363 155.684 184.378C155.602 184.393 155.506 184.4 155.398 184.4C155.222 184.4 155.067 184.369 154.931 184.308C154.795 184.244 154.69 184.142 154.613 184C154.537 183.858 154.499 183.669 154.499 183.434V180.056ZM158.032 184.4C157.777 184.4 157.547 184.359 157.342 184.276C157.139 184.191 156.965 184.074 156.821 183.923C156.679 183.773 156.57 183.596 156.493 183.393C156.417 183.189 156.379 182.97 156.379 182.735V182.608C156.379 182.339 156.418 182.095 156.497 181.877C156.575 181.658 156.684 181.472 156.824 181.317C156.964 181.161 157.129 181.041 157.32 180.958C157.51 180.876 157.717 180.834 157.939 180.834C158.185 180.834 158.4 180.876 158.584 180.958C158.769 181.041 158.921 181.157 159.042 181.308C159.165 181.456 159.256 181.633 159.315 181.839C159.377 182.044 159.408 182.271 159.408 182.519V182.846H156.751V182.296H158.651V182.236C158.647 182.098 158.619 181.969 158.569 181.848C158.52 181.727 158.445 181.63 158.343 181.556C158.241 181.482 158.106 181.445 157.936 181.445C157.809 181.445 157.696 181.472 157.596 181.527C157.499 181.58 157.417 181.657 157.351 181.759C157.286 181.861 157.235 181.984 157.199 182.128C157.165 182.27 157.148 182.43 157.148 182.608V182.735C157.148 182.885 157.168 183.025 157.208 183.154C157.251 183.281 157.312 183.393 157.393 183.488C157.473 183.583 157.571 183.658 157.685 183.714C157.8 183.767 157.93 183.793 158.076 183.793C158.26 183.793 158.425 183.756 158.569 183.682C158.713 183.608 158.838 183.503 158.944 183.367L159.347 183.758C159.273 183.866 159.177 183.97 159.058 184.069C158.939 184.167 158.794 184.246 158.623 184.308C158.453 184.369 158.256 184.4 158.032 184.4ZM163.921 180.898H164.617V184.241C164.617 184.55 164.551 184.813 164.42 185.029C164.289 185.245 164.105 185.41 163.87 185.522C163.635 185.636 163.363 185.693 163.053 185.693C162.922 185.693 162.776 185.674 162.615 185.636C162.456 185.598 162.301 185.537 162.151 185.452C162.003 185.369 161.879 185.26 161.779 185.125L162.138 184.673C162.261 184.819 162.397 184.926 162.545 184.994C162.693 185.062 162.849 185.096 163.012 185.096C163.188 185.096 163.337 185.063 163.46 184.997C163.585 184.934 163.682 184.84 163.749 184.715C163.817 184.59 163.851 184.437 163.851 184.257V181.677L163.921 180.898ZM161.585 182.655V182.589C161.585 182.328 161.617 182.091 161.681 181.877C161.744 181.661 161.835 181.475 161.954 181.321C162.073 181.164 162.217 181.044 162.386 180.961C162.556 180.877 162.747 180.834 162.961 180.834C163.184 180.834 163.373 180.875 163.53 180.955C163.689 181.036 163.821 181.151 163.927 181.302C164.033 181.45 164.116 181.628 164.175 181.835C164.237 182.041 164.282 182.27 164.312 182.522V182.735C164.284 182.981 164.238 183.205 164.172 183.408C164.106 183.612 164.02 183.788 163.912 183.936C163.803 184.084 163.67 184.199 163.511 184.279C163.354 184.36 163.169 184.4 162.955 184.4C162.745 184.4 162.556 184.357 162.386 184.27C162.219 184.183 162.075 184.061 161.954 183.904C161.835 183.747 161.744 183.563 161.681 183.351C161.617 183.137 161.585 182.905 161.585 182.655ZM162.351 182.589V182.655C162.351 182.812 162.366 182.958 162.396 183.094C162.427 183.229 162.475 183.349 162.539 183.453C162.604 183.555 162.687 183.635 162.787 183.694C162.888 183.752 163.008 183.78 163.146 183.78C163.326 183.78 163.473 183.742 163.587 183.666C163.704 183.59 163.793 183.487 163.854 183.358C163.918 183.226 163.962 183.08 163.988 182.919V182.344C163.975 182.219 163.949 182.102 163.908 181.994C163.87 181.886 163.818 181.792 163.753 181.711C163.687 181.629 163.604 181.565 163.505 181.521C163.405 181.474 163.288 181.451 163.152 181.451C163.014 181.451 162.895 181.481 162.793 181.54C162.691 181.599 162.607 181.681 162.542 181.785C162.478 181.888 162.431 182.009 162.399 182.147C162.367 182.285 162.351 182.432 162.351 182.589ZM166.227 181.553V184.336H165.461V180.898H166.192L166.227 181.553ZM167.279 180.876L167.273 181.588C167.226 181.579 167.175 181.573 167.12 181.568C167.067 181.564 167.014 181.562 166.961 181.562C166.83 181.562 166.714 181.581 166.615 181.619C166.515 181.655 166.431 181.708 166.364 181.778C166.298 181.846 166.247 181.929 166.211 182.026C166.175 182.124 166.154 182.233 166.148 182.353L165.973 182.366C165.973 182.15 165.994 181.95 166.036 181.765C166.079 181.581 166.142 181.419 166.227 181.279C166.314 181.139 166.422 181.03 166.551 180.952C166.683 180.874 166.834 180.834 167.006 180.834C167.052 180.834 167.102 180.839 167.155 180.847C167.21 180.856 167.251 180.865 167.279 180.876ZM167.576 182.655V182.582C167.576 182.334 167.612 182.104 167.685 181.893C167.757 181.679 167.86 181.493 167.996 181.336C168.134 181.178 168.301 181.055 168.498 180.968C168.697 180.879 168.922 180.834 169.172 180.834C169.424 180.834 169.648 180.879 169.846 180.968C170.045 181.055 170.213 181.178 170.351 181.336C170.489 181.493 170.593 181.679 170.665 181.893C170.737 182.104 170.773 182.334 170.773 182.582V182.655C170.773 182.903 170.737 183.133 170.665 183.345C170.593 183.557 170.489 183.742 170.351 183.901C170.213 184.058 170.046 184.181 169.849 184.27C169.652 184.357 169.428 184.4 169.178 184.4C168.926 184.4 168.7 184.357 168.501 184.27C168.304 184.181 168.137 184.058 167.999 183.901C167.861 183.742 167.757 183.557 167.685 183.345C167.612 183.133 167.576 182.903 167.576 182.655ZM168.342 182.582V182.655C168.342 182.81 168.358 182.956 168.39 183.094C168.422 183.232 168.472 183.352 168.539 183.456C168.607 183.56 168.694 183.642 168.8 183.701C168.906 183.76 169.032 183.79 169.178 183.79C169.32 183.79 169.443 183.76 169.547 183.701C169.653 183.642 169.74 183.56 169.807 183.456C169.875 183.352 169.925 183.232 169.957 183.094C169.991 182.956 170.008 182.81 170.008 182.655V182.582C170.008 182.43 169.991 182.286 169.957 182.15C169.925 182.012 169.874 181.89 169.804 181.785C169.736 181.679 169.65 181.596 169.544 181.537C169.44 181.475 169.316 181.445 169.172 181.445C169.028 181.445 168.903 181.475 168.797 181.537C168.693 181.596 168.607 181.679 168.539 181.785C168.472 181.89 168.422 182.012 168.39 182.15C168.358 182.286 168.342 182.43 168.342 182.582ZM173.531 183.526V180.898H174.3V184.336H173.575L173.531 183.526ZM173.639 182.811L173.896 182.805C173.896 183.036 173.871 183.249 173.82 183.443C173.769 183.636 173.691 183.805 173.585 183.949C173.479 184.091 173.343 184.202 173.178 184.282C173.013 184.361 172.815 184.4 172.584 184.4C172.416 184.4 172.263 184.376 172.123 184.327C171.983 184.278 171.862 184.203 171.761 184.101C171.661 184 171.584 183.867 171.529 183.704C171.474 183.541 171.446 183.346 171.446 183.119V180.898H172.212V183.126C172.212 183.251 172.227 183.356 172.256 183.44C172.286 183.523 172.326 183.59 172.377 183.64C172.428 183.691 172.487 183.727 172.555 183.749C172.623 183.77 172.695 183.78 172.771 183.78C172.989 183.78 173.161 183.738 173.286 183.653C173.413 183.566 173.503 183.45 173.556 183.304C173.611 183.157 173.639 182.993 173.639 182.811ZM175.9 181.559V185.658H175.134V180.898H175.84L175.9 181.559ZM178.141 182.585V182.652C178.141 182.902 178.111 183.134 178.052 183.348C177.995 183.56 177.909 183.745 177.794 183.904C177.682 184.061 177.543 184.183 177.378 184.27C177.213 184.357 177.022 184.4 176.806 184.4C176.592 184.4 176.404 184.361 176.243 184.282C176.085 184.202 175.95 184.089 175.84 183.942C175.73 183.796 175.641 183.625 175.573 183.428C175.507 183.228 175.461 183.01 175.433 182.773V182.515C175.461 182.263 175.507 182.035 175.573 181.829C175.641 181.624 175.73 181.447 175.84 181.298C175.95 181.15 176.085 181.036 176.243 180.955C176.402 180.875 176.588 180.834 176.8 180.834C177.016 180.834 177.207 180.877 177.375 180.961C177.542 181.044 177.683 181.163 177.797 181.317C177.912 181.47 177.998 181.654 178.055 181.87C178.112 182.084 178.141 182.323 178.141 182.585ZM177.375 182.652V182.585C177.375 182.426 177.36 182.279 177.33 182.144C177.301 182.006 177.254 181.885 177.191 181.781C177.127 181.678 177.045 181.597 176.946 181.54C176.848 181.481 176.731 181.451 176.593 181.451C176.457 181.451 176.341 181.474 176.243 181.521C176.146 181.565 176.064 181.628 175.999 181.708C175.933 181.789 175.882 181.883 175.846 181.991C175.81 182.097 175.785 182.213 175.77 182.338V182.954C175.795 183.107 175.839 183.246 175.9 183.374C175.962 183.501 176.049 183.602 176.161 183.679C176.275 183.753 176.421 183.79 176.599 183.79C176.737 183.79 176.855 183.76 176.952 183.701C177.05 183.642 177.129 183.56 177.191 183.456C177.254 183.35 177.301 183.228 177.33 183.091C177.36 182.953 177.375 182.807 177.375 182.652Z" fill="#381E72"/>
</g>
</g>
<path fill-rule="evenodd" clip-rule="evenodd" d="M21.6005 2.20361C10.8876 2.20361 2.20312 10.8882 2.20312 21.6011V417.044C2.20312 427.757 10.8876 436.441 21.6005 436.441H184.274C194.987 436.441 203.672 427.757 203.672 417.044V21.601C203.672 10.8881 194.987 2.20361 184.274 2.20361H21.6005ZM24.6859 8.37549C15.4339 8.37549 7.93359 15.8758 7.93359 25.1278V413.517C7.93359 422.769 15.4339 430.269 24.6859 430.269H181.188C190.44 430.269 197.94 422.769 197.94 413.517V25.1278C197.94 15.8758 190.44 8.37549 181.188 8.37549H24.6859Z" fill="#020202"/>
<g filter="url(#filter0_f_291_4837)">
<rect x="4.84905" y="4.84905" width="196.178" height="428.947" rx="18.9566" stroke="#6C6C6C" stroke-width="0.881701"/>
</g>
<circle cx="102.939" cy="16.0913" r="4.58793" fill="url(#paint0_radial_291_4837)" stroke="black" stroke-width="0.963707"/>
<path d="M205.877 163.114H206.759C207.489 163.114 208.081 163.706 208.081 164.437V190.888C208.081 191.618 207.489 192.21 206.759 192.21H205.877V163.114Z" fill="url(#paint1_linear_291_4837)"/>
<path d="M205.877 70.5356H206.759C207.489 70.5356 208.081 71.1278 208.081 71.8582V124.319C208.081 125.05 207.489 125.642 206.759 125.642H205.877V70.5356Z" fill="url(#paint2_linear_291_4837)"/>
</g>
<defs>
<filter id="filter0_f_291_4837" x="2.6448" y="2.6448" width="200.587" height="433.356" filterUnits="userSpaceOnUse" color-interpolation-filters="sRGB">
<feFlood flood-opacity="0" result="BackgroundImageFix"/>
<feBlend mode="normal" in="SourceGraphic" in2="BackgroundImageFix" result="shape"/>
<feGaussianBlur stdDeviation="0.881701" result="effect1_foregroundBlur_291_4837"/>
</filter>
<radialGradient id="paint0_radial_291_4837" cx="0" cy="0" r="1" gradientUnits="userSpaceOnUse" gradientTransform="translate(102.057 14.7687) rotate(46.3322) scale(6.70397)">
<stop stop-color="#262A39"/>
<stop offset="0.660416"/>
</radialGradient>
<linearGradient id="paint1_linear_291_4837" x1="206.318" y1="192.21" x2="209.183" y2="192.21" gradientUnits="userSpaceOnUse">
<stop/>
<stop offset="1" stop-color="white"/>
</linearGradient>
<linearGradient id="paint2_linear_291_4837" x1="206.318" y1="125.642" x2="209.183" y2="125.642" gradientUnits="userSpaceOnUse">
<stop/>
<stop offset="1" stop-color="white"/>
</linearGradient>
<clipPath id="clip0_291_4837">
<rect width="208" height="439" fill="white"/>
</clipPath>
<clipPath id="clip1_291_4837">
<rect x="7" y="8" width="191.25" height="425" rx="10" fill="white"/>
</clipPath>
<clipPath id="clip2_291_4837">
<rect x="10.5781" y="47.5039" width="18.5954" height="18.5954" rx="9.2977" fill="white"/>
</clipPath>
<clipPath id="clip3_291_4837">
<rect x="128.658" y="172.688" width="61.3145" height="19.2977" rx="9.64885" fill="white"/>
</clipPath>
</defs>
</svg>
