<svg width="208" height="439" viewBox="0 0 208 439" fill="none" xmlns="http://www.w3.org/2000/svg">
<g clip-path="url(#clip0_291_4800)">
<rect x="0.44085" y="0.44085" width="204.995" height="437.764" rx="22.0425" fill="#B1B1B1" stroke="#414141" stroke-width="0.881701"/>
<rect x="7" y="5.77783" width="192" height="426.667" rx="7.92233" fill="#2E2B32"/>
<path d="M55.137 121.165V134.417H52.6339V121.165H55.137ZM62.5514 124.569V126.298H56.9082V124.569H62.5514ZM58.4191 122.148H60.8311V131.577C60.8311 131.868 60.8706 132.093 60.9495 132.251C61.0283 132.408 61.1467 132.515 61.3044 132.569C61.4622 132.624 61.6503 132.651 61.8688 132.651C62.0265 132.651 62.1722 132.642 62.3057 132.624C62.4391 132.606 62.5514 132.588 62.6424 132.569L62.6515 134.371C62.4513 134.438 62.2237 134.493 61.9689 134.535C61.7201 134.578 61.4379 134.599 61.1224 134.599C60.5823 134.599 60.109 134.508 59.7025 134.326C59.2959 134.138 58.9804 133.838 58.7559 133.425C58.5314 133.006 58.4191 132.454 58.4191 131.768V122.148ZM66.7256 120.436V121.774C66.7256 122.157 66.6527 122.557 66.5071 122.976C66.3675 123.388 66.1734 123.783 65.9246 124.159C65.6819 124.529 65.4058 124.848 65.0963 125.115L63.9313 124.414C64.174 124.044 64.3712 123.649 64.5229 123.231C64.6806 122.806 64.7595 122.324 64.7595 121.783V120.436H66.7256ZM72.711 131.723C72.711 131.517 72.6564 131.331 72.5472 131.168C72.4379 131.004 72.2316 130.855 71.9282 130.722C71.6309 130.582 71.194 130.452 70.6175 130.33C70.1078 130.221 69.6376 130.084 69.2067 129.921C68.7759 129.757 68.4058 129.56 68.0963 129.329C67.7868 129.092 67.5441 128.816 67.3682 128.501C67.1982 128.179 67.1133 127.809 67.1133 127.39C67.1133 126.984 67.2013 126.601 67.3773 126.243C67.5532 125.879 67.8081 125.561 68.1418 125.288C68.4756 125.009 68.8821 124.79 69.3615 124.632C69.8408 124.469 70.3809 124.387 70.9816 124.387C71.819 124.387 72.5381 124.523 73.1388 124.796C73.7456 125.069 74.2098 125.446 74.5314 125.925C74.853 126.398 75.0138 126.932 75.0138 127.527H72.6109C72.6109 127.266 72.5502 127.029 72.4288 126.817C72.3135 126.604 72.1345 126.435 71.8918 126.307C71.6491 126.174 71.3427 126.107 70.9725 126.107C70.6388 126.107 70.3566 126.162 70.126 126.271C69.9015 126.38 69.7316 126.523 69.6163 126.699C69.501 126.875 69.4434 127.069 69.4434 127.281C69.4434 127.439 69.4737 127.581 69.5344 127.709C69.6012 127.83 69.7073 127.942 69.853 128.046C69.9986 128.149 70.1958 128.243 70.4446 128.328C70.6995 128.413 71.012 128.495 71.3821 128.574C72.1163 128.719 72.7565 128.913 73.3026 129.156C73.8548 129.393 74.2856 129.708 74.5951 130.103C74.9046 130.497 75.0593 131.001 75.0593 131.614C75.0593 132.05 74.9652 132.451 74.7771 132.815C74.589 133.173 74.316 133.486 73.958 133.753C73.5999 134.02 73.1722 134.229 72.6746 134.381C72.177 134.526 71.6157 134.599 70.9907 134.599C70.0866 134.599 69.322 134.438 68.697 134.117C68.072 133.789 67.5987 133.376 67.2771 132.879C66.9555 132.375 66.7947 131.853 66.7947 131.313H69.0975C69.1157 131.696 69.2189 132.002 69.407 132.233C69.5951 132.463 69.8317 132.63 70.1169 132.733C70.4082 132.83 70.7146 132.879 71.0362 132.879C71.4003 132.879 71.7067 132.83 71.9555 132.733C72.2043 132.63 72.3924 132.493 72.5198 132.324C72.6473 132.148 72.711 131.947 72.711 131.723ZM87.4215 132.324V127.782C87.4215 127.448 87.3639 127.16 87.2486 126.917C87.1333 126.674 86.9573 126.486 86.7207 126.353C86.484 126.219 86.1837 126.152 85.8196 126.152C85.498 126.152 85.2158 126.207 84.9731 126.316C84.7365 126.425 84.5544 126.58 84.427 126.78C84.2996 126.975 84.2359 127.199 84.2359 127.454H81.8239C81.8239 127.047 81.9209 126.662 82.1151 126.298C82.3093 125.928 82.5854 125.6 82.9434 125.315C83.3075 125.024 83.7413 124.796 84.245 124.632C84.7547 124.469 85.3251 124.387 85.9561 124.387C86.7025 124.387 87.3669 124.514 87.9495 124.769C88.5381 125.018 88.9992 125.394 89.333 125.898C89.6728 126.401 89.8427 127.035 89.8427 127.8V132.096C89.8427 132.588 89.873 133.009 89.9337 133.361C90.0004 133.707 90.0975 134.007 90.2249 134.262V134.417H87.7765C87.6612 134.168 87.5732 133.853 87.5126 133.47C87.4519 133.082 87.4215 132.7 87.4215 132.324ZM87.7583 128.419L87.7765 129.848H86.2565C85.8803 129.848 85.5496 129.887 85.2644 129.966C84.9792 130.039 84.7456 130.148 84.5635 130.294C84.3815 130.433 84.245 130.603 84.154 130.804C84.0629 130.998 84.0174 131.219 84.0174 131.468C84.0174 131.711 84.072 131.929 84.1813 132.123C84.2965 132.317 84.4604 132.472 84.6728 132.588C84.8912 132.697 85.1461 132.751 85.4373 132.751C85.8621 132.751 86.2322 132.666 86.5478 132.496C86.8633 132.321 87.109 132.108 87.285 131.859C87.461 131.611 87.555 131.374 87.5672 131.149L88.2589 132.187C88.174 132.436 88.0465 132.7 87.8766 132.979C87.7067 133.258 87.4883 133.519 87.2213 133.762C86.9543 134.004 86.6327 134.205 86.2565 134.362C85.8803 134.52 85.4434 134.599 84.9458 134.599C84.3087 134.599 83.7383 134.472 83.2347 134.217C82.731 133.962 82.3336 133.613 82.0423 133.17C81.751 132.727 81.6054 132.223 81.6054 131.659C81.6054 131.137 81.7025 130.676 81.8967 130.276C82.0908 129.875 82.3791 129.538 82.7614 129.265C83.1436 128.986 83.6169 128.777 84.1813 128.637C84.7516 128.492 85.404 128.419 86.1382 128.419H87.7583ZM99.5107 126.589V134.417H97.1078V124.569H99.3742L99.5107 126.589ZM99.1558 129.138H98.4185C98.4185 128.452 98.5004 127.821 98.6643 127.245C98.8342 126.668 99.083 126.168 99.4106 125.743C99.7383 125.312 100.142 124.978 100.621 124.742C101.107 124.505 101.668 124.387 102.305 124.387C102.748 124.387 103.155 124.453 103.525 124.587C103.895 124.714 104.213 124.918 104.48 125.197C104.753 125.47 104.963 125.828 105.108 126.271C105.254 126.708 105.327 127.233 105.327 127.845V134.417H102.924V128.091C102.924 127.63 102.857 127.269 102.724 127.008C102.596 126.747 102.411 126.565 102.169 126.462C101.926 126.353 101.635 126.298 101.295 126.298C100.919 126.298 100.594 126.374 100.321 126.526C100.054 126.671 99.8323 126.875 99.6564 127.135C99.4865 127.396 99.359 127.697 99.2741 128.037C99.1952 128.376 99.1558 128.743 99.1558 129.138ZM105.145 128.692L104.153 128.874C104.159 128.255 104.244 127.675 104.408 127.135C104.571 126.589 104.811 126.113 105.127 125.706C105.448 125.294 105.846 124.972 106.319 124.742C106.798 124.505 107.351 124.387 107.976 124.387C108.461 124.387 108.898 124.456 109.286 124.596C109.681 124.729 110.017 124.945 110.297 125.242C110.576 125.533 110.788 125.913 110.934 126.38C111.085 126.847 111.161 127.418 111.161 128.091V134.417H108.74V128.082C108.74 127.603 108.673 127.236 108.54 126.981C108.412 126.726 108.227 126.55 107.985 126.453C107.742 126.35 107.457 126.298 107.129 126.298C106.795 126.298 106.504 126.362 106.255 126.489C106.013 126.611 105.806 126.78 105.636 126.999C105.473 127.217 105.348 127.472 105.263 127.763C105.184 128.049 105.145 128.358 105.145 128.692ZM118.976 132.324V127.782C118.976 127.448 118.919 127.16 118.803 126.917C118.688 126.674 118.512 126.486 118.275 126.353C118.039 126.219 117.738 126.152 117.374 126.152C117.053 126.152 116.77 126.207 116.528 126.316C116.291 126.425 116.109 126.58 115.982 126.78C115.854 126.975 115.79 127.199 115.79 127.454H113.378C113.378 127.047 113.476 126.662 113.67 126.298C113.864 125.928 114.14 125.6 114.498 125.315C114.862 125.024 115.296 124.796 115.8 124.632C116.309 124.469 116.88 124.387 117.511 124.387C118.257 124.387 118.922 124.514 119.504 124.769C120.093 125.018 120.554 125.394 120.888 125.898C121.227 126.401 121.397 127.035 121.397 127.8V132.096C121.397 132.588 121.428 133.009 121.488 133.361C121.555 133.707 121.652 134.007 121.78 134.262V134.417H119.331C119.216 134.168 119.128 133.853 119.067 133.47C119.007 133.082 118.976 132.7 118.976 132.324ZM119.313 128.419L119.331 129.848H117.811C117.435 129.848 117.104 129.887 116.819 129.966C116.534 130.039 116.3 130.148 116.118 130.294C115.936 130.433 115.8 130.603 115.709 130.804C115.618 130.998 115.572 131.219 115.572 131.468C115.572 131.711 115.627 131.929 115.736 132.123C115.851 132.317 116.015 132.472 116.227 132.588C116.446 132.697 116.701 132.751 116.992 132.751C117.417 132.751 117.787 132.666 118.102 132.496C118.418 132.321 118.664 132.108 118.84 131.859C119.016 131.611 119.11 131.374 119.122 131.149L119.814 132.187C119.729 132.436 119.601 132.7 119.431 132.979C119.261 133.258 119.043 133.519 118.776 133.762C118.509 134.004 118.187 134.205 117.811 134.362C117.435 134.52 116.998 134.599 116.5 134.599C115.863 134.599 115.293 134.472 114.789 134.217C114.286 133.962 113.888 133.613 113.597 133.17C113.306 132.727 113.16 132.223 113.16 131.659C113.16 131.137 113.257 130.676 113.451 130.276C113.645 129.875 113.934 129.538 114.316 129.265C114.698 128.986 115.172 128.777 115.736 128.637C116.306 128.492 116.959 128.419 117.693 128.419H119.313ZM128.457 124.569V126.298H122.814V124.569H128.457ZM124.324 122.148H126.736V131.577C126.736 131.868 126.776 132.093 126.855 132.251C126.934 132.408 127.052 132.515 127.21 132.569C127.368 132.624 127.556 132.651 127.774 132.651C127.932 132.651 128.078 132.642 128.211 132.624C128.344 132.606 128.457 132.588 128.548 132.569L128.557 134.371C128.357 134.438 128.129 134.493 127.874 134.535C127.625 134.578 127.343 134.599 127.028 134.599C126.488 134.599 126.014 134.508 125.608 134.326C125.201 134.138 124.886 133.838 124.661 133.425C124.437 133.006 124.324 132.454 124.324 131.768V122.148ZM134.333 132.706C134.673 132.706 134.976 132.639 135.243 132.506C135.51 132.372 135.723 132.184 135.88 131.941C136.044 131.699 136.132 131.416 136.144 131.095H138.411C138.399 131.762 138.21 132.36 137.846 132.888C137.482 133.416 136.997 133.834 136.39 134.144C135.789 134.447 135.116 134.599 134.369 134.599C133.611 134.599 132.949 134.472 132.385 134.217C131.821 133.962 131.351 133.607 130.974 133.152C130.604 132.697 130.325 132.169 130.137 131.568C129.955 130.967 129.864 130.324 129.864 129.638V129.347C129.864 128.662 129.955 128.018 130.137 127.418C130.325 126.817 130.604 126.289 130.974 125.834C131.351 125.379 131.821 125.024 132.385 124.769C132.949 124.514 133.608 124.387 134.36 124.387C135.155 124.387 135.853 124.541 136.454 124.851C137.061 125.16 137.534 125.597 137.874 126.162C138.219 126.726 138.399 127.39 138.411 128.155H136.144C136.132 127.803 136.053 127.487 135.908 127.208C135.762 126.929 135.556 126.705 135.289 126.535C135.022 126.365 134.697 126.28 134.315 126.28C133.908 126.28 133.568 126.365 133.295 126.535C133.028 126.705 132.819 126.938 132.667 127.236C132.522 127.527 132.419 127.854 132.358 128.219C132.303 128.577 132.276 128.953 132.276 129.347V129.638C132.276 130.039 132.303 130.421 132.358 130.785C132.419 131.149 132.522 131.477 132.667 131.768C132.819 132.054 133.028 132.281 133.295 132.451C133.568 132.621 133.914 132.706 134.333 132.706ZM142.603 120.436V134.417H140.191V120.436H142.603ZM142.221 129.138H141.511C141.511 128.452 141.602 127.821 141.784 127.245C141.966 126.668 142.224 126.168 142.557 125.743C142.891 125.312 143.289 124.978 143.75 124.742C144.217 124.505 144.733 124.387 145.297 124.387C145.783 124.387 146.223 124.456 146.617 124.596C147.017 124.729 147.36 124.945 147.645 125.242C147.931 125.54 148.149 125.928 148.301 126.407C148.459 126.881 148.537 127.457 148.537 128.137V134.417H146.116V128.118C146.116 127.663 146.05 127.305 145.916 127.044C145.783 126.777 145.591 126.586 145.343 126.471C145.1 126.356 144.8 126.298 144.442 126.298C144.053 126.298 143.719 126.374 143.44 126.526C143.161 126.671 142.931 126.875 142.749 127.135C142.573 127.396 142.439 127.697 142.348 128.037C142.263 128.376 142.221 128.743 142.221 129.138ZM153.631 121.165L153.367 130.439H151.337L151.073 121.165H153.631ZM151 133.297C151 132.939 151.122 132.639 151.365 132.396C151.613 132.148 151.947 132.023 152.366 132.023C152.784 132.023 153.115 132.148 153.358 132.396C153.607 132.639 153.731 132.939 153.731 133.297C153.731 133.649 153.607 133.947 153.358 134.189C153.115 134.432 152.784 134.554 152.366 134.554C151.947 134.554 151.613 134.432 151.365 134.189C151.122 133.947 151 133.649 151 133.297Z" fill="#E6E0E9"/>
<mask id="mask0_291_4800" style="mask-type:alpha" maskUnits="userSpaceOnUse" x="69" y="198" width="58" height="58">
<rect x="69.4473" y="198.845" width="56.828" height="56.828" fill="#D9D9D9"/>
</mask>
<g mask="url(#mask0_291_4800)">
<path d="M74.1836 250.937L86.0228 217.787L107.333 239.098L74.1836 250.937ZM103.9 228.561L101.414 226.075L114.674 212.815C115.936 211.552 117.456 210.921 119.232 210.921C121.007 210.921 122.527 211.552 123.79 212.815L125.21 214.236L122.724 216.722L121.303 215.301C120.751 214.749 120.06 214.472 119.232 214.472C118.403 214.472 117.712 214.749 117.16 215.301L103.9 228.561ZM94.4286 219.09L91.9423 216.603L93.363 215.183C93.9155 214.63 94.1918 213.959 94.1918 213.17C94.1918 212.381 93.9155 211.71 93.363 211.157L91.8239 209.618L94.3102 207.132L95.8493 208.671C97.1121 209.934 97.7435 211.434 97.7435 213.17C97.7435 214.907 97.1121 216.406 95.8493 217.669L94.4286 219.09ZM99.1642 223.825L96.678 221.339L105.202 212.815C105.755 212.262 106.031 211.572 106.031 210.743C106.031 209.914 105.755 209.224 105.202 208.671L101.414 204.883L103.9 202.396L107.688 206.185C108.951 207.448 109.583 208.967 109.583 210.743C109.583 212.519 108.951 214.038 107.688 215.301L99.1642 223.825ZM108.636 233.297L106.149 230.81L109.938 227.022C111.201 225.759 112.72 225.128 114.496 225.128C116.272 225.128 117.791 225.759 119.054 227.022L122.843 230.81L120.356 233.297L116.568 229.508C116.015 228.956 115.325 228.679 114.496 228.679C113.667 228.679 112.977 228.956 112.424 229.508L108.636 233.297Z" fill="#D0BCFF"/>
</g>
<path d="M48.4228 145.762L50.143 149.089L51.8678 145.762H52.8645L50.5799 149.912V152.388H49.7016V149.912L47.417 145.762H48.4228ZM53.0648 149.981V149.876C53.0648 149.521 53.1163 149.192 53.2195 148.888C53.3226 148.582 53.4713 148.317 53.6655 148.092C53.8597 147.865 54.0948 147.689 54.3709 147.564C54.647 147.437 54.9564 147.373 55.2993 147.373C55.6452 147.373 55.9561 147.437 56.2322 147.564C56.5114 147.689 56.748 147.865 56.9422 148.092C57.1394 148.317 57.2896 148.582 57.3927 148.888C57.4959 149.192 57.5475 149.521 57.5475 149.876V149.981C57.5475 150.336 57.4959 150.665 57.3927 150.968C57.2896 151.272 57.1394 151.537 56.9422 151.765C56.748 151.989 56.5129 152.165 56.2368 152.293C55.9637 152.417 55.6543 152.479 55.3084 152.479C54.9625 152.479 54.6515 152.417 54.3754 152.293C54.0993 152.165 53.8627 151.989 53.6655 151.765C53.4713 151.537 53.3226 151.272 53.2195 150.968C53.1163 150.665 53.0648 150.336 53.0648 149.981ZM53.9067 149.876V149.981C53.9067 150.226 53.9355 150.459 53.9932 150.677C54.0508 150.892 54.1373 151.084 54.2526 151.25C54.3709 151.417 54.518 151.549 54.694 151.646C54.87 151.74 55.0748 151.787 55.3084 151.787C55.539 151.787 55.7407 151.74 55.9137 151.646C56.0896 151.549 56.2353 151.417 56.3506 151.25C56.4658 151.084 56.5523 150.892 56.61 150.677C56.6706 150.459 56.701 150.226 56.701 149.981V149.876C56.701 149.633 56.6706 149.404 56.61 149.189C56.5523 148.97 56.4643 148.778 56.346 148.611C56.2307 148.441 56.0851 148.307 55.9091 148.21C55.7362 148.113 55.5329 148.065 55.2993 148.065C55.0687 148.065 54.8654 148.113 54.6894 148.21C54.5165 148.307 54.3709 148.441 54.2526 148.611C54.1373 148.778 54.0508 148.97 53.9932 149.189C53.9355 149.404 53.9067 149.633 53.9067 149.876ZM61.616 151.25V147.464H62.4625V152.388H61.657L61.616 151.25ZM61.7753 150.213L62.1257 150.204C62.1257 150.531 62.0908 150.835 62.0211 151.114C61.9543 151.39 61.8451 151.63 61.6934 151.833C61.5417 152.036 61.343 152.196 61.0972 152.311C60.8515 152.423 60.5526 152.479 60.2007 152.479C59.961 152.479 59.741 152.444 59.5408 152.375C59.3436 152.305 59.1737 152.197 59.0311 152.051C58.8885 151.906 58.7777 151.716 58.6989 151.483C58.623 151.249 58.5851 150.968 58.5851 150.641V147.464H59.427V150.65C59.427 150.871 59.4513 151.055 59.4998 151.2C59.5514 151.343 59.6197 151.457 59.7046 151.542C59.7926 151.624 59.8897 151.681 59.9959 151.715C60.1051 151.748 60.2174 151.765 60.3327 151.765C60.6907 151.765 60.9743 151.696 61.1837 151.56C61.393 151.42 61.5432 151.234 61.6342 151C61.7283 150.763 61.7753 150.501 61.7753 150.213ZM68.9613 151.546V149.011C68.9613 148.817 68.9219 148.649 68.843 148.506C68.7671 148.361 68.6518 148.248 68.4971 148.169C68.3424 148.091 68.1512 148.051 67.9237 148.051C67.7113 148.051 67.5247 148.088 67.3639 148.16C67.2061 148.233 67.0817 148.329 66.9907 148.447C66.9027 148.565 66.8587 148.693 66.8587 148.829H66.0168C66.0168 148.653 66.0623 148.479 66.1533 148.306C66.2444 148.133 66.3748 147.977 66.5447 147.837C66.7177 147.695 66.924 147.582 67.1637 147.5C67.4064 147.415 67.6764 147.373 67.9737 147.373C68.3317 147.373 68.6473 147.434 68.9203 147.555C69.1964 147.676 69.4118 147.86 69.5666 148.106C69.7243 148.348 69.8032 148.653 69.8032 149.02V151.314C69.8032 151.478 69.8169 151.652 69.8442 151.838C69.8745 152.023 69.9185 152.182 69.9762 152.315V152.388H69.0978C69.0553 152.291 69.022 152.162 68.9977 152.001C68.9734 151.838 68.9613 151.686 68.9613 151.546ZM69.1069 149.403L69.116 149.994H68.265C68.0253 149.994 67.8114 150.014 67.6233 150.054C67.4352 150.09 67.2774 150.146 67.15 150.222C67.0226 150.298 66.9255 150.393 66.8587 150.509C66.792 150.621 66.7586 150.753 66.7586 150.905C66.7586 151.059 66.7935 151.2 66.8633 151.328C66.9331 151.455 67.0377 151.557 67.1773 151.633C67.3199 151.706 67.4944 151.742 67.7007 151.742C67.9586 151.742 68.1861 151.687 68.3833 151.578C68.5805 151.469 68.7368 151.335 68.8521 151.178C68.9704 151.02 69.0341 150.867 69.0432 150.718L69.4027 151.123C69.3815 151.25 69.3239 151.392 69.2298 151.546C69.1357 151.701 69.0098 151.85 68.8521 151.992C68.6973 152.132 68.5123 152.249 68.2969 152.343C68.0845 152.434 67.8448 152.479 67.5778 152.479C67.2441 152.479 66.9513 152.414 66.6995 152.284C66.4507 152.153 66.2565 151.979 66.1169 151.76C65.9804 151.539 65.9121 151.291 65.9121 151.018C65.9121 150.754 65.9637 150.522 66.0669 150.322C66.17 150.119 66.3187 149.95 66.5129 149.817C66.707 149.68 66.9407 149.577 67.2137 149.507C67.4868 149.438 67.7917 149.403 68.1285 149.403H69.1069ZM71.9695 148.515V152.388H71.1276V147.464H71.924L71.9695 148.515ZM71.7692 149.74L71.4188 149.726C71.4219 149.389 71.4719 149.078 71.569 148.793C71.6661 148.505 71.8026 148.254 71.9786 148.042C72.1546 147.83 72.3639 147.666 72.6066 147.551C72.8524 147.432 73.1239 147.373 73.4212 147.373C73.664 147.373 73.8824 147.406 74.0766 147.473C74.2708 147.537 74.4361 147.64 74.5726 147.783C74.7122 147.925 74.8184 148.11 74.8912 148.338C74.964 148.562 75.0004 148.837 75.0004 149.162V152.388H74.154V149.152C74.154 148.895 74.116 148.688 74.0402 148.534C73.9643 148.376 73.8536 148.262 73.708 148.192C73.5623 148.119 73.3833 148.083 73.1709 148.083C72.9616 148.083 72.7705 148.127 72.5975 148.215C72.4276 148.303 72.2805 148.424 72.1561 148.579C72.0347 148.734 71.9391 148.911 71.8694 149.111C71.8026 149.309 71.7692 149.518 71.7692 149.74ZM79.383 151.432V145.398H80.2295V152.388H79.4558L79.383 151.432ZM76.0699 149.981V149.885C76.0699 149.509 76.1154 149.168 76.2064 148.861C76.3005 148.552 76.4325 148.286 76.6024 148.065C76.7753 147.843 76.9801 147.673 77.2168 147.555C77.4564 147.434 77.7234 147.373 78.0177 147.373C78.3272 147.373 78.5972 147.428 78.8278 147.537C79.0614 147.643 79.2586 147.799 79.4194 148.006C79.5833 148.209 79.7122 148.455 79.8063 148.743C79.9003 149.031 79.9655 149.357 80.0019 149.721V150.14C79.9686 150.501 79.9033 150.826 79.8063 151.114C79.7122 151.402 79.5833 151.648 79.4194 151.851C79.2586 152.054 79.0614 152.211 78.8278 152.32C78.5942 152.426 78.3211 152.479 78.0086 152.479C77.7204 152.479 77.4564 152.417 77.2168 152.293C76.9801 152.168 76.7753 151.994 76.6024 151.769C76.4325 151.545 76.3005 151.281 76.2064 150.977C76.1154 150.671 76.0699 150.339 76.0699 149.981ZM76.9164 149.885V149.981C76.9164 150.226 76.9407 150.457 76.9892 150.672C77.0408 150.888 77.1197 151.078 77.2259 151.241C77.332 151.405 77.4671 151.534 77.6309 151.628C77.7947 151.719 77.9904 151.765 78.218 151.765C78.4971 151.765 78.7262 151.706 78.9052 151.587C79.0872 151.469 79.2328 151.313 79.3421 151.118C79.4513 150.924 79.5362 150.713 79.5969 150.486V149.389C79.5605 149.222 79.5074 149.061 79.4376 148.907C79.3709 148.749 79.2829 148.609 79.1737 148.488C79.0675 148.364 78.9355 148.265 78.7777 148.192C78.623 148.119 78.4394 148.083 78.2271 148.083C77.9965 148.083 77.7978 148.132 77.6309 148.229C77.4671 148.323 77.332 148.453 77.2259 148.62C77.1197 148.784 77.0408 148.975 76.9892 149.193C76.9407 149.409 76.9164 149.639 76.9164 149.885ZM84.8578 145.762V152.388H83.9795V145.762H84.8578ZM87.6339 148.743V149.462H84.6667V148.743H87.6339ZM88.0845 145.762V146.481H84.6667V145.762H88.0845ZM89.7274 148.238V152.388H88.8854V147.464H89.7046L89.7274 148.238ZM91.2656 147.437L91.2611 148.219C91.1913 148.204 91.1245 148.195 91.0608 148.192C91.0001 148.186 90.9303 148.183 90.8515 148.183C90.6573 148.183 90.4859 148.213 90.3372 148.274C90.1885 148.335 90.0626 148.42 89.9595 148.529C89.8563 148.638 89.7744 148.769 89.7137 148.92C89.6561 149.069 89.6182 149.233 89.5999 149.412L89.3633 149.548C89.3633 149.251 89.3921 148.972 89.4498 148.711C89.5104 148.45 89.603 148.219 89.7274 148.019C89.8518 147.816 90.0095 147.658 90.2007 147.546C90.3949 147.431 90.6254 147.373 90.8924 147.373C90.9531 147.373 91.0229 147.381 91.1018 147.396C91.1807 147.408 91.2353 147.422 91.2656 147.437ZM93.9962 152.479C93.6533 152.479 93.3424 152.422 93.0632 152.306C92.7871 152.188 92.549 152.023 92.3487 151.81C92.1515 151.598 91.9998 151.346 91.8936 151.055C91.7874 150.763 91.7344 150.445 91.7344 150.099V149.908C91.7344 149.507 91.7935 149.151 91.9118 148.838C92.0302 148.523 92.191 148.256 92.3942 148.037C92.5975 147.819 92.8281 147.654 93.086 147.541C93.3439 147.429 93.6109 147.373 93.887 147.373C94.2389 147.373 94.5423 147.434 94.7972 147.555C95.055 147.676 95.2659 147.846 95.4297 148.065C95.5936 148.28 95.7149 148.535 95.7938 148.829C95.8727 149.121 95.9121 149.439 95.9121 149.785V150.163H92.235V149.476H95.0702V149.412C95.0581 149.193 95.0126 148.981 94.9337 148.775C94.8578 148.568 94.7365 148.398 94.5696 148.265C94.4027 148.132 94.1752 148.065 93.887 148.065C93.6958 148.065 93.5198 148.106 93.359 148.188C93.1982 148.267 93.0602 148.385 92.9449 148.543C92.8296 148.7 92.7401 148.893 92.6764 149.121C92.6127 149.348 92.5808 149.611 92.5808 149.908V150.099C92.5808 150.333 92.6127 150.553 92.6764 150.759C92.7432 150.962 92.8387 151.141 92.9631 151.296C93.0905 151.451 93.2438 151.572 93.4228 151.66C93.6048 151.748 93.8111 151.792 94.0417 151.792C94.339 151.792 94.5908 151.731 94.7972 151.61C95.0035 151.489 95.184 151.326 95.3387 151.123L95.8484 151.528C95.7422 151.689 95.6072 151.842 95.4434 151.988C95.2796 152.133 95.0778 152.252 94.8381 152.343C94.6015 152.434 94.3208 152.479 93.9962 152.479ZM99.9989 151.432V145.398H100.845V152.388H100.072L99.9989 151.432ZM96.6858 149.981V149.885C96.6858 149.509 96.7313 149.168 96.8223 148.861C96.9164 148.552 97.0484 148.286 97.2183 148.065C97.3912 147.843 97.596 147.673 97.8327 147.555C98.0723 147.434 98.3393 147.373 98.6336 147.373C98.9431 147.373 99.2131 147.428 99.4437 147.537C99.6773 147.643 99.8745 147.799 100.035 148.006C100.199 148.209 100.328 148.455 100.422 148.743C100.516 149.031 100.581 149.357 100.618 149.721V150.14C100.584 150.501 100.519 150.826 100.422 151.114C100.328 151.402 100.199 151.648 100.035 151.851C99.8745 152.054 99.6773 152.211 99.4437 152.32C99.2101 152.426 98.937 152.479 98.6245 152.479C98.3363 152.479 98.0723 152.417 97.8327 152.293C97.596 152.168 97.3912 151.994 97.2183 151.769C97.0484 151.545 96.9164 151.281 96.8223 150.977C96.7313 150.671 96.6858 150.339 96.6858 149.981ZM97.5323 149.885V149.981C97.5323 150.226 97.5566 150.457 97.6051 150.672C97.6567 150.888 97.7356 151.078 97.8418 151.241C97.9479 151.405 98.083 151.534 98.2468 151.628C98.4106 151.719 98.6063 151.765 98.8339 151.765C99.113 151.765 99.3421 151.706 99.5211 151.587C99.7031 151.469 99.8487 151.313 99.958 151.118C100.067 150.924 100.152 150.713 100.213 150.486V149.389C100.176 149.222 100.123 149.061 100.054 148.907C99.9868 148.749 99.8988 148.609 99.7896 148.488C99.6834 148.364 99.5514 148.265 99.3936 148.192C99.2389 148.119 99.0553 148.083 98.843 148.083C98.6124 148.083 98.4137 148.132 98.2468 148.229C98.083 148.323 97.9479 148.453 97.8418 148.62C97.7356 148.784 97.6567 148.975 97.6051 149.193C97.5566 149.409 97.5323 149.639 97.5323 149.885ZM105.06 151.546V149.011C105.06 148.817 105.02 148.649 104.941 148.506C104.865 148.361 104.75 148.248 104.595 148.169C104.441 148.091 104.25 148.051 104.022 148.051C103.81 148.051 103.623 148.088 103.462 148.16C103.304 148.233 103.18 148.329 103.089 148.447C103.001 148.565 102.957 148.693 102.957 148.829H102.115C102.115 148.653 102.161 148.479 102.252 148.306C102.343 148.133 102.473 147.977 102.643 147.837C102.816 147.695 103.022 147.582 103.262 147.5C103.505 147.415 103.775 147.373 104.072 147.373C104.43 147.373 104.746 147.434 105.019 147.555C105.295 147.676 105.51 147.86 105.665 148.106C105.823 148.348 105.902 148.653 105.902 149.02V151.314C105.902 151.478 105.915 151.652 105.942 151.838C105.973 152.023 106.017 152.182 106.074 152.315V152.388H105.196C105.154 152.291 105.12 152.162 105.096 152.001C105.072 151.838 105.06 151.686 105.06 151.546ZM105.205 149.403L105.214 149.994H104.363C104.124 149.994 103.91 150.014 103.722 150.054C103.534 150.09 103.376 150.146 103.248 150.222C103.121 150.298 103.024 150.393 102.957 150.509C102.89 150.621 102.857 150.753 102.857 150.905C102.857 151.059 102.892 151.2 102.962 151.328C103.031 151.455 103.136 151.557 103.276 151.633C103.418 151.706 103.593 151.742 103.799 151.742C104.057 151.742 104.284 151.687 104.482 151.578C104.679 151.469 104.835 151.335 104.95 151.178C105.069 151.02 105.132 150.867 105.142 150.718L105.501 151.123C105.48 151.25 105.422 151.392 105.328 151.546C105.234 151.701 105.108 151.85 104.95 151.992C104.796 152.132 104.611 152.249 104.395 152.343C104.183 152.434 103.943 152.479 103.676 152.479C103.342 152.479 103.05 152.414 102.798 152.284C102.549 152.153 102.355 151.979 102.215 151.76C102.079 151.539 102.01 151.291 102.01 151.018C102.01 150.754 102.062 150.522 102.165 150.322C102.268 150.119 102.417 149.95 102.611 149.817C102.805 149.68 103.039 149.577 103.312 149.507C103.585 149.438 103.89 149.403 104.227 149.403H105.205ZM110.416 147.464H111.181V152.284C111.181 152.717 111.093 153.088 110.917 153.394C110.741 153.7 110.495 153.932 110.179 154.09C109.867 154.251 109.506 154.331 109.096 154.331C108.926 154.331 108.726 154.304 108.496 154.25C108.268 154.198 108.044 154.108 107.822 153.981C107.604 153.857 107.42 153.688 107.271 153.476L107.713 152.975C107.919 153.224 108.135 153.397 108.359 153.494C108.587 153.591 108.811 153.64 109.033 153.64C109.3 153.64 109.53 153.59 109.724 153.49C109.919 153.389 110.069 153.241 110.175 153.044C110.284 152.849 110.339 152.61 110.339 152.324V148.547L110.416 147.464ZM107.026 149.981V149.885C107.026 149.509 107.07 149.168 107.158 148.861C107.249 148.552 107.378 148.286 107.544 148.065C107.714 147.843 107.919 147.673 108.159 147.555C108.398 147.434 108.669 147.373 108.969 147.373C109.278 147.373 109.548 147.428 109.779 147.537C110.013 147.643 110.21 147.799 110.371 148.006C110.534 148.209 110.663 148.455 110.757 148.743C110.851 149.031 110.917 149.357 110.953 149.721V150.14C110.92 150.501 110.854 150.826 110.757 151.114C110.663 151.402 110.534 151.648 110.371 151.851C110.21 152.054 110.013 152.211 109.779 152.32C109.545 152.426 109.272 152.479 108.96 152.479C108.665 152.479 108.398 152.417 108.159 152.293C107.922 152.168 107.719 151.994 107.549 151.769C107.379 151.545 107.249 151.281 107.158 150.977C107.07 150.671 107.026 150.339 107.026 149.981ZM107.868 149.885V149.981C107.868 150.226 107.892 150.457 107.94 150.672C107.992 150.888 108.069 151.078 108.172 151.241C108.279 151.405 108.414 151.534 108.577 151.628C108.741 151.719 108.937 151.765 109.165 151.765C109.444 151.765 109.674 151.706 109.856 151.587C110.038 151.469 110.182 151.313 110.289 151.118C110.398 150.924 110.483 150.713 110.544 150.486V149.389C110.51 149.222 110.459 149.061 110.389 148.907C110.322 148.749 110.234 148.609 110.125 148.488C110.019 148.364 109.887 148.265 109.729 148.192C109.571 148.119 109.386 148.083 109.174 148.083C108.943 148.083 108.744 148.132 108.577 148.229C108.414 148.323 108.279 148.453 108.172 148.62C108.069 148.784 107.992 148.975 107.94 149.193C107.892 149.409 107.868 149.639 107.868 149.885ZM115.327 151.082C115.327 150.961 115.299 150.848 115.245 150.745C115.193 150.639 115.085 150.544 114.922 150.459C114.761 150.371 114.518 150.295 114.193 150.231C113.92 150.173 113.673 150.105 113.452 150.026C113.233 149.947 113.047 149.852 112.892 149.74C112.74 149.627 112.623 149.495 112.541 149.344C112.459 149.192 112.419 149.014 112.419 148.811C112.419 148.617 112.461 148.433 112.546 148.26C112.634 148.088 112.757 147.934 112.915 147.801C113.075 147.667 113.268 147.563 113.493 147.487C113.717 147.411 113.967 147.373 114.243 147.373C114.638 147.373 114.975 147.443 115.254 147.582C115.533 147.722 115.747 147.909 115.895 148.142C116.044 148.373 116.118 148.629 116.118 148.911H115.277C115.277 148.775 115.236 148.643 115.154 148.515C115.075 148.385 114.958 148.277 114.803 148.192C114.652 148.107 114.465 148.065 114.243 148.065C114.01 148.065 113.82 148.101 113.675 148.174C113.532 148.244 113.427 148.333 113.361 148.442C113.297 148.552 113.265 148.667 113.265 148.788C113.265 148.879 113.28 148.961 113.311 149.034C113.344 149.104 113.402 149.169 113.483 149.23C113.565 149.287 113.681 149.342 113.829 149.394C113.978 149.445 114.168 149.497 114.398 149.548C114.802 149.639 115.134 149.749 115.395 149.876C115.656 150.003 115.85 150.16 115.977 150.345C116.105 150.53 116.169 150.754 116.169 151.018C116.169 151.234 116.123 151.431 116.032 151.61C115.944 151.789 115.815 151.944 115.645 152.074C115.478 152.202 115.278 152.302 115.044 152.375C114.814 152.444 114.554 152.479 114.266 152.479C113.832 152.479 113.465 152.402 113.165 152.247C112.865 152.092 112.637 151.892 112.482 151.646C112.327 151.401 112.25 151.141 112.25 150.868H113.097C113.109 151.099 113.175 151.282 113.297 151.419C113.418 151.552 113.567 151.648 113.743 151.706C113.919 151.76 114.093 151.787 114.266 151.787C114.497 151.787 114.689 151.757 114.844 151.696C115.002 151.636 115.122 151.552 115.204 151.446C115.286 151.34 115.327 151.219 115.327 151.082ZM118.112 148.442V152.388H117.265V147.464H118.066L118.112 148.442ZM117.939 149.74L117.547 149.726C117.55 149.389 117.594 149.078 117.679 148.793C117.764 148.505 117.89 148.254 118.057 148.042C118.224 147.83 118.432 147.666 118.681 147.551C118.929 147.432 119.218 147.373 119.545 147.373C119.776 147.373 119.988 147.406 120.182 147.473C120.377 147.537 120.545 147.638 120.688 147.778C120.83 147.918 120.941 148.097 121.02 148.315C121.099 148.534 121.138 148.797 121.138 149.107V152.388H120.296V149.148C120.296 148.89 120.252 148.684 120.164 148.529C120.079 148.374 119.958 148.262 119.8 148.192C119.642 148.119 119.457 148.083 119.245 148.083C118.996 148.083 118.788 148.127 118.621 148.215C118.455 148.303 118.321 148.424 118.221 148.579C118.121 148.734 118.048 148.911 118.003 149.111C117.96 149.309 117.939 149.518 117.939 149.74ZM121.129 149.275L120.565 149.448C120.568 149.178 120.612 148.919 120.697 148.67C120.785 148.421 120.911 148.2 121.074 148.006C121.241 147.811 121.446 147.658 121.689 147.546C121.932 147.431 122.209 147.373 122.522 147.373C122.786 147.373 123.019 147.408 123.223 147.478C123.429 147.547 123.602 147.655 123.741 147.801C123.884 147.943 123.992 148.127 124.064 148.351C124.137 148.576 124.174 148.843 124.174 149.152V152.388H123.327V149.143C123.327 148.867 123.283 148.653 123.195 148.502C123.11 148.347 122.989 148.239 122.831 148.179C122.676 148.115 122.491 148.083 122.276 148.083C122.091 148.083 121.927 148.115 121.784 148.179C121.642 148.242 121.522 148.33 121.425 148.442C121.328 148.552 121.253 148.678 121.202 148.82C121.153 148.963 121.129 149.115 121.129 149.275ZM126.831 151.878L128.201 147.464H129.102L127.127 153.148C127.082 153.27 127.021 153.4 126.945 153.54C126.872 153.682 126.778 153.817 126.663 153.945C126.548 154.072 126.408 154.175 126.244 154.254C126.084 154.336 125.891 154.377 125.666 154.377C125.6 154.377 125.515 154.368 125.412 154.35C125.308 154.331 125.236 154.316 125.193 154.304L125.189 153.621C125.213 153.625 125.251 153.628 125.302 153.631C125.357 153.637 125.395 153.64 125.416 153.64C125.607 153.64 125.77 153.614 125.903 153.562C126.037 153.514 126.149 153.43 126.24 153.312C126.334 153.197 126.414 153.037 126.481 152.834L126.831 151.878ZM125.826 147.464L127.104 151.287L127.323 152.174L126.718 152.484L124.906 147.464H125.826ZM132.73 151.082C132.73 150.961 132.702 150.848 132.648 150.745C132.596 150.639 132.488 150.544 132.324 150.459C132.164 150.371 131.921 150.295 131.596 150.231C131.323 150.173 131.076 150.105 130.855 150.026C130.636 149.947 130.449 149.852 130.295 149.74C130.143 149.627 130.026 149.495 129.944 149.344C129.862 149.192 129.821 149.014 129.821 148.811C129.821 148.617 129.864 148.433 129.949 148.26C130.037 148.088 130.16 147.934 130.317 147.801C130.478 147.667 130.671 147.563 130.895 147.487C131.12 147.411 131.37 147.373 131.646 147.373C132.041 147.373 132.378 147.443 132.657 147.582C132.936 147.722 133.15 147.909 133.298 148.142C133.447 148.373 133.521 148.629 133.521 148.911H132.679C132.679 148.775 132.638 148.643 132.557 148.515C132.478 148.385 132.361 148.277 132.206 148.192C132.054 148.107 131.868 148.065 131.646 148.065C131.413 148.065 131.223 148.101 131.077 148.174C130.935 148.244 130.83 148.333 130.763 148.442C130.7 148.552 130.668 148.667 130.668 148.788C130.668 148.879 130.683 148.961 130.713 149.034C130.747 149.104 130.804 149.169 130.886 149.23C130.968 149.287 131.084 149.342 131.232 149.394C131.381 149.445 131.571 149.497 131.801 149.548C132.205 149.639 132.537 149.749 132.798 149.876C133.059 150.003 133.253 150.16 133.38 150.345C133.508 150.53 133.571 150.754 133.571 151.018C133.571 151.234 133.526 151.431 133.435 151.61C133.347 151.789 133.218 151.944 133.048 152.074C132.881 152.202 132.681 152.302 132.447 152.375C132.217 152.444 131.957 152.479 131.669 152.479C131.235 152.479 130.868 152.402 130.568 152.247C130.267 152.092 130.04 151.892 129.885 151.646C129.73 151.401 129.653 151.141 129.653 150.868H130.5C130.512 151.099 130.578 151.282 130.7 151.419C130.821 151.552 130.97 151.648 131.146 151.706C131.322 151.76 131.496 151.787 131.669 151.787C131.9 151.787 132.092 151.757 132.247 151.696C132.405 151.636 132.525 151.552 132.607 151.446C132.689 151.34 132.73 151.219 132.73 151.082ZM137.831 145.398V152.388H136.989V145.398H137.831ZM137.631 149.74L137.28 149.726C137.284 149.389 137.334 149.078 137.431 148.793C137.528 148.505 137.664 148.254 137.84 148.042C138.016 147.83 138.226 147.666 138.468 147.551C138.714 147.432 138.986 147.373 139.283 147.373C139.526 147.373 139.744 147.406 139.938 147.473C140.132 147.537 140.298 147.64 140.434 147.783C140.574 147.925 140.68 148.11 140.753 148.338C140.826 148.562 140.862 148.837 140.862 149.162V152.388H140.016V149.152C140.016 148.895 139.978 148.688 139.902 148.534C139.826 148.376 139.715 148.262 139.57 148.192C139.424 148.119 139.245 148.083 139.033 148.083C138.823 148.083 138.632 148.127 138.459 148.215C138.289 148.303 138.142 148.424 138.018 148.579C137.896 148.734 137.801 148.911 137.731 149.111C137.664 149.309 137.631 149.518 137.631 149.74ZM145.026 151.546V149.011C145.026 148.817 144.987 148.649 144.908 148.506C144.832 148.361 144.717 148.248 144.562 148.169C144.407 148.091 144.216 148.051 143.989 148.051C143.776 148.051 143.59 148.088 143.429 148.16C143.271 148.233 143.147 148.329 143.056 148.447C142.968 148.565 142.924 148.693 142.924 148.829H142.082C142.082 148.653 142.127 148.479 142.218 148.306C142.309 148.133 142.44 147.977 142.61 147.837C142.783 147.695 142.989 147.582 143.229 147.5C143.471 147.415 143.741 147.373 144.039 147.373C144.397 147.373 144.712 147.434 144.985 147.555C145.261 147.676 145.477 147.86 145.632 148.106C145.789 148.348 145.868 148.653 145.868 149.02V151.314C145.868 151.478 145.882 151.652 145.909 151.838C145.939 152.023 145.983 152.182 146.041 152.315V152.388H145.163C145.12 152.291 145.087 152.162 145.063 152.001C145.038 151.838 145.026 151.686 145.026 151.546ZM145.172 149.403L145.181 149.994H144.33C144.09 149.994 143.876 150.014 143.688 150.054C143.5 150.09 143.342 150.146 143.215 150.222C143.088 150.298 142.99 150.393 142.924 150.509C142.857 150.621 142.824 150.753 142.824 150.905C142.824 151.059 142.858 151.2 142.928 151.328C142.998 151.455 143.103 151.557 143.242 151.633C143.385 151.706 143.559 151.742 143.766 151.742C144.023 151.742 144.251 151.687 144.448 151.578C144.645 151.469 144.802 151.335 144.917 151.178C145.035 151.02 145.099 150.867 145.108 150.718L145.468 151.123C145.446 151.25 145.389 151.392 145.295 151.546C145.201 151.701 145.075 151.85 144.917 151.992C144.762 152.132 144.577 152.249 144.362 152.343C144.149 152.434 143.91 152.479 143.643 152.479C143.309 152.479 143.016 152.414 142.764 152.284C142.516 152.153 142.321 151.979 142.182 151.76C142.045 151.539 141.977 151.291 141.977 151.018C141.977 150.754 142.029 150.522 142.132 150.322C142.235 150.119 142.384 149.95 142.578 149.817C142.772 149.68 143.006 149.577 143.279 149.507C143.552 149.438 143.857 149.403 144.193 149.403H145.172ZM148.617 151.628L149.964 147.464H150.824L149.054 152.388H148.49L148.617 151.628ZM147.493 147.464L148.881 151.651L148.976 152.388H148.412L146.628 147.464H147.493ZM153.614 152.479C153.271 152.479 152.96 152.422 152.681 152.306C152.405 152.188 152.167 152.023 151.966 151.81C151.769 151.598 151.618 151.346 151.511 151.055C151.405 150.763 151.352 150.445 151.352 150.099V149.908C151.352 149.507 151.411 149.151 151.53 148.838C151.648 148.523 151.809 148.256 152.012 148.037C152.215 147.819 152.446 147.654 152.704 147.541C152.962 147.429 153.229 147.373 153.505 147.373C153.857 147.373 154.16 147.434 154.415 147.555C154.673 147.676 154.884 147.846 155.047 148.065C155.211 148.28 155.333 148.535 155.412 148.829C155.49 149.121 155.53 149.439 155.53 149.785V150.163H151.853V149.476H154.688V149.412C154.676 149.193 154.63 148.981 154.551 148.775C154.476 148.568 154.354 148.398 154.187 148.265C154.02 148.132 153.793 148.065 153.505 148.065C153.314 148.065 153.138 148.106 152.977 148.188C152.816 148.267 152.678 148.385 152.563 148.543C152.447 148.7 152.358 148.893 152.294 149.121C152.23 149.348 152.199 149.611 152.199 149.908V150.099C152.199 150.333 152.23 150.553 152.294 150.759C152.361 150.962 152.456 151.141 152.581 151.296C152.708 151.451 152.861 151.572 153.04 151.66C153.223 151.748 153.429 151.792 153.659 151.792C153.957 151.792 154.209 151.731 154.415 151.61C154.621 151.489 154.802 151.326 154.956 151.123L155.466 151.528C155.36 151.689 155.225 151.842 155.061 151.988C154.897 152.133 154.696 152.252 154.456 152.343C154.219 152.434 153.939 152.479 153.614 152.479ZM60.5374 156.398V163.388H59.691V156.398H60.5374ZM62.8038 158.464V163.388H61.9573V158.464H62.8038ZM61.8936 157.158C61.8936 157.021 61.9346 156.906 62.0165 156.812C62.1015 156.718 62.2259 156.671 62.3897 156.671C62.5505 156.671 62.6734 156.718 62.7583 156.812C62.8463 156.906 62.8903 157.021 62.8903 157.158C62.8903 157.288 62.8463 157.401 62.7583 157.495C62.6734 157.586 62.5505 157.631 62.3897 157.631C62.2259 157.631 62.1015 157.586 62.0165 157.495C61.9346 157.401 61.8936 157.288 61.8936 157.158ZM65.002 156.398V163.388H64.1555V156.398H65.002ZM68.0101 158.464L65.8621 160.762L64.6606 162.009L64.5924 161.113L65.4525 160.084L66.9816 158.464H68.0101ZM67.241 163.388L65.4844 161.04L65.9212 160.289L68.2331 163.388H67.241ZM70.8317 163.479C70.4889 163.479 70.1779 163.422 69.8988 163.306C69.6227 163.188 69.3845 163.023 69.1843 162.81C68.9871 162.598 68.8354 162.346 68.7292 162.055C68.623 161.763 68.5699 161.445 68.5699 161.099V160.908C68.5699 160.507 68.6291 160.151 68.7474 159.838C68.8657 159.523 69.0265 159.256 69.2298 159.037C69.4331 158.819 69.6637 158.654 69.9216 158.541C70.1794 158.429 70.4464 158.373 70.7225 158.373C71.0745 158.373 71.3779 158.434 71.6327 158.555C71.8906 158.676 72.1015 158.846 72.2653 159.065C72.4291 159.28 72.5505 159.535 72.6294 159.829C72.7083 160.121 72.7477 160.439 72.7477 160.785V161.163H69.0705V160.476H71.9058V160.412C71.8936 160.193 71.8481 159.981 71.7692 159.775C71.6934 159.568 71.572 159.398 71.4052 159.265C71.2383 159.132 71.0107 159.065 70.7225 159.065C70.5314 159.065 70.3554 159.106 70.1946 159.188C70.0338 159.267 69.8958 159.385 69.7805 159.543C69.6652 159.7 69.5757 159.893 69.512 160.121C69.4482 160.348 69.4164 160.611 69.4164 160.908V161.099C69.4164 161.333 69.4482 161.553 69.512 161.759C69.5787 161.962 69.6743 162.141 69.7987 162.296C69.9261 162.451 70.0793 162.572 70.2583 162.66C70.4404 162.748 70.6467 162.792 70.8773 162.792C71.1746 162.792 71.4264 162.731 71.6327 162.61C71.839 162.489 72.0195 162.326 72.1743 162.123L72.684 162.528C72.5778 162.689 72.4428 162.842 72.279 162.988C72.1151 163.133 71.9134 163.252 71.6737 163.343C71.437 163.434 71.1564 163.479 70.8317 163.479ZM76.8345 162.432V156.398H77.681V163.388H76.9073L76.8345 162.432ZM73.5214 160.981V160.885C73.5214 160.509 73.5669 160.168 73.6579 159.861C73.752 159.552 73.8839 159.286 74.0538 159.065C74.2268 158.843 74.4316 158.673 74.6682 158.555C74.9079 158.434 75.1749 158.373 75.4692 158.373C75.7786 158.373 76.0487 158.428 76.2793 158.537C76.5129 158.643 76.7101 158.799 76.8709 159.006C77.0347 159.209 77.1637 159.455 77.2577 159.743C77.3518 160.031 77.417 160.357 77.4534 160.721V161.14C77.42 161.501 77.3548 161.826 77.2577 162.114C77.1637 162.402 77.0347 162.648 76.8709 162.851C76.7101 163.054 76.5129 163.211 76.2793 163.32C76.0456 163.426 75.7726 163.479 75.4601 163.479C75.1719 163.479 74.9079 163.417 74.6682 163.293C74.4316 163.168 74.2268 162.994 74.0538 162.769C73.8839 162.545 73.752 162.281 73.6579 161.977C73.5669 161.671 73.5214 161.339 73.5214 160.981ZM74.3678 160.885V160.981C74.3678 161.226 74.3921 161.457 74.4407 161.672C74.4922 161.888 74.5711 162.078 74.6773 162.241C74.7835 162.405 74.9185 162.534 75.0824 162.628C75.2462 162.719 75.4419 162.765 75.6694 162.765C75.9486 162.765 76.1776 162.706 76.3566 162.587C76.5387 162.469 76.6843 162.313 76.7935 162.118C76.9027 161.924 76.9877 161.713 77.0484 161.486V160.389C77.012 160.222 76.9589 160.061 76.8891 159.907C76.8223 159.749 76.7344 159.609 76.6251 159.488C76.5189 159.364 76.387 159.265 76.2292 159.192C76.0745 159.119 75.8909 159.083 75.6785 159.083C75.4479 159.083 75.2492 159.132 75.0824 159.229C74.9185 159.323 74.7835 159.453 74.6773 159.62C74.5711 159.784 74.4922 159.975 74.4407 160.193C74.3921 160.409 74.3678 160.639 74.3678 160.885ZM83.3651 158.464V159.11H80.7028V158.464H83.3651ZM81.6039 157.267H82.4458V162.169C82.4458 162.335 82.4716 162.461 82.5232 162.546C82.5748 162.631 82.6415 162.687 82.7234 162.715C82.8053 162.742 82.8933 162.756 82.9874 162.756C83.0572 162.756 83.13 162.75 83.2058 162.737C83.2847 162.722 83.3439 162.71 83.3833 162.701L83.3879 163.388C83.3211 163.409 83.2331 163.429 83.1239 163.447C83.0177 163.469 82.8888 163.479 82.7371 163.479C82.5308 163.479 82.3412 163.438 82.1682 163.356C81.9953 163.274 81.8572 163.138 81.7541 162.947C81.654 162.753 81.6039 162.492 81.6039 162.164V157.267ZM85.1946 156.398V163.388H84.3527V156.398H85.1946ZM84.9944 160.74L84.6439 160.726C84.647 160.389 84.697 160.078 84.7941 159.793C84.8912 159.505 85.0277 159.254 85.2037 159.042C85.3797 158.83 85.589 158.666 85.8317 158.551C86.0775 158.432 86.349 158.373 86.6464 158.373C86.8891 158.373 87.1075 158.406 87.3017 158.473C87.4959 158.537 87.6612 158.64 87.7978 158.783C87.9373 158.925 88.0435 159.11 88.1163 159.338C88.1891 159.562 88.2256 159.837 88.2256 160.162V163.388H87.3791V160.152C87.3791 159.895 87.3411 159.688 87.2653 159.534C87.1894 159.376 87.0787 159.262 86.9331 159.192C86.7874 159.119 86.6084 159.083 86.3961 159.083C86.1867 159.083 85.9956 159.127 85.8226 159.215C85.6527 159.303 85.5056 159.424 85.3812 159.579C85.2598 159.734 85.1643 159.911 85.0945 160.111C85.0277 160.309 84.9944 160.518 84.9944 160.74ZM91.5296 163.479C91.1867 163.479 90.8757 163.422 90.5966 163.306C90.3205 163.188 90.0824 163.023 89.8821 162.81C89.6849 162.598 89.5332 162.346 89.427 162.055C89.3208 161.763 89.2677 161.445 89.2677 161.099V160.908C89.2677 160.507 89.3269 160.151 89.4452 159.838C89.5635 159.523 89.7243 159.256 89.9276 159.037C90.1309 158.819 90.3615 158.654 90.6194 158.541C90.8773 158.429 91.1442 158.373 91.4203 158.373C91.7723 158.373 92.0757 158.434 92.3305 158.555C92.5884 158.676 92.7993 158.846 92.9631 159.065C93.127 159.28 93.2483 159.535 93.3272 159.829C93.4061 160.121 93.4455 160.439 93.4455 160.785V161.163H89.7683V160.476H92.6036V160.412C92.5915 160.193 92.5459 159.981 92.4671 159.775C92.3912 159.568 92.2699 159.398 92.103 159.265C91.9361 159.132 91.7086 159.065 91.4203 159.065C91.2292 159.065 91.0532 159.106 90.8924 159.188C90.7316 159.267 90.5936 159.385 90.4783 159.543C90.363 159.7 90.2735 159.893 90.2098 160.121C90.1461 160.348 90.1142 160.611 90.1142 160.908V161.099C90.1142 161.333 90.1461 161.553 90.2098 161.759C90.2765 161.962 90.3721 162.141 90.4965 162.296C90.6239 162.451 90.7771 162.572 90.9561 162.66C91.1382 162.748 91.3445 162.792 91.5751 162.792C91.8724 162.792 92.1242 162.731 92.3305 162.61C92.5368 162.489 92.7174 162.326 92.8721 162.123L93.3818 162.528C93.2756 162.689 93.1406 162.842 92.9768 162.988C92.8129 163.133 92.6112 163.252 92.3715 163.343C92.1348 163.434 91.8542 163.479 91.5296 163.479ZM99.6075 162.082C99.6075 161.961 99.5802 161.848 99.5256 161.745C99.474 161.639 99.3663 161.544 99.2025 161.459C99.0417 161.371 98.799 161.295 98.4743 161.231C98.2013 161.173 97.954 161.105 97.7325 161.026C97.5141 160.947 97.3275 160.852 97.1728 160.74C97.0211 160.627 96.9043 160.495 96.8223 160.344C96.7404 160.192 96.6995 160.014 96.6995 159.811C96.6995 159.617 96.7419 159.433 96.8269 159.26C96.9149 159.088 97.0378 158.934 97.1955 158.801C97.3563 158.667 97.549 158.563 97.7735 158.487C97.998 158.411 98.2483 158.373 98.5244 158.373C98.9188 158.373 99.2556 158.443 99.5347 158.582C99.8138 158.722 100.028 158.909 100.176 159.142C100.325 159.373 100.399 159.629 100.399 159.911H99.5575C99.5575 159.775 99.5165 159.643 99.4346 159.515C99.3557 159.385 99.2389 159.277 99.0842 159.192C98.9325 159.107 98.7459 159.065 98.5244 159.065C98.2908 159.065 98.1012 159.101 97.9555 159.174C97.8129 159.244 97.7083 159.333 97.6415 159.442C97.5778 159.552 97.5459 159.667 97.5459 159.788C97.5459 159.879 97.5611 159.961 97.5915 160.034C97.6248 160.104 97.6825 160.169 97.7644 160.23C97.8463 160.287 97.9616 160.342 98.1103 160.394C98.2589 160.445 98.4486 160.497 98.6791 160.548C99.0827 160.639 99.4149 160.749 99.6758 160.876C99.9367 161.003 100.131 161.16 100.258 161.345C100.386 161.53 100.449 161.754 100.449 162.018C100.449 162.234 100.404 162.431 100.313 162.61C100.225 162.789 100.096 162.944 99.9261 163.074C99.7592 163.202 99.559 163.302 99.3254 163.375C99.0948 163.444 98.8354 163.479 98.5472 163.479C98.1133 163.479 97.7462 163.402 97.4458 163.247C97.1455 163.092 96.9179 162.892 96.7632 162.646C96.6084 162.401 96.5311 162.141 96.5311 161.868H97.3776C97.3897 162.099 97.4564 162.282 97.5778 162.419C97.6992 162.552 97.8478 162.648 98.0238 162.706C98.1998 162.76 98.3742 162.787 98.5472 162.787C98.7777 162.787 98.9704 162.757 99.1251 162.696C99.2829 162.636 99.4027 162.552 99.4847 162.446C99.5666 162.34 99.6075 162.219 99.6075 162.082ZM104.459 162.546V160.011C104.459 159.817 104.419 159.649 104.341 159.506C104.265 159.361 104.149 159.248 103.995 159.169C103.84 159.091 103.649 159.051 103.421 159.051C103.209 159.051 103.022 159.088 102.861 159.16C102.704 159.233 102.579 159.329 102.488 159.447C102.4 159.565 102.356 159.693 102.356 159.829H101.514C101.514 159.653 101.56 159.479 101.651 159.306C101.742 159.133 101.872 158.977 102.042 158.837C102.215 158.695 102.422 158.582 102.661 158.5C102.904 158.415 103.174 158.373 103.471 158.373C103.829 158.373 104.145 158.434 104.418 158.555C104.694 158.676 104.909 158.86 105.064 159.106C105.222 159.348 105.301 159.653 105.301 160.02V162.314C105.301 162.478 105.314 162.652 105.342 162.838C105.372 163.023 105.416 163.182 105.474 163.315V163.388H104.595C104.553 163.291 104.52 163.162 104.495 163.001C104.471 162.838 104.459 162.686 104.459 162.546ZM104.604 160.403L104.614 160.994H103.763C103.523 160.994 103.309 161.014 103.121 161.054C102.933 161.09 102.775 161.146 102.648 161.222C102.52 161.298 102.423 161.393 102.356 161.509C102.29 161.621 102.256 161.753 102.256 161.905C102.256 162.059 102.291 162.2 102.361 162.328C102.431 162.455 102.535 162.557 102.675 162.633C102.817 162.706 102.992 162.742 103.198 162.742C103.456 162.742 103.684 162.687 103.881 162.578C104.078 162.469 104.234 162.335 104.35 162.178C104.468 162.02 104.532 161.867 104.541 161.718L104.9 162.123C104.879 162.25 104.821 162.392 104.727 162.546C104.633 162.701 104.507 162.85 104.35 162.992C104.195 163.132 104.01 163.249 103.794 163.343C103.582 163.434 103.342 163.479 103.075 163.479C102.742 163.479 102.449 163.414 102.197 163.284C101.948 163.153 101.754 162.979 101.615 162.76C101.478 162.539 101.41 162.291 101.41 162.018C101.41 161.754 101.461 161.522 101.564 161.322C101.668 161.119 101.816 160.95 102.01 160.817C102.205 160.68 102.438 160.577 102.711 160.507C102.984 160.438 103.289 160.403 103.626 160.403H104.604ZM107.463 159.442V163.388H106.616V158.464H107.417L107.463 159.442ZM107.29 160.74L106.898 160.726C106.901 160.389 106.945 160.078 107.03 159.793C107.115 159.505 107.241 159.254 107.408 159.042C107.575 158.83 107.783 158.666 108.031 158.551C108.28 158.432 108.568 158.373 108.896 158.373C109.127 158.373 109.339 158.406 109.533 158.473C109.727 158.537 109.896 158.638 110.038 158.778C110.181 158.918 110.292 159.097 110.371 159.315C110.449 159.534 110.489 159.797 110.489 160.107V163.388H109.647V160.148C109.647 159.89 109.603 159.684 109.515 159.529C109.43 159.374 109.309 159.262 109.151 159.192C108.993 159.119 108.808 159.083 108.596 159.083C108.347 159.083 108.139 159.127 107.972 159.215C107.805 159.303 107.672 159.424 107.572 159.579C107.472 159.734 107.399 159.911 107.353 160.111C107.311 160.309 107.29 160.518 107.29 160.74ZM110.48 160.275L109.915 160.448C109.919 160.178 109.963 159.919 110.047 159.67C110.135 159.421 110.261 159.2 110.425 159.006C110.592 158.811 110.797 158.658 111.04 158.546C111.282 158.431 111.56 158.373 111.872 158.373C112.136 158.373 112.37 158.408 112.573 158.478C112.78 158.547 112.952 158.655 113.092 158.801C113.235 158.943 113.342 159.127 113.415 159.351C113.488 159.576 113.524 159.843 113.524 160.152V163.388H112.678V160.143C112.678 159.867 112.634 159.653 112.546 159.502C112.461 159.347 112.34 159.239 112.182 159.179C112.027 159.115 111.842 159.083 111.627 159.083C111.442 159.083 111.278 159.115 111.135 159.179C110.993 159.242 110.873 159.33 110.776 159.442C110.679 159.552 110.604 159.678 110.553 159.82C110.504 159.963 110.48 160.115 110.48 160.275ZM116.842 163.479C116.499 163.479 116.188 163.422 115.909 163.306C115.633 163.188 115.395 163.023 115.195 162.81C114.997 162.598 114.846 162.346 114.74 162.055C114.633 161.763 114.58 161.445 114.58 161.099V160.908C114.58 160.507 114.639 160.151 114.758 159.838C114.876 159.523 115.037 159.256 115.24 159.037C115.443 158.819 115.674 158.654 115.932 158.541C116.19 158.429 116.457 158.373 116.733 158.373C117.085 158.373 117.388 158.434 117.643 158.555C117.901 158.676 118.112 158.846 118.276 159.065C118.439 159.28 118.561 159.535 118.64 159.829C118.719 160.121 118.758 160.439 118.758 160.785V161.163H115.081V160.476H117.916V160.412C117.904 160.193 117.858 159.981 117.78 159.775C117.704 159.568 117.582 159.398 117.415 159.265C117.249 159.132 117.021 159.065 116.733 159.065C116.542 159.065 116.366 159.106 116.205 159.188C116.044 159.267 115.906 159.385 115.791 159.543C115.675 159.7 115.586 159.893 115.522 160.121C115.459 160.348 115.427 160.611 115.427 160.908V161.099C115.427 161.333 115.459 161.553 115.522 161.759C115.589 161.962 115.685 162.141 115.809 162.296C115.936 162.451 116.09 162.572 116.269 162.66C116.451 162.748 116.657 162.792 116.888 162.792C117.185 162.792 117.437 162.731 117.643 162.61C117.849 162.489 118.03 162.326 118.185 162.123L118.694 162.528C118.588 162.689 118.453 162.842 118.289 162.988C118.125 163.133 117.924 163.252 117.684 163.343C117.447 163.434 117.167 163.479 116.842 163.479ZM122.89 159.442V163.388H122.044V158.464H122.845L122.89 159.442ZM122.717 160.74L122.326 160.726C122.329 160.389 122.373 160.078 122.458 159.793C122.543 159.505 122.669 159.254 122.836 159.042C123.003 158.83 123.21 158.666 123.459 158.551C123.708 158.432 123.996 158.373 124.324 158.373C124.554 158.373 124.767 158.406 124.961 158.473C125.155 158.537 125.324 158.638 125.466 158.778C125.609 158.918 125.719 159.097 125.798 159.315C125.877 159.534 125.917 159.797 125.917 160.107V163.388H125.075V160.148C125.075 159.89 125.031 159.684 124.943 159.529C124.858 159.374 124.736 159.262 124.579 159.192C124.421 159.119 124.236 159.083 124.023 159.083C123.775 159.083 123.567 159.127 123.4 159.215C123.233 159.303 123.1 159.424 123 159.579C122.899 159.734 122.827 159.911 122.781 160.111C122.739 160.309 122.717 160.518 122.717 160.74ZM125.908 160.275L125.343 160.448C125.346 160.178 125.39 159.919 125.475 159.67C125.563 159.421 125.689 159.2 125.853 159.006C126.02 158.811 126.225 158.658 126.467 158.546C126.71 158.431 126.988 158.373 127.3 158.373C127.564 158.373 127.798 158.408 128.001 158.478C128.207 158.547 128.38 158.655 128.52 158.801C128.662 158.943 128.77 159.127 128.843 159.351C128.916 159.576 128.952 159.843 128.952 160.152V163.388H128.106V160.143C128.106 159.867 128.062 159.653 127.974 159.502C127.889 159.347 127.767 159.239 127.61 159.179C127.455 159.115 127.27 159.083 127.054 159.083C126.869 159.083 126.706 159.115 126.563 159.179C126.42 159.242 126.3 159.33 126.203 159.442C126.106 159.552 126.032 159.678 125.98 159.82C125.932 159.963 125.908 160.115 125.908 160.275ZM130.003 160.981V160.876C130.003 160.521 130.055 160.192 130.158 159.888C130.261 159.582 130.41 159.317 130.604 159.092C130.798 158.865 131.034 158.689 131.31 158.564C131.586 158.437 131.895 158.373 132.238 158.373C132.584 158.373 132.895 158.437 133.171 158.564C133.45 158.689 133.687 158.865 133.881 159.092C134.078 159.317 134.228 159.582 134.331 159.888C134.435 160.192 134.486 160.521 134.486 160.876V160.981C134.486 161.336 134.435 161.665 134.331 161.968C134.228 162.272 134.078 162.537 133.881 162.765C133.687 162.989 133.452 163.165 133.175 163.293C132.902 163.417 132.593 163.479 132.247 163.479C131.901 163.479 131.59 163.417 131.314 163.293C131.038 163.165 130.801 162.989 130.604 162.765C130.41 162.537 130.261 162.272 130.158 161.968C130.055 161.665 130.003 161.336 130.003 160.981ZM130.845 160.876V160.981C130.845 161.226 130.874 161.459 130.932 161.677C130.99 161.892 131.076 162.084 131.191 162.25C131.31 162.417 131.457 162.549 131.633 162.646C131.809 162.74 132.013 162.787 132.247 162.787C132.478 162.787 132.679 162.74 132.852 162.646C133.028 162.549 133.174 162.417 133.289 162.25C133.405 162.084 133.491 161.892 133.549 161.677C133.609 161.459 133.64 161.226 133.64 160.981V160.876C133.64 160.633 133.609 160.404 133.549 160.189C133.491 159.97 133.403 159.778 133.285 159.611C133.169 159.441 133.024 159.307 132.848 159.21C132.675 159.113 132.472 159.065 132.238 159.065C132.007 159.065 131.804 159.113 131.628 159.21C131.455 159.307 131.31 159.441 131.191 159.611C131.076 159.778 130.99 159.97 130.932 160.189C130.874 160.404 130.845 160.633 130.845 160.876ZM136.966 162.628L138.314 158.464H139.174L137.403 163.388H136.839L136.966 162.628ZM135.842 158.464L137.23 162.651L137.326 163.388H136.762L134.978 158.464H135.842ZM140.898 158.464V163.388H140.052V158.464H140.898ZM139.988 157.158C139.988 157.021 140.029 156.906 140.111 156.812C140.196 156.718 140.321 156.671 140.484 156.671C140.645 156.671 140.768 156.718 140.853 156.812C140.941 156.906 140.985 157.021 140.985 157.158C140.985 157.288 140.941 157.401 140.853 157.495C140.768 157.586 140.645 157.631 140.484 157.631C140.321 157.631 140.196 157.586 140.111 157.495C140.029 157.401 139.988 157.288 139.988 157.158ZM144.294 163.479C143.951 163.479 143.64 163.422 143.361 163.306C143.084 163.188 142.846 163.023 142.646 162.81C142.449 162.598 142.297 162.346 142.191 162.055C142.085 161.763 142.032 161.445 142.032 161.099V160.908C142.032 160.507 142.091 160.151 142.209 159.838C142.327 159.523 142.488 159.256 142.692 159.037C142.895 158.819 143.125 158.654 143.383 158.541C143.641 158.429 143.908 158.373 144.184 158.373C144.536 158.373 144.84 158.434 145.094 158.555C145.352 158.676 145.563 158.846 145.727 159.065C145.891 159.28 146.012 159.535 146.091 159.829C146.17 160.121 146.209 160.439 146.209 160.785V161.163H142.532V160.476H145.368V160.412C145.355 160.193 145.31 159.981 145.231 159.775C145.155 159.568 145.034 159.398 144.867 159.265C144.7 159.132 144.473 159.065 144.184 159.065C143.993 159.065 143.817 159.106 143.656 159.188C143.496 159.267 143.358 159.385 143.242 159.543C143.127 159.7 143.037 159.893 142.974 160.121C142.91 160.348 142.878 160.611 142.878 160.908V161.099C142.878 161.333 142.91 161.553 142.974 161.759C143.04 161.962 143.136 162.141 143.26 162.296C143.388 162.451 143.541 162.572 143.72 162.66C143.902 162.748 144.108 162.792 144.339 162.792C144.636 162.792 144.888 162.731 145.094 162.61C145.301 162.489 145.481 162.326 145.636 162.123L146.146 162.528C146.04 162.689 145.905 162.842 145.741 162.988C145.577 163.133 145.375 163.252 145.135 163.343C144.899 163.434 144.618 163.479 144.294 163.479Z" fill="#E6E0E9"/>
<path d="M29 33.375H21.3937L24.8875 29.8812L24 29L19 34L24 39L24.8812 38.1188L21.3937 34.625H29V33.375Z" fill="#CAC4D0"/>
<path fill-rule="evenodd" clip-rule="evenodd" d="M21.6005 2.20361C10.8876 2.20361 2.20312 10.8882 2.20312 21.6011V417.044C2.20312 427.757 10.8876 436.441 21.6005 436.441H184.274C194.987 436.441 203.672 427.757 203.672 417.044V21.601C203.672 10.8881 194.987 2.20361 184.274 2.20361H21.6005ZM24.6859 8.37549C15.4339 8.37549 7.93359 15.8758 7.93359 25.1278V413.517C7.93359 422.769 15.4339 430.269 24.6859 430.269H181.188C190.44 430.269 197.94 422.769 197.94 413.517V25.1278C197.94 15.8758 190.44 8.37549 181.188 8.37549H24.6859Z" fill="#020202"/>
<g filter="url(#filter0_f_291_4800)">
<rect x="4.84905" y="4.84905" width="196.178" height="428.947" rx="18.9566" stroke="#6C6C6C" stroke-width="0.881701"/>
</g>
<circle cx="102.939" cy="16.0913" r="4.58793" fill="url(#paint0_radial_291_4800)" stroke="black" stroke-width="0.963707"/>
<path d="M205.877 163.114H206.759C207.489 163.114 208.081 163.706 208.081 164.437V190.888C208.081 191.618 207.489 192.21 206.759 192.21H205.877V163.114Z" fill="url(#paint1_linear_291_4800)"/>
<path d="M205.877 70.5356H206.759C207.489 70.5356 208.081 71.1278 208.081 71.8582V124.319C208.081 125.05 207.489 125.642 206.759 125.642H205.877V70.5356Z" fill="url(#paint2_linear_291_4800)"/>
<path d="M20.0353 18.7853H20.0984C20.3887 18.7853 20.6306 18.7474 20.8241 18.6717C21.0197 18.5939 21.1754 18.4866 21.291 18.3499C21.4067 18.2132 21.4898 18.0523 21.5403 17.8672C21.5908 17.6821 21.616 17.4812 21.616 17.2645V16.4726C21.616 16.2854 21.596 16.1213 21.5561 15.9804C21.5182 15.8374 21.4635 15.7185 21.392 15.6239C21.3226 15.5271 21.2416 15.4546 21.1491 15.4062C21.0586 15.3578 20.9608 15.3336 20.8556 15.3336C20.74 15.3336 20.6358 15.3599 20.5433 15.4125C20.4528 15.463 20.3761 15.5334 20.313 15.6239C20.252 15.7122 20.2046 15.8164 20.171 15.9362C20.1394 16.054 20.1237 16.1802 20.1237 16.3149C20.1237 16.4411 20.1384 16.5631 20.1678 16.6808C20.1994 16.7965 20.2457 16.8996 20.3067 16.99C20.3677 17.0805 20.4444 17.152 20.537 17.2046C20.6295 17.2572 20.7379 17.2835 20.862 17.2835C20.9797 17.2835 21.0881 17.2614 21.1869 17.2172C21.2858 17.1709 21.372 17.1089 21.4456 17.0311C21.5193 16.9532 21.5771 16.8659 21.6192 16.7692C21.6612 16.6724 21.6844 16.5736 21.6886 16.4726L21.9789 16.561C21.9789 16.7208 21.9452 16.8786 21.8779 17.0342C21.8127 17.1878 21.7212 17.3287 21.6034 17.457C21.4877 17.5832 21.352 17.6842 21.1964 17.7599C21.0428 17.8356 20.8756 17.8735 20.6947 17.8735C20.476 17.8735 20.2825 17.8325 20.1142 17.7504C19.948 17.6663 19.8092 17.5527 19.6977 17.4097C19.5883 17.2666 19.5063 17.1026 19.4516 16.9175C19.3969 16.7324 19.3696 16.5378 19.3696 16.3338C19.3696 16.1129 19.4033 15.9057 19.4706 15.7122C19.5379 15.5187 19.6357 15.3483 19.764 15.2011C19.8923 15.0518 20.0479 14.9361 20.2309 14.854C20.416 14.7699 20.6253 14.7278 20.8588 14.7278C21.107 14.7278 21.3247 14.7762 21.5119 14.873C21.6991 14.9697 21.8569 15.1033 21.9852 15.2737C22.1135 15.444 22.2102 15.6418 22.2754 15.8668C22.3406 16.0919 22.3732 16.3338 22.3732 16.5925V16.8607C22.3732 17.132 22.3491 17.3939 22.3007 17.6463C22.2523 17.8966 22.1734 18.129 22.064 18.3436C21.9568 18.556 21.8148 18.7432 21.6381 18.9052C21.4635 19.065 21.249 19.1902 20.9945 19.2806C20.7421 19.369 20.4455 19.4132 20.1047 19.4132H20.0353V18.7853ZM23.2771 19.0062C23.2771 18.8884 23.3171 18.7895 23.397 18.7096C23.4769 18.6275 23.5853 18.5865 23.722 18.5865C23.8608 18.5865 23.9691 18.6275 24.047 18.7096C24.1269 18.7895 24.1669 18.8884 24.1669 19.0062C24.1669 19.1239 24.1269 19.2228 24.047 19.3027C23.9691 19.3827 23.8608 19.4226 23.722 19.4226C23.5853 19.4226 23.4769 19.3827 23.397 19.3027C23.3171 19.2228 23.2771 19.1239 23.2771 19.0062ZM23.2803 16.318C23.2803 16.2002 23.3202 16.1014 23.4002 16.0214C23.4801 15.9394 23.5884 15.8984 23.7251 15.8984C23.864 15.8984 23.9723 15.9394 24.0501 16.0214C24.13 16.1014 24.17 16.2002 24.17 16.318C24.17 16.4358 24.13 16.5347 24.0501 16.6146C23.9723 16.6945 23.864 16.7345 23.7251 16.7345C23.5884 16.7345 23.4801 16.6945 23.4002 16.6146C23.3202 16.5347 23.2803 16.4358 23.2803 16.318ZM25.8847 16.7439H26.3391C26.5158 16.7439 26.662 16.7135 26.7776 16.6525C26.8954 16.5915 26.9827 16.5073 27.0395 16.4C27.0963 16.2928 27.1247 16.1697 27.1247 16.0309C27.1247 15.8858 27.0984 15.7617 27.0458 15.6586C26.9953 15.5534 26.9175 15.4724 26.8123 15.4157C26.7093 15.3589 26.5778 15.3305 26.418 15.3305C26.2833 15.3305 26.1613 15.3578 26.052 15.4125C25.9447 15.4651 25.8595 15.5408 25.7964 15.6397C25.7333 15.7364 25.7017 15.8521 25.7017 15.9867H24.9382C24.9382 15.7427 25.0024 15.5261 25.1307 15.3368C25.259 15.1475 25.4336 14.9992 25.6544 14.8919C25.8774 14.7825 26.1277 14.7278 26.4053 14.7278C26.7019 14.7278 26.9606 14.7773 27.1815 14.8761C27.4044 14.9729 27.578 15.118 27.7021 15.3115C27.8262 15.505 27.8882 15.7448 27.8882 16.0309C27.8882 16.1613 27.8577 16.2938 27.7967 16.4284C27.7357 16.5631 27.6453 16.6861 27.5254 16.7976C27.4055 16.907 27.2562 16.9964 27.0774 17.0658C26.8986 17.1331 26.6914 17.1667 26.4558 17.1667H25.8847V16.7439ZM25.8847 17.3371V16.9206H26.4558C26.7251 16.9206 26.9543 16.9522 27.1436 17.0153C27.335 17.0784 27.4907 17.1657 27.6106 17.2772C27.7305 17.3865 27.8178 17.5117 27.8725 17.6526C27.9292 17.7935 27.9576 17.9429 27.9576 18.1006C27.9576 18.3152 27.9187 18.5066 27.8409 18.6749C27.7652 18.841 27.6569 18.982 27.5159 19.0977C27.375 19.2133 27.2099 19.3006 27.0206 19.3595C26.8334 19.4184 26.6293 19.4479 26.4085 19.4479C26.2108 19.4479 26.0215 19.4205 25.8406 19.3658C25.6597 19.3111 25.4977 19.2302 25.3547 19.1229C25.2117 19.0135 25.0981 18.8778 25.0139 18.7159C24.9319 18.5518 24.8909 18.3625 24.8909 18.148H25.6513C25.6513 18.2847 25.6828 18.4056 25.7459 18.5108C25.8111 18.6139 25.9016 18.6949 26.0173 18.7537C26.135 18.8126 26.2697 18.8421 26.4211 18.8421C26.581 18.8421 26.7187 18.8137 26.8344 18.7569C26.9501 18.7001 27.0385 18.616 27.0995 18.5045C27.1626 18.393 27.1941 18.2584 27.1941 18.1006C27.1941 17.9219 27.1594 17.7767 27.09 17.6652C27.0206 17.5538 26.9217 17.4717 26.7934 17.4191C26.6651 17.3645 26.5137 17.3371 26.3391 17.3371H25.8847ZM31.7863 16.7029V17.4538C31.7863 17.8135 31.7505 18.1206 31.679 18.3751C31.6096 18.6275 31.5086 18.8326 31.3761 18.9904C31.2436 19.1481 31.0848 19.2638 30.8997 19.3374C30.7167 19.4111 30.5116 19.4479 30.2845 19.4479C30.1036 19.4479 29.9353 19.4247 29.7796 19.3785C29.6261 19.3322 29.4873 19.2596 29.3632 19.1608C29.2391 19.0619 29.1329 18.9346 29.0445 18.779C28.9583 18.6212 28.891 18.433 28.8426 18.2142C28.7963 17.9955 28.7732 17.742 28.7732 17.4538V16.7029C28.7732 16.3411 28.8089 16.0362 28.8804 15.788C28.952 15.5377 29.054 15.3347 29.1865 15.179C29.319 15.0213 29.4768 14.9066 29.6598 14.8351C29.8449 14.7636 30.051 14.7278 30.2782 14.7278C30.4611 14.7278 30.6294 14.751 30.783 14.7973C30.9386 14.8414 31.0774 14.9119 31.1994 15.0086C31.3235 15.1054 31.4287 15.2316 31.515 15.3873C31.6033 15.5408 31.6706 15.727 31.7169 15.9457C31.7632 16.1624 31.7863 16.4148 31.7863 16.7029ZM31.0259 17.5611V16.5893C31.0259 16.4064 31.0154 16.2454 30.9944 16.1066C30.9733 15.9657 30.9418 15.8469 30.8997 15.7501C30.8597 15.6512 30.8093 15.5713 30.7483 15.5103C30.6873 15.4472 30.6179 15.402 30.54 15.3746C30.4622 15.3452 30.3749 15.3305 30.2782 15.3305C30.1604 15.3305 30.0552 15.3536 29.9626 15.3999C29.8701 15.444 29.7923 15.5156 29.7292 15.6144C29.6661 15.7133 29.6177 15.8437 29.584 16.0057C29.5525 16.1655 29.5367 16.3601 29.5367 16.5893V17.5611C29.5367 17.7462 29.5472 17.9092 29.5683 18.0502C29.5893 18.1911 29.6208 18.312 29.6629 18.413C29.705 18.5119 29.7555 18.5939 29.8144 18.6591C29.8754 18.7222 29.9448 18.7685 30.0226 18.7979C30.1025 18.8274 30.1898 18.8421 30.2845 18.8421C30.4044 18.8421 30.5106 18.819 30.6031 18.7727C30.6957 18.7264 30.7735 18.6528 30.8366 18.5518C30.8997 18.4488 30.947 18.3152 30.9786 18.1511C31.0101 17.9871 31.0259 17.7904 31.0259 17.5611Z" fill="white"/>
<path opacity="0.1" d="M169.773 15.1924C168.203 15.1924 166.83 15.8789 165.85 16.9578L169.773 21.7309L173.696 16.9578C172.715 15.8789 171.342 15.1924 169.773 15.1924Z" fill="white"/>
<path d="M180.427 15.1924L173.889 21.7309H180.427V15.1924V15.1924Z" fill="white"/>
<path opacity="0.3" d="M185.925 15H184.541V15.6923H183.848C183.593 15.6923 183.387 15.9248 183.387 16.2116V21.4039C183.387 21.6907 183.593 21.9232 183.848 21.9232H186.618C186.872 21.9232 187.079 21.6907 187.079 21.4039V16.2116C187.079 15.9248 186.872 15.6923 186.618 15.6923H185.925V15Z" fill="white"/>
<path d="M183.387 18.6924C183.387 18.9616 183.387 21.1693 183.387 21.4386C183.387 21.7062 183.593 21.9232 183.848 21.9232H186.618C186.872 21.9232 187.079 21.7062 187.079 21.4386C187.079 21.1693 187.079 18.9616 187.079 18.6924H183.387Z" fill="white"/>
</g>
<defs>
<filter id="filter0_f_291_4800" x="2.6448" y="2.6448" width="200.587" height="433.356" filterUnits="userSpaceOnUse" color-interpolation-filters="sRGB">
<feFlood flood-opacity="0" result="BackgroundImageFix"/>
<feBlend mode="normal" in="SourceGraphic" in2="BackgroundImageFix" result="shape"/>
<feGaussianBlur stdDeviation="0.881701" result="effect1_foregroundBlur_291_4800"/>
</filter>
<radialGradient id="paint0_radial_291_4800" cx="0" cy="0" r="1" gradientUnits="userSpaceOnUse" gradientTransform="translate(102.057 14.7687) rotate(46.3322) scale(6.70397)">
<stop stop-color="#262A39"/>
<stop offset="0.660416"/>
</radialGradient>
<linearGradient id="paint1_linear_291_4800" x1="206.318" y1="192.21" x2="209.183" y2="192.21" gradientUnits="userSpaceOnUse">
<stop/>
<stop offset="1" stop-color="white"/>
</linearGradient>
<linearGradient id="paint2_linear_291_4800" x1="206.318" y1="125.642" x2="209.183" y2="125.642" gradientUnits="userSpaceOnUse">
<stop/>
<stop offset="1" stop-color="white"/>
</linearGradient>
<clipPath id="clip0_291_4800">
<rect width="208" height="439" fill="white"/>
</clipPath>
</defs>
</svg>
