<svg width="208" height="439" viewBox="0 0 208 439" fill="none" xmlns="http://www.w3.org/2000/svg">
<g clip-path="url(#clip0_274_5611)">
<rect x="0.44085" y="0.44085" width="204.995" height="437.764" rx="22.0425" fill="#B1B1B1" stroke="#414141" stroke-width="0.881701"/>
<rect x="7.4082" y="7.8208" width="190.951" height="424.336" rx="5.3042" fill="#1D1B20"/>
<path d="M20.0978 24.2992H20.161C20.4519 24.2992 20.6943 24.2613 20.8882 24.1854C21.0842 24.1074 21.2402 23.9999 21.3561 23.8629C21.472 23.7259 21.5553 23.5647 21.6059 23.3792C21.6564 23.1937 21.6817 22.9925 21.6817 22.7754V21.9818C21.6817 21.7942 21.6617 21.6298 21.6217 21.4886C21.5837 21.3453 21.5289 21.2262 21.4573 21.1314C21.3877 21.0344 21.3066 20.9617 21.2138 20.9132C21.1232 20.8648 21.0252 20.8405 20.9198 20.8405C20.8039 20.8405 20.6996 20.8669 20.6068 20.9196C20.5162 20.9701 20.4393 21.0407 20.376 21.1314C20.3149 21.2199 20.2675 21.3242 20.2338 21.4444C20.2021 21.5624 20.1863 21.6889 20.1863 21.8237C20.1863 21.9502 20.2011 22.0725 20.2306 22.1905C20.2622 22.3064 20.3086 22.4097 20.3697 22.5003C20.4308 22.5909 20.5078 22.6626 20.6005 22.7153C20.6932 22.768 20.8018 22.7943 20.9261 22.7943C21.0442 22.7943 21.1527 22.7722 21.2518 22.7279C21.3508 22.6816 21.4372 22.6194 21.511 22.5414C21.5848 22.4634 21.6427 22.376 21.6849 22.279C21.7271 22.1821 21.7502 22.083 21.7545 21.9818L22.0453 22.0703C22.0453 22.2305 22.0116 22.3886 21.9441 22.5446C21.8788 22.6984 21.7871 22.8396 21.6691 22.9682C21.5532 23.0947 21.4172 23.1958 21.2613 23.2717C21.1074 23.3476 20.9398 23.3855 20.7586 23.3855C20.5394 23.3855 20.3455 23.3444 20.1769 23.2622C20.0104 23.1779 19.8712 23.0641 19.7595 22.9208C19.6499 22.7775 19.5677 22.6131 19.5129 22.4276C19.4581 22.2421 19.4307 22.0472 19.4307 21.8427C19.4307 21.6214 19.4645 21.4138 19.5319 21.2199C19.5994 21.026 19.6974 20.8553 19.8259 20.7077C19.9545 20.5581 20.1105 20.4422 20.2938 20.36C20.4793 20.2757 20.689 20.2335 20.923 20.2335C21.1717 20.2335 21.3898 20.282 21.5774 20.3789C21.765 20.4759 21.9231 20.6097 22.0516 20.7804C22.1802 20.9512 22.2772 21.1493 22.3425 21.3748C22.4078 21.6003 22.4405 21.8427 22.4405 22.102V22.3707C22.4405 22.6426 22.4163 22.905 22.3678 23.1579C22.3193 23.4087 22.2403 23.6416 22.1307 23.8566C22.0232 24.0695 21.8809 24.2571 21.7039 24.4194C21.5289 24.5795 21.3139 24.7049 21.0589 24.7956C20.806 24.8841 20.5088 24.9284 20.1674 24.9284H20.0978V24.2992ZM23.3462 24.5205C23.3462 24.4025 23.3863 24.3034 23.4664 24.2233C23.5464 24.1411 23.655 24.1 23.792 24.1C23.9311 24.1 24.0396 24.1411 24.1176 24.2233C24.1977 24.3034 24.2378 24.4025 24.2378 24.5205C24.2378 24.6386 24.1977 24.7376 24.1176 24.8177C24.0396 24.8978 23.9311 24.9378 23.792 24.9378C23.655 24.9378 23.5464 24.8978 23.4664 24.8177C23.3863 24.7376 23.3462 24.6386 23.3462 24.5205ZM23.3494 21.8269C23.3494 21.7089 23.3894 21.6098 23.4695 21.5297C23.5496 21.4475 23.6581 21.4064 23.7951 21.4064C23.9343 21.4064 24.0428 21.4475 24.1208 21.5297C24.2009 21.6098 24.2409 21.7089 24.2409 21.8269C24.2409 21.9449 24.2009 22.044 24.1208 22.1241C24.0428 22.2042 23.9343 22.2442 23.7951 22.2442C23.6581 22.2442 23.5496 22.2042 23.4695 22.1241C23.3894 22.044 23.3494 21.9449 23.3494 21.8269ZM25.9591 22.2537H26.4144C26.5914 22.2537 26.7379 22.2232 26.8539 22.162C26.9719 22.1009 27.0593 22.0166 27.1163 21.9091C27.1732 21.8016 27.2016 21.6783 27.2016 21.5392C27.2016 21.3938 27.1753 21.2694 27.1226 21.1662C27.072 21.0608 26.994 20.9796 26.8886 20.9227C26.7854 20.8658 26.6536 20.8374 26.4934 20.8374C26.3585 20.8374 26.2363 20.8648 26.1267 20.9196C26.0192 20.9722 25.9338 21.0481 25.8706 21.1472C25.8074 21.2441 25.7758 21.3601 25.7758 21.495H25.0107C25.0107 21.2505 25.075 21.0334 25.2035 20.8437C25.3321 20.654 25.507 20.5054 25.7284 20.3979C25.9518 20.2883 26.2026 20.2335 26.4808 20.2335C26.778 20.2335 27.0372 20.283 27.2585 20.3821C27.4819 20.4791 27.6558 20.6245 27.7802 20.8184C27.9045 21.0123 27.9667 21.2526 27.9667 21.5392C27.9667 21.6699 27.9361 21.8027 27.875 21.9376C27.8139 22.0725 27.7233 22.1958 27.6031 22.3075C27.483 22.4171 27.3333 22.5066 27.1542 22.5762C26.975 22.6436 26.7674 22.6774 26.5314 22.6774H25.9591V22.2537ZM25.9591 22.8481V22.4308H26.5314C26.8012 22.4308 27.0309 22.4624 27.2206 22.5256C27.4124 22.5888 27.5684 22.6763 27.6885 22.788C27.8086 22.8976 27.8961 23.023 27.9509 23.1642C28.0078 23.3054 28.0363 23.4551 28.0363 23.6132C28.0363 23.8281 27.9973 24.0199 27.9193 24.1886C27.8434 24.3551 27.7349 24.4963 27.5936 24.6122C27.4524 24.7281 27.287 24.8156 27.0973 24.8746C26.9097 24.9336 26.7053 24.9631 26.484 24.9631C26.2858 24.9631 26.0961 24.9357 25.9149 24.8809C25.7336 24.8261 25.5713 24.745 25.428 24.6375C25.2847 24.5279 25.1709 24.392 25.0866 24.2297C25.0044 24.0653 24.9633 23.8756 24.9633 23.6606H25.7252C25.7252 23.7976 25.7568 23.9188 25.82 24.0242C25.8854 24.1274 25.976 24.2086 26.0919 24.2676C26.21 24.3266 26.3448 24.3561 26.4966 24.3561C26.6568 24.3561 26.7948 24.3277 26.9108 24.2708C27.0267 24.2139 27.1152 24.1295 27.1763 24.0178C27.2396 23.9061 27.2712 23.7712 27.2712 23.6132C27.2712 23.434 27.2364 23.2886 27.1668 23.1769C27.0973 23.0652 26.9982 22.983 26.8697 22.9303C26.7411 22.8755 26.5893 22.8481 26.4144 22.8481H25.9591ZM31.8727 22.2126V22.9651C31.8727 23.3255 31.8369 23.6332 31.7652 23.8882C31.6956 24.1411 31.5945 24.3466 31.4617 24.5047C31.3289 24.6628 31.1698 24.7787 30.9843 24.8525C30.8009 24.9262 30.5954 24.9631 30.3678 24.9631C30.1866 24.9631 30.0179 24.9399 29.862 24.8936C29.7081 24.8472 29.569 24.7745 29.4446 24.6754C29.3203 24.5764 29.2139 24.4489 29.1253 24.2929C29.0389 24.1348 28.9715 23.9462 28.923 23.727C28.8766 23.5078 28.8534 23.2538 28.8534 22.9651V22.2126C28.8534 21.8501 28.8893 21.5445 28.9609 21.2958C29.0326 21.045 29.1348 20.8416 29.2676 20.6856C29.4004 20.5275 29.5585 20.4127 29.7418 20.341C29.9273 20.2693 30.1339 20.2335 30.3615 20.2335C30.5449 20.2335 30.7135 20.2567 30.8673 20.3031C31.0233 20.3473 31.1624 20.4179 31.2846 20.5149C31.409 20.6118 31.5144 20.7383 31.6008 20.8943C31.6893 21.0481 31.7568 21.2347 31.8031 21.4539C31.8495 21.6709 31.8727 21.9239 31.8727 22.2126ZM31.1108 23.0725V22.0988C31.1108 21.9154 31.1002 21.7542 31.0792 21.6151C31.0581 21.4739 31.0265 21.3548 30.9843 21.2578C30.9443 21.1588 30.8937 21.0787 30.8326 21.0176C30.7714 20.9543 30.7019 20.909 30.6239 20.8816C30.5459 20.8521 30.4584 20.8374 30.3615 20.8374C30.2435 20.8374 30.1381 20.8605 30.0453 20.9069C29.9526 20.9512 29.8746 21.0228 29.8114 21.1219C29.7482 21.221 29.6997 21.3516 29.666 21.5139C29.6343 21.6741 29.6185 21.8691 29.6185 22.0988V23.0725C29.6185 23.258 29.6291 23.4214 29.6501 23.5626C29.6712 23.7038 29.7028 23.825 29.745 23.9262C29.7871 24.0252 29.8377 24.1074 29.8967 24.1728C29.9579 24.236 30.0274 24.2824 30.1054 24.3119C30.1855 24.3414 30.273 24.3561 30.3678 24.3561C30.4879 24.3561 30.5944 24.3329 30.6871 24.2866C30.7799 24.2402 30.8578 24.1664 30.9211 24.0653C30.9843 23.962 31.0317 23.8281 31.0633 23.6638C31.095 23.4994 31.1108 23.3023 31.1108 23.0725Z" fill="white"/>
<path opacity="0.1" d="M170.138 20.6929C168.566 20.6929 167.19 21.3808 166.207 22.4619L170.138 27.2447L174.069 22.4619C173.086 21.3808 171.711 20.6929 170.138 20.6929Z" fill="white"/>
<path d="M180.812 20.6929L174.26 27.2447H180.812V20.6929V20.6929Z" fill="white"/>
<path opacity="0.3" d="M186.325 20.5H184.937V21.1937H184.244C183.988 21.1937 183.781 21.4267 183.781 21.714V26.917C183.781 27.2043 183.988 27.4373 184.244 27.4373H187.019C187.274 27.4373 187.481 27.2043 187.481 26.917V21.714C187.481 21.4267 187.274 21.1937 187.019 21.1937H186.325V20.5Z" fill="white"/>
<path d="M183.781 24.2002C183.781 24.47 183.781 26.6822 183.781 26.952C183.781 27.2202 183.988 27.4376 184.244 27.4376H187.019C187.274 27.4376 187.481 27.2202 187.481 26.952C187.481 26.6822 187.481 24.47 187.481 24.2002H183.781Z" fill="white"/>
<path fill-rule="evenodd" clip-rule="evenodd" d="M103.036 16.8003C99.9713 16.8003 97.4863 19.2853 97.4863 22.3501C97.4863 25.4149 99.9713 27.8999 103.036 27.8999C106.101 27.8999 108.586 25.4149 108.586 22.3501C108.586 19.2853 106.101 16.8003 103.036 16.8003Z" fill="#1D1B20"/>
<rect width="190.544" height="29.599" transform="translate(7.43945 43.1479)" fill="#211F26"/>
<path d="M75.8141 53.2137H76.7431L79.1129 59.1108L81.4777 53.2137H82.4117L79.4706 60.4473H78.7453L75.8141 53.2137ZM75.5111 53.2137H76.3308L76.4649 57.6254V60.4473H75.5111V53.2137ZM81.8901 53.2137H82.7098V60.4473H81.756V57.6254L81.8901 53.2137ZM84.0115 57.8191V57.7049C84.0115 57.3174 84.0678 56.958 84.1804 56.6268C84.293 56.2923 84.4553 56.0025 84.6673 55.7574C84.8792 55.509 85.1359 55.3169 85.4373 55.1811C85.7387 55.042 86.0765 54.9724 86.4508 54.9724C86.8284 54.9724 87.1679 55.042 87.4693 55.1811C87.774 55.3169 88.0323 55.509 88.2443 55.7574C88.4596 56.0025 88.6235 56.2923 88.7361 56.6268C88.8487 56.958 88.905 57.3174 88.905 57.7049V57.8191C88.905 58.2067 88.8487 58.566 88.7361 58.8972C88.6235 59.2284 88.4596 59.5182 88.2443 59.7666C88.0323 60.0117 87.7756 60.2038 87.4742 60.3429C87.1761 60.4787 86.8383 60.5466 86.4607 60.5466C86.0832 60.5466 85.7437 60.4787 85.4423 60.3429C85.1409 60.2038 84.8825 60.0117 84.6673 59.7666C84.4553 59.5182 84.293 59.2284 84.1804 58.8972C84.0678 58.566 84.0115 58.2067 84.0115 57.8191ZM84.9306 57.7049V57.8191C84.9306 58.0874 84.962 58.3408 85.025 58.5793C85.0879 58.8144 85.1823 59.0231 85.3081 59.2052C85.4373 59.3874 85.5979 59.5315 85.79 59.6375C85.9821 59.7401 86.2057 59.7915 86.4607 59.7915C86.7125 59.7915 86.9327 59.7401 87.1215 59.6375C87.3136 59.5315 87.4726 59.3874 87.5984 59.2052C87.7243 59.0231 87.8187 58.8144 87.8816 58.5793C87.9479 58.3408 87.981 58.0874 87.981 57.8191V57.7049C87.981 57.4399 87.9479 57.1899 87.8816 56.9547C87.8187 56.7162 87.7226 56.5059 87.5935 56.3237C87.4676 56.1383 87.3086 55.9925 87.1165 55.8866C86.9277 55.7806 86.7058 55.7276 86.4508 55.7276C86.1991 55.7276 85.9772 55.7806 85.7851 55.8866C85.5963 55.9925 85.4373 56.1383 85.3081 56.3237C85.1823 56.5059 85.0879 56.7162 85.025 56.9547C84.962 57.1899 84.9306 57.4399 84.9306 57.7049ZM91.6127 59.6176L93.0832 55.0718H94.0222L92.0896 60.4473H91.4735L91.6127 59.6176ZM90.3855 55.0718L91.9008 59.6424L92.0051 60.4473H91.3891L89.4416 55.0718H90.3855ZM95.9051 55.0718V60.4473H94.981V55.0718H95.9051ZM94.9115 53.6459C94.9115 53.4969 94.9562 53.371 95.0456 53.2684C95.1383 53.1657 95.2741 53.1144 95.453 53.1144C95.6285 53.1144 95.7627 53.1657 95.8554 53.2684C95.9515 53.371 95.9995 53.4969 95.9995 53.6459C95.9995 53.7884 95.9515 53.9109 95.8554 54.0136C95.7627 54.1129 95.6285 54.1626 95.453 54.1626C95.2741 54.1626 95.1383 54.1129 95.0456 54.0136C94.9562 53.9109 94.9115 53.7884 94.9115 53.6459ZM99.6113 60.5466C99.237 60.5466 98.8975 60.4837 98.5928 60.3578C98.2914 60.2287 98.0314 60.0482 97.8128 59.8163C97.5975 59.5845 97.4319 59.3096 97.316 58.9916C97.2001 58.6737 97.1421 58.3259 97.1421 57.9483V57.7397C97.1421 57.3025 97.2067 56.9133 97.3359 56.5722C97.4651 56.2277 97.6406 55.9362 97.8625 55.6978C98.0844 55.4593 98.3361 55.2788 98.6177 55.1562C98.8992 55.0337 99.1907 54.9724 99.492 54.9724C99.8762 54.9724 100.207 55.0387 100.486 55.1711C100.767 55.3036 100.997 55.4891 101.176 55.7276C101.355 55.9627 101.488 56.2409 101.574 56.5622C101.66 56.8802 101.703 57.2279 101.703 57.6055V58.0179H97.6886V57.2677H100.784V57.1981C100.771 56.9597 100.721 56.7278 100.635 56.5026C100.552 56.2774 100.419 56.0919 100.237 55.9462C100.055 55.8004 99.8067 55.7276 99.492 55.7276C99.2834 55.7276 99.0913 55.7723 98.9157 55.8617C98.7402 55.9478 98.5895 56.077 98.4637 56.2492C98.3378 56.4215 98.2401 56.6318 98.1705 56.8802C98.101 57.1286 98.0662 57.4151 98.0662 57.7397V57.9483C98.0662 58.2033 98.101 58.4435 98.1705 58.6687C98.2434 58.8906 98.3477 59.086 98.4835 59.2549C98.6226 59.4238 98.7899 59.5563 98.9853 59.6524C99.184 59.7484 99.4092 59.7964 99.661 59.7964C99.9855 59.7964 100.26 59.7302 100.486 59.5977C100.711 59.4652 100.908 59.288 101.077 59.0661L101.633 59.5083C101.517 59.6838 101.37 59.8511 101.191 60.0101C101.012 60.1691 100.792 60.2982 100.53 60.3976C100.272 60.4969 99.9657 60.5466 99.6113 60.5466ZM103.218 53.2137H104.147L106.517 59.1108L108.882 53.2137H109.816L106.875 60.4473H106.149L103.218 53.2137ZM102.915 53.2137H103.735L103.869 57.6254V60.4473H102.915V53.2137ZM109.294 53.2137H110.114V60.4473H109.16V57.6254L109.294 53.2137ZM114.829 59.5282V56.7609C114.829 56.549 114.786 56.3651 114.699 56.2095C114.617 56.0505 114.491 55.928 114.322 55.8418C114.153 55.7557 113.944 55.7127 113.696 55.7127C113.464 55.7127 113.26 55.7524 113.085 55.8319C112.913 55.9114 112.777 56.0157 112.677 56.1449C112.581 56.2741 112.533 56.4132 112.533 56.5622H111.614C111.614 56.3701 111.664 56.1797 111.763 55.9909C111.863 55.8021 112.005 55.6315 112.19 55.4792C112.379 55.3235 112.605 55.201 112.866 55.1115C113.131 55.0188 113.426 54.9724 113.75 54.9724C114.141 54.9724 114.486 55.0387 114.784 55.1711C115.085 55.3036 115.32 55.504 115.489 55.7723C115.662 56.0373 115.748 56.3701 115.748 56.7709V59.2748C115.748 59.4536 115.763 59.6441 115.792 59.8461C115.825 60.0482 115.874 60.222 115.936 60.3678V60.4473H114.978C114.931 60.3413 114.895 60.2005 114.868 60.025C114.842 59.8461 114.829 59.6805 114.829 59.5282ZM114.988 57.1882L114.997 57.834H114.068C113.807 57.834 113.573 57.8556 113.368 57.8986C113.163 57.9384 112.99 57.9997 112.851 58.0825C112.712 58.1653 112.606 58.2696 112.533 58.3954C112.46 58.518 112.424 58.6621 112.424 58.8277C112.424 58.9966 112.462 59.1506 112.538 59.2897C112.614 59.4288 112.729 59.5398 112.881 59.6226C113.037 59.7021 113.227 59.7418 113.452 59.7418C113.734 59.7418 113.982 59.6822 114.198 59.5629C114.413 59.4437 114.583 59.298 114.709 59.1258C114.838 58.9535 114.908 58.7863 114.918 58.624L115.31 59.0661C115.287 59.2052 115.224 59.3593 115.122 59.5282C115.019 59.6971 114.882 59.8594 114.709 60.015C114.54 60.1674 114.338 60.2949 114.103 60.3976C113.871 60.4969 113.61 60.5466 113.318 60.5466C112.954 60.5466 112.634 60.4754 112.359 60.333C112.088 60.1906 111.876 60.0001 111.723 59.7617C111.574 59.5199 111.5 59.25 111.5 58.9519C111.5 58.6637 111.556 58.4103 111.669 58.1918C111.781 57.9698 111.944 57.786 112.156 57.6403C112.368 57.4912 112.623 57.3786 112.921 57.3025C113.219 57.2263 113.552 57.1882 113.919 57.1882H114.988ZM119.444 55.0718V55.7773H116.538V55.0718H119.444ZM117.521 53.7652H118.44V59.1158C118.44 59.298 118.469 59.4354 118.525 59.5282C118.581 59.6209 118.654 59.6822 118.743 59.712C118.833 59.7418 118.929 59.7567 119.032 59.7567C119.108 59.7567 119.187 59.7501 119.27 59.7368C119.356 59.7203 119.421 59.707 119.464 59.6971L119.469 60.4473C119.396 60.4705 119.3 60.492 119.181 60.5119C119.065 60.535 118.924 60.5466 118.758 60.5466C118.533 60.5466 118.326 60.5019 118.137 60.4125C117.949 60.3231 117.798 60.174 117.685 59.9654C117.576 59.7534 117.521 59.4686 117.521 59.1108V53.7652ZM122.673 59.7915C122.892 59.7915 123.094 59.7468 123.279 59.6573C123.465 59.5679 123.617 59.4454 123.736 59.2897C123.856 59.1307 123.923 58.9502 123.94 58.7482H124.814C124.798 59.0661 124.69 59.3626 124.491 59.6375C124.296 59.9091 124.039 60.1293 123.721 60.2982C123.403 60.4638 123.054 60.5466 122.673 60.5466C122.269 60.5466 121.916 60.4754 121.615 60.333C121.317 60.1906 121.068 59.9952 120.87 59.7468C120.674 59.4984 120.527 59.2135 120.428 58.8923C120.332 58.5677 120.284 58.2249 120.284 57.8639V57.6552C120.284 57.2942 120.332 56.953 120.428 56.6318C120.527 56.3072 120.674 56.0207 120.87 55.7723C121.068 55.5239 121.317 55.3285 121.615 55.1861C121.916 55.0436 122.269 54.9724 122.673 54.9724C123.094 54.9724 123.461 55.0585 123.776 55.2308C124.091 55.3997 124.337 55.6315 124.516 55.9263C124.699 56.2178 124.798 56.549 124.814 56.9199H123.94C123.923 56.698 123.861 56.4976 123.751 56.3188C123.645 56.1399 123.5 55.9975 123.314 55.8915C123.132 55.7822 122.918 55.7276 122.673 55.7276C122.392 55.7276 122.155 55.7839 121.963 55.8965C121.774 56.0058 121.623 56.1548 121.511 56.3436C121.401 56.5291 121.322 56.7361 121.272 56.9646C121.226 57.1899 121.203 57.42 121.203 57.6552V57.8639C121.203 58.099 121.226 58.3309 121.272 58.5594C121.319 58.7879 121.396 58.9949 121.506 59.1804C121.618 59.3659 121.769 59.5149 121.958 59.6275C122.15 59.7368 122.388 59.7915 122.673 59.7915ZM126.767 52.8163V60.4473H125.848V52.8163H126.767ZM126.548 57.5558L126.166 57.5409C126.169 57.1733 126.224 56.8338 126.33 56.5225C126.436 56.2078 126.585 55.9346 126.777 55.7027C126.969 55.4709 127.197 55.292 127.462 55.1662C127.731 55.037 128.027 54.9724 128.352 54.9724C128.617 54.9724 128.855 55.0089 129.067 55.0817C129.279 55.1513 129.46 55.2639 129.609 55.4196C129.761 55.5752 129.877 55.7773 129.956 56.0257C130.036 56.2708 130.076 56.5705 130.076 56.9249V60.4473H129.152V56.915C129.152 56.6334 129.11 56.4082 129.027 56.2393C128.945 56.0671 128.824 55.9429 128.665 55.8667C128.506 55.7872 128.31 55.7474 128.078 55.7474C127.85 55.7474 127.641 55.7955 127.452 55.8915C127.267 55.9876 127.106 56.1201 126.971 56.289C126.838 56.4579 126.734 56.6516 126.658 56.8702C126.585 57.0855 126.548 57.3141 126.548 57.5558Z" fill="#E6E0E9"/>
<g clip-path="url(#clip1_274_5611)">
<mask id="mask0_274_5611" style="mask-type:alpha" maskUnits="userSpaceOnUse" x="179" y="52" width="12" height="12">
<rect x="179.482" y="52.3975" width="11.0996" height="11.0996" fill="#D9D9D9"/>
</mask>
<g mask="url(#mask0_274_5611)">
<path d="M185.032 57.9474C184.523 57.9474 184.088 57.7663 183.725 57.404C183.363 57.0417 183.182 56.6062 183.182 56.0975C183.182 55.5888 183.363 55.1533 183.725 54.791C184.088 54.4287 184.523 54.2476 185.032 54.2476C185.541 54.2476 185.976 54.4287 186.338 54.791C186.701 55.1533 186.882 55.5888 186.882 56.0975C186.882 56.6062 186.701 57.0417 186.338 57.404C185.976 57.7663 185.541 57.9474 185.032 57.9474ZM181.332 61.6473V60.3524C181.332 60.0903 181.399 59.8494 181.534 59.6297C181.669 59.41 181.848 59.2424 182.072 59.1268C182.55 58.8878 183.036 58.7086 183.529 58.5891C184.022 58.4697 184.523 58.4099 185.032 58.4099C185.541 58.4099 186.042 58.4697 186.535 58.5891C187.028 58.7086 187.514 58.8878 187.992 59.1268C188.215 59.2424 188.395 59.41 188.529 59.6297C188.664 59.8494 188.732 60.0903 188.732 60.3524V61.6473H181.332Z" fill="#CAC4D0"/>
</g>
</g>
<path d="M20.6844 90.2528V92.0099C20.6191 92.0963 20.5169 92.1911 20.3779 92.2943C20.2409 92.3954 20.0587 92.4829 19.8312 92.5566C19.6036 92.6303 19.3203 92.6672 18.9811 92.6672C18.6924 92.6672 18.428 92.6188 18.1879 92.5218C17.9477 92.4228 17.7402 92.2785 17.5653 92.0889C17.3925 91.8993 17.2588 91.6686 17.1639 91.3968C17.0691 91.1229 17.0217 90.8111 17.0217 90.4614V90.1422C17.0217 89.7946 17.0649 89.4849 17.1513 89.2131C17.2398 88.9392 17.3662 88.7075 17.5305 88.5178C17.6949 88.3282 17.8929 88.185 18.1247 88.088C18.3585 87.989 18.6229 87.9395 18.9179 87.9395C19.295 87.9395 19.6068 88.0027 19.8533 88.1291C20.1019 88.2534 20.2936 88.4262 20.4285 88.6474C20.5633 88.8686 20.6486 89.1214 20.6844 89.4059H19.907C19.8817 89.2457 19.8322 89.1025 19.7585 88.9761C19.6869 88.8497 19.5836 88.7506 19.4488 88.679C19.3161 88.6053 19.1433 88.5684 18.9305 88.5684C18.7472 88.5684 18.586 88.6032 18.447 88.6727C18.3079 88.7422 18.1921 88.8444 18.0994 88.9792C18.0088 89.1141 17.9403 89.2784 17.894 89.4722C17.8476 89.6661 17.8244 89.8873 17.8244 90.1359V90.4614C17.8244 90.7142 17.8508 90.9386 17.9034 91.1345C17.9582 91.3304 18.0362 91.4958 18.1373 91.6307C18.2405 91.7655 18.3659 91.8677 18.5134 91.9372C18.6608 92.0046 18.8273 92.0383 19.0127 92.0383C19.1939 92.0383 19.3424 92.0236 19.4583 91.9941C19.5741 91.9625 19.6658 91.9256 19.7332 91.8835C19.8027 91.8392 19.8565 91.7971 19.8944 91.7571V90.8438H18.9368V90.2528H20.6844ZM22.2981 89.8357V92.604H21.5365V89.1846H22.2634L22.2981 89.8357ZM23.3442 89.1625L23.3378 89.8704C23.2915 89.862 23.2409 89.8557 23.1862 89.8515C23.1335 89.8472 23.0808 89.8451 23.0281 89.8451C22.8975 89.8451 22.7827 89.8641 22.6837 89.902C22.5847 89.9378 22.5014 89.9905 22.434 90.06C22.3687 90.1274 22.3181 90.2096 22.2823 90.3065C22.2465 90.4034 22.2254 90.5119 22.2191 90.632L22.0453 90.6447C22.0453 90.4298 22.0664 90.2307 22.1085 90.0474C22.1507 89.8641 22.2139 89.7029 22.2981 89.5639C22.3845 89.4248 22.492 89.3163 22.6205 89.2384C22.7511 89.1604 22.9017 89.1214 23.0724 89.1214C23.1187 89.1214 23.1682 89.1257 23.2209 89.1341C23.2757 89.1425 23.3168 89.152 23.3442 89.1625ZM23.6401 90.9322V90.8596C23.6401 90.6131 23.6759 90.3845 23.7475 90.1738C23.8191 89.961 23.9224 89.7767 24.0572 89.6208C24.1941 89.4627 24.3606 89.3406 24.5565 89.2542C24.7546 89.1657 24.9779 89.1214 25.2265 89.1214C25.4772 89.1214 25.7005 89.1657 25.8964 89.2542C26.0945 89.3406 26.262 89.4627 26.3989 89.6208C26.5359 89.7767 26.6402 89.961 26.7118 90.1738C26.7834 90.3845 26.8192 90.6131 26.8192 90.8596V90.9322C26.8192 91.1787 26.7834 91.4073 26.7118 91.618C26.6402 91.8287 26.5359 92.013 26.3989 92.1711C26.262 92.327 26.0955 92.4492 25.8996 92.5376C25.7037 92.624 25.4814 92.6672 25.2328 92.6672C24.9821 92.6672 24.7577 92.624 24.5597 92.5376C24.3637 92.4492 24.1973 92.327 24.0604 92.1711C23.9234 92.013 23.8191 91.8287 23.7475 91.618C23.6759 91.4073 23.6401 91.1787 23.6401 90.9322ZM24.4017 90.8596V90.9322C24.4017 91.086 24.4175 91.2314 24.4491 91.3684C24.4807 91.5053 24.5302 91.6254 24.5976 91.7286C24.665 91.8319 24.7514 91.913 24.8567 91.972C24.9621 92.031 25.0874 92.0604 25.2328 92.0604C25.374 92.0604 25.4962 92.031 25.5994 91.972C25.7047 91.913 25.7911 91.8319 25.8585 91.7286C25.9259 91.6254 25.9755 91.5053 26.0071 91.3684C26.0408 91.2314 26.0576 91.086 26.0576 90.9322V90.8596C26.0576 90.7079 26.0408 90.5646 26.0071 90.4298C25.9755 90.2928 25.9249 90.1717 25.8554 90.0663C25.7879 89.961 25.7016 89.8788 25.5962 89.8199C25.493 89.7588 25.3697 89.7282 25.2265 89.7282C25.0832 89.7282 24.9589 89.7588 24.8536 89.8199C24.7503 89.8788 24.665 89.961 24.5976 90.0663C24.5302 90.1717 24.4807 90.2928 24.4491 90.4298C24.4175 90.5646 24.4017 90.7079 24.4017 90.8596ZM29.5611 91.7981V89.1846H30.3259V92.604H29.6054L29.5611 91.7981ZM29.6686 91.0871L29.9246 91.0808C29.9246 91.3104 29.8993 91.5222 29.8487 91.716C29.7981 91.9077 29.7202 92.0752 29.6149 92.2185C29.5095 92.3596 29.3747 92.4702 29.2103 92.5503C29.046 92.6282 28.849 92.6672 28.6194 92.6672C28.4529 92.6672 28.3002 92.643 28.1612 92.5945C28.0221 92.5461 27.902 92.4713 27.8009 92.3701C27.7019 92.269 27.625 92.1373 27.5702 91.9751C27.5154 91.8129 27.488 91.6191 27.488 91.3936V89.1846H28.2496V91.4C28.2496 91.5243 28.2644 91.6285 28.2939 91.7128C28.3234 91.795 28.3634 91.8614 28.414 91.9119C28.4645 91.9625 28.5235 91.9983 28.5909 92.0194C28.6584 92.0404 28.73 92.051 28.8058 92.051C29.0228 92.051 29.1935 92.0088 29.3178 91.9246C29.4442 91.8382 29.5337 91.7223 29.5864 91.5769C29.6412 91.4316 29.6686 91.2683 29.6686 91.0871ZM31.9175 89.842V93.9187H31.1559V89.1846H31.8574L31.9175 89.842ZM34.1454 90.8627V90.9291C34.1454 91.1777 34.1159 91.4084 34.0569 91.6212C34.0001 91.8319 33.9147 92.0162 33.801 92.1742C33.6893 92.3301 33.5513 92.4513 33.387 92.5376C33.2226 92.624 33.033 92.6672 32.8181 92.6672C32.6054 92.6672 32.4189 92.6282 32.2588 92.5503C32.1008 92.4702 31.967 92.3575 31.8574 92.2121C31.7479 92.0668 31.6594 91.8961 31.592 91.7002C31.5267 91.5021 31.4803 91.2851 31.4529 91.0492V90.7932C31.4803 90.5425 31.5267 90.315 31.592 90.1106C31.6594 89.9062 31.7479 89.7303 31.8574 89.5828C31.967 89.4354 32.1008 89.3216 32.2588 89.2415C32.4168 89.1615 32.6011 89.1214 32.8118 89.1214C33.0267 89.1214 33.2174 89.1636 33.3838 89.2479C33.5503 89.33 33.6904 89.448 33.8041 89.6018C33.9179 89.7535 34.0032 89.9368 34.0601 90.1517C34.117 90.3645 34.1454 90.6015 34.1454 90.8627ZM33.3838 90.9291V90.8627C33.3838 90.7047 33.3691 90.5583 33.3396 90.4235C33.3101 90.2865 33.2637 90.1664 33.2005 90.0632C33.1373 89.96 33.0562 89.8799 32.9572 89.823C32.8603 89.764 32.7433 89.7345 32.6064 89.7345C32.4716 89.7345 32.3557 89.7577 32.2588 89.804C32.1619 89.8483 32.0808 89.9104 32.0154 89.9905C31.9501 90.0706 31.8996 90.1643 31.8638 90.2718C31.8279 90.3771 31.8027 90.4919 31.7879 90.6162V91.2293C31.8132 91.381 31.8564 91.52 31.9175 91.6465C31.9786 91.7729 32.065 91.874 32.1766 91.9498C32.2904 92.0236 32.4358 92.0604 32.6127 92.0604C32.7497 92.0604 32.8666 92.031 32.9635 91.972C33.0604 91.913 33.1394 91.8319 33.2005 91.7286C33.2637 91.6233 33.3101 91.5021 33.3396 91.3652C33.3691 91.2283 33.3838 91.0829 33.3838 90.9291ZM36.7578 91.6781C36.7578 91.6022 36.7388 91.5337 36.7009 91.4726C36.663 91.4094 36.5903 91.3526 36.4828 91.302C36.3775 91.2514 36.2216 91.2051 36.0151 91.1629C35.8339 91.1229 35.6675 91.0755 35.5158 91.0207C35.3662 90.9638 35.2377 90.8954 35.1302 90.8153C35.0228 90.7353 34.9396 90.6405 34.8806 90.5309C34.8216 90.4213 34.7921 90.2949 34.7921 90.1517C34.7921 90.0126 34.8227 89.8809 34.8838 89.7566C34.9448 89.6323 35.0323 89.5228 35.146 89.428C35.2598 89.3332 35.3978 89.2584 35.56 89.2036C35.7244 89.1488 35.9077 89.1214 36.1099 89.1214C36.3964 89.1214 36.6419 89.1699 36.8462 89.2668C37.0527 89.3616 37.2107 89.4912 37.3203 89.6555C37.4298 89.8177 37.4846 90.001 37.4846 90.2054H36.723C36.723 90.1148 36.6998 90.0305 36.6535 89.9526C36.6092 89.8725 36.5418 89.8083 36.4512 89.7598C36.3606 89.7092 36.2469 89.684 36.1099 89.684C35.9793 89.684 35.8708 89.705 35.7844 89.7472C35.7001 89.7872 35.6369 89.8399 35.5948 89.9052C35.5548 89.9705 35.5348 90.0421 35.5348 90.1201C35.5348 90.177 35.5453 90.2286 35.5664 90.2749C35.5895 90.3192 35.6275 90.3602 35.6801 90.3982C35.7328 90.434 35.8044 90.4677 35.895 90.4993C35.9877 90.5309 36.1036 90.5614 36.2426 90.5909C36.5039 90.6457 36.7283 90.7163 36.9158 90.8027C37.1054 90.887 37.2508 90.9965 37.3519 91.1313C37.453 91.2641 37.5036 91.4326 37.5036 91.637C37.5036 91.7887 37.4709 91.9277 37.4056 92.0541C37.3424 92.1784 37.2497 92.2869 37.1275 92.3796C37.0053 92.4702 36.8589 92.5408 36.6882 92.5914C36.5197 92.6419 36.3301 92.6672 36.1194 92.6672C35.8097 92.6672 35.5474 92.6124 35.3325 92.5029C35.1176 92.3912 34.9543 92.249 34.8427 92.0762C34.7331 91.9014 34.6783 91.7202 34.6783 91.5327H35.4147C35.4231 91.6738 35.4621 91.7866 35.5316 91.8708C35.6032 91.953 35.6917 92.013 35.7971 92.051C35.9045 92.0868 36.0151 92.1047 36.1289 92.1047C36.2658 92.1047 36.3806 92.0868 36.4733 92.051C36.566 92.013 36.6366 91.9625 36.6851 91.8993C36.7335 91.834 36.7578 91.7602 36.7578 91.6781Z" fill="#E6E0E9"/>
<path d="M20.6844 90.2528V92.0099C20.6191 92.0963 20.5169 92.1911 20.3779 92.2943C20.2409 92.3954 20.0587 92.4829 19.8312 92.5566C19.6036 92.6303 19.3203 92.6672 18.9811 92.6672C18.6924 92.6672 18.428 92.6188 18.1879 92.5218C17.9477 92.4228 17.7402 92.2785 17.5653 92.0889C17.3925 91.8993 17.2588 91.6686 17.1639 91.3968C17.0691 91.1229 17.0217 90.8111 17.0217 90.4614V90.1422C17.0217 89.7946 17.0649 89.4849 17.1513 89.2131C17.2398 88.9392 17.3662 88.7075 17.5305 88.5178C17.6949 88.3282 17.8929 88.185 18.1247 88.088C18.3585 87.989 18.6229 87.9395 18.9179 87.9395C19.295 87.9395 19.6068 88.0027 19.8533 88.1291C20.1019 88.2534 20.2936 88.4262 20.4285 88.6474C20.5633 88.8686 20.6486 89.1214 20.6844 89.4059H19.907C19.8817 89.2457 19.8322 89.1025 19.7585 88.9761C19.6869 88.8497 19.5836 88.7506 19.4488 88.679C19.3161 88.6053 19.1433 88.5684 18.9305 88.5684C18.7472 88.5684 18.586 88.6032 18.447 88.6727C18.3079 88.7422 18.1921 88.8444 18.0994 88.9792C18.0088 89.1141 17.9403 89.2784 17.894 89.4722C17.8476 89.6661 17.8244 89.8873 17.8244 90.1359V90.4614C17.8244 90.7142 17.8508 90.9386 17.9034 91.1345C17.9582 91.3304 18.0362 91.4958 18.1373 91.6307C18.2405 91.7655 18.3659 91.8677 18.5134 91.9372C18.6608 92.0046 18.8273 92.0383 19.0127 92.0383C19.1939 92.0383 19.3424 92.0236 19.4583 91.9941C19.5741 91.9625 19.6658 91.9256 19.7332 91.8835C19.8027 91.8392 19.8565 91.7971 19.8944 91.7571V90.8438H18.9368V90.2528H20.6844ZM22.2981 89.8357V92.604H21.5365V89.1846H22.2634L22.2981 89.8357ZM23.3442 89.1625L23.3378 89.8704C23.2915 89.862 23.2409 89.8557 23.1862 89.8515C23.1335 89.8472 23.0808 89.8451 23.0281 89.8451C22.8975 89.8451 22.7827 89.8641 22.6837 89.902C22.5847 89.9378 22.5014 89.9905 22.434 90.06C22.3687 90.1274 22.3181 90.2096 22.2823 90.3065C22.2465 90.4034 22.2254 90.5119 22.2191 90.632L22.0453 90.6447C22.0453 90.4298 22.0664 90.2307 22.1085 90.0474C22.1507 89.8641 22.2139 89.7029 22.2981 89.5639C22.3845 89.4248 22.492 89.3163 22.6205 89.2384C22.7511 89.1604 22.9017 89.1214 23.0724 89.1214C23.1187 89.1214 23.1682 89.1257 23.2209 89.1341C23.2757 89.1425 23.3168 89.152 23.3442 89.1625ZM23.6401 90.9322V90.8596C23.6401 90.6131 23.6759 90.3845 23.7475 90.1738C23.8191 89.961 23.9224 89.7767 24.0572 89.6208C24.1941 89.4627 24.3606 89.3406 24.5565 89.2542C24.7546 89.1657 24.9779 89.1214 25.2265 89.1214C25.4772 89.1214 25.7005 89.1657 25.8964 89.2542C26.0945 89.3406 26.262 89.4627 26.3989 89.6208C26.5359 89.7767 26.6402 89.961 26.7118 90.1738C26.7834 90.3845 26.8192 90.6131 26.8192 90.8596V90.9322C26.8192 91.1787 26.7834 91.4073 26.7118 91.618C26.6402 91.8287 26.5359 92.013 26.3989 92.1711C26.262 92.327 26.0955 92.4492 25.8996 92.5376C25.7037 92.624 25.4814 92.6672 25.2328 92.6672C24.9821 92.6672 24.7577 92.624 24.5597 92.5376C24.3637 92.4492 24.1973 92.327 24.0604 92.1711C23.9234 92.013 23.8191 91.8287 23.7475 91.618C23.6759 91.4073 23.6401 91.1787 23.6401 90.9322ZM24.4017 90.8596V90.9322C24.4017 91.086 24.4175 91.2314 24.4491 91.3684C24.4807 91.5053 24.5302 91.6254 24.5976 91.7286C24.665 91.8319 24.7514 91.913 24.8567 91.972C24.9621 92.031 25.0874 92.0604 25.2328 92.0604C25.374 92.0604 25.4962 92.031 25.5994 91.972C25.7047 91.913 25.7911 91.8319 25.8585 91.7286C25.9259 91.6254 25.9755 91.5053 26.0071 91.3684C26.0408 91.2314 26.0576 91.086 26.0576 90.9322V90.8596C26.0576 90.7079 26.0408 90.5646 26.0071 90.4298C25.9755 90.2928 25.9249 90.1717 25.8554 90.0663C25.7879 89.961 25.7016 89.8788 25.5962 89.8199C25.493 89.7588 25.3697 89.7282 25.2265 89.7282C25.0832 89.7282 24.9589 89.7588 24.8536 89.8199C24.7503 89.8788 24.665 89.961 24.5976 90.0663C24.5302 90.1717 24.4807 90.2928 24.4491 90.4298C24.4175 90.5646 24.4017 90.7079 24.4017 90.8596ZM29.5611 91.7981V89.1846H30.3259V92.604H29.6054L29.5611 91.7981ZM29.6686 91.0871L29.9246 91.0808C29.9246 91.3104 29.8993 91.5222 29.8487 91.716C29.7981 91.9077 29.7202 92.0752 29.6149 92.2185C29.5095 92.3596 29.3747 92.4702 29.2103 92.5503C29.046 92.6282 28.849 92.6672 28.6194 92.6672C28.4529 92.6672 28.3002 92.643 28.1612 92.5945C28.0221 92.5461 27.902 92.4713 27.8009 92.3701C27.7019 92.269 27.625 92.1373 27.5702 91.9751C27.5154 91.8129 27.488 91.6191 27.488 91.3936V89.1846H28.2496V91.4C28.2496 91.5243 28.2644 91.6285 28.2939 91.7128C28.3234 91.795 28.3634 91.8614 28.414 91.9119C28.4645 91.9625 28.5235 91.9983 28.5909 92.0194C28.6584 92.0404 28.73 92.051 28.8058 92.051C29.0228 92.051 29.1935 92.0088 29.3178 91.9246C29.4442 91.8382 29.5337 91.7223 29.5864 91.5769C29.6412 91.4316 29.6686 91.2683 29.6686 91.0871ZM31.9175 89.842V93.9187H31.1559V89.1846H31.8574L31.9175 89.842ZM34.1454 90.8627V90.9291C34.1454 91.1777 34.1159 91.4084 34.0569 91.6212C34.0001 91.8319 33.9147 92.0162 33.801 92.1742C33.6893 92.3301 33.5513 92.4513 33.387 92.5376C33.2226 92.624 33.033 92.6672 32.8181 92.6672C32.6054 92.6672 32.4189 92.6282 32.2588 92.5503C32.1008 92.4702 31.967 92.3575 31.8574 92.2121C31.7479 92.0668 31.6594 91.8961 31.592 91.7002C31.5267 91.5021 31.4803 91.2851 31.4529 91.0492V90.7932C31.4803 90.5425 31.5267 90.315 31.592 90.1106C31.6594 89.9062 31.7479 89.7303 31.8574 89.5828C31.967 89.4354 32.1008 89.3216 32.2588 89.2415C32.4168 89.1615 32.6011 89.1214 32.8118 89.1214C33.0267 89.1214 33.2174 89.1636 33.3838 89.2479C33.5503 89.33 33.6904 89.448 33.8041 89.6018C33.9179 89.7535 34.0032 89.9368 34.0601 90.1517C34.117 90.3645 34.1454 90.6015 34.1454 90.8627ZM33.3838 90.9291V90.8627C33.3838 90.7047 33.3691 90.5583 33.3396 90.4235C33.3101 90.2865 33.2637 90.1664 33.2005 90.0632C33.1373 89.96 33.0562 89.8799 32.9572 89.823C32.8603 89.764 32.7433 89.7345 32.6064 89.7345C32.4716 89.7345 32.3557 89.7577 32.2588 89.804C32.1619 89.8483 32.0808 89.9104 32.0154 89.9905C31.9501 90.0706 31.8996 90.1643 31.8638 90.2718C31.8279 90.3771 31.8027 90.4919 31.7879 90.6162V91.2293C31.8132 91.381 31.8564 91.52 31.9175 91.6465C31.9786 91.7729 32.065 91.874 32.1766 91.9498C32.2904 92.0236 32.4358 92.0604 32.6127 92.0604C32.7497 92.0604 32.8666 92.031 32.9635 91.972C33.0604 91.913 33.1394 91.8319 33.2005 91.7286C33.2637 91.6233 33.3101 91.5021 33.3396 91.3652C33.3691 91.2283 33.3838 91.0829 33.3838 90.9291ZM36.7578 91.6781C36.7578 91.6022 36.7388 91.5337 36.7009 91.4726C36.663 91.4094 36.5903 91.3526 36.4828 91.302C36.3775 91.2514 36.2216 91.2051 36.0151 91.1629C35.8339 91.1229 35.6675 91.0755 35.5158 91.0207C35.3662 90.9638 35.2377 90.8954 35.1302 90.8153C35.0228 90.7353 34.9396 90.6405 34.8806 90.5309C34.8216 90.4213 34.7921 90.2949 34.7921 90.1517C34.7921 90.0126 34.8227 89.8809 34.8838 89.7566C34.9448 89.6323 35.0323 89.5228 35.146 89.428C35.2598 89.3332 35.3978 89.2584 35.56 89.2036C35.7244 89.1488 35.9077 89.1214 36.1099 89.1214C36.3964 89.1214 36.6419 89.1699 36.8462 89.2668C37.0527 89.3616 37.2107 89.4912 37.3203 89.6555C37.4298 89.8177 37.4846 90.001 37.4846 90.2054H36.723C36.723 90.1148 36.6998 90.0305 36.6535 89.9526C36.6092 89.8725 36.5418 89.8083 36.4512 89.7598C36.3606 89.7092 36.2469 89.684 36.1099 89.684C35.9793 89.684 35.8708 89.705 35.7844 89.7472C35.7001 89.7872 35.6369 89.8399 35.5948 89.9052C35.5548 89.9705 35.5348 90.0421 35.5348 90.1201C35.5348 90.177 35.5453 90.2286 35.5664 90.2749C35.5895 90.3192 35.6275 90.3602 35.6801 90.3982C35.7328 90.434 35.8044 90.4677 35.895 90.4993C35.9877 90.5309 36.1036 90.5614 36.2426 90.5909C36.5039 90.6457 36.7283 90.7163 36.9158 90.8027C37.1054 90.887 37.2508 90.9965 37.3519 91.1313C37.453 91.2641 37.5036 91.4326 37.5036 91.637C37.5036 91.7887 37.4709 91.9277 37.4056 92.0541C37.3424 92.1784 37.2497 92.2869 37.1275 92.3796C37.0053 92.4702 36.8589 92.5408 36.6882 92.5914C36.5197 92.6419 36.3301 92.6672 36.1194 92.6672C35.8097 92.6672 35.5474 92.6124 35.3325 92.5029C35.1176 92.3912 34.9543 92.249 34.8427 92.0762C34.7331 91.9014 34.6783 91.7202 34.6783 91.5327H35.4147C35.4231 91.6738 35.4621 91.7866 35.5316 91.8708C35.6032 91.953 35.6917 92.013 35.7971 92.051C35.9045 92.0868 36.0151 92.1047 36.1289 92.1047C36.2658 92.1047 36.3806 92.0868 36.4733 92.051C36.566 92.013 36.6366 91.9625 36.6851 91.8993C36.7335 91.834 36.7578 91.7602 36.7578 91.6781Z" fill="#E6E0E9"/>
<rect width="190.544" height="33.2989" transform="translate(7.89258 104.633)" fill="#141218"/>
<g clip-path="url(#clip2_274_5611)">
<path d="M16.6009 117.79V123.051H15.9036V117.79H16.6009ZM18.805 120.157V120.728H16.4492V120.157H18.805ZM19.1627 117.79V118.361H16.4492V117.79H19.1627ZM20.6983 119.756V123.051H20.0298V119.141H20.6802L20.6983 119.756ZM21.9195 119.12L21.9159 119.741C21.8605 119.729 21.8075 119.722 21.7569 119.719C21.7087 119.715 21.6533 119.712 21.5907 119.712C21.4365 119.712 21.3004 119.736 21.1824 119.784C21.0644 119.833 20.9644 119.9 20.8825 119.987C20.8006 120.074 20.7356 120.177 20.6874 120.298C20.6416 120.416 20.6115 120.546 20.5971 120.688L20.4092 120.796C20.4092 120.56 20.4321 120.339 20.4779 120.131C20.526 119.924 20.5995 119.741 20.6983 119.582C20.797 119.421 20.9223 119.296 21.074 119.206C21.2282 119.115 21.4113 119.069 21.6232 119.069C21.6714 119.069 21.7268 119.075 21.7894 119.087C21.8521 119.097 21.8954 119.108 21.9195 119.12ZM24.3186 123.123C24.0465 123.123 23.7996 123.077 23.5779 122.986C23.3587 122.892 23.1697 122.761 23.0107 122.592C22.8541 122.423 22.7337 122.223 22.6494 121.992C22.5651 121.761 22.5229 121.508 22.5229 121.233V121.082C22.5229 120.764 22.5699 120.481 22.6638 120.233C22.7578 119.982 22.8854 119.77 23.0468 119.597C23.2082 119.423 23.3913 119.292 23.596 119.203C23.8008 119.114 24.0127 119.069 24.2319 119.069C24.5113 119.069 24.7522 119.117 24.9546 119.214C25.1593 119.31 25.3267 119.445 25.4568 119.618C25.5869 119.789 25.6832 119.992 25.7458 120.225C25.8085 120.457 25.8398 120.709 25.8398 120.984V121.284H22.9203V120.738H25.1713V120.688C25.1617 120.514 25.1256 120.346 25.063 120.182C25.0027 120.018 24.9064 119.883 24.7739 119.777C24.6414 119.671 24.4608 119.618 24.2319 119.618C24.0802 119.618 23.9405 119.651 23.8128 119.716C23.6851 119.778 23.5755 119.872 23.484 119.998C23.3925 120.123 23.3214 120.276 23.2708 120.457C23.2202 120.637 23.1949 120.846 23.1949 121.082V121.233C23.1949 121.419 23.2202 121.593 23.2708 121.757C23.3238 121.919 23.3997 122.061 23.4985 122.184C23.5996 122.306 23.7213 122.403 23.8634 122.473C24.0079 122.543 24.1717 122.577 24.3548 122.577C24.5908 122.577 24.7908 122.529 24.9546 122.433C25.1184 122.337 25.2617 122.208 25.3845 122.046L25.7892 122.368C25.7049 122.496 25.5977 122.617 25.4676 122.733C25.3376 122.848 25.1774 122.942 24.9871 123.015C24.7992 123.087 24.5764 123.123 24.3186 123.123ZM29.3156 122.292V117.501H29.9877V123.051H29.3735L29.3156 122.292ZM26.6853 121.139V121.064C26.6853 120.765 26.7214 120.494 26.7937 120.251C26.8683 120.005 26.9731 119.794 27.108 119.618C27.2453 119.442 27.4079 119.308 27.5958 119.214C27.7861 119.117 27.998 119.069 28.2317 119.069C28.4774 119.069 28.6918 119.112 28.8748 119.199C29.0603 119.283 29.2169 119.408 29.3445 119.571C29.4746 119.733 29.577 119.928 29.6517 120.157C29.7263 120.385 29.7781 120.644 29.807 120.933V121.266C29.7805 121.553 29.7287 121.81 29.6517 122.039C29.577 122.268 29.4746 122.463 29.3445 122.624C29.2169 122.786 29.0603 122.91 28.8748 122.997C28.6894 123.081 28.4726 123.123 28.2245 123.123C27.9956 123.123 27.7861 123.074 27.5958 122.975C27.4079 122.876 27.2453 122.738 27.108 122.559C26.9731 122.381 26.8683 122.172 26.7937 121.931C26.7214 121.687 26.6853 121.424 26.6853 121.139ZM27.3573 121.064V121.139C27.3573 121.335 27.3766 121.518 27.4151 121.689C27.4561 121.86 27.5187 122.01 27.603 122.14C27.6873 122.27 27.7945 122.373 27.9246 122.447C28.0546 122.52 28.21 122.556 28.3907 122.556C28.6123 122.556 28.7941 122.509 28.9363 122.415C29.0808 122.321 29.1964 122.197 29.2831 122.043C29.3698 121.889 29.4373 121.721 29.4855 121.54V120.67C29.4566 120.537 29.4144 120.41 29.359 120.287C29.306 120.161 29.2362 120.051 29.1494 119.954C29.0651 119.856 28.9603 119.777 28.8351 119.719C28.7122 119.662 28.5665 119.633 28.3979 119.633C28.2148 119.633 28.0571 119.671 27.9246 119.748C27.7945 119.823 27.6873 119.927 27.603 120.059C27.5187 120.189 27.4561 120.341 27.4151 120.514C27.3766 120.685 27.3573 120.868 27.3573 121.064ZM33.5647 122.382V120.37C33.5647 120.216 33.5334 120.082 33.4708 119.969C33.4106 119.853 33.319 119.764 33.1962 119.701C33.0733 119.639 32.9216 119.607 32.7409 119.607C32.5723 119.607 32.4242 119.636 32.2965 119.694C32.1712 119.752 32.0725 119.828 32.0002 119.922C31.9304 120.016 31.8954 120.117 31.8954 120.225H31.227C31.227 120.086 31.2631 119.947 31.3354 119.81C31.4077 119.672 31.5112 119.548 31.6461 119.438C31.7834 119.324 31.9472 119.235 32.1375 119.17C32.3302 119.103 32.5446 119.069 32.7807 119.069C33.0649 119.069 33.3154 119.117 33.5322 119.214C33.7514 119.31 33.9224 119.456 34.0453 119.651C34.1705 119.843 34.2332 120.086 34.2332 120.377V122.198C34.2332 122.328 34.244 122.467 34.2657 122.614C34.2898 122.761 34.3247 122.887 34.3705 122.993V123.051H33.6731C33.6394 122.974 33.6129 122.871 33.5936 122.744C33.5744 122.614 33.5647 122.493 33.5647 122.382ZM33.6803 120.681L33.6876 121.15H33.0119C32.8216 121.15 32.6518 121.166 32.5024 121.197C32.3531 121.226 32.2278 121.271 32.1267 121.331C32.0255 121.391 31.9484 121.467 31.8954 121.559C31.8424 121.648 31.8159 121.752 31.8159 121.873C31.8159 121.996 31.8436 122.108 31.8991 122.209C31.9545 122.31 32.0376 122.391 32.1484 122.451C32.2616 122.509 32.4001 122.538 32.5639 122.538C32.7686 122.538 32.9493 122.494 33.1058 122.408C33.2624 122.321 33.3865 122.215 33.478 122.09C33.5719 121.964 33.6225 121.843 33.6298 121.725L33.9152 122.046C33.8983 122.147 33.8526 122.259 33.7779 122.382C33.7032 122.505 33.6033 122.623 33.478 122.736C33.3552 122.847 33.2082 122.94 33.0372 123.015C32.8686 123.087 32.6783 123.123 32.4663 123.123C32.2014 123.123 31.9689 123.071 31.769 122.968C31.5715 122.864 31.4173 122.726 31.3065 122.552C31.1981 122.376 31.1439 122.18 31.1439 121.963C31.1439 121.754 31.1848 121.569 31.2667 121.41C31.3486 121.249 31.4667 121.115 31.6208 121.009C31.775 120.901 31.9605 120.819 32.1773 120.764C32.3941 120.708 32.6361 120.681 32.9035 120.681H33.6803ZM38.0486 119.141H38.6557V122.968C38.6557 123.312 38.5858 123.606 38.4461 123.849C38.3064 124.093 38.1113 124.277 37.8608 124.402C37.6127 124.53 37.326 124.594 37.0008 124.594C36.8659 124.594 36.707 124.572 36.5239 124.529C36.3432 124.488 36.165 124.417 35.9891 124.315C35.8157 124.217 35.67 124.083 35.552 123.914L35.9024 123.517C36.0662 123.714 36.2373 123.852 36.4155 123.929C36.5962 124.006 36.7744 124.044 36.9502 124.044C37.1622 124.044 37.3453 124.005 37.4994 123.925C37.6536 123.846 37.7728 123.728 37.8572 123.571C37.9439 123.417 37.9872 123.227 37.9872 123V120.001L38.0486 119.141ZM35.3568 121.139V121.064C35.3568 120.765 35.3918 120.494 35.4616 120.251C35.5339 120.005 35.6363 119.794 35.7687 119.618C35.9036 119.442 36.0662 119.308 36.2565 119.214C36.4468 119.117 36.6612 119.069 36.8997 119.069C37.1454 119.069 37.3597 119.112 37.5428 119.199C37.7283 119.283 37.8849 119.408 38.0125 119.571C38.1426 119.733 38.245 119.928 38.3196 120.157C38.3943 120.385 38.4461 120.644 38.475 120.933V121.266C38.4485 121.553 38.3967 121.81 38.3196 122.039C38.245 122.268 38.1426 122.463 38.0125 122.624C37.8849 122.786 37.7283 122.91 37.5428 122.997C37.3573 123.081 37.1405 123.123 36.8924 123.123C36.6588 123.123 36.4468 123.074 36.2565 122.975C36.0686 122.876 35.9072 122.738 35.7724 122.559C35.6375 122.381 35.5339 122.172 35.4616 121.931C35.3918 121.687 35.3568 121.424 35.3568 121.139ZM36.0253 121.064V121.139C36.0253 121.335 36.0445 121.518 36.0831 121.689C36.124 121.86 36.1855 122.01 36.2674 122.14C36.3517 122.27 36.4589 122.373 36.5889 122.447C36.719 122.52 36.8744 122.556 37.055 122.556C37.2766 122.556 37.4597 122.509 37.6042 122.415C37.7488 122.321 37.8632 122.197 37.9475 122.043C38.0342 121.889 38.1016 121.721 38.1498 121.54V120.67C38.1233 120.537 38.0824 120.41 38.027 120.287C37.974 120.161 37.9041 120.051 37.8174 119.954C37.7331 119.856 37.6283 119.777 37.5031 119.719C37.3778 119.662 37.2309 119.633 37.0623 119.633C36.8792 119.633 36.7214 119.671 36.5889 119.748C36.4589 119.823 36.3517 119.927 36.2674 120.059C36.1855 120.189 36.124 120.341 36.0831 120.514C36.0445 120.685 36.0253 120.868 36.0253 121.064ZM42.1785 122.014C42.1785 121.917 42.1568 121.828 42.1135 121.746C42.0725 121.662 41.987 121.586 41.8569 121.519C41.7293 121.449 41.5366 121.389 41.2788 121.338C41.062 121.292 40.8657 121.238 40.6899 121.176C40.5164 121.113 40.3683 121.037 40.2454 120.948C40.125 120.859 40.0323 120.754 39.9672 120.634C39.9022 120.513 39.8697 120.372 39.8697 120.211C39.8697 120.057 39.9034 119.911 39.9708 119.774C40.0407 119.636 40.1383 119.515 40.2635 119.409C40.3912 119.303 40.5441 119.22 40.7224 119.159C40.9006 119.099 41.0994 119.069 41.3186 119.069C41.6317 119.069 41.8991 119.124 42.1207 119.235C42.3423 119.346 42.5121 119.494 42.6301 119.68C42.7482 119.863 42.8072 120.066 42.8072 120.29H42.1387C42.1387 120.182 42.1062 120.077 42.0412 119.976C41.9786 119.872 41.8858 119.787 41.763 119.719C41.6425 119.652 41.4944 119.618 41.3186 119.618C41.1331 119.618 40.9825 119.647 40.8669 119.705C40.7537 119.76 40.6706 119.831 40.6176 119.918C40.567 120.005 40.5417 120.096 40.5417 120.193C40.5417 120.265 40.5538 120.33 40.5779 120.388C40.6044 120.443 40.6501 120.495 40.7152 120.543C40.7802 120.589 40.8717 120.632 40.9898 120.673C41.1078 120.714 41.2583 120.755 41.4414 120.796C41.7618 120.868 42.0255 120.955 42.2327 121.056C42.4398 121.157 42.594 121.282 42.6952 121.428C42.7963 121.575 42.8469 121.754 42.8469 121.963C42.8469 122.134 42.8108 122.291 42.7385 122.433C42.6687 122.575 42.5663 122.698 42.4314 122.801C42.2989 122.903 42.1399 122.982 41.9545 123.04C41.7714 123.095 41.5655 123.123 41.3366 123.123C40.9922 123.123 40.7007 123.062 40.4622 122.939C40.2238 122.816 40.0431 122.657 39.9203 122.462C39.7974 122.267 39.736 122.061 39.736 121.844H40.408C40.4177 122.027 40.4707 122.173 40.567 122.281C40.6634 122.387 40.7814 122.463 40.9211 122.509C41.0608 122.552 41.1993 122.574 41.3366 122.574C41.5197 122.574 41.6726 122.55 41.7955 122.502C41.9208 122.453 42.0159 122.387 42.0809 122.303C42.146 122.219 42.1785 122.122 42.1785 122.014ZM44.621 119.918V123.051H43.9489V119.141H44.5849L44.621 119.918ZM44.4837 120.948L44.173 120.937C44.1754 120.67 44.2103 120.423 44.2777 120.196C44.3452 119.968 44.4451 119.769 44.5776 119.6C44.7101 119.432 44.8751 119.302 45.0726 119.21C45.2702 119.116 45.499 119.069 45.7591 119.069C45.9422 119.069 46.1108 119.096 46.265 119.149C46.4191 119.199 46.5528 119.28 46.666 119.391C46.7792 119.501 46.8672 119.644 46.9298 119.817C46.9924 119.99 47.0237 120.2 47.0237 120.446V123.051H46.3553V120.478C46.3553 120.273 46.3204 120.11 46.2505 119.987C46.1831 119.864 46.0867 119.775 45.9615 119.719C45.8362 119.662 45.6893 119.633 45.5207 119.633C45.3231 119.633 45.1581 119.668 45.0257 119.738C44.8932 119.807 44.7872 119.904 44.7077 120.027C44.6282 120.149 44.5704 120.29 44.5343 120.449C44.5005 120.606 44.4837 120.772 44.4837 120.948ZM47.0165 120.579L46.5685 120.717C46.5709 120.502 46.6058 120.296 46.6733 120.099C46.7431 119.901 46.8431 119.725 46.9732 119.571C47.1056 119.417 47.2682 119.296 47.4609 119.206C47.6536 119.115 47.874 119.069 48.1221 119.069C48.3317 119.069 48.5172 119.097 48.6786 119.152C48.8424 119.208 48.9797 119.293 49.0905 119.409C49.2037 119.522 49.2892 119.668 49.347 119.846C49.4048 120.024 49.4337 120.236 49.4337 120.482V123.051H48.7617V120.475C48.7617 120.255 48.7267 120.086 48.6569 119.965C48.5894 119.842 48.4931 119.757 48.3678 119.709C48.245 119.658 48.0981 119.633 47.927 119.633C47.7801 119.633 47.65 119.658 47.5368 119.709C47.4236 119.759 47.3284 119.829 47.2514 119.918C47.1743 120.005 47.1153 120.105 47.0743 120.218C47.0358 120.331 47.0165 120.452 47.0165 120.579ZM51.775 122.646L52.8626 119.141H53.578L52.0099 123.654C51.9738 123.751 51.9256 123.854 51.8654 123.965C51.8076 124.078 51.7329 124.185 51.6414 124.286C51.5498 124.388 51.439 124.47 51.3089 124.532C51.1813 124.597 51.0283 124.63 50.8501 124.63C50.7971 124.63 50.7296 124.623 50.6477 124.608C50.5658 124.594 50.508 124.582 50.4743 124.572L50.4707 124.03C50.49 124.032 50.5201 124.035 50.561 124.037C50.6044 124.042 50.6345 124.044 50.6514 124.044C50.8031 124.044 50.932 124.024 51.038 123.983C51.1439 123.944 51.2331 123.878 51.3053 123.784C51.38 123.693 51.4438 123.566 51.4968 123.405L51.775 122.646ZM50.9765 119.141L51.9918 122.176L52.1653 122.881L51.6847 123.127L50.2467 119.141H50.9765ZM56.6889 122.014C56.6889 121.917 56.6673 121.828 56.6239 121.746C56.583 121.662 56.4974 121.586 56.3674 121.519C56.2397 121.449 56.047 121.389 55.7893 121.338C55.5725 121.292 55.3762 121.238 55.2003 121.176C55.0269 121.113 54.8787 121.037 54.7559 120.948C54.6355 120.859 54.5427 120.754 54.4777 120.634C54.4126 120.513 54.3801 120.372 54.3801 120.211C54.3801 120.057 54.4139 119.911 54.4813 119.774C54.5512 119.636 54.6487 119.515 54.774 119.409C54.9016 119.303 55.0546 119.22 55.2328 119.159C55.4111 119.099 55.6098 119.069 55.829 119.069C56.1421 119.069 56.4095 119.124 56.6311 119.235C56.8527 119.346 57.0226 119.494 57.1406 119.68C57.2586 119.863 57.3176 120.066 57.3176 120.29H56.6492C56.6492 120.182 56.6167 120.077 56.5516 119.976C56.489 119.872 56.3963 119.787 56.2734 119.719C56.153 119.652 56.0048 119.618 55.829 119.618C55.6435 119.618 55.493 119.647 55.3774 119.705C55.2642 119.76 55.181 119.831 55.1281 119.918C55.0775 120.005 55.0522 120.096 55.0522 120.193C55.0522 120.265 55.0642 120.33 55.0883 120.388C55.1148 120.443 55.1606 120.495 55.2256 120.543C55.2906 120.589 55.3822 120.632 55.5002 120.673C55.6182 120.714 55.7688 120.755 55.9519 120.796C56.2722 120.868 56.536 120.955 56.7431 121.056C56.9503 121.157 57.1045 121.282 57.2056 121.428C57.3068 121.575 57.3574 121.754 57.3574 121.963C57.3574 122.134 57.3212 122.291 57.249 122.433C57.1791 122.575 57.0768 122.698 56.9419 122.801C56.8094 122.903 56.6504 122.982 56.4649 123.04C56.2819 123.095 56.0759 123.123 55.8471 123.123C55.5026 123.123 55.2112 123.062 54.9727 122.939C54.7342 122.816 54.5536 122.657 54.4307 122.462C54.3079 122.267 54.2464 122.061 54.2464 121.844H54.9185C54.9281 122.027 54.9811 122.173 55.0775 122.281C55.1738 122.387 55.2919 122.463 55.4316 122.509C55.5713 122.552 55.7098 122.574 55.8471 122.574C56.0301 122.574 56.1831 122.55 56.3059 122.502C56.4312 122.453 56.5263 122.387 56.5914 122.303C56.6564 122.219 56.6889 122.122 56.6889 122.014Z" fill="#E6E0E9"/>
</g>
<path d="M180.861 123.363L183.174 121.051L180.861 118.738V123.363Z" fill="#CAC4D0"/>
<line x1="7.89258" y1="137.7" x2="198.436" y2="137.7" stroke="#49454F" stroke-width="0.462484"/>
<rect width="190.544" height="33.2989" transform="translate(7.89258 137.918)" fill="#141218"/>
<g clip-path="url(#clip3_274_5611)">
<path d="M17.2874 154.746L18.3316 151.075H18.8375L18.5448 152.502L17.4211 156.336H16.9189L17.2874 154.746ZM16.2071 151.075L17.0381 154.674L17.2874 156.336H16.7888L15.5134 151.075H16.2071ZM20.1888 154.67L21.0018 151.075H21.6991L20.4273 156.336H19.9287L20.1888 154.67ZM18.9134 151.075L19.9287 154.746L20.2972 156.336H19.795L18.711 152.502L18.4147 151.075H18.9134ZM23.3286 152.426V156.336H22.6566V152.426H23.3286ZM22.606 151.39C22.606 151.281 22.6385 151.19 22.7036 151.115C22.771 151.04 22.8698 151.003 22.9998 151.003C23.1275 151.003 23.2251 151.04 23.2925 151.115C23.3624 151.19 23.3973 151.281 23.3973 151.39C23.3973 151.493 23.3624 151.582 23.2925 151.657C23.2251 151.729 23.1275 151.765 22.9998 151.765C22.8698 151.765 22.771 151.729 22.7036 151.657C22.6385 151.582 22.606 151.493 22.606 151.39ZM25.3014 153.261V156.336H24.633V152.426H25.2653L25.3014 153.261ZM25.1424 154.233L24.8642 154.222C24.8666 153.955 24.9064 153.708 24.9835 153.482C25.0605 153.253 25.1689 153.054 25.3086 152.885C25.4484 152.717 25.6146 152.587 25.8073 152.495C26.0024 152.401 26.218 152.354 26.454 152.354C26.6467 152.354 26.8202 152.381 26.9743 152.434C27.1285 152.484 27.2598 152.566 27.3681 152.679C27.479 152.793 27.5633 152.94 27.6211 153.12C27.6789 153.298 27.7078 153.516 27.7078 153.774V156.336H27.0357V153.767C27.0357 153.562 27.0056 153.398 26.9454 153.276C26.8852 153.15 26.7973 153.06 26.6816 153.005C26.566 152.947 26.4239 152.918 26.2553 152.918C26.0891 152.918 25.9373 152.953 25.8 153.023C25.6651 153.093 25.5483 153.189 25.4496 153.312C25.3532 153.435 25.2773 153.575 25.2219 153.734C25.1689 153.891 25.1424 154.057 25.1424 154.233ZM30.5766 156.408C30.3044 156.408 30.0575 156.362 29.8359 156.271C29.6167 156.177 29.4277 156.046 29.2687 155.877C29.1121 155.708 28.9917 155.509 28.9074 155.277C28.823 155.046 28.7809 154.793 28.7809 154.519V154.367C28.7809 154.049 28.8279 153.766 28.9218 153.518C29.0158 153.267 29.1434 153.055 29.3048 152.882C29.4662 152.708 29.6493 152.577 29.854 152.488C30.0587 152.399 30.2707 152.354 30.4899 152.354C30.7693 152.354 31.0102 152.402 31.2126 152.499C31.4173 152.595 31.5847 152.73 31.7148 152.903C31.8449 153.074 31.9412 153.277 32.0038 153.51C32.0665 153.742 32.0978 153.995 32.0978 154.269V154.569H29.1783V154.024H31.4293V153.973C31.4197 153.799 31.3836 153.631 31.3209 153.467C31.2607 153.303 31.1644 153.168 31.0319 153.062C30.8994 152.956 30.7188 152.903 30.4899 152.903C30.3382 152.903 30.1985 152.936 30.0708 153.001C29.9431 153.064 29.8335 153.158 29.742 153.283C29.6505 153.408 29.5794 153.561 29.5288 153.742C29.4782 153.922 29.4529 154.131 29.4529 154.367V154.519C29.4529 154.704 29.4782 154.879 29.5288 155.042C29.5818 155.204 29.6577 155.346 29.7564 155.469C29.8576 155.592 29.9793 155.688 30.1214 155.758C30.2659 155.828 30.4297 155.863 30.6128 155.863C30.8488 155.863 31.0488 155.814 31.2126 155.718C31.3763 155.622 31.5197 155.493 31.6425 155.331L32.0472 155.653C31.9629 155.781 31.8557 155.902 31.7256 156.018C31.5955 156.134 31.4354 156.228 31.2451 156.3C31.0572 156.372 30.8344 156.408 30.5766 156.408ZM36.7985 156.408C36.5263 156.408 36.2794 156.362 36.0578 156.271C35.8386 156.177 35.6495 156.046 35.4905 155.877C35.334 155.708 35.2135 155.509 35.1292 155.277C35.0449 155.046 35.0028 154.793 35.0028 154.519V154.367C35.0028 154.049 35.0497 153.766 35.1437 153.518C35.2376 153.267 35.3653 153.055 35.5267 152.882C35.6881 152.708 35.8711 152.577 36.0759 152.488C36.2806 152.399 36.4926 152.354 36.7118 152.354C36.9912 152.354 37.2321 152.402 37.4344 152.499C37.6392 152.595 37.8066 152.73 37.9366 152.903C38.0667 153.074 38.1631 153.277 38.2257 153.51C38.2883 153.742 38.3196 153.995 38.3196 154.269V154.569H35.4002V154.024H37.6512V153.973C37.6416 153.799 37.6054 153.631 37.5428 153.467C37.4826 153.303 37.3862 153.168 37.2538 153.062C37.1213 152.956 36.9406 152.903 36.7118 152.903C36.56 152.903 36.4203 152.936 36.2927 153.001C36.165 153.064 36.0554 153.158 35.9639 153.283C35.8723 153.408 35.8013 153.561 35.7507 153.742C35.7001 153.922 35.6748 154.131 35.6748 154.367V154.519C35.6748 154.704 35.7001 154.879 35.7507 155.042C35.8037 155.204 35.8795 155.346 35.9783 155.469C36.0795 155.592 36.2011 155.688 36.3432 155.758C36.4878 155.828 36.6516 155.863 36.8346 155.863C37.0707 155.863 37.2706 155.814 37.4344 155.718C37.5982 155.622 37.7415 155.493 37.8644 155.331L38.2691 155.653C38.1847 155.781 38.0776 155.902 37.9475 156.018C37.8174 156.134 37.6572 156.228 37.4669 156.3C37.279 156.372 37.0562 156.408 36.7985 156.408ZM40.4695 155.733L41.539 152.426H42.2218L40.8163 156.336H40.3683L40.4695 155.733ZM39.577 152.426L40.679 155.751L40.7549 156.336H40.3069L38.8905 152.426H39.577ZM44.668 156.408C44.3958 156.408 44.1489 156.362 43.9273 156.271C43.7081 156.177 43.519 156.046 43.36 155.877C43.2034 155.708 43.083 155.509 42.9987 155.277C42.9144 155.046 42.8722 154.793 42.8722 154.519V154.367C42.8722 154.049 42.9192 153.766 43.0131 153.518C43.1071 153.267 43.2347 153.055 43.3961 152.882C43.5575 152.708 43.7406 152.577 43.9453 152.488C44.1501 152.399 44.362 152.354 44.5812 152.354C44.8607 152.354 45.1015 152.402 45.3039 152.499C45.5086 152.595 45.676 152.73 45.8061 152.903C45.9362 153.074 46.0325 153.277 46.0952 153.51C46.1578 153.742 46.1891 153.995 46.1891 154.269V154.569H43.2697V154.024H45.5207V153.973C45.511 153.799 45.4749 153.631 45.4123 153.467C45.352 153.303 45.2557 153.168 45.1232 153.062C44.9907 152.956 44.8101 152.903 44.5812 152.903C44.4295 152.903 44.2898 152.936 44.1621 153.001C44.0345 153.064 43.9249 153.158 43.8333 153.283C43.7418 153.408 43.6707 153.561 43.6201 153.742C43.5696 153.922 43.5443 154.131 43.5443 154.367V154.519C43.5443 154.704 43.5696 154.879 43.6201 155.042C43.6731 155.204 43.749 155.346 43.8478 155.469C43.9489 155.592 44.0706 155.688 44.2127 155.758C44.3572 155.828 44.521 155.863 44.7041 155.863C44.9401 155.863 45.1401 155.814 45.3039 155.718C45.4677 155.622 45.611 155.493 45.7338 155.331L46.1385 155.653C46.0542 155.781 45.947 155.902 45.8169 156.018C45.6869 156.134 45.5267 156.228 45.3364 156.3C45.1485 156.372 44.9257 156.408 44.668 156.408ZM47.8692 153.261V156.336H47.2008V152.426H47.8331L47.8692 153.261ZM47.7102 154.233L47.432 154.222C47.4344 153.955 47.4742 153.708 47.5513 153.482C47.6283 153.253 47.7367 153.054 47.8764 152.885C48.0162 152.717 48.1824 152.587 48.3751 152.495C48.5702 152.401 48.7858 152.354 49.0218 152.354C49.2145 152.354 49.3879 152.381 49.5421 152.434C49.6963 152.484 49.8276 152.566 49.9359 152.679C50.0467 152.793 50.1311 152.94 50.1889 153.12C50.2467 153.298 50.2756 153.516 50.2756 153.774V156.336H49.6035V153.767C49.6035 153.562 49.5734 153.398 49.5132 153.276C49.453 153.15 49.3651 153.06 49.2494 153.005C49.1338 152.947 48.9917 152.918 48.8231 152.918C48.6569 152.918 48.5051 152.953 48.3678 153.023C48.2329 153.093 48.1161 153.189 48.0174 153.312C47.921 153.435 47.8451 153.575 47.7897 153.734C47.7367 153.891 47.7102 154.057 47.7102 154.233ZM52.2484 152.426V156.336H51.5763V152.426H52.2484ZM51.5257 151.39C51.5257 151.281 51.5583 151.19 51.6233 151.115C51.6907 151.04 51.7895 151.003 51.9196 151.003C52.0472 151.003 52.1448 151.04 52.2122 151.115C52.2821 151.19 52.317 151.281 52.317 151.39C52.317 151.493 52.2821 151.582 52.2122 151.657C52.1448 151.729 52.0472 151.765 51.9196 151.765C51.7895 151.765 51.6907 151.729 51.6233 151.657C51.5583 151.582 51.5257 151.493 51.5257 151.39ZM54.2212 153.261V156.336H53.5527V152.426H54.185L54.2212 153.261ZM54.0622 154.233L53.784 154.222C53.7864 153.955 53.8261 153.708 53.9032 153.482C53.9803 153.253 54.0887 153.054 54.2284 152.885C54.3681 152.717 54.5343 152.587 54.727 152.495C54.9221 152.401 55.1377 152.354 55.3738 152.354C55.5665 152.354 55.7399 152.381 55.894 152.434C56.0482 152.484 56.1795 152.566 56.2879 152.679C56.3987 152.793 56.483 152.94 56.5408 153.12C56.5986 153.298 56.6275 153.516 56.6275 153.774V156.336H55.9555V153.767C55.9555 153.562 55.9254 153.398 55.8651 153.276C55.8049 153.15 55.717 153.06 55.6014 153.005C55.4858 152.947 55.3436 152.918 55.175 152.918C55.0088 152.918 54.8571 152.953 54.7198 153.023C54.5849 153.093 54.4681 153.189 54.3693 153.312C54.2729 153.435 54.1971 153.575 54.1417 153.734C54.0887 153.891 54.0622 154.057 54.0622 154.233ZM60.4069 152.426H61.0139V156.253C61.0139 156.597 60.944 156.891 60.8043 157.134C60.6646 157.378 60.4695 157.562 60.219 157.687C59.9709 157.815 59.6842 157.879 59.3591 157.879C59.2242 157.879 59.0652 157.857 58.8821 157.814C58.7015 157.773 58.5232 157.702 58.3474 157.601C58.1739 157.502 58.0282 157.368 57.9102 157.199L58.2607 156.802C58.4245 157 58.5955 157.137 58.7737 157.214C58.9544 157.291 59.1326 157.33 59.3085 157.33C59.5205 157.33 59.7035 157.29 59.8577 157.21C60.0118 157.131 60.1311 157.013 60.2154 156.856C60.3021 156.702 60.3455 156.512 60.3455 156.285V153.286L60.4069 152.426ZM57.7151 154.425V154.349C57.7151 154.05 57.75 153.779 57.8199 153.536C57.8921 153.29 57.9945 153.079 58.127 152.903C58.2619 152.728 58.4245 152.593 58.6148 152.499C58.805 152.402 59.0194 152.354 59.2579 152.354C59.5036 152.354 59.718 152.398 59.901 152.484C60.0865 152.569 60.2431 152.693 60.3708 152.856C60.5008 153.018 60.6032 153.213 60.6779 153.442C60.7525 153.671 60.8043 153.93 60.8332 154.219V154.551C60.8067 154.838 60.7549 155.095 60.6779 155.324C60.6032 155.553 60.5008 155.748 60.3708 155.91C60.2431 156.071 60.0865 156.195 59.901 156.282C59.7156 156.366 59.4988 156.408 59.2507 156.408C59.017 156.408 58.805 156.359 58.6148 156.26C58.4269 156.161 58.2655 156.023 58.1306 155.845C57.9957 155.666 57.8921 155.457 57.8199 155.216C57.75 154.973 57.7151 154.709 57.7151 154.425ZM58.3835 154.349V154.425C58.3835 154.62 58.4028 154.803 58.4413 154.974C58.4823 155.145 58.5437 155.295 58.6256 155.425C58.7099 155.555 58.8171 155.658 58.9472 155.733C59.0772 155.805 59.2326 155.841 59.4133 155.841C59.6349 155.841 59.8179 155.794 59.9625 155.7C60.107 155.606 60.2214 155.482 60.3057 155.328C60.3924 155.174 60.4599 155.006 60.5081 154.826V153.955C60.4816 153.822 60.4406 153.695 60.3852 153.572C60.3322 153.447 60.2624 153.336 60.1756 153.239C60.0913 153.141 59.9866 153.062 59.8613 153.005C59.736 152.947 59.5891 152.918 59.4205 152.918C59.2374 152.918 59.0796 152.956 58.9472 153.034C58.8171 153.108 58.7099 153.212 58.6256 153.344C58.5437 153.474 58.4823 153.626 58.4413 153.799C58.4028 153.971 58.3835 154.154 58.3835 154.349Z" fill="#E6E0E9"/>
</g>
<path d="M180.861 156.648L183.174 154.336L180.861 152.023V156.648Z" fill="#CAC4D0"/>
<line x1="7.89258" y1="170.986" x2="198.436" y2="170.986" stroke="#49454F" stroke-width="0.462484"/>
<g clip-path="url(#clip4_274_5611)">
<rect x="35.7734" y="203.559" width="60.1993" height="19.2497" rx="9.62484" fill="#4A4458"/>
<path d="M50.0767 213.686H50.8671C50.8418 213.987 50.7575 214.256 50.6141 214.492C50.4708 214.726 50.2695 214.91 50.0103 215.045C49.751 215.18 49.4359 215.247 49.065 215.247C48.7805 215.247 48.5244 215.197 48.2967 215.096C48.0691 214.992 47.8742 214.847 47.7119 214.659C47.5496 214.47 47.4252 214.241 47.3388 213.973C47.2545 213.706 47.2123 213.406 47.2123 213.075V212.693C47.2123 212.362 47.2555 212.063 47.342 211.795C47.4305 211.527 47.5569 211.299 47.7213 211.109C47.8857 210.917 48.0828 210.771 48.3125 210.669C48.5444 210.568 48.8047 210.518 49.0934 210.518C49.4602 210.518 49.77 210.585 50.0229 210.72C50.2758 210.855 50.4719 211.041 50.611 211.28C50.7522 211.518 50.8386 211.791 50.8702 212.098H50.0798C50.0588 211.9 50.0124 211.731 49.9407 211.589C49.8712 211.448 49.7679 211.341 49.6309 211.267C49.4939 211.191 49.3147 211.153 49.0934 211.153C48.9122 211.153 48.7541 211.187 48.6192 211.254C48.4843 211.322 48.3716 211.421 48.2809 211.552C48.1903 211.682 48.1218 211.843 48.0754 212.035C48.0312 212.225 48.009 212.442 48.009 212.686V213.075C48.009 213.307 48.0291 213.518 48.0691 213.708C48.1113 213.895 48.1745 214.056 48.2588 214.191C48.3452 214.326 48.4548 214.431 48.5876 214.504C48.7204 214.578 48.8795 214.615 49.065 214.615C49.2905 214.615 49.4728 214.579 49.6119 214.508C49.7531 214.436 49.8596 214.332 49.9312 214.195C50.005 214.055 50.0535 213.886 50.0767 213.686ZM52.3233 212.415V215.184H51.5614V211.763H52.2886L52.3233 212.415ZM53.3698 211.741L53.3635 212.449C53.3171 212.441 53.2665 212.435 53.2117 212.43C53.159 212.426 53.1063 212.424 53.0536 212.424C52.923 212.424 52.8081 212.443 52.709 212.481C52.61 212.517 52.5267 212.57 52.4593 212.639C52.3939 212.707 52.3434 212.789 52.3075 212.886C52.2717 212.983 52.2506 213.091 52.2443 213.211L52.0704 213.224C52.0704 213.009 52.0915 212.81 52.1336 212.626C52.1758 212.443 52.239 212.282 52.3233 212.143C52.4098 212.004 52.5172 211.895 52.6458 211.817C52.7765 211.739 52.9272 211.7 53.0979 211.7C53.1443 211.7 53.1938 211.704 53.2465 211.713C53.3013 211.721 53.3424 211.731 53.3698 211.741ZM55.3382 215.247C55.0853 215.247 54.8566 215.206 54.6522 215.124C54.4499 215.04 54.277 214.923 54.1337 214.773C53.9925 214.623 53.8839 214.447 53.8081 214.245C53.7322 214.043 53.6943 213.825 53.6943 213.591V213.464C53.6943 213.197 53.7333 212.954 53.8112 212.737C53.8892 212.52 53.9978 212.335 54.1369 212.181C54.276 212.025 54.4404 211.906 54.6301 211.823C54.8198 211.741 55.0253 211.7 55.2466 211.7C55.4911 211.7 55.705 211.741 55.8884 211.823C56.0717 211.906 56.2235 212.022 56.3436 212.171C56.4659 212.319 56.5565 212.495 56.6155 212.699C56.6766 212.904 56.7072 213.129 56.7072 213.376V213.701H54.0642V213.154H55.9547V213.094C55.9505 212.957 55.9231 212.829 55.8725 212.709C55.8241 212.588 55.7492 212.492 55.6481 212.418C55.5469 212.344 55.412 212.307 55.2434 212.307C55.1169 212.307 55.0042 212.335 54.9051 212.389C54.8082 212.442 54.727 212.519 54.6617 212.62C54.5963 212.721 54.5458 212.844 54.5099 212.987C54.4762 213.128 54.4593 213.287 54.4593 213.464V213.591C54.4593 213.74 54.4794 213.879 54.5194 214.008C54.5616 214.134 54.6227 214.245 54.7028 214.34C54.7829 214.435 54.8798 214.51 54.9936 214.564C55.1075 214.617 55.2371 214.643 55.3825 214.643C55.5659 214.643 55.7292 214.607 55.8725 214.533C56.0159 214.459 56.1402 214.355 56.2456 214.22L56.6471 214.609C56.5733 214.716 56.4774 214.819 56.3594 214.919C56.2414 215.015 56.097 215.095 55.9263 215.156C55.7577 215.217 55.5617 215.247 55.3382 215.247ZM59.2763 214.498V212.867C59.2763 212.744 59.2542 212.639 59.2099 212.551C59.1657 212.462 59.0982 212.394 59.0076 212.345C58.9191 212.297 58.8074 212.272 58.6725 212.272C58.5481 212.272 58.4406 212.293 58.35 212.336C58.2594 212.378 58.1888 212.435 58.1382 212.506C58.0876 212.578 58.0623 212.659 58.0623 212.75H57.3035C57.3035 212.615 57.3362 212.484 57.4015 212.358C57.4669 212.231 57.5617 212.118 57.6861 212.019C57.8104 211.92 57.959 211.842 58.1319 211.785C58.3047 211.729 58.4986 211.7 58.7136 211.7C58.9707 211.7 59.1983 211.743 59.3965 211.83C59.5967 211.916 59.7537 212.047 59.8675 212.222C59.9834 212.395 60.0414 212.612 60.0414 212.873V214.394C60.0414 214.55 60.0519 214.69 60.073 214.814C60.0962 214.936 60.1289 215.043 60.171 215.133V215.184H59.3901C59.3543 215.102 59.3258 214.998 59.3048 214.871C59.2858 214.743 59.2763 214.618 59.2763 214.498ZM59.387 213.104L59.3933 213.575H58.8464C58.7051 213.575 58.5808 213.589 58.4733 213.616C58.3658 213.641 58.2762 213.679 58.2046 213.73C58.1329 213.78 58.0792 213.841 58.0433 213.913C58.0075 213.985 57.9896 214.066 57.9896 214.157C57.9896 214.247 58.0107 214.33 58.0528 214.406C58.095 214.48 58.1561 214.538 58.2362 214.58C58.3184 214.622 58.4174 214.643 58.5334 214.643C58.6893 214.643 58.8253 214.612 58.9412 214.549C59.0592 214.483 59.152 214.404 59.2194 214.312C59.2869 214.217 59.3227 214.127 59.3269 214.043L59.5735 214.381C59.5482 214.467 59.505 214.56 59.4439 214.659C59.3828 214.758 59.3027 214.853 59.2036 214.944C59.1067 215.032 58.9897 215.105 58.8527 215.162C58.7178 215.219 58.5618 215.247 58.3848 215.247C58.1614 215.247 57.9622 215.203 57.7872 215.115C57.6123 215.024 57.4753 214.903 57.3762 214.751C57.2772 214.597 57.2277 214.423 57.2277 214.229C57.2277 214.048 57.2614 213.888 57.3288 213.749C57.3984 213.608 57.4995 213.49 57.6323 213.395C57.7672 213.3 57.9316 213.228 58.1255 213.18C58.3194 213.129 58.5407 213.104 58.7894 213.104H59.387ZM62.4525 211.763V212.32H60.5239V211.763H62.4525ZM61.0804 210.926H61.8423V214.239C61.8423 214.344 61.857 214.425 61.8866 214.482C61.9182 214.537 61.9614 214.574 62.0162 214.593C62.071 214.612 62.1353 214.621 62.209 214.621C62.2617 214.621 62.3123 214.618 62.3608 214.612C62.4093 214.606 62.4483 214.599 62.4778 214.593L62.4809 215.175C62.4177 215.194 62.3439 215.21 62.2596 215.225C62.1774 215.24 62.0826 215.247 61.9751 215.247C61.8001 215.247 61.6452 215.217 61.5103 215.156C61.3754 215.092 61.2701 214.99 61.1942 214.849C61.1183 214.708 61.0804 214.52 61.0804 214.286V210.926ZM64.5948 215.247C64.3419 215.247 64.1132 215.206 63.9088 215.124C63.7064 215.04 63.5336 214.923 63.3903 214.773C63.249 214.623 63.1405 214.447 63.0646 214.245C62.9888 214.043 62.9508 213.825 62.9508 213.591V213.464C62.9508 213.197 62.9898 212.954 63.0678 212.737C63.1458 212.52 63.2543 212.335 63.3934 212.181C63.5325 212.025 63.6969 211.906 63.8866 211.823C64.0763 211.741 64.2818 211.7 64.5031 211.7C64.7476 211.7 64.9615 211.741 65.1449 211.823C65.3283 211.906 65.48 212.022 65.6002 212.171C65.7224 212.319 65.813 212.495 65.8721 212.699C65.9332 212.904 65.9637 213.129 65.9637 213.376V213.701H63.3207V213.154H65.2113V213.094C65.2071 212.957 65.1797 212.829 65.1291 212.709C65.0806 212.588 65.0058 212.492 64.9046 212.418C64.8035 212.344 64.6686 212.307 64.5 212.307C64.3735 212.307 64.2607 212.335 64.1617 212.389C64.0647 212.442 63.9836 212.519 63.9182 212.62C63.8529 212.721 63.8023 212.844 63.7665 212.987C63.7328 213.128 63.7159 213.287 63.7159 213.464V213.591C63.7159 213.74 63.7359 213.879 63.776 214.008C63.8181 214.134 63.8792 214.245 63.9593 214.34C64.0394 214.435 64.1364 214.51 64.2502 214.564C64.364 214.617 64.4936 214.643 64.6391 214.643C64.8224 214.643 64.9858 214.607 65.1291 214.533C65.2724 214.459 65.3968 214.355 65.5022 214.22L65.9037 214.609C65.8299 214.716 65.734 214.819 65.616 214.919C65.4979 215.015 65.3536 215.095 65.1828 215.156C65.0142 215.217 64.8182 215.247 64.5948 215.247ZM70.4539 211.763H71.1463V215.089C71.1463 215.397 71.0809 215.658 70.9503 215.873C70.8196 216.088 70.6373 216.252 70.4033 216.363C70.1694 216.477 69.8985 216.534 69.5908 216.534C69.4601 216.534 69.3147 216.515 69.1545 216.477C68.9964 216.439 68.8426 216.378 68.6929 216.294C68.5454 216.212 68.4221 216.103 68.323 215.968L68.6803 215.519C68.8025 215.665 68.9374 215.771 69.085 215.839C69.2325 215.906 69.3874 215.94 69.5497 215.94C69.7246 215.94 69.8732 215.907 69.9955 215.842C70.1198 215.778 70.2157 215.685 70.2832 215.56C70.3506 215.436 70.3843 215.284 70.3843 215.105V212.538L70.4539 211.763ZM68.1302 213.512V213.445C68.1302 213.186 68.1618 212.95 68.225 212.737C68.2883 212.522 68.3789 212.338 68.4969 212.184C68.615 212.028 68.7583 211.909 68.9269 211.827C69.0955 211.742 69.2862 211.7 69.4991 211.7C69.7204 211.7 69.9091 211.74 70.065 211.82C70.2231 211.9 70.3548 212.015 70.4602 212.165C70.5656 212.312 70.6478 212.489 70.7068 212.696C70.7679 212.9 70.8133 213.128 70.8428 213.379V213.591C70.8154 213.835 70.769 214.059 70.7037 214.261C70.6383 214.463 70.5519 214.638 70.4444 214.786C70.3369 214.933 70.2041 215.047 70.0461 215.127C69.8901 215.207 69.7057 215.247 69.4928 215.247C69.2841 215.247 69.0955 215.204 68.9269 215.118C68.7604 215.031 68.6171 214.91 68.4969 214.754C68.3789 214.598 68.2883 214.415 68.225 214.204C68.1618 213.991 68.1302 213.76 68.1302 213.512ZM68.8921 213.445V213.512C68.8921 213.668 68.9069 213.813 68.9364 213.948C68.968 214.083 69.0154 214.202 69.0786 214.305C69.144 214.406 69.2262 214.486 69.3252 214.545C69.4264 214.602 69.5455 214.631 69.6825 214.631C69.8616 214.631 70.0081 214.593 70.1219 214.517C70.2379 214.441 70.3264 214.339 70.3875 214.21C70.4507 214.08 70.495 213.934 70.5203 213.774V213.202C70.5076 213.077 70.4813 212.962 70.4413 212.854C70.4033 212.747 70.3517 212.653 70.2863 212.573C70.221 212.49 70.1388 212.427 70.0397 212.383C69.9407 212.337 69.8237 212.313 69.6888 212.313C69.5518 212.313 69.4327 212.343 69.3316 212.402C69.2304 212.461 69.1471 212.542 69.0818 212.645C69.0186 212.749 68.9712 212.869 68.9395 213.006C68.9079 213.143 68.8921 213.289 68.8921 213.445ZM72.748 212.415V215.184H71.9861V211.763H72.7132L72.748 212.415ZM73.7944 211.741L73.7881 212.449C73.7418 212.441 73.6912 212.435 73.6364 212.43C73.5837 212.426 73.531 212.424 73.4783 212.424C73.3476 212.424 73.2328 212.443 73.1337 212.481C73.0346 212.517 72.9514 212.57 72.8839 212.639C72.8186 212.707 72.768 212.789 72.7322 212.886C72.6963 212.983 72.6753 213.091 72.6689 213.211L72.4951 213.224C72.4951 213.009 72.5161 212.81 72.5583 212.626C72.6004 212.443 72.6637 212.282 72.748 212.143C72.8344 212.004 72.9419 211.895 73.0705 211.817C73.2011 211.739 73.3518 211.7 73.5226 211.7C73.5689 211.7 73.6185 211.704 73.6711 211.713C73.7259 211.721 73.767 211.731 73.7944 211.741ZM74.0905 213.512V213.439C74.0905 213.192 74.1263 212.964 74.1979 212.753C74.2696 212.54 74.3729 212.356 74.5078 212.2C74.6448 212.042 74.8113 211.919 75.0073 211.833C75.2054 211.744 75.4288 211.7 75.6775 211.7C75.9283 211.7 76.1518 211.744 76.3478 211.833C76.5459 211.919 76.7135 212.042 76.8505 212.2C76.9875 212.356 77.0918 212.54 77.1634 212.753C77.2351 212.964 77.2709 213.192 77.2709 213.439V213.512C77.2709 213.758 77.2351 213.987 77.1634 214.198C77.0918 214.408 76.9875 214.593 76.8505 214.751C76.7135 214.907 76.547 215.029 76.3509 215.118C76.1549 215.204 75.9326 215.247 75.6839 215.247C75.433 215.247 75.2086 215.204 75.0105 215.118C74.8144 215.029 74.6479 214.907 74.5109 214.751C74.3739 214.593 74.2696 214.408 74.1979 214.198C74.1263 213.987 74.0905 213.758 74.0905 213.512ZM74.8524 213.439V213.512C74.8524 213.666 74.8682 213.811 74.8998 213.948C74.9314 214.085 74.9809 214.205 75.0484 214.308C75.1158 214.412 75.2023 214.493 75.3076 214.552C75.413 214.611 75.5384 214.64 75.6839 214.64C75.8251 214.64 75.9473 214.611 76.0506 214.552C76.156 214.493 76.2424 214.412 76.3098 214.308C76.3773 214.205 76.4268 214.085 76.4584 213.948C76.4922 213.811 76.509 213.666 76.509 213.512V213.439C76.509 213.287 76.4922 213.144 76.4584 213.009C76.4268 212.872 76.3762 212.751 76.3067 212.645C76.2392 212.54 76.1528 212.458 76.0474 212.399C75.9442 212.338 75.8209 212.307 75.6775 212.307C75.5342 212.307 75.4099 212.338 75.3045 212.399C75.2012 212.458 75.1158 212.54 75.0484 212.645C74.9809 212.751 74.9314 212.872 74.8998 213.009C74.8682 213.144 74.8524 213.287 74.8524 213.439ZM80.014 214.378V211.763H80.779V215.184H80.0582L80.014 214.378ZM80.1215 213.667L80.3775 213.66C80.3775 213.89 80.3522 214.102 80.3017 214.296C80.2511 214.487 80.1731 214.655 80.0677 214.798C79.9623 214.94 79.8274 215.05 79.663 215.13C79.4986 215.208 79.3016 215.247 79.0718 215.247C78.9053 215.247 78.7525 215.223 78.6134 215.175C78.4743 215.126 78.3542 215.051 78.253 214.95C78.1539 214.849 78.077 214.717 78.0222 214.555C77.9674 214.393 77.94 214.199 77.94 213.973V211.763H78.7019V213.98C78.7019 214.104 78.7167 214.208 78.7462 214.293C78.7757 214.375 78.8157 214.441 78.8663 214.492C78.9169 214.542 78.9759 214.578 79.0434 214.599C79.1108 214.62 79.1825 214.631 79.2584 214.631C79.4754 214.631 79.6462 214.589 79.7705 214.504C79.897 214.418 79.9866 214.302 80.0393 214.157C80.0941 214.011 80.1215 213.848 80.1215 213.667ZM82.3713 212.421V216.499H81.6094V211.763H82.3112L82.3713 212.421ZM84.6001 213.442V213.508C84.6001 213.757 84.5706 213.988 84.5116 214.201C84.4547 214.412 84.3694 214.596 84.2555 214.754C84.1438 214.91 84.0058 215.031 83.8414 215.118C83.677 215.204 83.4873 215.247 83.2723 215.247C83.0594 215.247 82.8729 215.208 82.7127 215.13C82.5546 215.05 82.4208 214.937 82.3112 214.792C82.2016 214.647 82.1131 214.476 82.0456 214.28C81.9803 214.082 81.9339 213.865 81.9065 213.629V213.373C81.9339 213.122 81.9803 212.894 82.0456 212.69C82.1131 212.485 82.2016 212.309 82.3112 212.162C82.4208 212.014 82.5546 211.9 82.7127 211.82C82.8708 211.74 83.0552 211.7 83.266 211.7C83.481 211.7 83.6717 211.742 83.8382 211.827C84.0047 211.909 84.1449 212.027 84.2587 212.181C84.3725 212.332 84.4579 212.516 84.5148 212.731C84.5717 212.944 84.6001 213.181 84.6001 213.442ZM83.8382 213.508V213.442C83.8382 213.284 83.8235 213.138 83.794 213.003C83.7644 212.866 83.7181 212.746 83.6549 212.642C83.5916 212.539 83.5105 212.459 83.4114 212.402C83.3145 212.343 83.1975 212.313 83.0605 212.313C82.9256 212.313 82.8097 212.337 82.7127 212.383C82.6158 212.427 82.5346 212.489 82.4693 212.57C82.4039 212.65 82.3534 212.743 82.3175 212.851C82.2817 212.956 82.2564 213.071 82.2417 213.195V213.809C82.2669 213.961 82.3102 214.1 82.3713 214.226C82.4324 214.353 82.5188 214.454 82.6305 214.53C82.7443 214.603 82.8898 214.64 83.0668 214.64C83.2038 214.64 83.3208 214.611 83.4177 214.552C83.5147 214.493 83.5937 214.412 83.6549 214.308C83.7181 214.203 83.7644 214.082 83.794 213.945C83.8235 213.808 83.8382 213.662 83.8382 213.508Z" fill="#E8DEF8"/>
</g>
<g clip-path="url(#clip5_274_5611)">
<rect x="109.918" y="203.559" width="60.5855" height="19.2497" rx="9.62484" fill="#4A4458"/>
<path d="M126.895 213.803V210.581H127.686V213.803C127.686 214.108 127.62 214.368 127.49 214.583C127.359 214.798 127.181 214.963 126.955 215.077C126.73 215.19 126.474 215.247 126.187 215.247C125.894 215.247 125.634 215.198 125.406 215.099C125.181 215 125.004 214.848 124.875 214.643C124.746 214.439 124.682 214.18 124.682 213.866H125.479C125.479 214.047 125.507 214.193 125.564 214.305C125.623 214.415 125.705 214.495 125.811 214.545C125.918 214.594 126.044 214.618 126.187 214.618C126.324 214.618 126.445 214.588 126.551 214.526C126.658 214.463 126.742 214.372 126.803 214.251C126.865 214.129 126.895 213.98 126.895 213.803ZM128.424 213.512V213.439C128.424 213.192 128.46 212.964 128.532 212.753C128.603 212.54 128.707 212.356 128.841 212.2C128.978 212.042 129.145 211.919 129.341 211.833C129.539 211.744 129.763 211.7 130.011 211.7C130.262 211.7 130.485 211.744 130.681 211.833C130.88 211.919 131.047 212.042 131.184 212.2C131.321 212.356 131.426 212.54 131.497 212.753C131.569 212.964 131.605 213.192 131.605 213.439V213.512C131.605 213.758 131.569 213.987 131.497 214.198C131.426 214.408 131.321 214.593 131.184 214.751C131.047 214.907 130.881 215.029 130.685 215.118C130.489 215.204 130.266 215.247 130.018 215.247C129.767 215.247 129.542 215.204 129.344 215.118C129.148 215.029 128.982 214.907 128.845 214.751C128.708 214.593 128.603 214.408 128.532 214.198C128.46 213.987 128.424 213.758 128.424 213.512ZM129.186 213.439V213.512C129.186 213.666 129.202 213.811 129.234 213.948C129.265 214.085 129.315 214.205 129.382 214.308C129.45 214.412 129.536 214.493 129.641 214.552C129.747 214.611 129.872 214.64 130.018 214.64C130.159 214.64 130.281 214.611 130.384 214.552C130.49 214.493 130.576 214.412 130.644 214.308C130.711 214.205 130.761 214.085 130.792 213.948C130.826 213.811 130.843 213.666 130.843 213.512V213.439C130.843 213.287 130.826 213.144 130.792 213.009C130.761 212.872 130.71 212.751 130.64 212.645C130.573 212.54 130.487 212.458 130.381 212.399C130.278 212.338 130.155 212.307 130.011 212.307C129.868 212.307 129.744 212.338 129.638 212.399C129.535 212.458 129.45 212.54 129.382 212.645C129.315 212.751 129.265 212.872 129.234 213.009C129.202 213.144 129.186 213.287 129.186 213.439ZM133.105 211.763V215.184H132.34V211.763H133.105ZM132.29 210.865C132.29 210.75 132.327 210.654 132.403 210.578C132.481 210.5 132.589 210.461 132.726 210.461C132.861 210.461 132.967 210.5 133.045 210.578C133.123 210.654 133.162 210.75 133.162 210.865C133.162 210.979 133.123 211.074 133.045 211.15C132.967 211.226 132.861 211.264 132.726 211.264C132.589 211.264 132.481 211.226 132.403 211.15C132.327 211.074 132.29 210.979 132.29 210.865ZM134.742 212.494V215.184H133.98V211.763H134.697L134.742 212.494ZM134.606 213.347L134.359 213.344C134.361 213.102 134.395 212.879 134.46 212.677C134.528 212.475 134.621 212.301 134.739 212.155C134.859 212.01 135.002 211.898 135.169 211.82C135.335 211.74 135.52 211.7 135.725 211.7C135.889 211.7 136.038 211.723 136.171 211.77C136.306 211.814 136.42 211.887 136.515 211.988C136.612 212.089 136.686 212.221 136.737 212.383C136.787 212.543 136.812 212.74 136.812 212.974V215.184H136.047V212.971C136.047 212.807 136.023 212.677 135.975 212.582C135.928 212.485 135.86 212.417 135.769 212.377C135.681 212.335 135.57 212.313 135.437 212.313C135.307 212.313 135.19 212.341 135.086 212.396C134.983 212.45 134.896 212.525 134.824 212.62C134.754 212.715 134.701 212.825 134.663 212.949C134.625 213.073 134.606 213.206 134.606 213.347ZM141.486 211.763H142.178V215.089C142.178 215.397 142.113 215.658 141.982 215.873C141.852 216.088 141.669 216.252 141.435 216.363C141.201 216.477 140.931 216.534 140.623 216.534C140.492 216.534 140.347 216.515 140.187 216.477C140.029 216.439 139.875 216.378 139.725 216.294C139.578 216.212 139.454 216.103 139.355 215.968L139.712 215.519C139.835 215.665 139.97 215.771 140.117 215.839C140.265 215.906 140.42 215.94 140.582 215.94C140.757 215.94 140.905 215.907 141.028 215.842C141.152 215.778 141.248 215.685 141.315 215.56C141.383 215.436 141.416 215.284 141.416 215.105V212.538L141.486 211.763ZM139.162 213.512V213.445C139.162 213.186 139.194 212.95 139.257 212.737C139.32 212.522 139.411 212.338 139.529 212.184C139.647 212.028 139.79 211.909 139.959 211.827C140.128 211.742 140.318 211.7 140.531 211.7C140.753 211.7 140.941 211.74 141.097 211.82C141.255 211.9 141.387 212.015 141.492 212.165C141.598 212.312 141.68 212.489 141.739 212.696C141.8 212.9 141.845 213.128 141.875 213.379V213.591C141.847 213.835 141.801 214.059 141.736 214.261C141.67 214.463 141.584 214.638 141.477 214.786C141.369 214.933 141.236 215.047 141.078 215.127C140.922 215.207 140.738 215.247 140.525 215.247C140.316 215.247 140.128 215.204 139.959 215.118C139.793 215.031 139.649 214.91 139.529 214.754C139.411 214.598 139.32 214.415 139.257 214.204C139.194 213.991 139.162 213.76 139.162 213.512ZM139.924 213.445V213.512C139.924 213.668 139.939 213.813 139.968 213.948C140 214.083 140.048 214.202 140.111 214.305C140.176 214.406 140.258 214.486 140.357 214.545C140.459 214.602 140.578 214.631 140.715 214.631C140.894 214.631 141.04 214.593 141.154 214.517C141.27 214.441 141.359 214.339 141.42 214.21C141.483 214.08 141.527 213.934 141.552 213.774V213.202C141.54 213.077 141.513 212.962 141.473 212.854C141.435 212.747 141.384 212.653 141.318 212.573C141.253 212.49 141.171 212.427 141.072 212.383C140.973 212.337 140.856 212.313 140.721 212.313C140.584 212.313 140.465 212.343 140.364 212.402C140.263 212.461 140.179 212.542 140.114 212.645C140.051 212.749 140.003 212.869 139.972 213.006C139.94 213.143 139.924 213.289 139.924 213.445ZM143.78 212.415V215.184H143.018V211.763H143.745L143.78 212.415ZM144.827 211.741L144.82 212.449C144.774 212.441 144.723 212.435 144.668 212.43C144.616 212.426 144.563 212.424 144.51 212.424C144.38 212.424 144.265 212.443 144.166 212.481C144.067 212.517 143.983 212.57 143.916 212.639C143.851 212.707 143.8 212.789 143.764 212.886C143.728 212.983 143.707 213.091 143.701 213.211L143.527 213.224C143.527 213.009 143.548 212.81 143.59 212.626C143.633 212.443 143.696 212.282 143.78 212.143C143.867 212.004 143.974 211.895 144.103 211.817C144.233 211.739 144.384 211.7 144.555 211.7C144.601 211.7 144.651 211.704 144.703 211.713C144.758 211.721 144.799 211.731 144.827 211.741ZM145.123 213.512V213.439C145.123 213.192 145.158 212.964 145.23 212.753C145.302 212.54 145.405 212.356 145.54 212.2C145.677 212.042 145.843 211.919 146.039 211.833C146.238 211.744 146.461 211.7 146.71 211.7C146.96 211.7 147.184 211.744 147.38 211.833C147.578 211.919 147.746 212.042 147.883 212.2C148.02 212.356 148.124 212.54 148.196 212.753C148.267 212.964 148.303 213.192 148.303 213.439V213.512C148.303 213.758 148.267 213.987 148.196 214.198C148.124 214.408 148.02 214.593 147.883 214.751C147.746 214.907 147.579 215.029 147.383 215.118C147.187 215.204 146.965 215.247 146.716 215.247C146.465 215.247 146.241 215.204 146.043 215.118C145.847 215.029 145.68 214.907 145.543 214.751C145.406 214.593 145.302 214.408 145.23 214.198C145.158 213.987 145.123 213.758 145.123 213.512ZM145.885 213.439V213.512C145.885 213.666 145.9 213.811 145.932 213.948C145.964 214.085 146.013 214.205 146.081 214.308C146.148 214.412 146.234 214.493 146.34 214.552C146.445 214.611 146.571 214.64 146.716 214.64C146.857 214.64 146.979 214.611 147.083 214.552C147.188 214.493 147.275 214.412 147.342 214.308C147.409 214.205 147.459 214.085 147.491 213.948C147.524 213.811 147.541 213.666 147.541 213.512V213.439C147.541 213.287 147.524 213.144 147.491 213.009C147.459 212.872 147.408 212.751 147.339 212.645C147.271 212.54 147.185 212.458 147.08 212.399C146.976 212.338 146.853 212.307 146.71 212.307C146.566 212.307 146.442 212.338 146.337 212.399C146.233 212.458 146.148 212.54 146.081 212.645C146.013 212.751 145.964 212.872 145.932 213.009C145.9 213.144 145.885 213.287 145.885 213.439ZM151.046 214.378V211.763H151.811V215.184H151.09L151.046 214.378ZM151.154 213.667L151.41 213.66C151.41 213.89 151.384 214.102 151.334 214.296C151.283 214.487 151.205 214.655 151.1 214.798C150.994 214.94 150.86 215.05 150.695 215.13C150.531 215.208 150.334 215.247 150.104 215.247C149.937 215.247 149.785 215.223 149.646 215.175C149.506 215.126 149.386 215.051 149.285 214.95C149.186 214.849 149.109 214.717 149.054 214.555C149 214.393 148.972 214.199 148.972 213.973V211.763H149.734V213.98C149.734 214.104 149.749 214.208 149.778 214.293C149.808 214.375 149.848 214.441 149.898 214.492C149.949 214.542 150.008 214.578 150.075 214.599C150.143 214.62 150.215 214.631 150.29 214.631C150.508 214.631 150.678 214.589 150.803 214.504C150.929 214.418 151.019 214.302 151.071 214.157C151.126 214.011 151.154 213.848 151.154 213.667ZM153.403 212.421V216.499H152.641V211.763H153.343L153.403 212.421ZM155.632 213.442V213.508C155.632 213.757 155.603 213.988 155.544 214.201C155.487 214.412 155.401 214.596 155.288 214.754C155.176 214.91 155.038 215.031 154.874 215.118C154.709 215.204 154.519 215.247 154.304 215.247C154.092 215.247 153.905 215.208 153.745 215.13C153.587 215.05 153.453 214.937 153.343 214.792C153.234 214.647 153.145 214.476 153.078 214.28C153.012 214.082 152.966 213.865 152.939 213.629V213.373C152.966 213.122 153.012 212.894 153.078 212.69C153.145 212.485 153.234 212.309 153.343 212.162C153.453 212.014 153.587 211.9 153.745 211.82C153.903 211.74 154.087 211.7 154.298 211.7C154.513 211.7 154.704 211.742 154.87 211.827C155.037 211.909 155.177 212.027 155.291 212.181C155.405 212.332 155.49 212.516 155.547 212.731C155.604 212.944 155.632 213.181 155.632 213.442ZM154.87 213.508V213.442C154.87 213.284 154.856 213.138 154.826 213.003C154.797 212.866 154.75 212.746 154.687 212.642C154.624 212.539 154.543 212.459 154.444 212.402C154.347 212.343 154.23 212.313 154.093 212.313C153.958 212.313 153.842 212.337 153.745 212.383C153.648 212.427 153.567 212.489 153.501 212.57C153.436 212.65 153.385 212.743 153.35 212.851C153.314 212.956 153.289 213.071 153.274 213.195V213.809C153.299 213.961 153.342 214.1 153.403 214.226C153.465 214.353 153.551 214.454 153.663 214.53C153.776 214.603 153.922 214.64 154.099 214.64C154.236 214.64 154.353 214.611 154.45 214.552C154.547 214.493 154.626 214.412 154.687 214.308C154.75 214.203 154.797 214.082 154.826 213.945C154.856 213.808 154.87 213.662 154.87 213.508Z" fill="#E8DEF8"/>
</g>
<path fill-rule="evenodd" clip-rule="evenodd" d="M21.6005 2.20361C10.8876 2.20361 2.20312 10.8882 2.20312 21.6011V417.044C2.20312 427.757 10.8876 436.441 21.6005 436.441H184.274C194.987 436.441 203.672 427.757 203.672 417.044V21.601C203.672 10.8881 194.987 2.20361 184.274 2.20361H21.6005ZM24.6859 8.37549C15.4339 8.37549 7.93359 15.8758 7.93359 25.1278V413.517C7.93359 422.769 15.4339 430.269 24.6859 430.269H181.188C190.44 430.269 197.94 422.769 197.94 413.517V25.1278C197.94 15.8758 190.44 8.37549 181.188 8.37549H24.6859Z" fill="#020202"/>
<g filter="url(#filter0_f_274_5611)">
<rect x="4.84905" y="4.84905" width="196.178" height="428.947" rx="18.9566" stroke="#6C6C6C" stroke-width="0.881701"/>
</g>
<circle cx="102.939" cy="16.0913" r="4.58793" fill="url(#paint0_radial_274_5611)" stroke="black" stroke-width="0.963707"/>
<path d="M205.877 163.114H206.759C207.489 163.114 208.081 163.706 208.081 164.437V190.888C208.081 191.618 207.489 192.21 206.759 192.21H205.877V163.114Z" fill="url(#paint1_linear_274_5611)"/>
<path d="M205.877 70.5356H206.759C207.489 70.5356 208.081 71.1278 208.081 71.8582V124.319C208.081 125.05 207.489 125.642 206.759 125.642H205.877V70.5356Z" fill="url(#paint2_linear_274_5611)"/>
</g>
<defs>
<filter id="filter0_f_274_5611" x="2.6448" y="2.6448" width="200.587" height="433.356" filterUnits="userSpaceOnUse" color-interpolation-filters="sRGB">
<feFlood flood-opacity="0" result="BackgroundImageFix"/>
<feBlend mode="normal" in="SourceGraphic" in2="BackgroundImageFix" result="shape"/>
<feGaussianBlur stdDeviation="0.881701" result="effect1_foregroundBlur_274_5611"/>
</filter>
<radialGradient id="paint0_radial_274_5611" cx="0" cy="0" r="1" gradientUnits="userSpaceOnUse" gradientTransform="translate(102.057 14.7687) rotate(46.3322) scale(6.70397)">
<stop stop-color="#262A39"/>
<stop offset="0.660416"/>
</radialGradient>
<linearGradient id="paint1_linear_274_5611" x1="206.318" y1="192.21" x2="209.183" y2="192.21" gradientUnits="userSpaceOnUse">
<stop/>
<stop offset="1" stop-color="white"/>
</linearGradient>
<linearGradient id="paint2_linear_274_5611" x1="206.318" y1="125.642" x2="209.183" y2="125.642" gradientUnits="userSpaceOnUse">
<stop/>
<stop offset="1" stop-color="white"/>
</linearGradient>
<clipPath id="clip0_274_5611">
<rect width="208" height="439" fill="white"/>
</clipPath>
<clipPath id="clip1_274_5611">
<rect x="175.783" y="48.6978" width="18.4994" height="18.4994" rx="9.24969" fill="white"/>
</clipPath>
<clipPath id="clip2_274_5611">
<rect width="153.545" height="25.4366" fill="white" transform="translate(15.293 108.333)"/>
</clipPath>
<clipPath id="clip3_274_5611">
<rect width="153.545" height="25.4366" fill="white" transform="translate(15.293 141.618)"/>
</clipPath>
<clipPath id="clip4_274_5611">
<rect x="35.7734" y="203.559" width="60.1993" height="19.2497" rx="9.62484" fill="white"/>
</clipPath>
<clipPath id="clip5_274_5611">
<rect x="109.918" y="203.559" width="60.5855" height="19.2497" rx="9.62484" fill="white"/>
</clipPath>
</defs>
</svg>
