<svg width="110" height="100" viewBox="0 0 110 100" fill="none" xmlns="http://www.w3.org/2000/svg">
<rect x="1.6" y="2.6" width="8.92504" height="8.92504" rx="1.08751" stroke="#2D384C" stroke-width="1.2"/>
<rect x="72.476" y="2.6" width="8.92504" height="8.92504" rx="1.08751" stroke="#2D384C" stroke-width="1.2"/>
<rect x="72.476" y="61.6" width="8.92504" height="8.92504" rx="1.08751" stroke="#2D384C" stroke-width="1.2"/>
<rect x="15.1" y="61.6" width="8.92504" height="8.92504" rx="1.08751" stroke="#2D384C" stroke-width="1.2"/>
<rect x="1.6" y="16.1005" width="8.92504" height="8.92504" rx="1.08751" stroke="#2D384C" stroke-width="1.2"/>
<rect x="72.476" y="16.1005" width="8.92504" height="8.92504" rx="1.08751" stroke="#2D384C" stroke-width="1.2"/>
<rect x="72.476" y="75.1005" width="8.92504" height="8.92504" rx="1.08751" stroke="#2D384C" stroke-width="1.2"/>
<rect x="15.1" y="75.1005" width="8.92504" height="8.92504" rx="1.08751" stroke="#2D384C" stroke-width="1.2"/>
<rect x="1.6" y="29.6" width="8.92504" height="8.92504" rx="1.08751" stroke="#2D384C" stroke-width="1.2"/>
<rect x="72.476" y="29.6" width="8.92504" height="8.92504" rx="1.08751" stroke="#2D384C" stroke-width="1.2"/>
<rect x="72.476" y="88.6005" width="8.92504" height="8.92504" rx="1.08751" stroke="#2D384C" stroke-width="1.2"/>
<rect x="28.601" y="2.6" width="8.92504" height="8.92504" rx="1.08751" stroke="#2D384C" stroke-width="1.2"/>
<rect x="99.475" y="2.6" width="8.92504" height="8.92504" rx="1.08751" stroke="#2D384C" stroke-width="1.2"/>
<rect x="99.475" y="61.6" width="8.92504" height="8.92504" rx="1.08751" stroke="#2D384C" stroke-width="1.2"/>
<rect x="58.975" y="61.6" width="8.92504" height="8.92504" rx="1.08751" stroke="#2D384C" stroke-width="1.2"/>
<rect x="1.6" y="61.6" width="8.92504" height="8.92504" rx="1.08751" stroke="#2D384C" stroke-width="1.2"/>
<rect x="28.601" y="16.1005" width="8.92504" height="8.92504" rx="1.08751" stroke="#2D384C" stroke-width="1.2"/>
<rect x="99.475" y="16.1005" width="8.92504" height="8.92504" rx="1.08751" stroke="#2D384C" stroke-width="1.2"/>
<rect x="99.475" y="75.1005" width="8.92504" height="8.92504" rx="1.08751" stroke="#2D384C" stroke-width="1.2"/>
<rect x="58.975" y="75.1005" width="8.92504" height="8.92504" rx="1.08751" stroke="#2D384C" stroke-width="1.2"/>
<rect x="1.6" y="75.1005" width="8.92504" height="8.92504" rx="1.08751" stroke="#2D384C" stroke-width="1.2"/>
<rect x="99.475" y="29.6" width="8.92504" height="8.92504" rx="1.08751" stroke="#2D384C" stroke-width="1.2"/>
<rect x="99.475" y="88.6005" width="8.92504" height="8.92504" rx="1.08751" stroke="#2D384C" stroke-width="1.2"/>
<rect x="58.975" y="88.6005" width="8.92504" height="8.92504" rx="1.08751" stroke="#2D384C" stroke-width="1.2"/>
<rect x="15.1" y="2.6" width="8.92504" height="8.92504" rx="1.08751" stroke="#2D384C" stroke-width="1.2"/>
<rect x="85.975" y="2.6" width="8.92504" height="8.92504" rx="1.08751" stroke="#2D384C" stroke-width="1.2"/>
<rect x="85.975" y="61.6" width="8.92504" height="8.92504" rx="1.08751" stroke="#2D384C" stroke-width="1.2"/>
<rect x="28.601" y="61.6" width="8.92504" height="8.92504" rx="1.08751" stroke="#2D384C" stroke-width="1.2"/>
<rect x="15.1" y="16.1005" width="8.92504" height="8.92504" rx="1.08751" stroke="#2D384C" stroke-width="1.2"/>
<rect x="85.975" y="16.1005" width="8.92504" height="8.92504" rx="1.08751" stroke="#2D384C" stroke-width="1.2"/>
<rect x="85.975" y="75.1005" width="8.92504" height="8.92504" rx="1.08751" stroke="#2D384C" stroke-width="1.2"/>
<rect x="42.1" y="2.6" width="8.92504" height="8.92504" rx="1.08751" stroke="#2D384C" stroke-width="1.2"/>
<rect x="42.1" y="16.1005" width="8.92504" height="8.92504" rx="1.08751" stroke="#2D384C" stroke-width="1.2"/>
</svg>
