<svg width="110" height="100" viewBox="0 0 110 100" fill="none" xmlns="http://www.w3.org/2000/svg">
<path d="M21.4531 29.6154V30.5558C21.7884 30.5558 22.0983 30.3774 22.2665 30.0874C22.4348 29.7975 22.436 29.4399 22.2696 29.1488L21.4531 29.6154ZM44.1595 13.5873L43.5118 14.2691C43.7461 14.4917 44.0784 14.5784 44.3917 14.4986C44.7049 14.4188 44.9552 14.1837 45.0545 13.876L44.1595 13.5873ZM86.9012 57.9373C87.4206 57.9373 87.8416 57.5162 87.8416 56.9969C87.8416 56.4775 87.4206 56.0565 86.9012 56.0565V57.9373ZM75.749 13.8267C75.8549 14.3351 76.353 14.6614 76.8615 14.5554C77.3699 14.4495 77.6962 13.9514 77.5902 13.4429L75.749 13.8267ZM20.1177 56.0565C15.5117 56.0565 12.1838 54.4363 10.0322 52.0838C7.86827 49.7179 6.83213 46.5435 6.94932 43.3405C7.18233 36.9723 11.9698 30.5558 21.4531 30.5558V28.675C10.9017 28.675 5.3377 35.9493 5.06978 43.2718C4.93651 46.9141 6.11255 50.5851 8.64437 53.3532C11.1885 56.1348 15.0399 57.9373 20.1177 57.9373V56.0565ZM22.2696 29.1488C18.5144 22.5774 20.6986 15.9072 25.3643 12.3301C30.0025 8.77414 37.1656 8.24022 43.5118 14.2691L44.8072 12.9055C37.7966 6.24543 29.5994 6.71325 24.22 10.8375C18.8682 14.9405 16.3776 22.6288 20.6367 30.082L22.2696 29.1488ZM86.9012 56.0565H20.1177V57.9373H86.9012V56.0565ZM45.0545 13.876C47.9101 5.02356 54.8487 1.54119 61.4288 1.97636C68.0718 2.41569 74.2903 6.82811 75.749 13.8267L77.5902 13.4429C75.9303 5.47881 68.8881 0.584761 61.5529 0.0996569C54.1548 -0.389607 46.3977 3.58564 43.2645 13.2986L45.0545 13.876Z" fill="#283141"/>
<circle cx="55" cy="92" r="5" stroke="#283141" stroke-width="2"/>
<circle cx="75" cy="82" r="4" stroke="#283141" stroke-width="2"/>
<circle cx="35" cy="82" r="4" stroke="#283141" stroke-width="2"/>
<circle cx="93" cy="71" r="3" stroke="#283141" stroke-width="2"/>
<circle cx="17" cy="71" r="3" stroke="#283141" stroke-width="2"/>
<path d="M55 60V65" stroke="#283141" stroke-width="2" stroke-linecap="round"/>
<path d="M55 69.5V74.5" stroke="#283141" stroke-width="2" stroke-linecap="round"/>
<path d="M55 79V84" stroke="#283141" stroke-width="2" stroke-linecap="round"/>
<path d="M75 60V65" stroke="#283141" stroke-width="2" stroke-linecap="round"/>
<path d="M75 69.5V74.5" stroke="#283141" stroke-width="2" stroke-linecap="round"/>
<path d="M35 60V65" stroke="#283141" stroke-width="2" stroke-linecap="round"/>
<path d="M35 69.5V74.5" stroke="#283141" stroke-width="2" stroke-linecap="round"/>
<path d="M93 60V65" stroke="#283141" stroke-width="2" stroke-linecap="round"/>
<path d="M17 60V65" stroke="#283141" stroke-width="2" stroke-linecap="round"/>
<path d="M93.415 51.7041C93.415 51.4404 93.374 51.2061 93.292 51.001C93.2158 50.7959 93.0781 50.6084 92.8789 50.4385C92.6797 50.2686 92.3984 50.1045 92.0352 49.9463C91.6777 49.7822 91.2207 49.6152 90.6641 49.4453C90.0547 49.2578 89.4922 49.0498 88.9766 48.8213C88.4668 48.5869 88.0215 48.3174 87.6406 48.0127C87.2598 47.7021 86.9639 47.3477 86.7529 46.9492C86.542 46.5449 86.4365 46.0791 86.4365 45.5518C86.4365 45.0303 86.5449 44.5557 86.7617 44.1279C86.9844 43.7002 87.2979 43.3311 87.7021 43.0205C88.1123 42.7041 88.5957 42.4609 89.1523 42.291C89.709 42.1152 90.3242 42.0273 90.998 42.0273C91.9473 42.0273 92.7646 42.2031 93.4502 42.5547C94.1416 42.9062 94.6719 43.3779 95.041 43.9697C95.416 44.5615 95.6035 45.2148 95.6035 45.9297H93.415C93.415 45.5078 93.3242 45.1357 93.1426 44.8135C92.9668 44.4854 92.6973 44.2275 92.334 44.04C91.9766 43.8525 91.5225 43.7588 90.9717 43.7588C90.4502 43.7588 90.0166 43.8379 89.6709 43.9961C89.3252 44.1543 89.0674 44.3682 88.8975 44.6377C88.7275 44.9072 88.6426 45.2119 88.6426 45.5518C88.6426 45.792 88.6982 46.0117 88.8096 46.2109C88.9209 46.4043 89.0908 46.5859 89.3193 46.7559C89.5479 46.9199 89.835 47.0752 90.1807 47.2217C90.5264 47.3682 90.9336 47.5088 91.4023 47.6436C92.1113 47.8545 92.7295 48.0889 93.2568 48.3467C93.7842 48.5986 94.2236 48.8857 94.5752 49.208C94.9268 49.5303 95.1904 49.8965 95.3662 50.3066C95.542 50.7109 95.6299 51.1709 95.6299 51.6865C95.6299 52.2256 95.5215 52.7119 95.3047 53.1455C95.0879 53.5732 94.7773 53.9395 94.373 54.2441C93.9746 54.543 93.4941 54.7744 92.9316 54.9385C92.375 55.0967 91.7539 55.1758 91.0684 55.1758C90.4531 55.1758 89.8467 55.0938 89.249 54.9297C88.6572 54.7656 88.1182 54.5166 87.6318 54.1826C87.1455 53.8428 86.7588 53.4209 86.4717 52.917C86.1846 52.4072 86.041 51.8125 86.041 51.1328H88.2471C88.2471 51.5488 88.3174 51.9033 88.458 52.1963C88.6045 52.4893 88.8066 52.7295 89.0645 52.917C89.3223 53.0986 89.6211 53.2334 89.9609 53.3213C90.3066 53.4092 90.6758 53.4531 91.0684 53.4531C91.584 53.4531 92.0146 53.3799 92.3604 53.2334C92.7119 53.0869 92.9756 52.8818 93.1514 52.6182C93.3271 52.3545 93.415 52.0498 93.415 51.7041ZM97.5811 42.2031H102.107C103.08 42.2031 103.909 42.3496 104.595 42.6426C105.28 42.9355 105.805 43.3691 106.168 43.9434C106.537 44.5117 106.722 45.2148 106.722 46.0527C106.722 46.6914 106.604 47.2539 106.37 47.7402C106.136 48.2266 105.805 48.6367 105.377 48.9707C104.949 49.2988 104.439 49.5537 103.848 49.7354L103.18 50.0605H99.1104L99.0928 48.3115H102.143C102.67 48.3115 103.109 48.2178 103.461 48.0303C103.812 47.8428 104.076 47.5879 104.252 47.2656C104.434 46.9375 104.524 46.5684 104.524 46.1582C104.524 45.7129 104.437 45.3262 104.261 44.998C104.091 44.6641 103.827 44.4092 103.47 44.2334C103.112 44.0518 102.658 43.9609 102.107 43.9609H99.7871V55H97.5811V42.2031ZM104.885 55L101.879 49.252L104.19 49.2432L107.24 54.8857V55H104.885Z" fill="#283141"/>
<path d="M88.307 30.4017C88.307 32.5937 86.5032 34.3928 84.2507 34.3928C81.9981 34.3928 80.1943 32.5937 80.1943 30.4017C80.1943 28.2097 81.9981 26.4106 84.2507 26.4106C86.5032 26.4106 88.307 28.2097 88.307 30.4017Z" stroke="#283141" stroke-width="2"/>
<path d="M84.25 49.4031C83.5662 49.4031 82.8907 49.3679 82.2254 49.2992C81.6362 49.2384 81.1833 48.7644 81.1128 48.1763L80.5672 43.6214C80.5244 43.264 80.2912 42.958 79.958 42.8219L78.6349 42.2814C78.3218 42.1536 77.9652 42.1942 77.6889 42.3891L73.6819 45.2161C73.2212 45.5411 72.6022 45.5415 72.1615 45.19C71.101 44.3443 70.1334 43.3898 69.276 42.3436C68.886 41.8677 68.9173 41.1827 69.3196 40.7171L72.2465 37.3298C72.5024 37.0336 72.56 36.6144 72.3934 36.2601L71.8354 35.074C71.6929 34.771 71.407 34.5604 71.0754 34.5142L66.2211 33.8381C65.6436 33.7577 65.185 33.3082 65.1269 32.728C65.0485 31.9469 65 31.0823 65 30.4015C65 29.6998 65.0385 28.8973 65.1136 28.1437C65.1747 27.531 65.6838 27.0728 66.2984 27.0339L70.9434 26.7398C71.3448 26.7144 71.691 26.4489 71.8197 26.0679L72.1825 24.9934C72.2824 24.6978 72.2371 24.3725 72.0605 24.1153L69.2248 19.9863C68.9057 19.5217 68.913 18.9028 69.27 18.4667C70.1368 17.408 71.1164 16.4431 72.1907 15.5897C72.6558 15.2203 73.313 15.2443 73.7743 15.6184L77.3418 18.5113C77.6274 18.7429 78.0177 18.7973 78.3557 18.6527L79.7493 18.0566C80.0629 17.9225 80.2854 17.6366 80.3385 17.2998L81.1422 12.2016C81.1957 11.8623 81.4621 11.5947 81.803 11.552V11.552C82.6043 11.4516 83.421 11.3999 84.25 11.3999C85.079 11.3999 85.8957 11.4516 86.697 11.552V11.552C87.0379 11.5947 87.3043 11.8623 87.3578 12.2016L88.1627 17.3077C88.2152 17.6402 88.4328 17.9234 88.7406 18.0596L90.0654 18.6458C90.4017 18.7946 90.7928 18.745 91.0813 18.5167L94.7469 15.6163C95.2085 15.2511 95.8591 15.2316 96.3198 15.5981C97.379 16.4406 98.3459 17.3917 99.2032 18.4341C99.5599 18.8678 99.57 19.4839 99.2553 19.9489L96.4448 24.1015C96.2654 24.3666 96.225 24.702 96.3365 25.002L96.8333 26.3394C96.969 26.7046 97.306 26.9564 97.6946 26.983L102.21 27.292C102.822 27.3339 103.33 27.7916 103.395 28.4021C103.464 29.0592 103.5 29.7262 103.5 30.4015C103.5 31.071 103.465 31.7324 103.396 32.384C103.339 32.9358 102.916 33.3721 102.371 33.4805L97.3202 34.4869C97.0015 34.5504 96.7342 34.7661 96.6048 35.0641L96.0807 36.2714C95.929 36.6206 95.9909 37.0259 96.2398 37.314L98.7455 40.2139" stroke="#283141" stroke-width="2" stroke-linecap="round"/>
</svg>
