<svg width="110" height="100" viewBox="0 0 110 100" fill="none" xmlns="http://www.w3.org/2000/svg">
<circle cx="84.2326" cy="30.2843" r="4.08803" stroke="#283141" stroke-width="2"/>
<path d="M83.8309 49.6502C83.3819 49.6502 83.3373 49.635 82.8959 49.6049C82.6566 49.5886 82.4185 49.5679 82.1817 49.543C81.5965 49.4815 81.1475 49.0098 81.0784 48.4254L80.5244 43.7406C80.4826 43.3865 80.2525 43.0826 79.923 42.9463L78.5815 42.3912C78.2675 42.2613 77.9087 42.3024 77.6323 42.5L73.5962 45.3847C73.1356 45.7139 72.5129 45.7142 72.0724 45.3585C70.9952 44.4886 70.0132 43.5056 69.1443 42.4276C68.7644 41.9563 68.7951 41.2838 69.188 40.8232L72.1684 37.3288C72.4182 37.0359 72.4744 36.6242 72.3123 36.275L71.737 35.0359C71.5964 34.7331 71.312 34.5221 70.9814 34.4755L66.0808 33.784C65.5069 33.703 65.052 33.2555 64.9943 32.6788C64.9141 31.8762 64.8643 30.984 64.8643 30.2829C64.8643 29.5598 64.9039 28.7319 64.9811 27.9566C65.0418 27.347 65.5476 26.8904 66.1589 26.8512L70.8499 26.5503C71.2499 26.5247 71.5944 26.2592 71.7212 25.8789L72.0963 24.7536C72.1933 24.4627 72.1492 24.1433 71.9772 23.8895L69.0968 19.6406C68.7858 19.1819 68.7929 18.5744 69.1406 18.1428C70.0183 17.0531 71.0117 16.0604 72.1021 15.1834C72.5667 14.8096 73.2277 14.8338 73.6885 15.2123L77.2837 18.1657C77.569 18.4002 77.9615 18.4552 78.3004 18.3084L79.7123 17.6966C80.0224 17.5622 80.2419 17.2783 80.2939 16.9444L81.106 11.7255C81.1591 11.3839 81.4267 11.114 81.7697 11.0705V11.0705C82.5759 10.9682 83.3976 10.9155 84.2316 10.9155C85.0656 10.9155 85.8873 10.9682 86.6936 11.0705V11.0705C87.0366 11.114 87.3041 11.3839 87.3572 11.7255L88.1706 16.9523C88.2218 17.2818 88.4365 17.5631 88.7408 17.6995L90.0835 18.3014C90.4206 18.4525 90.814 18.4022 91.1023 18.1711L94.7959 15.2104C95.2571 14.8407 95.9115 14.8212 96.3718 15.1919C97.4468 16.0579 98.4274 17.0363 99.2956 18.1094C99.643 18.5386 99.6529 19.1433 99.3461 19.6025L96.4911 23.8759C96.3164 24.1375 96.2771 24.4667 96.3854 24.7621L96.8961 26.1548C97.0298 26.5194 97.3652 26.7714 97.7526 26.7982L102.313 27.1143C102.922 27.1565 103.426 27.6127 103.49 28.2199C103.562 28.8977 103.599 29.586 103.599 30.2829C103.599 30.9734 103.563 31.6555 103.492 32.3273C103.435 32.8754 103.016 33.3097 102.476 33.4187L97.3763 34.448C97.0591 34.512 96.7935 34.7279 96.666 35.0254L96.5024 35.4071" stroke="#283141" stroke-width="2" stroke-linecap="round"/>
<path d="M21.4531 29.6154V30.5558C21.7884 30.5558 22.0983 30.3774 22.2665 30.0874C22.4348 29.7975 22.436 29.4399 22.2696 29.1488L21.4531 29.6154ZM44.1595 13.5873L43.5118 14.2691C43.7461 14.4917 44.0784 14.5784 44.3917 14.4986C44.7049 14.4188 44.9552 14.1837 45.0545 13.876L44.1595 13.5873ZM86.9012 57.9373C87.4206 57.9373 87.8416 57.5162 87.8416 56.9969C87.8416 56.4775 87.4206 56.0565 86.9012 56.0565V57.9373ZM75.749 13.8267C75.8549 14.3351 76.353 14.6614 76.8615 14.5554C77.3699 14.4495 77.6962 13.9514 77.5902 13.4429L75.749 13.8267ZM20.1177 56.0565C15.5117 56.0565 12.1838 54.4363 10.0322 52.0838C7.86827 49.7179 6.83213 46.5435 6.94932 43.3405C7.18233 36.9723 11.9698 30.5558 21.4531 30.5558V28.675C10.9017 28.675 5.3377 35.9493 5.06978 43.2718C4.93651 46.9141 6.11255 50.5851 8.64437 53.3532C11.1885 56.1348 15.0399 57.9373 20.1177 57.9373V56.0565ZM22.2696 29.1488C18.5144 22.5774 20.6986 15.9072 25.3643 12.3301C30.0025 8.77414 37.1656 8.24022 43.5118 14.2691L44.8072 12.9055C37.7966 6.24543 29.5994 6.71325 24.22 10.8375C18.8682 14.9405 16.3776 22.6288 20.6367 30.082L22.2696 29.1488ZM86.9012 56.0565H20.1177V57.9373H86.9012V56.0565ZM45.0545 13.876C47.9101 5.02356 54.8487 1.54119 61.4288 1.97636C68.0718 2.41569 74.2903 6.82811 75.749 13.8267L77.5902 13.4429C75.9303 5.47881 68.8881 0.584761 61.5529 0.0996569C54.1548 -0.389607 46.3977 3.58564 43.2645 13.2986L45.0545 13.876Z" fill="#283141"/>
<circle cx="96.9188" cy="48.3148" r="9.93544" stroke="#283141" stroke-width="1.5"/>
<circle cx="55" cy="92" r="5" stroke="#283141" stroke-width="2"/>
<circle cx="75" cy="82" r="4" stroke="#283141" stroke-width="2"/>
<circle cx="35" cy="82" r="4" stroke="#283141" stroke-width="2"/>
<circle cx="93" cy="71" r="3" stroke="#283141" stroke-width="2"/>
<circle cx="17" cy="71" r="3" stroke="#283141" stroke-width="2"/>
<path d="M55 60V65" stroke="#283141" stroke-width="2" stroke-linecap="round"/>
<path d="M55 69.5V74.5" stroke="#283141" stroke-width="2" stroke-linecap="round"/>
<path d="M55 79V84" stroke="#283141" stroke-width="2" stroke-linecap="round"/>
<path d="M75 60V65" stroke="#283141" stroke-width="2" stroke-linecap="round"/>
<path d="M75 69.5V74.5" stroke="#283141" stroke-width="2" stroke-linecap="round"/>
<path d="M35 60V65" stroke="#283141" stroke-width="2" stroke-linecap="round"/>
<path d="M35 69.5V74.5" stroke="#283141" stroke-width="2" stroke-linecap="round"/>
<path d="M93 60V65" stroke="#283141" stroke-width="2" stroke-linecap="round"/>
<path d="M17 60V65" stroke="#283141" stroke-width="2" stroke-linecap="round"/>
<path d="M92 51C92 51 96.5 50 101 52M91.5 48C91.5 48 97.5 46.5 102.5 49.5M91 45C94 44.5 99 44 104 47" stroke="#283141" stroke-width="1.5" stroke-linecap="round" stroke-linejoin="round"/>
</svg>
