<svg width="65" height="30" viewBox="0 0 85 50" fill="none" xmlns="http://www.w3.org/2000/svg">
<g clip-path="url(#clip0_80_2)">
<path d="M25.152 47.448C21.0133 47.448 17.2373 46.488 13.824 44.568C10.4107 42.6053 7.70133 39.896 5.696 36.44C3.73333 32.9413 2.752 29.016 2.752 24.664C2.752 20.312 3.73333 16.408 5.696 12.952C7.70133 9.45333 10.4107 6.744 13.824 4.824C17.2373 2.86133 21.0133 1.88 25.152 1.88C29.3333 1.88 33.1307 2.86133 36.544 4.824C39.9573 6.744 42.6453 9.432 44.608 12.888C46.5707 16.344 47.552 20.2693 47.552 24.664C47.552 29.0587 46.5707 32.984 44.608 36.44C42.6453 39.896 39.9573 42.6053 36.544 44.568C33.1307 46.488 29.3333 47.448 25.152 47.448ZM25.152 42.392C28.2667 42.392 31.0613 41.6667 33.536 40.216C36.0533 38.7653 38.016 36.696 39.424 34.008C40.8747 31.32 41.6 28.2053 41.6 24.664C41.6 21.08 40.8747 17.9653 39.424 15.32C38.016 12.632 36.0747 10.5627 33.6 9.112C31.1253 7.66133 28.3093 6.936 25.152 6.936C21.9947 6.936 19.1787 7.66133 16.704 9.112C14.2293 10.5627 12.2667 12.632 10.816 15.32C9.408 17.9653 8.704 21.08 8.704 24.664C8.704 28.2053 9.408 31.32 10.816 34.008C12.2667 36.696 14.2293 38.7653 16.704 40.216C19.2213 41.6667 22.0373 42.392 25.152 42.392ZM77.7045 2.392V35.352C77.7045 39.0213 76.5738 41.9653 74.3125 44.184C72.0512 46.36 69.0645 47.448 65.3525 47.448C61.5978 47.448 58.5898 46.3387 56.3285 44.12C54.0672 41.8587 52.9365 38.7867 52.9365 34.904H58.7605C58.8032 37.08 59.3578 38.8507 60.4245 40.216C61.5338 41.5813 63.1765 42.264 65.3525 42.264C67.5285 42.264 69.1498 41.624 70.2165 40.344C71.2832 39.0213 71.8165 37.3573 71.8165 35.352V2.392H77.7045Z" fill="#485773"/>
</g>
<defs>
<clipPath id="clip0_80_2">
<rect width="85" height="50" fill="white"/>
</clipPath>
</defs>
</svg>