<svg width="110" height="100" viewBox="0 0 110 100" fill="none" xmlns="http://www.w3.org/2000/svg">
<circle cx="54.9997" cy="68.0007" r="10.3972" stroke="#131336" stroke-width="2.5"/>
<circle cx="84.1177" cy="60.1861" r="9.05329" stroke="#131336" stroke-width="2.5"/>
<circle cx="25.8824" cy="60.1861" r="9.05329" stroke="#131336" stroke-width="2.5"/>
<path d="M71.8242 97.7659V93.8835C71.8242 87.451 66.6096 82.2363 60.177 82.2363H49.824C43.3914 82.2363 38.1768 87.451 38.1768 93.8835V97.7659" stroke="#131336" stroke-width="2.5" stroke-linecap="round"/>
<path d="M55.001 7.17653V2" stroke="#131336" stroke-width="1.85953" stroke-linecap="round"/>
<path d="M39.4715 22.1313H34.2949" stroke="#131336" stroke-width="1.85953" stroke-linecap="round"/>
<path d="M75.7068 22.1313H70.5303" stroke="#131336" stroke-width="1.85953" stroke-linecap="round"/>
<path d="M44.2824 11.4123L40.6221 7.75195" stroke="#131336" stroke-width="1.85953" stroke-linecap="round"/>
<path d="M65.9305 11.4123L69.5908 7.75195" stroke="#131336" stroke-width="1.85953" stroke-linecap="round"/>
<path d="M44.2824 33.0599L40.6221 36.7202" stroke="#131336" stroke-width="1.85953" stroke-linecap="round"/>
<path d="M65.9305 33.0599L69.5908 36.7202" stroke="#131336" stroke-width="1.85953" stroke-linecap="round"/>
<path d="M51.2622 39.9614H58.7394M50.9746 42.5497H58.7394M53.2753 45.138H56.7263" stroke="#131336" stroke-width="1.85953" stroke-linecap="round"/>
<path d="M43.9229 22.1308C43.9229 16.0123 48.8829 11.0522 55.0014 11.0522C61.12 11.0522 66.08 16.0123 66.08 22.1308C66.08 25.2823 64.7654 28.1251 62.6519 30.1436C61.5193 31.2179 60.723 32.0758 60.1282 32.9722C59.523 33.8844 59.1556 34.792 58.8192 35.9282C58.6359 36.5472 58.0997 36.948 57.5189 36.948H52.7887C52.151 36.948 51.4749 36.4275 51.1654 35.5662C50.2841 33.1137 48.5366 31.1455 47.3305 30.124C45.229 28.1067 43.9229 25.2721 43.9229 22.1308Z" stroke="#131336" stroke-width="2"/>
<path d="M58.6865 15.2285C61.2542 16.3256 63.0537 18.8741 63.0537 21.843C63.0537 22.1818 63.0303 22.5152 62.9849 22.8415" stroke="#131336" stroke-width="1.85953" stroke-linecap="round"/>
<path d="M99.0006 86.7656C99.0013 79.0008 96.413 73.8243 89.2953 73.1772H78.9416C76.2558 73.1772 71.3403 74.0691 69.748 80.295" stroke="#131336" stroke-width="2.5" stroke-linecap="round"/>
<path d="M11.0003 86.7656C10.9997 79.0008 13.588 73.8243 20.7057 73.1772H31.0594C33.7452 73.1772 38.6606 74.0691 40.2529 80.295" stroke="#131336" stroke-width="2.5" stroke-linecap="round"/>
</svg>
