<svg width="1332" height="1332" viewBox="0 0 1332 1332" fill="none" xmlns="http://www.w3.org/2000/svg">
<path d="M504.327 971.882C513.186 977.696 534.559 985.338 549.179 969.391C567.453 949.456 570.775 902.943 607.045 907.373C643.314 911.803 668.232 971.328 625.041 1032.52M504.327 971.882C500.646 982.915 498.637 1008.61 520.046 1023.14C546.806 1041.3 591.135 1062.92 625.041 1032.52M504.327 971.882C503.997 970.449 503.677 968.962 503.372 967.426M625.041 1032.52C656.64 1020.83 682.16 981.795 687.423 963.375C692.686 944.954 692.904 818.408 588.177 834.52C497.692 848.44 495.13 925.889 503.372 967.426M503.372 967.426C487.336 950.176 455.456 896.843 456.233 821.511C457.203 727.348 497.49 635.611 596.507 631.243C695.525 626.874 750.517 766.786 756.827 818.722C763.137 870.658 734.972 1003.92 617.884 1038.08" stroke="#2D384C" stroke-width="1.5"/>
<path d="M444.324 798.97C436.812 783.945 413.419 765.626 402.716 758.268C361.511 748.635 330.205 776.195 312.277 789.172C301.924 796.666 291.785 802.613 285 806.247M444.324 798.97C453.259 816.839 451.338 820.513 456.599 835.209M444.324 798.97C440.049 803.97 428.8 818.1 418 822.5C404.5 828 405 843 387 851.5C372.6 858.3 342 893.5 331.5 908C329 911.5 322.397 923.1 319.197 933.5M324.259 720C312.776 731.483 300.496 752.443 297.286 759.357C294.718 764.889 298.887 777.339 301.293 782.873C290.116 795.328 283.123 803.838 280.055 807.77C279.273 808.773 279.046 810.064 279.422 811.278C290.221 846.153 312.027 915.544 317.417 928.774C324.28 945.618 323.864 959.551 339.668 970.365C355.473 981.179 363.549 987.169 368.914 996.487C374.279 1005.8 409.357 1023.88 422.271 1034.21C435.184 1044.54 451.207 1068.1 495.647 1078.42C540.087 1088.73 645.806 1097.77 684.141 1112.63C693.8 1115.28 706.237 1112.02 719.675 1104.44C734.607 1095.18 773.214 1077.48 808.189 1080.75C811.965 1081.32 823.957 1079.57 841.713 1068.08C859.469 1056.58 882.718 1041.43 892.124 1035.28C901.225 1032.13 904.168 1036.94 915.723 1030.12C927.278 1023.3 934.905 1027.23 939.758 1020.18C944.611 1013.13 950.889 978.508 952.252 956.42C953.616 934.331 968.15 910.523 972.916 901.332C977.681 892.141 984.71 874.11 985.897 866.834C987.085 859.558 998.965 864.903 987.531 846.045C978.384 830.958 952.62 806.551 940.881 796.233C929 787 889.282 785.592 882.84 787.599C869.376 791.081 851.575 820.714 845.313 832.298M425.5 751.062C416.734 747.604 399.924 744.829 392.461 743.815C364.825 742.36 334.089 726.451 320.509 717.661C319.55 717.041 319.34 715.747 319.943 714.777C325.777 705.388 334.105 681.574 335 667.5C336.275 668.631 338.585 671.268 340.008 672.5M425.5 751.062C430.074 737.475 445.704 707.435 458.426 683.891C460.865 679.377 458.534 673.714 453.696 672.005C429.391 663.42 385.345 644.119 357.5 630C354.968 628.259 348.138 625.587 340.264 628.061C339.492 628.303 338.985 629.022 338.964 629.831C338.655 641.82 338.473 665.181 340.008 672.5M425.5 751.062C424.833 751.668 420.1 753.8 420.5 757C421 761 425 760.5 427.5 765.5C429.5 769.5 426.942 774.667 425.544 776.5M430.061 726.718C414.018 731.964 365.715 694.761 340.008 672.5M556.983 1042.6C566.908 1058.18 591.471 1089.06 610.328 1087.95C620.631 1087.35 635.514 1077.53 649.231 1065.99M733.87 934.779C731.524 955.888 725.875 974.034 710.5 985.5C695.125 996.966 686.838 1020.78 684.141 1028.86C682.623 1033.41 666.894 1051.13 649.231 1065.99M693.598 1006.5C683.239 1017.7 660 1040.5 627.498 1055.14C612.01 1062.11 594.032 1055.39 580.94 1047.5M649.231 1065.99C671.358 1056.06 726.919 1028.75 748.5 998.933C770.081 969.115 760.5 914.5 749.5 892M825.546 799C845.342 792.651 885.244 755.851 901.181 738.605C887.5 713.5 885.882 704.337 885.299 701.889C884.571 698.829 864.112 687.02 854.562 685.84C845.012 684.66 833.531 681.655 826.126 684.123C820.203 686.098 784.274 713.517 768.5 726C771.779 733.783 786.194 754.379 798.332 771M741.099 760.94C742.899 760.554 749.222 761.274 760.121 767.238C773.745 774.692 785.569 769.037 794.566 770.322C803.563 771.608 812.372 774.071 828.626 804.611C844.879 835.15 850.075 835.133 855.539 852.661C859.909 866.683 877.422 905.613 885.632 923.326M900.15 739.715C906.99 744.144 924.891 756.259 929.406 760.624M976.419 831.472C970.692 809.051 949.627 766.204 922 772C887.466 779.245 895.262 779.28 881.594 784.006C867.926 788.732 854.164 797.968 846.5 804.611M961.718 797.5C959.165 789.357 948.909 760.377 942.781 759.426C935.122 758.237 910.686 762.439 889 781M504 969C496 968.5 476.4 966.9 462 964.5C444 961.5 438.5 958 414.5 958C390.5 958 362 932.5 356.5 918C352.1 906.4 348.667 891.679 348 887.679M755 987.163C783.5 997 882.5 1014 936.862 974.5M933.53 1024.5C928.03 1013.17 915.39 965.326 917.79 923.326M941.5 999.5C940.167 1000.17 937.2 999.7 936 992.5C935.428 989.067 937.038 975.883 937.834 958.5M894.5 799C895.333 806.5 902.1 830.1 922.5 864.5C938.272 891.096 939.124 930.317 937.834 958.5M937.834 958.5C924.556 932.833 894.9 882.3 882.5 885.5" stroke="#2D384C" stroke-width="1.5"/>
<path d="M376.465 639.538C384.461 626.979 402.057 599.081 408.473 587.961C416.493 574.062 426.516 554.55 434.134 540.785C441.751 527.02 448.3 502.964 457.655 483.853C467.01 464.742 465.559 467.708 470.321 455.977C475.082 444.247 483.383 428.043 486 423.5C490.5 415.687 496.128 400.224 503.484 402.448C509.369 404.227 506.516 415.34 503.484 421.093C502.2 423.213 499.331 427.904 498.126 429.711C497.373 432.862 494.54 440.119 493.261 443.943M438.333 666.065C441.845 649.637 452.418 611.934 466.615 592.547C484.362 568.312 489.712 564.288 493.647 561.893C497.582 559.498 506.221 557.188 511.525 553.424C516.828 549.661 525.277 543.629 528.762 541.238C532.956 538.361 536.571 537.36 543.04 529.126C544.025 527.866 546.836 524.561 550.198 521.423C554.731 517.527 561.659 511.208 570.215 506.899C578.771 502.591 582.822 498.425 581.22 494.578C579.617 490.731 568.611 489.342 557.178 492.655C548.031 495.305 533.439 508.258 528.809 513.779M498.138 463.634C503.173 458.257 514.5 439.606 520.336 431.139C526.171 422.672 534.587 415.927 537.729 412.428C540.243 409.628 543.645 405.229 545.032 403.379C547.069 400.649 551.357 395.025 552.213 394.37C553.284 393.551 556.434 392.732 559.458 397.268C562.482 401.804 560.088 408.292 557.316 413.395C555.099 417.477 551.505 422.021 549.986 423.783C547.644 428.305 538.782 439.865 534.644 445.08C531.898 451.702 524.436 462.521 520.5 467.5C519 469.5 523.731 474.5 526.5 471.5C532.5 465 540.244 458.565 547.174 450.501C554.103 442.437 555.741 443.76 564.309 434.184C572.877 424.609 580.31 422.215 583.712 425.365C587.114 428.515 584.505 436.501 577.743 445.08C572.333 451.944 552.947 473.712 543.93 483.738C541.798 488.694 535.528 500.293 531.127 503.798C530.283 512.853 525.056 522.984 522.22 528.37M476.384 468.295C479.219 465.713 486.564 457.228 493.261 443.943M493.261 443.943C501.144 426.079 516.605 410.815 521.351 406.176C525.782 401.845 534.595 390.449 539.663 395.875C544.357 400.901 540.428 406.073 536.084 411.596C532.608 416.015 527.673 422.274 525.645 424.495M492.021 412C492.76 412.693 497.366 415.243 498.753 415.687L503.882 408.617C504.991 406.815 502.1 400.934 498.146 403.807M526.71 400.596C526.951 403.227 531.568 407.012 533.809 407.012L538.025 402.53C541.114 399.311 537.532 392.464 532.048 396.055M546.067 402C546.543 402.657 550 407 553.5 407.5L558.5 400.5C558.5 397.5 554 392.5 551 395.689M569.5 507.266C567.5 505 565.5 500.2 565.5 499L575 494.5C576.5 494 580 494.5 581.22 497.99M571.5 431C572.5 432 575.2 434.9 578 436.5L583 430.5C584 429 581.994 423.299 577 424.608L571.5 431Z" stroke="#2D384C" stroke-width="1.5"/>
<path d="M777.128 719.476C770.205 710.515 755.043 691.684 749.785 688.043C743.212 683.493 737.482 677.426 732.763 673.381C728.044 669.336 721.136 662.258 707.486 658.382C699.074 652.651 681.083 640.133 676.417 635.907C670.584 630.624 668.934 625.32 662.065 619.732C655.196 614.144 648.693 606.012 644 599.999C641.02 596.181 637.654 593.973 635.837 592.657C628.946 587.668 634.019 582.883 637.022 581.513C649.542 577.529 662.542 590.576 667.478 597.598C670.938 599.634 684.949 609.053 687.247 613.425M826.624 683.922C819.501 677.401 803.911 663.015 798.53 657.634C791.804 650.907 786.451 642.21 777.924 635.181C769.398 628.151 767.734 621.953 766.902 617.461C766.07 612.969 765.289 600.255 761.515 593.178C757.74 586.101 753.415 575.722 752.472 570.925C751.932 569.681 750.795 566.211 750.568 562.28C749.778 549.415 750.136 547.831 746.728 533.702C743.321 519.572 734.51 516.497 730.521 513.255C726.531 510.013 720.969 505.698 719 512.5C717.32 518.302 724.615 525.564 729.179 528.362C729.254 529.395 730.214 536.386 731.021 539.5M690.512 631.144C687.465 626.533 687.247 617.921 687.247 608.11C686.88 606.025 684.386 599.411 677.344 589.636C674.44 587.681 666.924 577.687 663.53 572.935C660.301 570.441 654.01 561.644 651.269 557.557C648.254 554.799 639.932 541.51 638.6 537.629C637.268 533.749 636.927 529.065 641.278 526.506C645.628 523.947 649.724 529.193 652.496 532.35C655.268 535.506 660.433 542.552 668.657 549.444C675.236 554.957 688.154 568.497 693.791 574.578C695.542 575.944 701.075 574.42 700.001 568.67C697.216 563.619 691.637 552.071 691.602 546.287C686.298 541.369 675.314 530.658 672.5 526C667.961 522.431 658.501 514.5 658.044 510.381C657.53 505.757 658.189 500.733 663 501C667.811 501.267 693.188 520.227 699.953 526.506C706.717 532.785 711.102 539.197 714.216 546.287C717.33 553.377 718.887 561.651 727.238 570.925M681 511.581C678.788 508.925 677.46 502.834 679.712 500.541C682.526 497.674 685 498.5 692 502.5C693.218 503.196 694.7 504.4 697.5 506C701 508 711.372 512.586 719.186 522.793C727.942 532.209 728.93 533.871 731.77 541.47C734.609 549.07 736.464 565.336 741.604 571.658M634 591.046C632.486 586.499 637.022 582.999 642 586.499L648.5 591.499C646.5 592.499 643.079 596.399 642.279 597.999M693.5 503.466C691.1 503.866 688.167 507.999 687.5 509.999L682.5 506.999C680.5 505.999 680.859 502.5 682 501C683.6 498.897 686.333 499.536 687.5 500.092M673.794 506.716C669.794 508.315 668 512 667.5 513L661.5 508.5C660 507.5 659.5 504.9 661.5 502.5C663 501 664.5 501.396 665.581 501.863M731.244 513.807C730 513.807 727.219 517.707 726.5 519L721.5 514.5C720 513.5 721 509.335 724.5 509.279M639.634 534.193L644 540.499C646 539.999 650.7 536.099 651.5 534.499L647 528.999C645.5 527.499 643.634 527.693 641.634 528.693C639.392 529.814 639.134 533.193 639.634 534.193Z" stroke="#2D384C" stroke-width="1.5"/>
<path d="M598.689 907.059C606.893 889.616 630.608 854.646 659.838 854.306M611.143 907.97C621.839 893.915 648.401 866.018 669.086 866.867M618.866 910.504C633.629 899.402 665.567 877.271 675.216 877.559M625.707 914.465C635.369 906.484 660.382 892.069 683.138 898.262M631.499 919.869C648.054 915.149 682.378 908.07 687.232 917.509M567.199 937.246C572.762 954.23 595.774 989.227 646.115 986.374M571.343 929.435C586.756 944.508 623.518 975.368 647.261 978.221M576.565 920.9C598.475 927.906 643.414 947.548 647.898 970.069M585.227 912.111C599.239 913.343 630.167 919.856 641.784 936.059M562.666 946.313C562.666 959.976 595.114 1000.86 642.696 998.162M502.052 982.243C504.795 982.22 508.695 981.931 513.316 976.21M502.05 989.023C509.276 988.337 514.352 985.576 519.178 977.962M640.286 1005.49C621.264 1012.34 579.155 1010.2 559.066 954.567M636.513 926.255C647.765 922.758 673.886 918.081 688.353 927.34M637.989 1026C647.304 1009.5 649.876 994.352 647.534 975.191M638.622 930.058C655.065 929.605 688.247 931.616 689.434 943.286M641.097 934.44C656.713 934.786 688.051 939.904 688.471 957.608M643.294 939.906C658.184 943.42 686.509 956.157 680.693 978.991M646.68 951.275C657.923 955.102 679.242 967.852 674.577 988.232M647.534 958.81C655.521 964.158 670.949 979.205 668.767 996.605M648.245 966.976C653.99 971.851 664.65 986.379 661.339 1005.49M651.036 1016.13C653.489 1006.1 660.221 986.374 647.898 972.158M571.453 634.577C569.678 670.662 570.289 761.283 586.93 835.086M672.683 871.812C697.206 863.681 748.436 842.267 757.179 821.66M676.758 880.481C703.505 872.931 757.103 854.585 757.515 841.597M679.78 887.407C698.362 888.596 740.18 881.691 756.067 858.809M592.794 908.412C596.943 886.731 613.371 843.427 645.895 843.659M588.279 909.978C590.987 885.879 608.598 839.098 629.856 836.702M502.803 996.32C511.141 993.572 519.802 994.219 524.12 978.899M554.854 961.731C559.664 986.033 588.799 1031.54 632.796 1020.58M551.286 966.855C555.546 999.373 584.111 1041.9 622.871 1034.39M594.187 1047.05C577.002 1030.83 547.423 1010.63 549.17 969.657M549.188 1039.46C545.372 1025.32 539.559 991.936 544.138 973.831M504.527 1003.44C514.64 1000.69 522.741 998.216 528.544 978.899M535.308 977.948C532.206 991.873 521.962 1011.75 510.783 1014.31M507.087 1008.5C515.273 1006.3 529.199 999.691 532.566 978.508M546.368 972.173C546.069 988.92 549.585 1027.58 570.384 1045.88M519.16 1022.57C525.747 1011.3 537.539 986.845 537.811 977.262M541.279 1035.85C540.126 1021.58 539.301 989.432 541.755 975.513M530.097 1029.63L539.808 976.21M573.953 924.748C595.372 936.926 640.074 963.79 647.534 973.827M580.686 916.073C597.84 919.041 634.941 929.862 646.115 949.402M602.536 833.134C590.635 838.958 574.368 863.231 582.557 914.465M543.132 974.514C515.578 956.332 508.493 907.059 524.12 866.26M579.373 917.605C573.842 896.063 568.68 849.324 590.543 834.146M538.784 976.842C523.672 968.139 497.383 936.781 513.12 880.977M530.854 978.508C519.222 968.268 497.547 940.603 502.421 912.29M521.87 978.508C514.959 971.047 500.965 953.118 500.275 941.095C497.445 941.999 489.238 941.181 481.346 935.262M512.151 975.86C509.654 973.886 504.138 967.743 502.05 958.967M575.034 837.116C567.88 851.693 557.864 889.179 575.034 922.505M566.234 839.564C558.184 853.623 547.744 891.618 570.387 931.131M547.392 971.191C533.055 955.306 513.12 910.504 529.29 860.525M566.249 938.972C554.609 923.656 534.13 889.379 555.407 843.66M561.569 949.402C546.881 932.845 529.418 896.23 545.575 848.427M534.844 855.792C528.544 884.969 526.347 941.801 551.929 965.691M557.28 957.545C542.288 947.794 526.798 901.198 539.719 852.501M586.074 911.651C585.378 893.961 589.954 853.491 613.817 833.134M682.37 895.355C700.521 895.715 740.051 892.543 752.963 876.983M684.73 904.092C702.35 904.459 740.081 902.212 750.042 890.297M686.317 912.394C702.106 913.777 736.076 914.176 745.647 904.703M687.785 921.056C701.889 922.711 732.395 924.139 741.582 916.607M631.515 1033.69C631.714 1033.19 632.112 1031.66 632.112 1029.52M640.286 1030.11C640.51 1029.25 640.977 1026.89 641.057 1024.35M647.261 1026.73C647.474 1025.14 647.898 1021.47 647.898 1019.48M655.62 1022.23C656.21 1020.71 657.763 1014.67 658.302 1008.94M688.353 925.978C697.391 927.19 718.078 931.348 728.524 944.578M688.471 929.214C697.561 932.232 717.477 940.87 724.42 951.275M687.785 922.97L734.981 932.213M688.848 932.541C698.801 938.208 719.206 951.154 721.208 957.608M689.043 937.698C697.592 942.315 715.115 954.033 716.816 963.962M666.963 999.562C667.924 1001.42 667.722 1008.79 665.415 1016.13M675.753 987.397C676.831 990.767 676.659 1001.18 674.577 1009.97M680.012 980.21C681.483 982.765 685.608 990.183 684.609 1001.15M685.321 969.886C687.838 972.364 690.29 983.593 690.356 996.605M687.674 962.076C691.021 965.213 700 973.788 699.934 986.374M689.434 945.729C695.72 948.411 708.456 959.537 711.555 971.398M689.043 952.594C693.777 956.528 703.793 967.317 705.983 978.991M668.76 865.648C695.888 852.447 750.946 821.748 754.159 804.558M663.533 858.63C689.756 843.346 743.843 808.243 750.407 790.095M597.259 833.647V631.054M619.369 833.647C632.493 785.401 652.161 677.118 650.088 643.956M658.061 852.722C682.363 834.832 733.588 793.193 744.073 769.757M652.436 848.034C678.607 824.598 732.261 772.944 737.511 753.82M644.935 842.798C673.429 817.916 730.051 761.363 728.59 734.199M638.569 839.737C665.588 809.712 719.765 743.367 720.325 718.185M633.399 837.52C660.192 800.3 712.815 720.668 708.956 699.902M624.96 835.086C644.935 786.068 667.873 670.785 663.523 652.143M628.135 835.998C649.256 792.317 689.155 697.054 679.783 665.445M631.055 836.702C654.169 795.943 701.993 712.629 696.203 683.084M592.501 833.647C587.424 777.366 578.538 658.307 583.61 632.315M611.068 632.315C609.62 692.098 608.727 815.876 603.772 832.724M614.418 833.421C625.039 776.113 641.349 655.782 638.256 638.696M560.446 637.315C557.808 694.175 568.5 811.852 582.028 835.525M551.064 640.563C547.391 680.083 558.411 805.678 576.43 836.702M500.275 949.402C496.586 949.772 493.653 950.835 487.427 945.472M501.084 919.888C490.467 916.073 473.956 905.762 466.58 896.251M500.662 925.029C493.217 923.322 476.324 919.956 470.199 907.687M500.275 932.443C495.842 932.073 482.215 931.131 475.845 922.505M494.618 956.71C496.965 958.172 501.747 959.472 502.05 958.364M541.802 850.829C520.384 819.451 485.1 749.19 490.623 691.202M541.56 644.883C537.224 691.202 547.999 804.509 569.893 838.495M611.143 832.724C619.369 769.757 626.991 651.94 624.104 633.689M561.442 841.332C543.214 811.261 520.39 728.13 528.814 652.569M553.536 844.387C534.056 804.202 504.527 718.185 515.041 662.549M499.941 677.67C491.889 713.402 521.281 809.666 548.186 848.034M536.699 854.65C513.12 829.83 477.817 753.195 482.377 705.154M462.237 879.602C472.081 896.251 493.507 907.687 502.421 909.978M531.665 858.069C502.421 832.724 473.189 766.429 472.988 725.213M504.157 903.914C492.572 896.343 468.992 880.203 458.907 860.525M507.55 892.921C495.763 883.87 467.738 865.625 456.958 842.686M456.156 827.341C467.45 848.034 495.691 871.675 512.271 884.118M527.013 862.721C507.064 844.446 469.721 790.264 466.829 744.494M524.12 865.625C504.582 845.696 465.381 807.253 461.08 768.275M516.404 875.872C497.629 857.781 460.211 828.354 456.958 809.643M520.39 870.52C497.768 850.829 460.382 803.928 457.951 792.013" stroke="#2D384C" stroke-width="1.5"/>
<path d="M480.232 360.373C464.481 308.686 433.649 206.78 432.994 203.574C432.34 200.368 434.628 199.567 435.854 199.567L878.59 193.542C882.807 193.542 886.41 195.48 883.517 207.535L849.037 357.252M480.232 360.373L849.037 357.252M480.232 360.373L477.016 368.297M884.409 202.684C887.183 190.309 884.165 189.755 879.859 189.755L440.178 196.216C438.763 196.275 434.305 196.545 433.153 201.152M849.037 357.252L852.638 365.999M477.016 368.297C477.05 372.041 476.947 417.214 477.111 440.279M477.016 368.297L852.638 365.999M478.479 576.505V597.125C478.479 599.18 479.696 603.32 484.563 603.446C487.232 603.515 559.874 603.524 644.432 603.51M674.16 603.504C677.434 603.503 680.716 603.502 684.002 603.502M767.16 603.477C795.867 603.467 822.676 603.456 845.163 603.446C847.105 603.201 851.002 601.601 851.055 597.155L852.638 365.999M442.748 209.954L483.766 346.211L845.082 343.151L873.791 204.663L442.748 209.954Z" stroke="#2D384C" stroke-width="1.5"/>
<path d="M632.5 587.578H573.902C570.589 587.578 567.902 584.892 567.902 581.578V512.785C567.902 509.471 570.589 506.785 573.902 506.785H658M658 587.578H675M678.625 559V533.5" stroke="#2D384C" stroke-width="1.5"/>
<path d="M363.723 546.331C363.723 573.955 340.831 596.377 312.559 596.377C284.286 596.377 261.395 573.955 261.395 546.331C261.395 518.707 284.286 496.285 312.559 496.285C340.831 496.285 363.723 518.707 363.723 546.331Z" stroke="#2D384C" stroke-width="1.5"/>
<path d="M338.272 589.895C335.815 590.2 333.302 590.357 330.746 590.357C302.075 590.357 278.832 570.522 278.832 546.053C278.832 521.584 302.075 501.748 330.746 501.748C332.969 501.748 335.011 501.882 337.16 502.113" stroke="#2D384C" stroke-width="1.5"/>
<path d="M338.272 589.895C335.815 590.2 333.302 590.357 330.746 590.357C302.075 590.357 278.832 570.522 278.832 546.053C278.832 521.584 302.075 501.748 330.746 501.748C332.969 501.748 335.011 501.882 337.16 502.113" stroke="#2D384C" stroke-width="1.5"/>
<path d="M341.259 588.094L375.303 565.041C378.704 558.854 380.614 551.891 380.614 544.529C380.614 527.265 370.109 512.199 354.512 504.178L325.473 497.636" stroke="#2D384C" stroke-width="1.5"/>
<path d="M268.26 572.273C262.913 573.699 252.773 577.407 254.986 580.829C257.2 584.251 266.897 579.613 271.469 576.866M263.165 560.321C257.44 561.6 244.985 566.065 247.309 572.903C249.633 579.74 251.715 581.27 257.94 582.04" stroke="#2D384C" stroke-width="1.5"/>
<path d="M514.429 1082.35C508.763 1139.33 574.736 1212.26 700.067 1203.44C789.653 1198.79 912.532 1139.66 883.676 1040.89M489.768 1076.96C485.415 1185.32 587.175 1246.86 700.067 1238.72C851.401 1227.8 935.867 1133.95 908.044 1033.7M605.343 1095.9C591.306 1126.22 590.599 1186.79 700.067 1186.52C748.989 1183.76 829.557 1150.5 807.607 1080.76M584.356 1092.47C571.84 1130.89 577.155 1170.07 614.185 1195.34M827.012 1076.39C841.307 1104.74 833.71 1156.23 795.159 1180.63" stroke="#2D384C" stroke-width="1.5"/>
<path d="M9 771.427H297.478M1323 771.427H952.063M428 771.427H460.5" stroke="#2D384C" stroke-width="1.5"/>
<rect x="681.75" y="417.75" width="15.5" height="14.5" rx="1.25" stroke="#2D384C" stroke-width="1.5"/>
<rect x="674.75" y="398.75" width="15.5" height="14.5" rx="1.25" stroke="#2D384C" stroke-width="1.5"/>
<rect x="679.75" y="455.75" width="15.5" height="14.5" rx="1.25" stroke="#2D384C" stroke-width="1.5"/>
<rect x="683.25" y="436.75" width="15.5" height="14.5" rx="1.25" stroke="#2D384C" stroke-width="1.5"/>
<rect x="701.75" y="417.75" width="15.5" height="14.5" rx="1.25" stroke="#2D384C" stroke-width="1.5"/>
<rect x="694.75" y="398.75" width="15.5" height="14.5" rx="1.25" stroke="#2D384C" stroke-width="1.5"/>
<rect x="699.75" y="455.75" width="15.5" height="14.5" rx="1.25" stroke="#2D384C" stroke-width="1.5"/>
<rect x="704.25" y="436.75" width="15.5" height="14.5" rx="1.25" stroke="#2D384C" stroke-width="1.5"/>
<rect x="721.75" y="417.75" width="15.5" height="14.5" rx="1.25" stroke="#2D384C" stroke-width="1.5"/>
<rect x="714.75" y="398.75" width="15.5" height="14.5" rx="1.25" stroke="#2D384C" stroke-width="1.5"/>
<rect x="734.75" y="398.75" width="15.5" height="14.5" rx="1.25" stroke="#2D384C" stroke-width="1.5"/>
<rect x="754.75" y="398.75" width="30" height="14.5" rx="1.25" stroke="#2D384C" stroke-width="1.5"/>
<rect x="741.75" y="417.75" width="15.5" height="14.5" rx="1.25" stroke="#2D384C" stroke-width="1.5"/>
<rect x="719.75" y="455.75" width="15.5" height="14.5" rx="1.25" stroke="#2D384C" stroke-width="1.5"/>
<rect x="739.75" y="455.75" width="45" height="14.5" rx="1.25" stroke="#2D384C" stroke-width="1.5"/>
<rect x="725.25" y="436.75" width="15.5" height="14.5" rx="1.25" stroke="#2D384C" stroke-width="1.5"/>
<rect x="746.25" y="436.75" width="15.5" height="14.5" rx="1.25" stroke="#2D384C" stroke-width="1.5"/>
<path d="M763 417.75H783.5C784.19 417.75 784.75 418.31 784.75 419V433V450C784.75 450.69 784.19 451.25 783.5 451.25H767.5C766.81 451.25 766.25 450.69 766.25 450V435C766.25 433.481 765.019 432.25 763.5 432.25H763C762.31 432.25 761.75 431.69 761.75 431V419C761.75 418.31 762.31 417.75 763 417.75Z" stroke="#2D384C" stroke-width="1.5"/>
<rect x="788.75" y="417.75" width="12.5" height="14.5" rx="1.25" stroke="#2D384C" stroke-width="1.5"/>
<rect x="788.75" y="398.75" width="12.5" height="14.5" rx="1.25" stroke="#2D384C" stroke-width="1.5"/>
<rect x="788.75" y="436.75" width="12.5" height="14.5" rx="1.25" stroke="#2D384C" stroke-width="1.5"/>
<rect x="788.75" y="455.75" width="12.5" height="14.5" rx="1.25" stroke="#2D384C" stroke-width="1.5"/>
<rect x="788.75" y="474.75" width="12.5" height="14.5" rx="1.25" stroke="#2D384C" stroke-width="1.5"/>
<rect x="804.75" y="417.75" width="12.5" height="14.5" rx="1.25" stroke="#2D384C" stroke-width="1.5"/>
<rect x="804.75" y="398.75" width="12.5" height="14.5" rx="1.25" stroke="#2D384C" stroke-width="1.5"/>
<rect x="804.75" y="436.75" width="12.5" height="14.5" rx="1.25" stroke="#2D384C" stroke-width="1.5"/>
<rect x="804.75" y="455.75" width="12.5" height="14.5" rx="1.25" stroke="#2D384C" stroke-width="1.5"/>
<rect x="804.75" y="474.75" width="12.5" height="14.5" rx="1.25" stroke="#2D384C" stroke-width="1.5"/>
<rect x="820.75" y="417.75" width="12.5" height="14.5" rx="1.25" stroke="#2D384C" stroke-width="1.5"/>
<rect x="820.75" y="398.75" width="12.5" height="14.5" rx="1.25" stroke="#2D384C" stroke-width="1.5"/>
<rect x="820.75" y="436.75" width="12.5" height="14.5" rx="1.25" stroke="#2D384C" stroke-width="1.5"/>
<rect x="820.75" y="455.75" width="12.5" height="14.5" rx="1.25" stroke="#2D384C" stroke-width="1.5"/>
<rect x="820.75" y="474.75" width="12.5" height="14.5" rx="1.25" stroke="#2D384C" stroke-width="1.5"/>
<rect x="661.75" y="417.75" width="15.5" height="14.5" rx="1.25" stroke="#2D384C" stroke-width="1.5"/>
<rect x="654.75" y="398.75" width="15.5" height="14.5" rx="1.25" stroke="#2D384C" stroke-width="1.5"/>
<rect x="659.75" y="455.75" width="15.5" height="14.5" rx="1.25" stroke="#2D384C" stroke-width="1.5"/>
<rect x="662.25" y="436.75" width="15.5" height="14.5" rx="1.25" stroke="#2D384C" stroke-width="1.5"/>
<rect x="641.75" y="417.75" width="15.5" height="14.5" rx="1.25" stroke="#2D384C" stroke-width="1.5"/>
<rect x="634.75" y="398.75" width="15.5" height="14.5" rx="1.25" stroke="#2D384C" stroke-width="1.5"/>
<rect x="639.75" y="455.75" width="15.5" height="14.5" rx="1.25" stroke="#2D384C" stroke-width="1.5"/>
<rect x="641.25" y="436.75" width="15.5" height="14.5" rx="1.25" stroke="#2D384C" stroke-width="1.5"/>
<rect x="621.75" y="417.75" width="15.5" height="14.5" rx="1.25" stroke="#2D384C" stroke-width="1.5"/>
<rect x="614.75" y="398.75" width="15.5" height="14.5" rx="1.25" stroke="#2D384C" stroke-width="1.5"/>
<rect x="619.75" y="455.75" width="15.5" height="14.5" rx="1.25" stroke="#2D384C" stroke-width="1.5"/>
<rect x="585.75" y="474.75" width="92.5" height="14.5" rx="1.25" stroke="#2D384C" stroke-width="1.5"/>
<rect x="682.75" y="474.75" width="11.5" height="14.5" rx="1.25" stroke="#2D384C" stroke-width="1.5"/>
<rect x="698.75" y="474.75" width="11.5" height="14.5" rx="1.25" stroke="#2D384C" stroke-width="1.5"/>
<rect x="714.75" y="474.75" width="11.5" height="14.5" rx="1.25" stroke="#2D384C" stroke-width="1.5"/>
<rect x="730.75" y="474.75" width="11.5" height="14.5" rx="1.25" stroke="#2D384C" stroke-width="1.5"/>
<rect x="746.75" y="474.75" width="20.5" height="14.5" rx="1.25" stroke="#2D384C" stroke-width="1.5"/>
<path d="M773 474.75H783.5C784.19 474.75 784.75 475.31 784.75 476V488C784.75 488.69 784.19 489.25 783.5 489.25H773C772.31 489.25 771.75 488.69 771.75 488V476C771.75 475.31 772.31 474.75 773 474.75Z" stroke="#2D384C" stroke-width="1.5"/>
<rect x="620.25" y="436.75" width="15.5" height="14.5" rx="1.25" stroke="#2D384C" stroke-width="1.5"/>
<rect x="601.75" y="417.75" width="15.5" height="14.5" rx="1.25" stroke="#2D384C" stroke-width="1.5"/>
<rect x="594.75" y="398.75" width="15.5" height="14.5" rx="1.25" stroke="#2D384C" stroke-width="1.5"/>
<rect x="599.75" y="455.75" width="15.5" height="14.5" rx="1.25" stroke="#2D384C" stroke-width="1.5"/>
<rect x="599.25" y="436.75" width="15.5" height="14.5" rx="1.25" stroke="#2D384C" stroke-width="1.5"/>
<path d="M583.5 436.5H593.5C594.605 436.5 595.5 437.395 595.5 438.5V449.5C595.5 450.605 594.605 451.5 593.5 451.5H580.5C579.395 451.5 578.5 450.605 578.5 449.5V444" stroke="#2D384C" stroke-width="1.5"/>
<path d="M575.5 448V449.5C575.5 450.605 574.605 451.5 573.5 451.5H572.5M562 436.5H560.5C559.395 436.5 558.5 437.395 558.5 438.5V440" stroke="#2D384C" stroke-width="1.5"/>
<path d="M541.5 436.5H553.5C554.605 436.5 555.5 437.395 555.5 438.5V442.5M538.5 440V449.5C538.5 450.605 539.395 451.5 540.5 451.5H546.5" stroke="#2D384C" stroke-width="1.5"/>
<path d="M535.5 444V449.5C535.5 450.605 534.605 451.5 533.5 451.5H531" stroke="#2D384C" stroke-width="1.5"/>
<path d="M581 424V419.5C581 418.395 581.895 417.5 583 417.5H596C597.105 417.5 598 418.395 598 419.5V431C598 432.105 597.105 433 596 433H584.5" stroke="#2D384C" stroke-width="1.5"/>
<rect x="574.75" y="398.75" width="15.5" height="14.5" rx="1.25" stroke="#2D384C" stroke-width="1.5"/>
<path d="M496 406V401C496 399.895 496.895 399 498 399H511C512.105 399 513 399.895 513 401V411.5C513 412.605 512.105 413.5 511 413.5H506.5" stroke="#2D384C" stroke-width="1.5"/>
<path d="M498 431.5H500M505.5 417H511" stroke="#2D384C" stroke-width="1.5"/>
<path d="M515.684 412L515.528 400.527C515.512 399.412 516.412 398.5 517.527 398.5H529" stroke="#2D384C" stroke-width="1.5"/>
<path d="M536.5 413.5H534.5" stroke="#2D384C" stroke-width="1.5"/>
<path d="M541.5 398.5H548.833" stroke="#2D384C" stroke-width="1.5"/>
<rect x="568.75" y="385.75" width="13.5" height="8.5" rx="1.25" stroke="#2D384C" stroke-width="1.5"/>
<rect x="514.75" y="385.75" width="13.5" height="8.5" rx="1.25" stroke="#2D384C" stroke-width="1.5"/>
<rect x="496.75" y="385.75" width="13.5" height="8.5" rx="1.25" stroke="#2D384C" stroke-width="1.5"/>
<rect x="622.75" y="385.75" width="13.5" height="8.5" rx="1.25" stroke="#2D384C" stroke-width="1.5"/>
<rect x="676.75" y="385.75" width="13.5" height="8.5" rx="1.25" stroke="#2D384C" stroke-width="1.5"/>
<rect x="730.75" y="385.75" width="13.5" height="8.5" rx="1.25" stroke="#2D384C" stroke-width="1.5"/>
<rect x="784.75" y="385.75" width="13.5" height="8.5" rx="1.25" stroke="#2D384C" stroke-width="1.5"/>
<rect x="586.75" y="385.75" width="13.5" height="8.5" rx="1.25" stroke="#2D384C" stroke-width="1.5"/>
<path d="M536 394.5H534C532.895 394.5 532 393.605 532 392.5V387.5C532 386.395 532.895 385.5 534 385.5H545C546.105 385.5 547 386.395 547 387.5V392.5C547 393.605 546.105 394.5 545 394.5H537" stroke="#2D384C" stroke-width="1.5"/>
<rect x="640.75" y="385.75" width="13.5" height="8.5" rx="1.25" stroke="#2D384C" stroke-width="1.5"/>
<rect x="694.75" y="385.75" width="13.5" height="8.5" rx="1.25" stroke="#2D384C" stroke-width="1.5"/>
<rect x="748.75" y="385.75" width="13.5" height="8.5" rx="1.25" stroke="#2D384C" stroke-width="1.5"/>
<rect x="802.75" y="385.75" width="13.5" height="8.5" rx="1.25" stroke="#2D384C" stroke-width="1.5"/>
<rect x="604.75" y="385.75" width="13.5" height="8.5" rx="1.25" stroke="#2D384C" stroke-width="1.5"/>
<rect x="550.75" y="385.75" width="13.5" height="8.5" rx="1.25" stroke="#2D384C" stroke-width="1.5"/>
<rect x="658.75" y="385.75" width="13.5" height="8.5" rx="1.25" stroke="#2D384C" stroke-width="1.5"/>
<rect x="712.75" y="385.75" width="13.5" height="8.5" rx="1.25" stroke="#2D384C" stroke-width="1.5"/>
<rect x="766.75" y="385.75" width="13.5" height="8.5" rx="1.25" stroke="#2D384C" stroke-width="1.5"/>
<rect x="820.75" y="385.75" width="12.5" height="8.5" rx="1.25" stroke="#2D384C" stroke-width="1.5"/>
<rect x="579.75" y="455.75" width="15.5" height="14.5" rx="1.25" stroke="#2D384C" stroke-width="1.5"/>
<path d="M569 455.5H574C575.105 455.5 576 456.395 576 457.5V468.5C576 469.605 575.105 470.5 574 470.5H561C559.895 470.5 559 469.605 559 468.5L559 467" stroke="#2D384C" stroke-width="1.5"/>
<path d="M539 459V457.5C539 456.395 539.895 455.5 541 455.5H542.5" stroke="#2D384C" stroke-width="1.5"/>
<path d="M535 463V457.5C535 456.395 534.105 455.5 533 455.5H529M520.5 470H528" stroke="#2D384C" stroke-width="1.5"/>
<rect x="565.75" y="474.75" width="15.5" height="14.5" rx="1.25" stroke="#2D384C" stroke-width="1.5"/>
<path d="M552.5 474.5H560.5C561.605 474.5 562.5 475.395 562.5 476.5V487.5C562.5 488.605 561.605 489.5 560.5 489.5H547C545.895 489.5 545 488.605 545 487.5V482.5" stroke="#2D384C" stroke-width="1.5"/>
<path d="M560 398.5H569C570.105 398.5 571 399.395 571 400.5V411.5C571 412.605 570.105 413.5 569 413.5H557.5" stroke="#2D384C" stroke-width="1.5"/>
<rect x="601.75" y="417.75" width="15.5" height="14.5" rx="1.25" stroke="#2D384C" stroke-width="1.5"/>
<path d="M566 432.5H563C561.895 432.5 561 431.605 561 430.5V419.5C561 418.395 561.895 417.5 563 417.5H576C577.105 417.5 578 418.395 578 419.5V424.5" stroke="#2D384C" stroke-width="1.5"/>
<path d="M555 417.5H556C557.105 417.5 558 418.395 558 419.5V430.5C558 431.605 557.105 432.5 556 432.5H544" stroke="#2D384C" stroke-width="1.5"/>
<path d="M247 334L192 279L247 228L302 282.5L247 334Z" stroke="#2D384C" stroke-width="1.5"/>
<path d="M206.671 287.788C206.671 286.285 206.574 284.759 206.879 283.279C207.292 281.27 208.402 279.921 209.289 278.147C210.091 276.543 212.786 277.593 214.151 277.669C216.676 277.81 219.177 277.506 220.966 275.571C222.204 274.231 222.565 272.707 223.334 271.124C226.117 265.402 232.608 261.914 236.466 256.933C237.534 255.554 237.593 253.38 239.582 253.38C243.357 253.38 246.184 250.275 247.81 247.022" stroke="#2D384C" stroke-width="1.5" stroke-linecap="round"/>
<path d="M224.252 299.381C223.43 297.224 224.483 293.589 226.329 292.192C227.639 291.201 230.551 290.841 232.189 290.759C235.875 290.574 236.535 289.011 237.695 285.918C238.477 283.831 238.693 280.28 240.79 278.978C241.328 278.644 241.852 279.144 242.39 279.144C243.041 279.144 243.837 278.545 244.323 278.188C245.936 277.004 247.306 275.551 248.644 274.074C249.562 273.061 250.44 273.146 251.595 272.537C254.729 270.883 256.241 267.255 258.991 265.306C260.218 264.438 259.493 267.939 260.529 265.348" stroke="#2D384C" stroke-width="1.5" stroke-linecap="round"/>
<path d="M239.957 316.211C239.957 314.652 239.965 303.455 243.531 305.594C248.139 308.359 248.801 302.613 252.133 300.836C255.658 298.956 257.201 293.966 260.61 291.694C262.136 290.677 270.002 285.295 268.755 284.048" stroke="#2D384C" stroke-width="1.5" stroke-linecap="round"/>
<path d="M1267.32 588.179L1047.63 679.85L919.984 397.869L1140.02 301L1267.32 588.179Z" stroke="#2D384C" stroke-width="1.5"/>
<path d="M1035.37 672.812L1048.86 666.761M1036.76 676.183L1050.31 670.099" stroke="#2D384C" stroke-width="1.5"/>
<path d="M1031.29 663.945L1044.77 657.895M1032.67 667.317L1046.23 661.233" stroke="#2D384C" stroke-width="1.5"/>
<path d="M1027.57 655.531L1041.06 649.48M1028.96 658.903L1042.52 652.819" stroke="#2D384C" stroke-width="1.5"/>
<path d="M1024.67 647.184L1038.16 641.133M1026.06 650.555L1039.62 644.471" stroke="#2D384C" stroke-width="1.5"/>
<path d="M1021.35 639.118L1034.84 633.067M1022.74 642.49L1036.29 636.406" stroke="#2D384C" stroke-width="1.5"/>
<path d="M1017.64 631.438L1031.12 625.387M1019.03 634.809L1032.58 628.725" stroke="#2D384C" stroke-width="1.5"/>
<path d="M1014.46 624.342L1027.95 618.291M1015.85 627.714L1029.41 621.629" stroke="#2D384C" stroke-width="1.5"/>
<path d="M1010.55 615.691L1024.04 609.641M1011.94 619.063L1025.49 612.979" stroke="#2D384C" stroke-width="1.5"/>
<path d="M1006.99 607.832L1020.48 601.781M1008.38 611.204L1021.94 605.12" stroke="#2D384C" stroke-width="1.5"/>
<path d="M1003.68 600.702L1017.16 594.651M1005.06 604.074L1018.62 597.99" stroke="#2D384C" stroke-width="1.5"/>
<path d="M1000.55 592.51L1014.04 586.459M1001.94 595.882L1015.49 589.797" stroke="#2D384C" stroke-width="1.5"/>
<path d="M996.609 584.005L1010.1 577.954M997.998 587.377L1011.55 581.293" stroke="#2D384C" stroke-width="1.5"/>
<path d="M993.078 575.207L1006.57 569.156M994.467 578.579L1008.02 572.495" stroke="#2D384C" stroke-width="1.5"/>
<path d="M989.137 567.015L1002.62 560.964M990.526 570.386L1004.08 564.302" stroke="#2D384C" stroke-width="1.5"/>
<path d="M985.949 559.405L999.438 553.354M987.338 562.777L1000.89 556.693" stroke="#2D384C" stroke-width="1.5"/>
<path d="M982.07 550.524L995.559 544.474M983.459 553.896L997.013 547.812" stroke="#2D384C" stroke-width="1.5"/>
<path d="M978.879 543.021L992.367 536.97M980.268 546.392L993.822 540.308" stroke="#2D384C" stroke-width="1.5"/>
<path d="M975.25 534.89L988.738 528.839M976.639 538.261L990.193 532.177" stroke="#2D384C" stroke-width="1.5"/>
<path d="M971.406 526.636L984.895 520.585M972.795 530.008L986.349 523.923" stroke="#2D384C" stroke-width="1.5"/>
<path d="M968.152 519.255L981.641 513.204M969.541 522.627L983.096 516.543" stroke="#2D384C" stroke-width="1.5"/>
<path d="M964.586 510.813L978.074 504.763M965.975 514.185L979.529 508.101" stroke="#2D384C" stroke-width="1.5"/>
<path d="M961.055 502.807L974.543 496.756M962.444 506.178L975.998 500.094" stroke="#2D384C" stroke-width="1.5"/>
<path d="M957.113 494.054L970.602 488.003M958.502 497.426L972.056 491.341" stroke="#2D384C" stroke-width="1.5"/>
<path d="M953.582 485.986L967.07 479.936M954.971 489.358L968.525 483.274" stroke="#2D384C" stroke-width="1.5"/>
<path d="M950.008 477.709L963.496 471.658M951.397 481.081L964.951 474.997" stroke="#2D384C" stroke-width="1.5"/>
<path d="M946.645 469.853L960.133 463.802M948.034 473.224L961.588 467.14" stroke="#2D384C" stroke-width="1.5"/>
<path d="M943.098 462.114L956.586 456.063M944.487 465.486L958.041 459.402" stroke="#2D384C" stroke-width="1.5"/>
<path d="M939.414 454.191L952.902 448.141M940.803 457.563L954.357 451.479" stroke="#2D384C" stroke-width="1.5"/>
<path d="M936.281 446.821L949.77 440.771M937.67 450.193L951.224 444.109" stroke="#2D384C" stroke-width="1.5"/>
<path d="M933.207 438.791L946.695 432.74M934.596 442.163L948.15 436.079" stroke="#2D384C" stroke-width="1.5"/>
<path d="M919 406.868L932.488 400.817M920.389 410.24L933.943 404.156" stroke="#2D384C" stroke-width="1.5"/>
<path d="M922.336 415.285L935.824 409.234M923.725 418.657L937.279 412.573" stroke="#2D384C" stroke-width="1.5"/>
<path d="M925.734 423.022L939.223 416.972M927.123 426.394L940.678 420.31" stroke="#2D384C" stroke-width="1.5"/>
<path d="M929.199 431.054L942.688 425.003M930.588 434.426L944.142 428.341" stroke="#2D384C" stroke-width="1.5"/>
<path d="M1018.55 516.383C1019.3 516.383 1019.76 515.805 1020.4 515.623C1021.34 515.353 1022.25 514.692 1023.21 514.352C1024.82 513.782 1026.41 512.95 1028.08 512.57C1029.03 512.353 1030.17 512.128 1031.03 511.664C1031.28 511.53 1031.5 511.518 1031.78 511.518C1032.11 511.518 1032.01 511.336 1032.19 511.138C1032.42 510.894 1033.07 510.829 1033.37 510.7C1035.36 509.851 1037.26 508.867 1039.18 507.866C1040.26 507.303 1041.25 506.766 1042.27 506.142C1043.05 505.67 1043.95 505.296 1044.75 504.841C1046.13 504.061 1047.58 503.231 1049.06 502.664C1050.07 502.276 1051.13 501.797 1052.1 501.313C1053.16 500.781 1054.16 500.492 1055.28 500.108C1055.98 499.871 1056.73 499.421 1057.48 499.421" stroke="#2D384C" stroke-width="1.5" stroke-linecap="round"/>
<path d="M1018.42 516.383C1018.76 516.468 1019.44 518.361 1019.58 518.72C1019.73 519.133 1019.97 519.854 1020.19 520.225C1020.46 520.685 1020.53 521.222 1020.86 521.642C1021.14 521.991 1021.1 522.694 1021.37 523.118C1021.65 523.535 1021.9 524.05 1022.07 524.506C1022.51 525.621 1022.97 526.692 1023.73 527.618C1024.16 528.14 1024.2 528.872 1024.6 529.386C1025.13 530.068 1025.65 530.748 1026.17 531.439C1026.49 531.856 1026.55 532.443 1026.81 532.907C1027.06 533.363 1027.21 533.876 1027.45 534.339C1027.97 535.34 1028.67 536.207 1029.07 537.29C1029.24 537.743 1029.56 538.093 1029.85 538.466C1030.17 538.863 1030.12 539.294 1030.31 539.73C1030.71 540.616 1031.06 541.553 1031.47 542.433C1031.85 543.256 1031.99 544.159 1032.39 544.989C1032.61 545.453 1032.66 545.925 1032.83 546.407C1032.97 546.812 1033.14 547.446 1033.35 547.802C1033.82 548.566 1034.18 549.425 1034.53 550.249C1035.22 551.879 1036.19 553.354 1036.97 554.917C1037.19 555.352 1037.54 555.789 1037.81 556.225C1038 556.536 1038.03 556.862 1038.28 557.145C1038.53 557.443 1038.42 557.888 1038.69 558.131C1039.1 558.519 1038.97 558.814 1039.12 559.322C1039.23 559.665 1039.46 559.96 1039.58 560.293C1039.78 560.803 1040.1 561.321 1040.51 561.689C1041.05 562.186 1041.08 562.946 1041.43 563.573C1041.78 564.224 1042.15 564.938 1042.32 565.663C1042.47 566.287 1042.87 567.138 1043.3 567.635C1043.58 567.96 1043.64 568.381 1043.93 568.709C1044.25 569.058 1044.52 569.379 1044.69 569.827C1045.03 570.716 1045.49 571.462 1046.14 572.164C1046.37 572.42 1046.74 573.005 1046.88 573.326C1047.26 574.2 1047.65 575.216 1048.28 575.948C1048.96 576.749 1049.12 578.199 1049.98 578.841" stroke="#2D384C" stroke-width="1.5" stroke-linecap="round"/>
<path d="M1050.11 579.498C1050.51 579.459 1050.77 579.266 1051.1 579.118C1051.37 578.998 1051.93 578.905 1052.14 578.709C1052.59 578.301 1053.14 578.333 1053.61 578.023C1053.88 577.836 1053.98 577.808 1054.32 577.789C1054.7 577.768 1055.03 577.434 1055.37 577.292C1056.06 577.007 1056.79 576.79 1057.47 576.474C1057.94 576.255 1058.49 575.917 1059 575.824C1059.85 575.669 1060.69 575.237 1061.52 574.969C1062.66 574.605 1063.94 574.129 1065 573.581C1065.51 573.319 1066.03 573.189 1066.58 573.055C1067 572.952 1067.36 572.61 1067.73 572.398C1068.71 571.85 1069.77 571.477 1070.79 571.017C1072.86 570.088 1075.15 569.404 1077.1 568.263C1077.58 567.981 1077.95 567.817 1078.49 567.635C1079.4 567.328 1080.56 566.938 1081.38 566.451C1082.39 565.851 1083.37 565.47 1084.37 564.895C1085.27 564.385 1086.12 564.234 1086.93 563.588" stroke="#2D384C" stroke-width="1.5" stroke-linecap="round"/>
<path d="M1057.48 499.158C1057.86 499.182 1058 499.685 1058 500.02C1058 500.86 1058.21 501.33 1058.52 502.109C1058.85 502.933 1059.48 503.647 1059.72 504.491C1060.56 507.443 1062.78 509.893 1063.4 512.906C1063.51 513.42 1063.73 513.923 1063.92 514.411C1064.14 514.979 1064.11 515.594 1064.34 516.15C1064.77 517.182 1065.18 518.24 1065.64 519.262C1066.43 521.048 1067.96 522.355 1068.53 524.266C1068.99 525.815 1070.05 527.172 1070.55 528.693C1071.17 530.535 1072.56 532.051 1073.18 533.872C1073.45 534.658 1074.08 535.215 1074.31 536.034C1074.51 536.708 1074.96 537.577 1075.33 538.182C1075.78 538.913 1076.1 539.708 1076.54 540.439C1077.65 542.296 1078.56 544.301 1079.48 546.276C1079.96 547.315 1080.44 548.185 1081 549.139C1081.32 549.695 1081.39 550.448 1081.73 550.995C1081.97 551.381 1082.21 551.578 1082.3 552.061C1082.35 552.349 1082.37 552.784 1082.6 552.996C1082.93 553.3 1083.14 553.847 1083.35 554.253C1083.82 555.157 1084.24 556.175 1084.72 557.146C1085.16 558.015 1085.57 559.031 1086.2 559.775C1086.76 560.436 1086.73 561.104 1086.96 561.85C1087.06 562.17 1087.13 562.524 1087.32 562.8C1087.46 562.984 1087.82 563.579 1087.46 563.457" stroke="#2D384C" stroke-width="1.5" stroke-linecap="round"/>
<path d="M1045.25 518.224C1044.58 518.224 1044.13 518.267 1043.66 518.808C1043.04 519.535 1041.79 519.978 1041.47 520.985C1041.14 521.993 1040.45 522.963 1040.27 524.032C1040.05 525.337 1040.03 526.67 1040.38 527.94C1040.52 528.474 1040.87 528.95 1041.14 529.43C1041.51 530.078 1041.66 530.778 1042.36 531.139C1042.92 531.432 1043.37 531.876 1043.95 532.111C1044.57 532.364 1045.23 532.393 1045.83 532.622C1046.33 532.816 1047.5 532.787 1048.01 532.659C1049.26 532.347 1050.4 531.643 1051.6 531.212C1051.98 531.078 1052.42 530.888 1052.72 530.613C1053.4 529.974 1054.06 529.654 1054.4 528.743C1054.65 528.08 1055.19 527.46 1055.34 526.771C1055.53 525.945 1055.51 525.114 1055.51 524.265C1055.51 523.831 1055.59 523.379 1055.32 523.023C1054.89 522.476 1054.93 521.752 1054.53 521.205C1053.32 519.56 1051.43 518.705 1049.52 518.29C1047.94 517.946 1046.12 518.356 1044.59 518.356" stroke="#2D384C" stroke-width="1.5" stroke-linecap="round"/>
<path d="M1036.96 543.733C1036.96 544.667 1037.83 545.641 1038 546.567C1038.07 546.906 1039.29 548.574 1039.34 548.532C1039.75 548.188 1040.55 547.952 1041.04 547.685C1041.79 547.278 1042.62 546.977 1043.39 546.626C1043.85 546.42 1044.28 546.085 1044.72 545.837C1045.32 545.503 1044.63 545.431 1044.4 545.011C1043.94 544.172 1043.76 543.175 1043.28 542.389C1043.04 542.011 1042.85 541.597 1042.59 541.234C1042.12 540.582 1042 540.838 1041.36 541.176C1040.55 541.605 1039.89 542.341 1039.07 542.71C1038.75 542.851 1038.28 543.045 1038.02 543.265C1037.74 543.5 1037.31 543.52 1037.1 543.733" stroke="#2D384C" stroke-width="1.5" stroke-linecap="round"/>
<path d="M1046.96 541.498C1047.24 541.063 1048.09 540.786 1048.56 540.504C1049.2 540.124 1049.9 539.933 1050.52 539.54C1050.84 539.34 1051.15 539.458 1051.49 539.379C1051.74 539.319 1051.81 539.053 1052.1 539C1052.83 538.866 1054 538.548 1054.54 538.05C1055.19 537.443 1056.15 537.237 1056.92 536.823C1057.59 536.463 1058.32 536.237 1058.94 535.763C1059.7 535.175 1060.56 534.892 1061.42 534.514C1061.75 534.37 1063.01 533.885 1062.74 533.608" stroke="#2D384C" stroke-width="1.5" stroke-linecap="round"/>
<path d="M1042.15 554.771C1041.91 554.215 1041.37 553.7 1041.3 553.068C1041.69 552.913 1042.1 552.833 1042.49 552.667C1043.38 552.285 1043.8 551.547 1044.55 550.994C1045.3 550.436 1045.68 550.268 1046.31 550.965C1046.74 551.443 1047.03 551.926 1047.35 552.455C1047.51 552.706 1047.71 553.033 1047.76 553.324C1047.81 553.647 1048.2 553.859 1048.3 554.179C1048.44 554.614 1049.06 554.81 1049.06 555.245C1049.06 555.696 1048.75 555.496 1048.54 555.764C1048.26 556.105 1047.34 556.485 1046.93 556.619C1046.2 556.855 1045.25 557.226 1044.61 557.671C1043.73 558.289 1043.56 557.11 1043.02 556.487C1042.59 555.989 1042.4 555.347 1042.15 554.771Z" stroke="#2D384C" stroke-width="1.5" stroke-linecap="round"/>
<path d="M1051.04 550.702C1051.48 550.304 1051.98 550.142 1052.53 549.913C1053.38 549.554 1054.39 548.928 1055.14 548.379C1055.99 547.756 1056.75 547.382 1057.73 547.02C1058.85 546.61 1059.78 545.949 1060.77 545.311C1062.24 544.371 1064.04 544.186 1065.5 543.214C1065.8 543.012 1066.23 542.945 1066.58 542.842C1066.69 542.809 1067.38 542.813 1066.95 542.813" stroke="#2D384C" stroke-width="1.5" stroke-linecap="round"/>
<path d="M1046.96 562.273C1046.9 562.023 1046.74 562.284 1046.83 562.478C1046.95 562.771 1047.15 562.992 1047.32 563.252C1047.6 563.66 1047.95 564.345 1048.08 564.837C1048.23 565.44 1048.61 566.412 1049.09 566.846C1049.35 567.079 1050.6 566.153 1050.82 566.028C1051.61 565.567 1052.39 565.188 1053.2 564.764C1054 564.347 1055.57 564.106 1054.56 563.004C1054.36 562.781 1054.13 562.78 1053.99 562.478C1053.9 562.263 1053.8 562.077 1053.67 561.879C1053.44 561.523 1052.95 561.082 1052.85 560.695C1052.73 560.238 1052.01 558.703 1051.43 558.869C1050.92 559.014 1050.3 559.61 1049.86 559.906C1049.36 560.242 1048.87 560.578 1048.38 560.9C1048.07 561.102 1047.37 561.263 1047.21 561.63C1047.11 561.872 1046.45 562.371 1046.56 562.142" stroke="#2D384C" stroke-width="1.5" stroke-linecap="round"/>
<path d="M1056.03 559.644C1056.18 559.624 1056.57 559.356 1056.69 559.234C1057.09 558.835 1057.32 558.873 1057.86 558.665C1058.31 558.49 1058.68 558.324 1059.16 558.197C1059.41 558.129 1059.75 558.104 1059.96 557.927C1060.12 557.79 1060.15 557.636 1060.37 557.569C1061.37 557.265 1062.14 556.624 1063.13 556.305C1063.78 556.097 1064.72 555.821 1065.29 555.436C1066.75 554.466 1068.43 553.853 1069.96 553.011C1071 552.442 1072.14 552.234 1073.17 551.652C1073.68 551.362 1074.81 551.307 1074.97 550.702" stroke="#2D384C" stroke-width="1.5" stroke-linecap="round"/>
<path d="M1050.11 578.972C1050.11 580.039 1050.58 580.984 1051.11 581.836C1051.29 582.13 1051.22 582.459 1051.56 582.662C1051.76 582.782 1051.62 582.949 1051.71 583.107C1051.79 583.256 1052.04 583.426 1052.16 583.575C1052.27 583.708 1052.13 583.98 1052.28 584.071C1052.53 584.235 1052.51 584.25 1052.69 584.488C1052.93 584.811 1053.23 585.1 1053.47 585.445C1053.68 585.729 1053.96 586.778 1054.26 586.723C1054.6 586.661 1054.87 586.311 1055.17 586.153C1055.58 585.941 1056.03 585.934 1056.42 585.679C1057.61 584.903 1058.84 584.239 1060.08 583.545C1060.89 583.093 1061.77 582.736 1062.6 582.318C1063.22 582.011 1063.68 581.582 1064.37 581.442C1065.19 581.275 1065.74 580.618 1066.49 580.419C1067.25 580.217 1067.94 579.682 1068.68 579.396C1069.28 579.166 1069.85 578.515 1070.44 578.191C1070.97 577.898 1071.59 577.86 1072.12 577.555C1072.42 577.381 1072.66 577.102 1072.93 576.883C1073.79 576.173 1075.17 575.823 1076.19 575.393C1076.68 575.187 1077.08 574.736 1077.59 574.633C1078.11 574.529 1079.03 574.114 1079.44 573.771C1080.01 573.28 1080.94 573.165 1081.64 573.048C1082.35 572.93 1082.95 572.361 1083.59 572.062C1084.3 571.723 1085.16 571.624 1085.86 571.273C1086.53 570.939 1087.03 570.58 1087.75 570.323C1088.29 570.132 1088.75 569.766 1089.3 569.571C1089.61 569.458 1089.84 569.192 1090.12 569.008C1090.31 568.878 1091.24 568.933 1090.69 568.461C1090.12 567.978 1089.8 566.961 1089.49 566.291C1089.2 565.634 1089 565.017 1088.57 564.501C1088.36 564.244 1088.44 563.771 1088.17 563.457C1087.91 563.147 1087.74 562.818 1087.46 562.536" stroke="#2D384C" stroke-width="1.5" stroke-linecap="round"/>
<path d="M1056.95 578.71C1056.95 579.314 1056.63 579.729 1056.49 580.295C1056.37 580.796 1056.29 581.14 1056.69 581.237C1057.27 581.377 1057.76 581.769 1058.33 581.924C1058.66 582.015 1060.02 580.791 1060.23 580.55C1060.31 580.457 1061.06 579.583 1061.06 579.572C1060.84 579.139 1060.24 579.017 1059.9 578.71C1059.24 578.11 1057.91 578.315 1057.08 578.315" stroke="#2D384C" stroke-width="1.5" stroke-linecap="round"/>
<path d="M1069.18 573.187C1069.18 573.626 1068.73 573.926 1068.62 574.371C1068.47 574.966 1068.43 575.319 1068.96 575.686C1069.27 575.9 1069.32 575.966 1069.54 576.241C1069.87 576.637 1070.42 576.303 1070.89 576.022C1071.36 575.736 1071.9 575.472 1072.46 575.423C1072.95 575.38 1072.66 574.564 1072.54 574.298C1072.25 573.691 1072.42 573.043 1071.65 573.056C1071.21 573.063 1069.52 573.485 1069.31 573.056" stroke="#2D384C" stroke-width="1.5" stroke-linecap="round"/>
<path d="M1082.72 567.27C1082.72 567.923 1082.38 568.142 1082.17 568.687C1081.98 569.188 1082.25 569.301 1082.43 569.739C1082.84 570.709 1084.01 570.022 1084.83 569.9C1085.29 569.829 1085.36 569.125 1085.51 568.789C1085.78 568.221 1086.11 567.796 1085.35 567.796C1084.5 567.796 1083.33 567.609 1082.72 567.007" stroke="#2D384C" stroke-width="1.5" stroke-linecap="round"/>
<path d="M1052.61 504.155C1052.16 504.207 1051.78 505.488 1052.16 505.791C1052.54 506.082 1053.85 505.843 1054.19 505.601C1054.79 505.168 1054.85 504.917 1054.85 504.155C1054.85 502.958 1052.93 503.823 1052.35 504.155" stroke="#2D384C" stroke-width="1.5" stroke-linecap="round"/>
<path d="M1053.53 509.677C1053.1 509.65 1053.13 508.501 1053.47 508.377C1053.94 508.207 1054.42 507.69 1054.85 507.383C1055.48 506.946 1057.1 506.357 1057.49 507.23C1057.62 507.511 1058.33 507.839 1057.97 508.333C1057.71 508.692 1057.11 509.099 1056.66 509.151C1055.61 509.273 1054.33 510.338 1053.27 509.809" stroke="#2D384C" stroke-width="1.5" stroke-linecap="round"/>
<path d="M968.465 410.636C968.465 411.606 969.383 412.634 969.823 413.45C970.292 414.321 970.907 414.856 971.502 415.62C972.089 416.375 972.101 417.487 972.645 418.228C973.122 418.878 973.178 419.633 973.574 420.319C974.038 421.121 974.51 422.023 974.727 422.927C974.925 423.754 975.296 424.669 975.7 425.419C975.924 425.835 975.976 426.173 976.111 426.616C976.253 427.081 976.675 427.394 976.79 427.876C977.215 429.653 978.46 431.265 978.773 433.066C978.855 433.539 979.283 433.925 979.479 434.361C979.731 434.923 979.967 435.454 980.131 436.049C980.434 437.153 981.148 438.223 981.649 439.256C982.611 441.238 983.58 443.187 984.606 445.125C985.53 446.87 985.762 448.919 986.643 450.681C986.901 451.197 986.976 451.713 987.125 452.262C987.247 452.707 987.661 453.04 987.911 453.414C988.411 454.164 988.756 455.284 989.01 456.139C989.132 456.548 989.431 456.74 989.617 457.103C989.748 457.358 989.641 457.647 989.76 457.907C990.03 458.498 990.307 459.413 990.662 459.917C991.094 460.528 991.42 461.62 991.627 462.347C991.928 463.401 992.407 464.256 992.869 465.214C993.28 466.067 993.441 466.967 993.994 467.787C994.526 468.574 994.762 469.502 995.254 470.279C997.263 473.451 998.928 476.926 1000.43 480.382C1001.07 481.858 1002.04 483.202 1002.57 484.669C1002.71 485.063 1003.29 485.566 1003.53 485.991C1003.8 486.492 1004.25 486.881 1004.52 487.331C1004.69 487.634 1005.01 488.19 1005.11 488.466C1005.23 488.846 1005.45 489.946 1005.45 488.778" stroke="#2D384C" stroke-width="1.5" stroke-linecap="round"/>
<path d="M967.984 410.958C968.423 410.958 968.873 410.576 969.271 410.377C969.949 410.038 970.358 409.416 971.048 409.1C972.869 408.265 974.571 406.972 976.435 406.295C978.271 405.627 980.259 404.552 981.83 403.41C982.535 402.897 983.566 402.583 984.349 402.15C985.286 401.632 986.55 400.823 987.565 400.542C989.636 399.969 991.529 398.77 993.621 398.184C993.981 398.083 994.149 398.026 994.425 397.773C994.833 397.4 995.2 397.526 995.693 397.38C996.272 397.209 996.833 396.828 997.408 396.612C998.147 396.335 998.894 396.205 999.642 395.969C1000.45 395.713 1001.23 395.401 1001.99 395.049C1002.3 394.905 1002.4 394.676 1002.66 394.486C1003.08 394.176 1003.7 394.204 1004.16 393.914C1005.31 393.194 1007.04 393.128 1008.02 392.146" stroke="#2D384C" stroke-width="1.5" stroke-linecap="round"/>
<path d="M1007.7 392.146C1007.77 392.854 1008.79 393.581 1009.31 393.986C1009.58 394.2 1009.67 394.409 1009.83 394.718C1010.59 396.226 1011.36 397.73 1012.1 399.247C1012.36 399.765 1012.79 400.355 1013.13 400.828C1014.87 403.27 1015.34 406.294 1017.06 408.814C1018.24 410.539 1018.93 412.505 1020.08 414.236C1021.08 415.734 1021.36 417.531 1022.05 419.194C1022.82 421.076 1023.61 422.936 1024.57 424.759C1025.07 425.709 1025.45 426.649 1025.9 427.608C1026.3 428.438 1026.99 429.171 1027.32 430.02C1027.87 431.475 1028.59 432.949 1029.05 434.433C1029.64 436.356 1031.07 437.961 1031.5 439.89C1031.75 440.954 1032.74 441.723 1033.18 442.722C1033.54 443.549 1033.92 444.422 1034.39 445.188C1034.94 446.093 1035.34 447.142 1035.8 448.1C1036.04 448.592 1036.28 449.103 1036.46 449.618C1036.67 450.201 1036.56 450.832 1036.82 451.396C1037.17 452.166 1037.8 452.983 1037.93 453.825C1038.06 454.729 1038.54 455.788 1038.98 456.586C1039.82 458.083 1040.7 459.685 1041.13 461.365C1041.32 462.079 1041.7 462.77 1041.96 463.473C1042.13 463.96 1042.3 464.434 1042.39 464.947C1042.49 465.484 1042.83 465.775 1043 466.269C1043.28 467.068 1043.5 467.844 1043.82 468.636C1044.07 469.242 1044.41 469.828 1044.7 470.413C1044.83 470.673 1045.48 471.921 1045.48 471.896" stroke="#2D384C" stroke-width="1.5" stroke-linecap="round"/>
<path d="M1005.12 489.904C1005.31 489.892 1005.48 489.852 1005.57 489.672C1005.76 489.322 1005.98 489.51 1006.3 489.314C1006.62 489.128 1006.66 488.88 1007.02 488.743C1007.54 488.544 1008.1 488.237 1008.59 487.966C1009.42 487.507 1010.32 486.745 1011.23 486.492C1011.67 486.371 1012.18 486.394 1012.57 486.17C1013.1 485.871 1013.28 485.638 1013.91 485.545C1014.42 485.469 1014.71 485.027 1015.18 484.937C1015.56 484.866 1015.89 484.994 1016.22 484.741C1016.98 484.148 1018.18 484.029 1019.11 483.758C1021.12 483.178 1022.95 482.128 1024.9 481.454C1026.9 480.762 1028.71 479.578 1030.6 478.667C1031.48 478.24 1032.3 477.577 1033.23 477.238C1034.17 476.89 1035.17 476.544 1035.98 475.924C1037.44 474.8 1039.71 474.268 1041.43 473.664C1042.43 473.312 1043.51 473.04 1044.45 472.53C1044.86 472.304 1045.7 471.99 1045.8 471.574" stroke="#2D384C" stroke-width="1.5" stroke-linecap="round"/>
<path d="M978.273 415.942C978.384 417.049 979.51 418.241 980.167 419.087C980.532 419.556 980.997 419.938 981.328 420.435C981.464 420.638 981.693 420.697 981.811 420.927C982.005 421.304 981.998 421.631 982.293 421.963C982.663 422.379 982.851 423.12 983.017 423.651C983.218 424.296 983.532 424.69 983.83 425.268C984.271 426.127 984.484 427.069 984.893 427.966C985.894 430.16 987.099 432.423 988.439 434.433C988.669 434.778 989.042 434.803 989.421 434.719C990.308 434.522 991.174 433.778 991.985 433.388C992.797 432.997 993.875 432.587 994.549 431.985C996.227 430.485 998.558 429.665 1000.55 428.68C1002.42 427.758 1004.49 427.278 1006.41 426.393C1008.06 425.631 1009.93 425.443 1011.57 424.625C1011.97 424.424 1012.39 424.513 1012.81 424.392C1013.41 424.219 1013.91 423.829 1014.54 423.696C1014.98 423.602 1015.28 423.398 1015.67 423.187C1015.91 423.052 1016.92 422.885 1016.58 422.499C1016.29 422.18 1016.05 422.096 1015.89 421.641C1015.6 420.828 1014.91 420.047 1014.76 419.229C1014.71 418.963 1014.52 418.867 1014.36 418.676C1014.15 418.414 1014.12 417.904 1014 417.586C1013.82 417.11 1013.34 416.753 1013.17 416.264C1012.78 415.087 1012.04 414.085 1011.4 413.057C1010.65 411.86 1009.59 410.578 1009.08 409.27C1008.67 408.206 1007.86 407.014 1007.13 406.125C1006.93 405.871 1006.66 405.637 1006.48 405.366C1006.35 405.167 1006.47 404.927 1006.34 404.723C1005.92 404.048 1005.82 404.044 1004.96 404.044" stroke="#2D384C" stroke-width="1.5" stroke-linecap="round"/>
<path d="M977.793 416.103C978.686 416.103 979.34 415.475 980.115 415.102C981.297 414.534 982.594 414.093 983.68 413.369C984.351 412.922 985.095 412.81 985.832 412.53C986.481 412.283 986.965 411.779 987.601 411.529C988.707 411.095 989.753 410.522 990.87 410.082C993.488 409.052 996.057 407.882 998.695 406.902C999.445 406.624 1000.19 406.287 1000.96 406.116C1001.82 405.926 1002.6 405.342 1003.39 404.99C1003.68 404.866 1004.89 403.883 1004.97 403.883" stroke="#2D384C" stroke-width="1.5" stroke-linecap="round"/>
<path d="M988.727 434.755C989.827 433.41 990.275 431.43 991.478 430.172C991.889 429.742 992.464 429.503 992.764 428.966C993.026 428.498 993.258 427.996 993.514 427.519C993.999 426.619 994.506 425.7 995.033 424.822C995.549 423.961 996.041 423.154 996.444 422.231C996.623 421.824 996.833 421.456 997.079 421.088C997.321 420.725 997.28 420.268 997.498 419.891C997.999 419.026 998.363 418.066 998.919 417.247C999.287 416.704 999.815 416.142 1000 415.541C1000.11 415.174 1000.44 414.466 1000.7 414.174C1001.19 413.625 1001.24 412.834 1001.66 412.209C1001.95 411.782 1002.38 411.378 1002.54 410.878C1002.66 410.467 1002.72 410.104 1003.04 409.761C1003.27 409.501 1003.29 408.897 1003.45 408.546C1003.66 408.08 1003.87 407.568 1004.04 407.064C1004.14 406.751 1004.22 406.625 1004.41 406.385C1004.6 406.149 1004.41 405.761 1004.56 405.491C1004.7 405.213 1005.1 405.222 1005.13 404.884C1005.14 404.661 1005.13 404.428 1005.13 404.205" stroke="#2D384C" stroke-width="1.5" stroke-linecap="round"/>
<path d="M977.473 416.746C978.598 416.746 979.724 416.746 980.849 416.746C981.611 416.746 982.374 416.746 983.136 416.746C984.027 416.746 984.826 417.149 985.673 417.38C987.099 417.769 988.415 418.444 989.88 418.774C990.866 418.996 991.796 419.382 992.765 419.64C995.362 420.333 998.19 420.523 1000.86 420.605C1002.24 420.647 1003.58 420.74 1004.97 420.766C1005.41 420.774 1006.48 420.789 1006.86 420.998C1007.46 421.327 1008.02 421.149 1008.67 421.329C1009.99 421.697 1011.78 421.111 1013.02 421.731C1013.88 422.161 1016.86 421.891 1015.9 421.891" stroke="#2D384C" stroke-width="1.5" stroke-linecap="round"/>
<path d="M990.332 441.828C990.951 441.828 991.209 441.549 991.726 441.257C992.818 440.64 994.145 440.356 995.308 439.899C998.164 438.777 1001.04 437.867 1003.81 436.54C1005.87 435.555 1008.06 434.946 1010.11 433.95C1012.08 432.992 1013.95 432.142 1016.06 431.538" stroke="#2D384C" stroke-width="1.5" stroke-linecap="round"/>
<path d="M993.227 446.974C994.119 446.731 994.957 445.585 995.746 445.116C996.891 444.435 998.265 444.106 999.488 443.589C1000.59 443.123 1001.65 442.539 1002.78 442.151C1005.8 441.116 1008.98 440.525 1012.02 439.524C1013 439.201 1013.79 438.631 1014.61 438.006C1015.32 437.465 1016.64 436.988 1017.51 436.719C1018.57 436.39 1019.37 436.096 1020.24 435.397" stroke="#2D384C" stroke-width="1.5" stroke-linecap="round"/>
<path d="M994.516 452.762C995.13 452.65 995.935 452.191 996.525 451.94C997.409 451.565 998.17 450.933 999.071 450.547C1000.6 449.89 1002.03 449.133 1003.48 448.296C1004.26 447.848 1005.02 447.615 1005.76 447.072C1006.38 446.617 1007.09 446.076 1007.77 445.723C1008.23 445.485 1011.27 444.417 1010.92 444.24" stroke="#2D384C" stroke-width="1.5" stroke-linecap="round"/>
<path d="M1014.93 442.472C1015.4 442.436 1015.87 442.323 1016.29 442.114C1017.48 441.52 1018.65 441.058 1019.87 440.533C1020.81 440.131 1021.63 439.64 1022.62 439.336C1022.9 439.247 1023.48 438.92 1022.97 439.256" stroke="#2D384C" stroke-width="1.5" stroke-linecap="round"/>
<path d="M1016.38 448.421C1016.81 448.468 1017.3 449.317 1017.51 449.636C1017.72 449.972 1017.75 450.311 1017.92 450.654C1018.07 450.947 1018.37 451.063 1018.47 451.395C1018.95 452.945 1020 452.725 1021.21 452.119C1022.9 451.277 1024.63 450.538 1026.35 449.743C1026.79 449.539 1029.87 448.553 1029.89 448.26C1029.94 447.294 1028.76 445.864 1028.11 445.214C1027.71 444.821 1027.12 443.029 1026.6 443.124C1025.98 443.236 1025.18 443.791 1024.62 444.097C1022.81 445.082 1020.9 446.413 1018.95 447.009C1018 447.301 1017.16 448.045 1016.22 448.421" stroke="#2D384C" stroke-width="1.5" stroke-linecap="round"/>
<path d="M1001.59 465.947C1002.13 465.891 1002.53 465.534 1002.98 465.268C1003.61 464.896 1004.31 464.701 1004.97 464.375C1006.07 463.825 1007.31 463.347 1008.35 462.723C1008.88 462.405 1009.48 462.251 1010.02 461.945C1010.65 461.596 1011.46 461.232 1012.13 460.963C1013.79 460.299 1015.39 459.528 1016.99 458.73C1018.2 458.124 1019.53 457.821 1020.73 457.166C1021.47 456.767 1021.99 456.344 1022.79 456.05C1023.5 455.789 1024.45 455.424 1025.06 454.978C1026.12 454.214 1027.61 454.263 1028.75 453.576C1029.09 453.374 1030.27 452.763 1030.37 452.763" stroke="#2D384C" stroke-width="1.5" stroke-linecap="round"/>
<path d="M1030.37 452.923C1030.46 453.366 1030.88 453.897 1031.17 454.227C1031.57 454.703 1031.44 455.407 1031.82 455.897C1032.48 456.751 1032.93 457.872 1033.43 458.801C1033.78 459.465 1034.65 460.727 1035.26 461.132C1035.55 461.328 1035.82 462.224 1036 462.57C1036.11 462.785 1036.64 463.738 1036.84 463.821C1037.46 464.08 1037.72 465.565 1038.25 466.09C1038.6 466.444 1039.04 467.003 1039.21 467.483C1039.42 468.049 1039.75 468.368 1039.98 468.912C1040.33 469.749 1040.83 470.65 1041.14 471.503C1041.25 471.806 1041.6 472.254 1041.63 472.503C1041.66 472.769 1041.81 473.406 1041.95 472.86" stroke="#2D384C" stroke-width="1.5" stroke-linecap="round"/>
<path d="M1001.27 465.625C1001.27 466.374 1002.62 467.764 1003.12 468.269C1003.76 468.908 1004.34 470.023 1004.64 470.86C1004.91 471.594 1005.43 472.253 1005.76 473.021C1006.04 473.683 1006.53 474.518 1006.98 475.022C1007.62 475.734 1008.16 477.015 1008.47 477.881C1008.83 478.89 1009.41 479.864 1009.8 480.891C1009.95 481.314 1010.46 481.616 1010.63 482.061C1010.76 482.419 1010.83 482.97 1011.07 483.24C1011.48 483.686 1011.38 484.461 1011.63 484.991C1011.75 485.255 1012.04 486.528 1012.04 485.723" stroke="#2D384C" stroke-width="1.5" stroke-linecap="round"/>
<path d="M1001.27 465.786C1002.33 465.786 1003.41 466.657 1004.42 466.894C1004.88 467.003 1005.45 466.912 1005.93 466.912C1006.73 466.912 1007.41 467.175 1008.18 467.233C1009.71 467.349 1011.07 468.162 1012.6 468.359C1013.35 468.455 1014.24 468.872 1014.94 469.163C1015.58 469.431 1016.27 469.407 1016.93 469.565C1018.28 469.885 1019.58 470.371 1020.97 470.645C1021.72 470.793 1022.42 471.29 1023.17 471.476C1024.18 471.728 1025.27 471.822 1026.29 472.048C1030.08 472.892 1033.82 473.943 1037.6 474.951" stroke="#2D384C" stroke-width="1.5" stroke-linecap="round"/>
<path d="M1029.57 453.245C1029.57 454.946 1028.48 456.626 1027.81 458.131C1027.55 458.708 1027.05 459.636 1027 460.248C1026.91 461.445 1026.27 462.508 1025.94 463.661C1025.02 466.823 1023.14 469.432 1021.76 472.379C1021.06 473.866 1019.66 475.112 1019.15 476.684C1018.74 477.977 1017.53 479.099 1017.33 480.409C1017.25 480.931 1016.57 481.367 1016.37 481.937C1016.23 482.33 1015.94 482.749 1015.77 483.187C1015.68 483.429 1015.42 483.989 1015.26 484.197C1014.85 484.724 1014.85 484.92 1015.42 484.92" stroke="#2D384C" stroke-width="1.5" stroke-linecap="round"/>
<path d="M1044.23 380.452C1044.84 380.452 1044.86 380.11 1045.38 379.898C1047.6 378.992 1049.77 377.792 1051.93 376.746C1053.89 375.793 1055.87 374.494 1058 373.96C1058.84 373.749 1059.68 373.384 1060.41 372.906C1061.76 372.016 1063.54 371.893 1065 371.164C1066.88 370.224 1068.72 369.202 1070.59 368.267C1071.36 367.885 1072.2 367.738 1072.99 367.424C1073.83 367.09 1074.35 366.413 1075.22 366.159C1076.67 365.737 1078.11 365.08 1079.47 364.427C1080.44 363.961 1082.02 363.074 1083.07 363.074C1083.37 363.074 1083.65 362.606 1083.99 362.474C1084.61 362.237 1084.98 362.399 1085.38 361.875" stroke="#2D384C" stroke-width="1.5" stroke-linecap="round"/>
<path d="M1043.82 380.652C1044.61 380.827 1045.06 382.558 1045.58 383.094C1046.64 384.196 1046.78 385.884 1047.73 387.045C1048.29 387.732 1048.2 388.667 1048.66 389.353C1049.12 390.025 1049.45 390.816 1049.77 391.572C1050.42 393.103 1050.86 394.733 1051.61 396.233C1053.18 399.364 1055.31 402.285 1056.3 405.644C1056.88 407.622 1058.32 409.689 1059.32 411.482C1060.47 413.551 1061.61 415.599 1062.7 417.696C1064.65 421.442 1066.42 425.195 1067.99 429.127C1068.83 431.206 1070.14 433.061 1071.17 435.064C1071.63 435.958 1071.97 436.984 1072.59 437.783C1073.21 438.582 1073.27 439.738 1073.83 440.579C1076.18 444.102 1077.22 448.397 1079.57 452.043C1080.53 453.53 1081.13 455.077 1082.26 456.449C1082.93 457.268 1083.41 458.666 1084.57 458.957" stroke="#2D384C" stroke-width="1.5" stroke-linecap="round"/>
<path d="M1085.18 361.875C1085.9 362.284 1086.28 363.743 1086.7 364.483C1087.56 366.011 1088.48 367.429 1089.46 368.855C1090.95 371.027 1092.17 373.367 1093.53 375.692C1094.36 377.101 1095.27 378.507 1096.04 379.953C1096.3 380.445 1096.32 380.971 1096.65 381.451C1097.2 382.251 1097.14 383.463 1097.56 384.337C1097.95 385.148 1098.55 386.071 1098.76 386.945C1098.92 387.614 1099.52 388.633 1099.96 389.164C1100.33 389.614 1100.24 390.152 1100.48 390.64C1100.67 391.019 1100.96 391.352 1101.17 391.728C1101.57 392.469 1102.09 393.142 1102.43 393.947C1102.83 394.868 1103 395.982 1103.56 396.832C1104.02 397.521 1104.65 398.639 1104.84 399.44C1105.09 400.516 1105.76 401.453 1106.34 402.415C1107.19 403.835 1107.55 405.599 1108.75 406.798C1109.58 407.631 1110.05 408.987 1110.59 410.016C1111.33 411.414 1112.01 412.863 1112.7 414.3C1113.14 415.211 1113.26 416.277 1113.79 417.163C1114.08 417.668 1114.54 417.985 1114.78 418.539C1115.02 419.076 1115.07 419.687 1115.34 420.204C1115.71 420.917 1116.15 421.46 1116.29 422.29C1116.43 423.058 1116.6 423.805 1117.14 424.399C1118.07 425.439 1119.31 426.768 1119.82 428.083C1120.17 428.968 1121 429.74 1121.29 430.591C1121.48 431.179 1122.04 432.115 1122.44 432.589C1123.49 433.826 1123.57 435.672 1124.68 436.828C1125.3 437.464 1125.44 438.353 1125.88 439.07C1126.04 439.335 1126.53 440.16 1126.53 439.78" stroke="#2D384C" stroke-width="1.5" stroke-linecap="round"/>
<path d="M1084.38 459.556C1084.82 459.111 1085.16 458.591 1085.7 458.246C1086.06 458.012 1086.43 457.863 1086.85 457.769C1089.21 457.244 1091.56 455.827 1093.76 454.873C1095.49 454.124 1097.11 453.214 1098.79 452.542C1100.67 451.791 1102.32 450.563 1104.06 449.59C1104.79 449.181 1105.63 449.083 1106.35 448.614C1106.81 448.312 1107.31 448.267 1107.84 448.159C1108.45 448.031 1108.68 447.595 1109.19 447.304C1109.87 446.911 1110.84 447.125 1111.45 446.572C1111.87 446.193 1112.49 446.06 1112.98 445.839C1114.07 445.36 1114.92 444.578 1116.05 444.174C1117.22 443.753 1118.44 443.433 1119.52 442.787C1120.56 442.163 1121.95 441.524 1123.13 441.356C1124.45 441.166 1125.35 439.972 1126.52 439.58" stroke="#2D384C" stroke-width="1.5" stroke-linecap="round"/>
<path d="M1078.58 450.967C1079.15 450.932 1079.35 450.355 1079.87 450.168C1080.66 449.882 1081.44 449.329 1082.21 448.969C1084.22 448.032 1086.04 446.865 1088.06 445.928C1090.72 444.695 1093.25 443.177 1095.73 441.611C1097.65 440.396 1099.93 439.625 1102.04 438.782C1103.93 438.027 1105.67 437.121 1107.5 436.34C1108.19 436.045 1109.17 435.83 1109.77 435.363C1110.84 434.529 1112 434.411 1113.12 433.788C1114.32 433.118 1115.6 432.194 1116.94 431.79C1118.34 431.364 1119.47 430.285 1120.93 429.992" stroke="#2D384C" stroke-width="1.5" stroke-linecap="round"/>
<path d="M1085.57 449.368C1084.71 449.476 1084.65 452.653 1084.13 453.319C1084.04 453.433 1086.05 454.173 1086.37 454.262C1086.99 454.433 1087.67 454.204 1088.26 454.373C1088.46 454.431 1088.67 454.649 1088.87 454.739C1089.43 454.996 1089.35 453.831 1089.41 453.563C1089.6 452.79 1090.3 451.543 1090.76 450.889C1090.86 450.749 1091.35 450.123 1091.17 450.09C1089.92 449.867 1088.6 450.396 1087.37 450.123C1086.92 450.022 1086.43 450.055 1085.99 449.945C1085.59 449.845 1085.43 449.568 1084.98 449.568" stroke="#2D384C" stroke-width="1.5" stroke-linecap="round"/>
<path d="M1100.76 441.978C1100.3 442.034 1100.16 443.579 1100.16 444.02C1100.16 445.02 1099.2 445.542 1099.37 446.561C1099.5 447.338 1103.4 447.327 1104.06 447.127C1104.42 447.017 1104.82 445.951 1104.91 445.618C1105.06 445.005 1105.41 444.714 1105.59 444.175C1105.66 443.978 1106.21 443.417 1105.7 443.376C1105.28 443.342 1104.95 443.245 1104.55 443.187C1103.78 443.078 1103.16 442.696 1102.44 442.566C1101.71 442.432 1101.35 441.578 1100.56 441.578" stroke="#2D384C" stroke-width="1.5" stroke-linecap="round"/>
<path d="M1114.14 435.585C1113.89 437.068 1113.04 438.422 1112.87 439.935C1112.81 440.494 1114.09 440.696 1114.63 440.768C1115.15 440.838 1115.83 440.6 1116.25 440.978C1117.01 441.675 1117.14 439.951 1117.29 439.536C1117.51 438.953 1118.06 438.47 1118.13 437.827C1118.17 437.461 1118.55 437.143 1118.53 436.784C1118.51 436.437 1117.34 436.584 1117.13 436.584C1116.31 436.584 1116.17 436.184 1115.45 436.184C1115.09 436.184 1114.07 436.038 1113.94 435.785" stroke="#2D384C" stroke-width="1.5" stroke-linecap="round"/>
<path d="M1053.81 393.437C1054.29 393.332 1055.1 392.68 1055.6 392.449C1056.54 392.013 1057.4 391.451 1058.31 390.94C1060.29 389.817 1062.28 388.578 1064.4 387.755C1065.86 387.186 1067.42 386.754 1068.75 385.935C1069.31 385.59 1070.13 385.596 1070.59 385.136C1071.03 384.697 1071.15 384.647 1071.79 384.647" stroke="#2D384C" stroke-width="1.5" stroke-linecap="round"/>
<path d="M1067 417.807C1068.08 417.686 1069.78 416.547 1070.55 415.854C1071.83 414.691 1073.66 414.066 1075.1 413.057C1075.7 412.635 1076.4 412.49 1076.98 412.014C1077.63 411.487 1078.18 410.96 1078.78 410.394C1079.4 409.811 1080.46 409.497 1081.18 409.018" stroke="#2D384C" stroke-width="1.5" stroke-linecap="round"/>
<path d="M1047.42 382.051C1047.97 382.673 1048.06 385.294 1048.95 385.413C1049.65 385.506 1049.95 384.68 1050.53 384.492C1050.75 384.422 1050.99 384.448 1051.22 384.448" stroke="#2D384C" stroke-width="1.5" stroke-linecap="round"/>
<path d="M1054.61 379.254C1053.42 379.604 1053.01 380.253 1053.01 381.451C1053.01 382.709 1052.95 382.922 1054.32 382.838C1055.14 382.789 1056.29 382.44 1056.2 381.429C1056.06 379.889 1054.61 380.053 1053.41 380.053" stroke="#2D384C" stroke-width="1.5" stroke-linecap="round"/>
<path d="M1060.2 376.457C1058.89 376.457 1059.16 378.133 1059.21 379.054C1059.25 379.953 1061.21 380.044 1061.9 379.831C1062.38 379.684 1063.29 378.204 1063.19 377.778C1063.04 377.087 1061.2 378.055 1061 378.055" stroke="#2D384C" stroke-width="1.5" stroke-linecap="round"/>
<path d="M1068.4 372.662C1066.74 372.662 1064.6 375.278 1066.09 376.857C1067.25 378.082 1068.48 377.099 1069.15 376.014C1069.36 375.68 1069.24 374.704 1069.15 374.327C1068.95 373.471 1068.12 373.551 1067.4 373.461" stroke="#2D384C" stroke-width="1.5" stroke-linecap="round"/>
<path d="M1055.81 397.232C1056.18 397.687 1056.14 398.302 1056.6 398.719C1057.05 399.127 1057.48 399.747 1057.85 400.228C1058.56 401.142 1058.96 402.209 1059.36 403.269C1059.99 404.887 1060.66 404.589 1061.89 403.78C1062.78 403.197 1063.99 403.533 1064.8 402.814C1065.47 402.217 1066.37 402.023 1067.04 401.471C1067.37 401.206 1067.71 400.897 1068.09 400.728C1068.33 400.618 1069.01 400.601 1069.15 400.339C1069.67 399.359 1068.04 398.145 1067.6 397.476C1067.4 397.175 1067.1 396.963 1066.82 396.744C1066.54 396.524 1066.63 396.203 1066.4 395.945C1066.01 395.513 1065.87 394.846 1065.45 394.524C1064.62 393.903 1064.65 393.037 1063.4 393.037" stroke="#2D384C" stroke-width="1.5" stroke-linecap="round"/>
<path d="M1055.21 397.631C1055.32 396.666 1058.89 395.65 1059.67 395.323C1060.95 394.789 1062.49 394.352 1063.4 393.437" stroke="#2D384C" stroke-width="1.5" stroke-linecap="round"/>
<path d="M1071.39 391.039C1072.25 392.253 1072.42 393.608 1073.01 394.934C1073.3 395.596 1074.23 396.673 1074.69 397.22C1075.39 398.06 1076.79 397.446 1077.38 396.854C1077.72 396.514 1078.6 396.425 1079.06 396.233C1079.62 395.994 1080.47 395.615 1080.96 395.234C1081.89 394.508 1083.24 394.188 1084.09 393.392C1084.61 392.901 1083.46 391.25 1083.38 390.684C1083.3 390.154 1082.62 389.707 1082.38 389.241C1082.12 388.754 1081.81 388.554 1081.53 388.131C1081.41 387.934 1081.12 387.961 1080.99 387.732C1080.88 387.537 1080.88 387.261 1080.73 387.088C1080.42 386.698 1080.23 386.876 1080.18 386.289C1080.15 385.948 1079.38 385.646 1079.38 385.646" stroke="#2D384C" stroke-width="1.5" stroke-linecap="round"/>
<path d="M1070.79 391.239C1070.93 390.609 1072.43 390.106 1072.95 389.885C1073.74 389.541 1074.69 389.079 1075.39 388.598C1076.92 387.53 1078.67 386.855 1080.18 385.846" stroke="#2D384C" stroke-width="1.5" stroke-linecap="round"/>
<path d="M1085.77 384.048C1085.85 384.706 1086.46 385.065 1086.67 385.646C1086.96 386.446 1087.57 387.01 1087.96 387.732C1088.19 388.155 1089.6 390.999 1089.97 391.039C1090.7 391.121 1090.89 390.597 1091.46 390.34C1091.9 390.136 1092.36 390.112 1092.83 389.996C1093.4 389.857 1093.68 389.289 1094.2 389.053C1095.08 388.643 1097.92 388.216 1098.16 387.244" stroke="#2D384C" stroke-width="1.5" stroke-linecap="round"/>
<path d="M1085.18 383.849C1085.81 383.849 1086.21 383.614 1086.75 383.272C1087.22 382.975 1087.59 383.158 1088.08 383.027C1089.27 382.711 1090.14 381.86 1091.27 381.463C1092.51 381.025 1093.69 379.854 1094.96 379.854" stroke="#2D384C" stroke-width="1.5" stroke-linecap="round"/>
<path d="M1055.41 397.432C1057.92 397.432 1060.16 398.63 1062.7 398.63C1063.66 398.63 1064.52 399.191 1065.55 399.229C1066.72 399.273 1067.85 399.429 1068.99 399.429" stroke="#2D384C" stroke-width="1.5" stroke-linecap="round"/>
<path d="M1063.4 393.637C1063.4 394.507 1063.68 395.866 1063.2 396.622C1062.75 397.346 1063.04 398.576 1062.52 399.23C1061.92 399.976 1062.09 401.159 1061.61 402.027C1061.1 402.941 1060.81 403.719 1060.21 404.623" stroke="#2D384C" stroke-width="1.5" stroke-linecap="round"/>
<path d="M1070.79 391.039C1070.38 391.039 1071.64 391.056 1072 391.239C1072.78 391.629 1073.62 391.838 1074.49 391.838C1075.4 391.838 1076.66 391.612 1077.54 391.882C1079.46 392.473 1081.36 392.501 1083.38 392.837" stroke="#2D384C" stroke-width="1.5" stroke-linecap="round"/>
<path d="M1079.18 386.245C1079.16 386.666 1078.83 386.901 1078.67 387.288C1078.35 388.081 1078.24 388.988 1078 389.807C1077.87 390.238 1077.75 390.652 1077.63 391.084C1077.5 391.52 1077.19 392.091 1077.19 392.526C1077.19 393.356 1076.5 394.063 1076.39 394.835C1076.31 395.344 1076.1 395.828 1075.79 396.233C1075.52 396.579 1075.5 397.274 1075.19 397.432" stroke="#2D384C" stroke-width="1.5" stroke-linecap="round"/>
<path d="M1084.78 384.248C1086.17 384.248 1086.81 384.824 1087.97 385.358C1088.49 385.593 1088.78 385.46 1089.26 385.802C1089.8 386.183 1090.82 386.168 1091.46 386.235C1092.09 386.301 1092.73 386.172 1093.36 386.268C1093.99 386.365 1094.25 386.645 1094.95 386.645C1095.93 386.645 1096.74 387.045 1097.76 387.045" stroke="#2D384C" stroke-width="1.5" stroke-linecap="round"/>
<path d="M1095.16 379.854C1094.46 379.978 1094.56 380.968 1094.28 381.496C1093.88 382.222 1093.53 382.93 1093.21 383.693C1092.97 384.261 1092.9 384.775 1092.48 385.247C1092.15 385.606 1092.3 385.928 1092.08 386.29C1091.86 386.638 1091.4 386.981 1091.37 387.4C1091.33 387.882 1091.34 388.168 1091.06 388.598C1090.55 389.354 1090.19 390.208 1089.77 391.04" stroke="#2D384C" stroke-width="1.5" stroke-linecap="round"/>
<path d="M1068 422.401C1068.14 423.816 1069.4 425.411 1069.95 426.751C1070.3 427.611 1071.14 428.534 1071.64 429.304C1072.01 429.882 1075.76 427.536 1076.39 427.24C1077.84 426.554 1079.19 425.864 1080.5 424.987C1081.35 424.424 1080.26 424.079 1080.03 423.711C1079.64 423.117 1079.38 422.494 1079.18 421.802C1078.79 420.417 1077.3 419.664 1076.59 418.595C1075.98 417.687 1076.06 417.52 1074.99 418.117C1074.32 418.488 1073.9 419.209 1073.19 419.605C1071.54 420.523 1069.69 421.01 1068.2 422.201" stroke="#2D384C" stroke-width="1.5" stroke-linecap="round"/>
<path d="M1067.6 423.001C1070.14 423.001 1072.34 423.8 1074.94 423.8C1075.97 423.8 1077.03 424 1078.08 424C1078.9 424 1081.31 424.599 1079.18 424.599" stroke="#2D384C" stroke-width="1.5" stroke-linecap="round"/>
<path d="M1074.79 418.206C1074.67 419.489 1074.31 420.466 1073.88 421.646C1073.53 422.6 1073.83 423.692 1073.3 424.643C1072.89 425.397 1073.05 426.243 1072.75 426.995C1072.61 427.341 1071.68 429.521 1071.99 428.593" stroke="#2D384C" stroke-width="1.5" stroke-linecap="round"/>
<path d="M1082.78 415.01C1082.78 416.164 1082.99 417.295 1083.82 418.162C1084.51 418.874 1084.76 419.69 1085.26 420.559C1086.33 422.383 1087.97 422.796 1089.65 421.214C1090.99 419.948 1092.86 419.464 1094.45 418.595C1095.64 417.947 1096.37 417.557 1096.17 416.209C1096.08 415.567 1095.23 414.9 1094.76 414.433C1094.27 413.937 1093.96 413.394 1093.52 412.857C1093.22 412.485 1093.09 411.423 1092.77 411.226C1092.11 410.831 1092.38 410.014 1091.77 409.706C1091.01 409.329 1089.84 410.627 1089.26 410.882C1088.36 411.277 1087.57 411.725 1086.66 412.169C1085.95 412.519 1085.24 412.91 1084.58 413.335C1083.88 413.781 1083.38 414.65 1082.58 414.811" stroke="#2D384C" stroke-width="1.5" stroke-linecap="round"/>
<path d="M1082.58 415.61C1082.64 415.132 1085.95 415.978 1086.42 416.009C1087.2 416.063 1087.84 416.409 1088.66 416.409C1089.27 416.409 1089.89 416.442 1090.49 416.398C1091.12 416.351 1096.56 415.077 1096.56 416.209" stroke="#2D384C" stroke-width="1.5" stroke-linecap="round"/>
<path d="M1091.17 410.216C1090.31 410.804 1090.25 413.083 1089.97 414.033C1089.7 414.958 1089.18 415.683 1088.95 416.541C1088.68 417.553 1088.02 418.441 1087.75 419.405C1087.65 419.759 1087.42 420.192 1087.28 420.559C1087.16 420.899 1086.97 421.965 1086.97 421.602" stroke="#2D384C" stroke-width="1.5" stroke-linecap="round"/>
<path d="M1096.96 407.819C1097.01 408.818 1097.92 409.998 1098.35 410.916C1098.67 411.618 1099.05 412.287 1099.48 412.913C1099.96 413.6 1100.89 415.043 1101.71 415.011C1102.13 414.994 1103.15 414.523 1103.33 414.112C1103.61 413.474 1104.95 413.125 1105.55 412.736C1106.27 412.275 1107.29 412.412 1107.99 411.859C1108.28 411.634 1110.37 410.616 1109.95 410.616" stroke="#2D384C" stroke-width="1.5" stroke-linecap="round"/>
<path d="M1096.36 408.218C1096.8 408.164 1097.02 407.524 1097.36 407.23C1097.73 406.911 1098.32 406.596 1098.76 406.376C1099.63 405.942 1100.48 405.408 1101.36 405.033C1102.36 404.605 1103.3 404.162 1104.26 403.724C1104.6 403.57 1106.13 403.024 1105.55 403.024" stroke="#2D384C" stroke-width="1.5" stroke-linecap="round"/>
<path d="M1096.76 408.418C1099.28 408.103 1102.02 407.964 1104.6 408.019C1105.72 408.042 1106.51 408.632 1107.56 408.806C1108.17 408.908 1109.47 409.059 1109.75 409.617" stroke="#2D384C" stroke-width="1.5" stroke-linecap="round"/>
<path d="M1105.95 403.024C1105.81 404.303 1104.68 405.376 1104.56 406.742C1104.47 407.8 1104.3 409.331 1103.85 410.327C1103.45 411.206 1103.32 411.942 1102.64 412.702C1102.12 413.286 1102.15 415.796 1102.15 415.01" stroke="#2D384C" stroke-width="1.5" stroke-linecap="round"/>
<path d="M1099.14 517.607L1203.64 563.607C1207.48 564.774 1214.42 567.107 1216.64 562.107C1219.14 556.482 1214.64 553.107 1209.14 550.607C1204.74 548.607 1137.98 520.107 1105.14 506.107M1099.14 517.607L1082.14 504.407L1083.14 502.371L1105.14 506.107M1099.14 517.607C1100.81 515.774 1103.94 510.907 1105.14 506.107M1217.16 557.607L1222.14 560.607C1223.64 561.607 1224.44 563.007 1223.64 564.607C1222.84 566.207 1221.64 566.607 1219.64 566.107L1214.23 564.607C1212.14 568.107 1202.14 566.607 1197.64 564.607L1165.64 549.107L1163.89 546.107" stroke="#2D384C" stroke-width="1.5"/>
</svg>
