<svg width="110" height="100" viewBox="0 0 110 100" fill="none" xmlns="http://www.w3.org/2000/svg">
<g clip-path="url(#clip0_272_5421)">
<path d="M68.4726 79.1275H7.17826C4.87191 79.1275 2.84391 77.6012 2.20542 75.385L1.57703 73.2039C1.3864 72.5422 1.883 71.8823 2.5716 71.8823H48.8072L49.8422 73.4349H60.1924L61.2274 71.8823H71.5776" stroke="#283141" stroke-width="2" stroke-linecap="round"/>
<path d="M7.40625 68V14.9563C7.40625 12.0982 9.72322 9.78125 12.5813 9.78125H97.4529C100.311 9.78125 102.628 12.0982 102.628 14.9563V61" stroke="#283141" stroke-width="2" stroke-linecap="round"/>
<path d="M13.0986 68V18.4527C13.0986 16.7378 14.4888 15.3477 16.2037 15.3477H93.8302C95.545 15.3477 96.9352 16.7378 96.9352 18.4527V53" stroke="#283141" stroke-width="2" stroke-linecap="round"/>
<path d="M46.4779 38.2444L35.1028 44.1792C34.8803 44.2953 34.8803 44.6137 35.1028 44.7298L46.4779 50.6646M63.7313 50.6646L74.9403 44.7289C75.1605 44.6122 75.1605 44.2967 74.9403 44.1801L63.7313 38.2444M51.653 56.3572L57.8631 32.5518" stroke="#283141" stroke-width="2" stroke-linecap="round"/>
<circle cx="89.9699" cy="74.2271" r="4.82676" transform="rotate(-20.2329 89.9699 74.2271)" stroke="#283141" stroke-width="1.78449"/>
<path d="M83.803 56.6012C83.0825 56.8668 82.3893 57.174 81.7254 57.5191C81.4429 57.6659 81.2977 57.9842 81.3605 58.2963L82.3248 63.0839C82.3838 63.3764 82.2886 63.6788 82.0727 63.8848L81.0165 64.8928C80.7805 65.1179 80.4385 65.1922 80.1304 65.0851L76.0264 63.6583C75.529 63.4854 74.9741 63.6673 74.7022 64.1184C74.0245 65.2427 73.472 66.439 73.0553 67.6839C72.8999 68.148 73.0794 68.6535 73.4772 68.9386L77.362 71.7233C77.582 71.881 77.7161 72.1322 77.7246 72.4029L77.7602 73.5379C77.7713 73.8916 77.5669 74.2169 77.2433 74.3603L73.2273 76.1401C72.7328 76.3593 72.4531 76.8921 72.5879 77.416C72.7696 78.1219 73.0032 78.8651 73.2377 79.5013C73.4646 80.117 73.799 80.887 74.1291 81.5629C74.3538 82.0228 74.8674 82.2546 75.3676 82.1465L79.8774 81.1713C80.1656 81.109 80.4657 81.1969 80.6747 81.4049L81.5975 82.3233C81.8385 82.5631 81.9177 82.9214 81.8001 83.2405L80.3162 87.2674C80.1314 87.769 80.3114 88.3354 80.7695 88.611C81.8834 89.2809 83.0677 89.8281 84.2998 90.2421C84.7738 90.4014 85.2896 90.2111 85.5707 89.7976L88.1708 85.9735C88.3395 85.7254 88.6242 85.5817 88.9241 85.5935L90.3021 85.6476C90.6168 85.6599 90.9003 85.8414 91.0431 86.1221L93.0404 90.046C93.2761 90.5091 93.7922 90.7626 94.2962 90.636C94.9129 90.481 95.5275 90.2916 96.1377 90.0666C96.7512 89.8405 97.3448 89.5843 97.9174 89.3001C98.3786 89.0713 98.6071 88.5504 98.4927 88.0485L97.4921 83.6603C97.4225 83.355 97.5224 83.0358 97.7536 82.8247L98.6554 82.0012C98.8741 81.8015 99.1794 81.7268 99.4655 81.803L104.007 83.0116C104.487 83.1394 104.999 82.9489 105.255 82.5229C105.925 81.4067 106.472 80.2199 106.885 78.9853C107.055 78.4784 106.824 77.9306 106.358 77.6689L102.6 75.5594C102.311 75.3976 102.14 75.0862 102.157 74.756L102.224 73.4522C102.239 73.1668 102.393 72.9068 102.637 72.7568L106.761 70.2154C107.175 69.9601 107.389 69.4723 107.27 69.0004C107.116 68.3862 106.927 67.7742 106.703 67.1666C106.477 66.5519 106.22 65.9573 105.935 65.3836C105.695 64.9006 105.138 64.6766 104.62 64.8277L100.519 66.0244C100.19 66.1205 99.8352 66.0141 99.6131 65.7528L98.7006 64.6795C98.5207 64.4679 98.4527 64.183 98.5176 63.913L99.6358 59.2596C99.7498 58.7855 99.5568 58.2876 99.1384 58.0372C98.0271 57.3721 96.8461 56.8289 95.6178 56.4179C95.1228 56.2523 94.5866 56.4682 94.3173 56.9154L92.0379 60.7013C91.8696 60.9809 91.559 61.1427 91.2334 61.1204L89.839 61.025C89.5452 61.0049 89.2814 60.8375 89.1383 60.58L86.7614 56.3057C86.6067 56.0275 86.2896 55.8795 85.9794 55.9511C85.2503 56.1195 84.5236 56.3356 83.803 56.6012Z" stroke="#283141" stroke-width="1.78449"/>
</g>
<defs>
<clipPath id="clip0_272_5421">
<rect width="110" height="100" fill="white"/>
</clipPath>
</defs>
</svg>
