<svg width="110" height="100" viewBox="0 0 110 100" fill="none" xmlns="http://www.w3.org/2000/svg">
<g clip-path="url(#clip0_272_5421)">
<path d="M68.4726 79.1275H7.17826C4.87191 79.1275 2.84391 77.6012 2.20542 75.385L1.57703 73.2039C1.3864 72.5422 1.883 71.8823 2.5716 71.8823H48.8072L49.8422 73.4349H60.1924L61.2274 71.8823H71.5776" stroke="#283141" stroke-width="2" stroke-linecap="round"/>
<path d="M7.40625 68V14.9563C7.40625 12.0982 9.72322 9.78125 12.5813 9.78125H97.4529C100.311 9.78125 102.628 12.0982 102.628 14.9563V61" stroke="#283141" stroke-width="2" stroke-linecap="round"/>
<path d="M13.0986 68V18.4527C13.0986 16.7378 14.4888 15.3477 16.2037 15.3477H93.8302C95.545 15.3477 96.9352 16.7378 96.9352 18.4527V52" stroke="#283141" stroke-width="2" stroke-linecap="round"/>
<path d="M46.4779 38.2444L35.1028 44.1792C34.8803 44.2953 34.8803 44.6137 35.1028 44.7298L46.4779 50.6646M63.7313 50.6646L74.9403 44.7289C75.1605 44.6122 75.1605 44.2967 74.9403 44.1801L63.7313 38.2444M51.653 56.3572L57.8631 32.5518" stroke="#283141" stroke-width="2" stroke-linecap="round"/>
<circle cx="89.9701" cy="74.3351" r="5.40968" transform="rotate(-20.2329 89.9701 74.3351)" stroke="#283141" stroke-width="2"/>
<path d="M73.3927 82.2334L73.6041 83.2109L73.3927 82.2334C73.2549 82.2633 73.1524 82.1955 73.1145 82.1179C72.7564 81.3847 72.3957 80.5531 72.1552 79.9004C71.904 79.2188 71.6522 78.418 71.4571 77.6599C71.4361 77.5783 71.4719 77.4548 71.6105 77.3934L76.1115 75.3986C76.8462 75.0729 77.3103 74.3345 77.2851 73.5312L77.2452 72.2591C77.2259 71.6447 76.9215 71.0742 76.4219 70.7161L72.0679 67.5952C71.9566 67.5154 71.9344 67.3978 71.9608 67.3191C72.4045 65.9932 72.993 64.7191 73.7148 63.5217C73.7599 63.4468 73.8741 63.3858 74.014 63.4344L78.6137 65.0335C79.3131 65.2767 80.0898 65.1081 80.6255 64.5969L81.8093 63.4671C82.2995 62.9993 82.5156 62.3129 82.3818 61.6486L81.3297 56.4251C81.9943 56.0866 82.6862 55.7834 83.404 55.5188C84.1219 55.2542 84.8451 55.0358 85.5704 54.862L88.1638 59.5258C88.4889 60.1104 89.0877 60.4906 89.7549 60.5363L91.3177 60.6431C92.0569 60.6937 92.7621 60.3263 93.1442 59.6916L95.699 55.4485C95.7747 55.3228 95.9001 55.2959 95.9825 55.3234C97.2907 55.7611 98.5485 56.3396 99.7321 57.048C99.8032 57.0905 99.8627 57.1937 99.8308 57.3263L98.5775 62.5416C98.4301 63.1548 98.5845 63.8016 98.993 64.2821L100.016 65.4851C100.52 66.0783 101.326 66.3198 102.073 66.1017L106.67 64.7605C106.816 64.7179 106.928 64.7889 106.967 64.8682C107.271 65.4791 107.544 66.1126 107.786 66.7677C108.024 67.4153 108.225 68.0673 108.39 68.7213C108.41 68.8013 108.38 68.9161 108.264 68.9876L103.642 71.8359C103.089 72.1764 102.739 72.7667 102.706 73.4149L102.63 74.8761C102.591 75.6259 102.981 76.3328 103.636 76.7003L107.848 79.0646C107.979 79.1382 108.008 79.2667 107.98 79.3504C107.539 80.6653 106.957 81.9293 106.243 83.1181C106.2 83.1901 106.094 83.2499 105.959 83.2141L105.702 84.1805L105.959 83.2141L100.869 81.8595C100.22 81.6866 99.5266 81.8562 99.03 82.3096L98.0193 83.2325C97.4943 83.7119 97.2675 84.4366 97.4255 85.1298L98.5469 90.048C98.5791 90.1889 98.5097 90.2944 98.4327 90.3326C97.8229 90.6352 97.1906 90.9082 96.5367 91.1493C95.8864 91.389 95.2316 91.5908 94.5749 91.7558C94.491 91.7769 94.3686 91.7409 94.3024 91.6108L92.0639 87.213C91.7395 86.5757 91.096 86.1636 90.3814 86.1355L88.8369 86.0749C88.1561 86.0482 87.5096 86.3744 87.1265 86.9378L87.9535 87.5001L87.1265 86.9378L84.2124 91.2238L85.0394 91.786L84.2124 91.2238C84.1336 91.3396 84.0135 91.3632 83.9335 91.3363L83.615 92.2842L83.9335 91.3363C82.6214 90.8953 81.36 90.3125 80.1737 89.5991C80.0981 89.5536 80.0366 89.4372 80.0886 89.296L81.7517 84.7827C82.0186 84.0583 81.8389 83.2448 81.2917 82.7002L80.2575 81.671C79.783 81.1987 79.1015 80.999 78.4472 81.1405L73.3927 82.2334Z" stroke="#283141" stroke-width="2"/>
</g>
<defs>
<clipPath id="clip0_272_5421">
<rect width="110" height="100" fill="white"/>
</clipPath>
</defs>
</svg>
