<svg width="110" height="100" viewBox="0 0 110 100" fill="none" xmlns="http://www.w3.org/2000/svg">
<g clip-path="url(#clip0_544_3467)">
<path d="M53.0042 81.9564L52.9004 82.7448L53.018 82.7602L53.1349 82.7407L53.0042 81.9564ZM8.03564 23.5098L7.29272 23.2264L7.24051 23.3633V23.5098H8.03564ZM93.1419 33.5288C93.1419 33.9679 93.4979 34.3239 93.9371 34.3239C94.3762 34.3239 94.7322 33.9679 94.7322 33.5288H93.1419ZM97.1776 57.8166C97.1776 58.2558 97.5336 58.6118 97.9727 58.6118C98.4118 58.6118 98.7678 58.2558 98.7678 57.8166H97.1776ZM101.213 62.0573C101.213 62.4965 101.569 62.8525 102.008 62.8525C102.447 62.8525 102.803 62.4965 102.803 62.0573H101.213ZM102.803 77.9599C102.803 77.5208 102.447 77.1648 102.008 77.1648C101.569 77.1648 101.213 77.5208 101.213 77.9599H102.803ZM94.7322 70.0086C94.7322 69.5695 94.3762 69.2135 93.9371 69.2135C93.4979 69.2135 93.1419 69.5695 93.1419 70.0086H94.7322ZM98.7678 74.2493C98.7678 73.8102 98.4118 73.4542 97.9727 73.4542C97.5336 73.4542 97.1776 73.8102 97.1776 74.2493H98.7678ZM97.4177 23.208L97.0436 23.9096L97.4177 23.208ZM96.7028 78.8464L96.5771 79.6316L96.7028 78.8464ZM92.8003 74.9572L92.8512 74.1637L92.8003 74.9572ZM101.268 25.8502L101.106 26.6287L101.268 25.8502ZM9.32534 78.8118L9.178 78.0304L9.32534 78.8118ZM100.789 83.5114L100.9 82.7241L100.789 83.5114ZM93.3219 19.4156L93.638 18.686L93.3219 19.4156ZM5.25033 83.4547L5.39291 84.2369L5.25033 83.4547ZM4.33483 25.7515L3.87147 25.1054L4.33483 25.7515ZM3.20487 26.4733V82.4085H4.79513V26.4733H3.20487ZM5.39291 84.2369C14.8891 82.5061 32.0607 80.0029 52.9004 82.7448L53.1079 81.1681C32.035 78.3956 14.6793 80.9278 5.10775 82.6724L5.39291 84.2369ZM53.7993 81.9564V25.4575H52.209V81.9564H53.7993ZM53.539 26.0458C56.5142 23.3411 62.9786 20.3741 70.4798 18.8389C77.9656 17.3069 86.2991 17.24 93.0058 20.1452L93.638 18.686C86.5157 15.6008 77.8146 15.7145 70.1609 17.2809C62.5225 18.8442 55.7426 21.8934 52.4693 24.8691L53.539 26.0458ZM92.8512 74.1637C84.872 73.6514 67.3205 73.6867 52.64 81.2496L53.3683 82.6633C67.6548 75.3034 84.8477 75.2434 92.7494 75.7507L92.8512 74.1637ZM53.1699 82.7341C58.7895 81.5365 66.7335 80.2919 74.74 79.5824C82.76 78.8717 90.7792 78.704 96.5771 79.6316L96.8284 78.0613C90.8315 77.1019 82.654 77.2846 74.5996 77.9983C66.5317 78.7133 58.5238 79.9672 52.8384 81.1787L53.1699 82.7341ZM97.7918 22.5064C97.3416 22.2663 96.7118 21.9473 96.0449 21.687C95.3951 21.4333 94.6324 21.2035 93.9371 21.2035V22.7938C94.3291 22.7938 94.8674 22.9344 95.4665 23.1683C96.0484 23.3955 96.6152 23.6812 97.0436 23.9096L97.7918 22.5064ZM101.43 25.0717C100.51 24.8807 99.0646 24.6626 97.9727 24.6626V26.2529C98.9093 26.2529 100.235 26.4478 101.106 26.6287L101.43 25.0717ZM53.489 24.8273C49.6877 21.9032 43.359 18.8774 36.0424 17.3225C28.7189 15.7661 20.3357 15.6686 12.4517 18.6871L13.0203 20.1722C20.5433 17.2919 28.5999 17.3666 35.7118 18.878C42.8304 20.3908 48.9323 23.3284 52.5194 26.0877L53.489 24.8273ZM11.2761 20.4052V73.7869H12.8664V20.4052H11.2761ZM13.4096 75.6456C19.9194 74.8072 35.1367 74.5527 52.6698 82.6778L53.3385 81.235C35.4778 72.958 19.9466 73.2003 13.2065 74.0684L13.4096 75.6456ZM53.2357 81.1957C48.8828 79.871 41.5826 78.3842 33.5328 77.5745C25.4866 76.7651 16.6282 76.6255 9.178 78.0304L9.47268 79.5932C16.7109 78.2282 25.399 78.3546 33.3737 79.1567C41.3448 79.9586 48.5398 81.4289 52.7727 82.7171L53.2357 81.1957ZM8.83077 77.7569V23.5098H7.24051V77.7569H8.83077ZM8.77855 23.7932C8.74988 23.8683 8.74662 23.8201 8.91889 23.6827C9.06606 23.5652 9.2895 23.4248 9.58823 23.2898C10.1834 23.0207 11.0328 22.7936 12.0713 22.7936V21.2033C10.8037 21.2033 9.73131 21.4799 8.93325 21.8406C8.53535 22.0205 8.19429 22.2264 7.92709 22.4396C7.68498 22.6327 7.41748 22.8994 7.29272 23.2264L8.77855 23.7932ZM4.7982 26.3977C5.2724 26.0576 6.21217 25.6761 8.03593 25.6762L8.03597 24.0859C6.00762 24.0859 4.70394 24.5084 3.87147 25.1054L4.7982 26.3977ZM53.1349 82.7407C58.7063 81.8122 76.0143 80.8236 100.678 84.2988L100.9 82.7241C76.1243 79.2332 58.6468 80.2099 52.8734 81.1721L53.1349 82.7407ZM93.1419 20.3675V33.5288H94.7322V20.3675H93.1419ZM98.7678 57.8166V24.142H97.1776V57.8166H98.7678ZM102.803 62.0573V26.7984H101.213V62.0573H102.803ZM102.803 82.4604V77.9599H101.213V82.4604H102.803ZM93.1419 70.0086V73.8912H94.7322V70.0086H93.1419ZM98.7678 77.7809V74.2493H97.1776V77.7809H98.7678ZM11.2761 73.7869C11.2761 74.9391 12.302 75.7883 13.4096 75.6456L13.2065 74.0684C13.0146 74.0931 12.8664 73.945 12.8664 73.7869H11.2761ZM97.0436 23.9096C97.1214 23.9511 97.1776 24.0385 97.1776 24.142H98.7678C98.7678 23.4665 98.4013 22.8314 97.7918 22.5064L97.0436 23.9096ZM96.5771 79.6316C97.7034 79.8118 98.7678 78.9567 98.7678 77.7809H97.1776C97.1776 77.9431 97.0234 78.0925 96.8284 78.0613L96.5771 79.6316ZM92.7494 75.7507C93.8246 75.8198 94.7322 74.969 94.7322 73.8912H93.1419C93.1419 74.0503 93.0103 74.1739 92.8512 74.1637L92.7494 75.7507ZM101.106 26.6287C101.135 26.6348 101.157 26.6487 101.175 26.6723C101.195 26.6982 101.213 26.7408 101.213 26.7984H102.803C102.803 26.0044 102.282 25.2489 101.43 25.0717L101.106 26.6287ZM9.178 78.0304C8.9878 78.0663 8.83077 77.9207 8.83077 77.7569H7.24051C7.24051 78.9468 8.33274 79.8081 9.47268 79.5932L9.178 78.0304ZM100.678 84.2988C101.788 84.4552 102.803 83.5985 102.803 82.4604H101.213C101.213 82.6149 101.07 82.748 100.9 82.7241L100.678 84.2988ZM93.0058 20.1452C93.0809 20.1778 93.1419 20.2592 93.1419 20.3675H94.7322C94.7322 19.6519 94.3188 18.9809 93.638 18.686L93.0058 20.1452ZM12.4517 18.6871C11.7339 18.9619 11.2761 19.6528 11.2761 20.4052H12.8664C12.8664 20.2954 12.933 20.2057 13.0203 20.1722L12.4517 18.6871ZM3.20487 82.4085C3.20487 83.5653 4.24845 84.4455 5.39291 84.2369L5.10775 82.6724C4.9461 82.7019 4.79513 82.5794 4.79513 82.4085H3.20487ZM4.79513 26.4733C4.79513 26.4306 4.80354 26.4022 4.80905 26.3898C4.81347 26.3798 4.81207 26.3877 4.7982 26.3977L3.87147 25.1054C3.38159 25.4567 3.20487 26.0093 3.20487 26.4733H4.79513Z" fill="#283141"/>
<circle cx="78.1896" cy="46.1323" r="16.3616" transform="rotate(-45 78.1896 46.1323)" stroke="#283141" stroke-width="2.47903"/>
<rect x="89.3682" y="59.1436" width="2.47903" height="6.67298" transform="rotate(-45 89.3682 59.1436)" fill="#283141"/>
<path d="M93.7454 65.9793C93.168 65.3979 93.1696 64.4589 93.749 63.8794L95.8562 61.7723C96.437 61.1914 97.3788 61.1914 97.9597 61.7723L108.861 72.6739C109.312 73.1242 109.312 73.8543 108.861 74.3045L106.244 76.9218C105.793 77.3732 105.06 77.3719 104.611 76.919L93.7454 65.9793Z" fill="#283141"/>
<path d="M85.2048 36.6093C82.1566 33.5612 77.5302 33.0532 73.9561 35.0854" stroke="#283141" stroke-width="1.72956" stroke-linecap="round"/>
</g>
<defs>
<clipPath id="clip0_544_3467">
<rect width="110" height="100" fill="white"/>
</clipPath>
</defs>
</svg>
