<svg width="110" height="100" viewBox="0 0 110 100" fill="none" xmlns="http://www.w3.org/2000/svg">
<g clip-path="url(#clip0_272_5348)">
<path d="M93.4445 19.2693V12.2246C93.4445 8.22595 90.2029 4.98438 86.2042 4.98438H20.3613C16.3627 4.98438 13.1211 8.22594 13.1211 12.2246V13.8707V61.4059M35.9424 89.8985H86.2042C90.2029 89.8985 93.4445 86.6569 93.4445 82.6582V49.9986" stroke="#283141" stroke-width="2.5" stroke-linecap="round"/>
<path d="M105.162 15.668L106.078 16.2941L106.994 16.9202C108.309 17.8189 108.647 19.6135 107.748 20.9286L106.183 23.2191L102.929 27.9798L87.8728 50.0116L80.9451 53.0705L81.2783 45.5048L96.3349 23.473L99.5883 18.7123L101.154 16.4218C102.052 15.1068 103.847 14.7693 105.162 15.668ZM80.2891 53.3602C80.2893 53.3601 80.2896 53.36 80.2899 53.3598L80.2891 53.3602ZM80.9136 53.7861C80.9136 53.7864 80.9136 53.7867 80.9136 53.787L80.9136 53.7861Z" stroke="#283141" stroke-width="2"/>
<path d="M81.7675 45.3604L87.7707 49.463M100.071 18.5771L106.074 22.6797M98.1778 21.3478L104.181 25.4504" stroke="#283141" stroke-width="1.4798" stroke-linecap="round"/>
<circle cx="19.142" cy="77.5676" r="4.93978" transform="rotate(4.22767 19.142 77.5676)" stroke="#283141" stroke-width="2"/>
<path d="M7.41497 90.366L7.91171 91.1822L7.41496 90.366C7.31108 90.4292 7.21375 90.4017 7.16744 90.3583C6.25327 89.5013 5.43247 88.5486 4.7202 87.5176C4.68275 87.4634 4.67115 87.3553 4.76314 87.2623L7.85204 84.1397C8.38589 83.6 8.55629 82.7987 8.28825 82.0885L7.82691 80.8661C7.59446 80.2502 7.06581 79.794 6.42253 79.6543L1.79741 78.6493C1.6783 78.6234 1.62821 78.5356 1.62652 78.47C1.60726 77.7254 1.62246 76.9047 1.66898 76.2753C1.71752 75.6187 1.80962 74.8646 1.93219 74.1633C1.94285 74.1023 2.00715 74.0187 2.13856 74.02L6.63384 74.0637C7.42405 74.0714 8.1401 73.5995 8.44458 72.8702L8.88171 71.8233C9.11463 71.2655 9.07447 70.631 8.77307 70.107L6.32545 65.8516C6.2662 65.7485 6.29363 65.6536 6.33642 65.6078C7.20133 64.6829 8.16416 63.8532 9.20676 63.1344C9.26059 63.0973 9.36689 63.0855 9.46002 63.1743L12.6807 66.2446C13.2077 66.747 13.9715 66.9124 14.6592 66.6729L16.049 66.1889L15.7201 65.2445L16.049 66.1889C16.6782 65.9698 17.1511 65.4433 17.3018 64.7943L18.4012 60.0594C19.0708 60.032 19.7494 60.0425 20.4345 60.0932C21.1197 60.1438 21.7924 60.2331 22.4507 60.3588L22.8426 65.2115C22.8955 65.867 23.2767 66.4512 23.8553 66.7637L25.0935 67.4324C25.7344 67.7786 26.5152 67.7369 27.1157 67.3244L30.8472 64.761C30.9523 64.6889 31.0546 64.7162 31.1021 64.7607C32.0146 65.6139 32.8344 66.5625 33.5464 67.5889L34.3681 67.0189L33.5465 67.5889C33.5821 67.6402 33.5955 67.7378 33.5227 67.8311L30.4985 71.7056C30.1169 72.1945 29.9918 72.8362 30.1618 73.4326L30.5506 74.797C30.7605 75.5333 31.3835 76.0775 32.1413 76.1866L36.4681 76.8096C36.5988 76.8284 36.6543 76.923 36.6564 76.9889C36.676 77.6054 36.6633 78.2292 36.6167 78.8587C36.5706 79.4825 36.4925 80.0959 36.384 80.6974C36.373 80.7587 36.3139 80.8371 36.1966 80.8519L31.2606 81.474C30.6274 81.5538 30.0739 81.9396 29.7799 82.5061L29.1757 83.6705C28.8356 84.3258 28.8966 85.1172 29.3329 85.7126L31.9407 89.2713C32.018 89.3768 31.9907 89.482 31.9456 89.5302C31.088 90.4468 30.1342 91.2698 29.1019 91.9839C29.0499 92.0198 28.9503 92.0328 28.8569 91.9562L25.1278 88.8972C24.6166 88.4779 23.9272 88.3474 23.2982 88.5511L22.1328 88.9284C21.4677 89.1437 20.9697 89.6999 20.8289 90.3847L19.8999 94.904C19.8746 95.027 19.784 95.0786 19.7196 95.0806C19.1036 95.1001 18.4802 95.0874 17.8512 95.0409C17.2257 94.9947 16.6107 94.9162 16.0075 94.8073C15.9438 94.7958 15.8611 94.7307 15.8555 94.6039L15.6575 90.0968C15.6266 89.3943 15.2184 88.7634 14.5903 88.4474L14.1409 89.3407L14.5903 88.4474L13.35 87.8234C12.7515 87.5223 12.04 87.551 11.4677 87.8993L7.41497 90.366ZM22.4354 60.1692L22.4355 60.1701C22.4354 60.1698 22.4354 60.1695 22.4354 60.1692L22.6972 60.1481L22.4354 60.1692Z" stroke="#283141" stroke-width="2"/>
<rect x="18.9336" y="9.00049" width="2.08281" height="2.08281" rx="0.520703" fill="#283141"/>
<rect x="23.0996" y="9.00049" width="2.08281" height="2.08281" rx="0.520703" fill="#283141"/>
<rect x="27.2656" y="9.00049" width="2.08281" height="2.08281" rx="0.520703" fill="#283141"/>
<path d="M86.4173 30.1103V24.061C86.4173 22.3974 85.0687 21.0488 83.4052 21.0488H65.3324C63.6689 21.0488 62.3203 22.3974 62.3203 24.061V37.1135C62.3203 38.7771 63.6689 40.1256 65.3324 40.1256H80.7696" stroke="#283141" stroke-width="1.5" stroke-linecap="round"/>
<path d="M39.7598 72.9072H85.5816M42.8739 82.2271H85.5816" stroke="#283141" stroke-width="1.5" stroke-linecap="round"/>
<path d="M19.1465 56.1907C19.1465 51.2 23.1922 47.1543 28.1829 47.1543C33.1735 47.1543 37.2192 51.2 37.2192 56.1907C37.2192 58.698 36.1981 60.9668 34.5489 62.6039" stroke="#283141" stroke-width="1.5" stroke-linecap="round"/>
<circle cx="53.2843" cy="56.1905" r="8.78234" stroke="#283141" stroke-width="1.5"/>
<path d="M78.384 47.1543C77.707 47.1543 77.0473 47.2288 76.4127 47.37C72.3701 48.2695 69.3477 51.8771 69.3477 56.1907C69.3477 61.1813 73.3934 65.2271 78.384 65.2271C83.3747 65.2271 87.4204 61.1813 87.4204 56.1907C87.4204 55.4106 87.3216 54.6536 87.1357 53.9316" stroke="#283141" stroke-width="1.5" stroke-linecap="round"/>
<path d="M13.625 15.0249H92.9443" stroke="#283141" stroke-width="2.5"/>
<rect x="19.8965" y="21.0752" width="36.6536" height="19.0299" rx="2.26213" stroke="#283141" stroke-width="1.5"/>
<path d="M20.4043 21.8569L56.0067 39.3104M20.4051 39.1929L56.0067 22.0337" stroke="#283141" stroke-width="1.5"/>
</g>
<defs>
<clipPath id="clip0_272_5348">
<rect width="110" height="100" fill="white"/>
</clipPath>
</defs>
</svg>
