<svg width="110" height="100" viewBox="0 0 110 100" fill="none" xmlns="http://www.w3.org/2000/svg">
<path d="M12.29 74.8975L12.29 59M40.3149 77.8736V86.8019C40.3149 87.0758 40.0865 87.2979 39.8125 87.298C20.7232 87.3059 12.29 87.7359 12.29 81.0977C12.29 74.1535 37.3388 74.8975 40.3149 74.8975H67.3477M12.29 29V26.288C12.29 24.3704 13.8446 22.8159 15.7621 22.8159H76M100.581 53.5V26.288C100.581 24.3704 99.0262 22.8159 97.1086 22.8159H93.5" stroke="#2D384C" stroke-width="2.5" stroke-linecap="round"/>
<mask id="path-2-inside-1_189_85" fill="white">
<path fill-rule="evenodd" clip-rule="evenodd" d="M108.999 53.5708L108.999 87.5036C108.999 87.7776 108.777 87.9996 108.503 87.9996H53.9586C52.9596 87.9996 52.5871 86.6896 53.4367 86.164L107.485 52.7271C108.146 52.3183 108.999 52.7936 108.999 53.5708ZM99.9998 68.9999L99.9998 77.9999H82.9998L99.9998 68.9999Z"/>
</mask>
<path d="M108.999 87.5036H111.499H108.999ZM108.999 53.5708H106.499V53.5708L108.999 53.5708ZM53.4367 86.164L54.752 88.29L54.752 88.29L53.4367 86.164ZM107.485 52.7271L108.801 54.8532V54.8532L107.485 52.7271ZM99.9998 77.9999V80.4999C100.663 80.4999 101.299 80.2365 101.768 79.7677C102.236 79.2988 102.5 78.663 102.5 77.9999H99.9998ZM99.9998 68.9999H102.5C102.5 68.1231 102.04 67.3104 101.289 66.8582C100.538 66.4059 99.605 66.3802 98.8301 66.7905L99.9998 68.9999ZM82.9998 77.9999L81.8301 75.7905C80.815 76.3279 80.2967 77.4878 80.5735 78.6026C80.8504 79.7173 81.8512 80.4999 82.9998 80.4999V77.9999ZM111.499 87.5036L111.499 53.5708L106.499 53.5708L106.499 87.5036H111.499ZM108.503 90.4996C110.158 90.4996 111.499 89.1583 111.499 87.5036H106.499C106.499 86.3968 107.396 85.4996 108.503 85.4996V90.4996ZM53.9586 90.4996H108.503V85.4996H53.9586V90.4996ZM52.1214 84.0379C49.1307 85.8881 50.4419 90.4996 53.9586 90.4996V85.4996C55.4773 85.4996 56.0435 87.491 54.752 88.29L52.1214 84.0379ZM106.17 50.6011L52.1214 84.0379L54.752 88.29L108.801 54.8532L106.17 50.6011ZM111.499 53.5708C111.499 50.8352 108.496 49.1619 106.17 50.6011L108.801 54.8532C107.796 55.4747 106.499 54.7521 106.499 53.5708H111.499ZM102.5 77.9999L102.5 68.9999L97.4998 68.9999L97.4998 77.9999L102.5 77.9999ZM82.9998 80.4999H99.9998V75.4999H82.9998V80.4999ZM98.8301 66.7905L81.8301 75.7905L84.1695 80.2094L101.17 71.2094L98.8301 66.7905Z" fill="#2D384C" mask="url(#path-2-inside-1_189_85)"/>
<path d="M66.5898 87.5038V83.5356M71.054 87.5038V85.2717" stroke="#2D384C" stroke-width="0.99203" stroke-linecap="round"/>
<path d="M62.0898 87.504V85.272" stroke="#2D384C" stroke-width="0.99203" stroke-linecap="round"/>
<path d="M83.7012 87.5038V83.5356M88.1653 87.5038V85.2717" stroke="#2D384C" stroke-width="0.99203" stroke-linecap="round"/>
<path d="M100.565 87.5038V83.5356M105.03 87.5038V85.2717" stroke="#2D384C" stroke-width="0.99203" stroke-linecap="round"/>
<path d="M75.2695 87.5038V83.5356M79.7337 87.5038V85.2717" stroke="#2D384C" stroke-width="0.99203" stroke-linecap="round"/>
<path d="M92.1328 87.5038V83.5356M96.5969 87.5038V85.2717" stroke="#2D384C" stroke-width="0.99203" stroke-linecap="round"/>
<circle cx="16.2589" cy="42.1619" r="4.85218" transform="rotate(4.22767 16.2589 42.1619)" stroke="#2D384C" stroke-width="2.2"/>
<path d="M25.149 37.2699L26.0162 37.9467L25.149 37.2699C24.7842 37.7374 24.6646 38.3509 24.8271 38.9212L25.1395 40.0173C25.3402 40.7214 25.9358 41.2418 26.6604 41.3461L30.0372 41.8323C30.0472 42.2762 30.036 42.7249 30.0025 43.1774C29.969 43.6314 29.9139 44.0782 29.8383 44.5171L25.9581 45.0062L26.0956 46.0975L25.9581 45.0062C25.3526 45.0825 24.8234 45.4514 24.5423 45.9931L25.5186 46.4997L24.5423 45.9931L24.0568 46.9286C23.7317 47.5551 23.79 48.3118 24.2072 48.8811L26.2438 51.6604C25.617 52.3184 24.9267 52.9135 24.1835 53.4365L21.2561 51.035C20.7673 50.6341 20.1081 50.5094 19.5067 50.7041L18.5704 51.0072C17.9344 51.2131 17.4582 51.745 17.3237 52.3997L16.5961 55.939C16.1498 55.9493 15.6987 55.9381 15.2437 55.9045C14.792 55.8711 14.3474 55.8164 13.9106 55.7414L13.7557 52.2151C13.7262 51.5434 13.3359 50.9402 12.7353 50.638L11.7388 50.1367C11.1665 49.8488 10.4863 49.8762 9.93907 50.2093L6.75945 52.1446C6.10305 51.5191 5.5092 50.8304 4.98718 50.0891L7.39924 47.6507L6.61721 46.8771L7.39925 47.6507C7.90969 47.1347 8.07262 46.3685 7.81633 45.6894L7.44568 44.7074C7.22343 44.1185 6.71795 43.6823 6.10288 43.5486L2.48054 42.7615C2.46966 42.2038 2.48252 41.607 2.51662 41.1457C2.55189 40.6686 2.61645 40.1251 2.70208 39.6094L6.20678 39.6435C6.96235 39.6509 7.647 39.1996 7.93813 38.5024L8.28933 37.6613C8.51203 37.1279 8.47363 36.5212 8.18545 36.0202L6.26224 32.6765C6.89527 32.0101 7.59347 31.4079 8.3456 30.8796L10.8632 33.2796C11.3671 33.76 12.0974 33.9181 12.7549 33.6892L13.8715 33.3003C14.4731 33.0908 14.9253 32.5874 15.0693 31.9669L13.9979 31.7181L15.0693 31.9669L15.9011 28.3847C16.3546 28.3735 16.813 28.3844 17.2755 28.4186C17.7379 28.4528 18.193 28.5094 18.6399 28.5871L18.9364 32.2588C18.987 32.8856 19.3514 33.4442 19.9047 33.743L20.8994 34.2802C21.5123 34.6112 22.2589 34.5714 22.833 34.177L25.7523 32.1715C26.409 32.7963 27.0032 33.4844 27.5257 34.2251L25.149 37.2699ZM2.59522 39.6084L2.59559 39.6084C2.59547 39.6084 2.59534 39.6084 2.59522 39.6084L2.59671 39.4557L2.59522 39.6084ZM25.831 32.1175C25.8309 32.1175 25.8308 32.1176 25.8307 32.1176L25.8309 32.1175L25.7496 31.9991L25.831 32.1175ZM27.5787 34.1571L27.5785 34.1574L27.5787 34.1571Z" stroke="#2D384C" stroke-width="2.2"/>
<path d="M95.3985 2.81859L96.2577 3.3146L97.1168 3.81061C98.1796 4.42423 98.5437 5.78325 97.9301 6.84607L96.6901 8.99388L94.1127 13.458L82.2358 34.0294L76.8632 36.9069L76.6688 30.8152L88.5457 10.2439L91.123 5.77974L92.3631 3.63193C92.9767 2.56912 94.3357 2.20497 95.3985 2.81859Z" stroke="#2D384C" stroke-width="2.5"/>
<mask id="path-13-inside-2_189_85" fill="white">
<rect x="37.5869" y="43.6484" width="48.6095" height="12.4004" rx="1.98406"/>
</mask>
<rect x="37.5869" y="43.6484" width="48.6095" height="12.4004" rx="1.98406" stroke="#2D384C" stroke-width="4" mask="url(#path-13-inside-2_189_85)"/>
<path d="M25.1855 61.0098H48.2503M25.1855 68.45H48.2503" stroke="#2D384C" stroke-width="2" stroke-linecap="round"/>
<path d="M37.5869 31.249H70.3239M37.5869 38.6892H70.3239" stroke="#2D384C" stroke-width="2" stroke-linecap="round"/>
<path d="M76.7373 30.564L82.3665 33.814M91.2373 5.44922L96.8665 8.69922M89.7373 8.04729L95.3665 11.2973" stroke="#2D384C" stroke-width="1.5" stroke-linecap="round"/>
</svg>
