<svg width="110" height="100" viewBox="0 0 110 100" fill="none" xmlns="http://www.w3.org/2000/svg">
<path d="M12.2891 74.8975L12.2891 59M40.3139 77.8736V86.8019C40.3139 87.0758 40.0855 87.2979 39.8116 87.298C20.7222 87.3059 12.2891 87.7359 12.2891 81.0977C12.2891 74.1535 37.3378 74.8975 40.3139 74.8975H67.3467M12.2891 29V26.288C12.2891 24.3704 13.8436 22.8159 15.7612 22.8159H75.999M100.58 53.5V26.288C100.58 24.3704 99.0252 22.8159 97.1077 22.8159H93.499" stroke="#283141" stroke-width="2.5" stroke-linecap="round"/>
<mask id="path-2-inside-1_189_85" fill="white">
<path fill-rule="evenodd" clip-rule="evenodd" d="M108.998 53.5708L108.998 87.5036C108.998 87.7776 108.776 87.9996 108.502 87.9996H53.9576C52.9586 87.9996 52.5861 86.6896 53.4357 86.164L107.484 52.7271C108.145 52.3183 108.998 52.7936 108.998 53.5708ZM99.9988 68.9999L99.9988 77.9999H82.9988L99.9988 68.9999Z"/>
</mask>
<path d="M108.998 87.5036H111.498H108.998ZM108.998 53.5708H106.498V53.5708L108.998 53.5708ZM53.4357 86.164L54.751 88.29L54.751 88.29L53.4357 86.164ZM107.484 52.7271L108.8 54.8532V54.8532L107.484 52.7271ZM99.9988 77.9999V80.4999C100.662 80.4999 101.298 80.2365 101.767 79.7677C102.235 79.2988 102.499 78.663 102.499 77.9999H99.9988ZM99.9988 68.9999H102.499C102.499 68.1231 102.04 67.3104 101.288 66.8582C100.537 66.4059 99.604 66.3802 98.8291 66.7905L99.9988 68.9999ZM82.9988 77.9999L81.8291 75.7905C80.814 76.3279 80.2957 77.4878 80.5726 78.6026C80.8494 79.7173 81.8502 80.4999 82.9988 80.4999V77.9999ZM111.498 87.5036L111.498 53.5708L106.498 53.5708L106.498 87.5036H111.498ZM108.502 90.4996C110.157 90.4996 111.498 89.1583 111.498 87.5036H106.498C106.498 86.3968 107.396 85.4996 108.502 85.4996V90.4996ZM53.9576 90.4996H108.502V85.4996H53.9576V90.4996ZM52.1205 84.0379C49.1297 85.8881 50.4409 90.4996 53.9576 90.4996V85.4996C55.4763 85.4996 56.0425 87.491 54.751 88.29L52.1205 84.0379ZM106.169 50.6011L52.1205 84.0379L54.751 88.29L108.8 54.8532L106.169 50.6011ZM111.498 53.5708C111.498 50.8352 108.495 49.1619 106.169 50.6011L108.8 54.8532C107.795 55.4747 106.498 54.7521 106.498 53.5708H111.498ZM102.499 77.9999L102.499 68.9999L97.4988 68.9999L97.4988 77.9999L102.499 77.9999ZM82.9988 80.4999H99.9988V75.4999H82.9988V80.4999ZM98.8291 66.7905L81.8291 75.7905L84.1686 80.2094L101.169 71.2094L98.8291 66.7905Z" fill="#283141" mask="url(#path-2-inside-1_189_85)"/>
<path d="M66.5889 87.5038V83.5356M71.053 87.5038V85.2717" stroke="#283141" stroke-width="0.99203" stroke-linecap="round"/>
<path d="M62.0889 87.504V85.272" stroke="#283141" stroke-width="0.99203" stroke-linecap="round"/>
<path d="M83.7002 87.5038V83.5356M88.1643 87.5038V85.2717" stroke="#283141" stroke-width="0.99203" stroke-linecap="round"/>
<path d="M100.564 87.5038V83.5356M105.029 87.5038V85.2717" stroke="#283141" stroke-width="0.99203" stroke-linecap="round"/>
<path d="M75.2686 87.5038V83.5356M79.7327 87.5038V85.2717" stroke="#283141" stroke-width="0.99203" stroke-linecap="round"/>
<path d="M92.1318 87.5038V83.5356M96.596 87.5038V85.2717" stroke="#283141" stroke-width="0.99203" stroke-linecap="round"/>
<circle cx="16.2593" cy="43.1616" r="3.95663" transform="rotate(4.22767 16.2593 43.1616)" stroke="#283141" stroke-width="1.73116"/>
<path d="M17.2094 30.3162C16.6563 30.2753 16.1087 30.27 15.569 30.2983C15.3393 30.3104 15.1487 30.4762 15.0967 30.7002L14.3022 34.1217C14.2514 34.3406 14.0919 34.5182 13.8796 34.5921L12.9131 34.9287C12.6812 35.0094 12.4236 34.9537 12.2458 34.7842L10.0061 32.6491C9.7191 32.3754 9.28191 32.327 8.95543 32.5521C8.18925 33.0803 7.48173 33.69 6.84613 34.3698C6.59439 34.639 6.55987 35.0415 6.74363 35.361L8.44575 38.3203C8.5474 38.497 8.56094 38.711 8.48239 38.8992L8.1784 39.6272C8.0757 39.8732 7.83419 40.0323 7.56767 40.0297L4.44158 39.9993C4.03424 39.9953 3.67639 40.2734 3.60626 40.6746C3.51705 41.1851 3.45018 41.7323 3.41473 42.2119C3.38036 42.6768 3.36967 43.2711 3.38354 43.8073C3.39351 44.1926 3.67326 44.5117 4.0499 44.5935L7.26629 45.2924C7.48326 45.3396 7.66156 45.4934 7.73996 45.7012L8.06079 46.5512C8.15119 46.7908 8.09372 47.061 7.91366 47.2431L5.76558 49.4146C5.48249 49.7008 5.42916 50.1453 5.65798 50.4765C6.18141 51.2341 6.78457 51.9342 7.45637 52.564C7.73106 52.8215 8.14404 52.8518 8.46567 52.656L11.284 50.9407C11.4771 50.8232 11.717 50.8135 11.9189 50.915L12.7814 51.349C12.9933 51.4556 13.1309 51.6684 13.1414 51.9053L13.2791 55.0396C13.2962 55.4306 13.5709 55.7654 13.956 55.8349C14.3993 55.915 14.8511 55.9726 15.3104 56.0065C15.7722 56.0407 16.2302 56.05 16.683 56.0357C17.0704 56.0234 17.3895 55.7376 17.4675 55.3578L18.1136 52.2151C18.161 51.9841 18.329 51.7965 18.5534 51.7238L19.3638 51.4615C19.5759 51.3928 19.8085 51.4368 19.9809 51.5782L22.5741 53.7055C22.8634 53.9428 23.2735 53.9719 23.5812 53.759C24.3398 53.2342 25.0407 52.6295 25.671 51.9559C25.946 51.6619 25.9586 51.2144 25.7207 50.8897L23.9072 48.4149C23.76 48.2141 23.7394 47.9472 23.8541 47.7262L24.2743 46.9164C24.3735 46.7253 24.5602 46.5952 24.7738 46.5683L28.2063 46.1357C28.5699 46.0898 28.8691 45.8223 28.9341 45.4617C29.0138 45.0195 29.0712 44.5689 29.105 44.1109C29.1392 43.6487 29.1485 43.1904 29.1342 42.7373C29.1213 42.3315 28.8091 42.0042 28.4072 41.9463L25.3983 41.5131C25.1427 41.4763 24.9326 41.2928 24.8618 41.0444L24.5914 40.0956C24.5341 39.8945 24.5763 39.678 24.705 39.5131L26.8081 36.8187C27.034 36.5293 27.0571 36.1277 26.8478 35.826C26.3245 35.0717 25.7221 34.3747 25.0515 33.7477C24.7644 33.4792 24.3295 33.4601 24.0055 33.6827L21.4106 35.4653C21.208 35.6044 20.9447 35.6185 20.7285 35.5017L19.8675 35.0367C19.6723 34.9313 19.5438 34.7342 19.5259 34.5132L19.2427 31.0067C19.2242 30.7775 19.06 30.5854 18.8347 30.5397C18.305 30.4324 17.7626 30.3571 17.2094 30.3162Z" stroke="#283141" stroke-width="1.73116"/>
<path d="M95.3985 2.81859L96.2577 3.3146L97.1168 3.81061C98.1796 4.42423 98.5437 5.78325 97.9301 6.84607L96.6901 8.99388L94.1127 13.458L82.2358 34.0294L76.8632 36.9069L76.6688 30.8152L88.5457 10.2439L91.123 5.77974L92.3631 3.63193C92.9767 2.56912 94.3357 2.20497 95.3985 2.81859Z" stroke="#283141" stroke-width="2.5"/>
<mask id="path-13-inside-2_189_85" fill="white">
<rect x="37.5859" y="43.6484" width="48.6095" height="12.4004" rx="1.98406"/>
</mask>
<rect x="37.5859" y="43.6484" width="48.6095" height="12.4004" rx="1.98406" stroke="#283141" stroke-width="4" mask="url(#path-13-inside-2_189_85)"/>
<path d="M25.1846 61.0098H48.2493M25.1846 68.45H48.2493" stroke="#283141" stroke-width="2" stroke-linecap="round"/>
<path d="M37.5859 31.249H70.3229M37.5859 38.6892H70.3229" stroke="#283141" stroke-width="2" stroke-linecap="round"/>
<path d="M76.7373 30.564L82.3665 33.814M91.2373 5.44922L96.8665 8.69922M89.7373 8.04729L95.3665 11.2973" stroke="#283141" stroke-width="1.5" stroke-linecap="round"/>
</svg>
