<svg width="110" height="100" viewBox="0 0 110 100" fill="none" xmlns="http://www.w3.org/2000/svg">
<g clip-path="url(#clip0_463_2870)">
<path d="M93.4445 19.2693V12.2246C93.4445 8.22595 90.2029 4.98438 86.2042 4.98438H20.3613C16.3627 4.98438 13.1211 8.22594 13.1211 12.2246V13.8707V61.4059M35.9424 89.8985H86.2042C90.2029 89.8985 93.4445 86.6569 93.4445 82.6582V49.9986" stroke="#283141" stroke-width="2.5" stroke-linecap="round"/>
<path d="M106.069 15.6677L106.985 16.2939L107.902 16.92C109.217 17.8187 109.554 19.6133 108.655 20.9283L107.09 23.2188L103.837 27.9795L88.7801 50.0114L81.8524 53.0703L82.1855 45.5046L97.2421 23.4728L100.496 18.7121L102.061 16.4216C102.96 15.1065 104.754 14.769 106.069 15.6677ZM81.1963 53.36C81.1966 53.3598 81.1968 53.3597 81.1971 53.3596L81.1963 53.36ZM81.8208 53.7859C81.8208 53.7862 81.8208 53.7865 81.8208 53.7868L81.8208 53.7859Z" stroke="#283141" stroke-width="2"/>
<path d="M82.6748 45.3607L88.6779 49.4632M100.979 18.5774L106.982 22.68M99.085 21.3481L105.088 25.4506" stroke="#283141" stroke-width="1.4798" stroke-linecap="round"/>
<circle cx="19.142" cy="77.5676" r="5.36673" transform="rotate(4.22767 19.142 77.5676)" stroke="#283141" stroke-width="1.80705"/>
<path d="M20.3766 60.878C19.658 60.8248 18.9465 60.8179 18.2453 60.8547C17.9469 60.8704 17.6992 61.0858 17.6316 61.3768L16.5994 65.8223C16.5334 66.1067 16.3261 66.3374 16.0504 66.4334L14.7947 66.8707C14.4933 66.9757 14.1586 66.9032 13.9277 66.683L11.0177 63.9089C10.6448 63.5534 10.0768 63.4905 9.65261 63.783C8.65714 64.4693 7.73789 65.2614 6.91208 66.1446C6.58502 66.4943 6.54015 67.0173 6.77891 67.4324L8.99039 71.2773C9.12247 71.5069 9.14007 71.7849 9.038 72.0294L8.64304 72.9753C8.50961 73.2949 8.19583 73.5017 7.84955 73.4983L3.78796 73.4588C3.25872 73.4536 2.79379 73.8148 2.70267 74.3362C2.58677 74.9994 2.49988 75.7104 2.45382 76.3334C2.40916 76.9376 2.39528 77.7096 2.4133 78.4063C2.42625 78.9069 2.78972 79.3215 3.27907 79.4278L7.45798 80.3359C7.73987 80.3971 7.97154 80.597 8.0734 80.8669L8.49023 81.9714C8.60769 82.2826 8.53302 82.6337 8.29908 82.8702L5.50818 85.6916C5.14037 86.0635 5.07108 86.641 5.36838 87.0713C6.04845 88.0556 6.8321 88.9652 7.70494 89.7835C8.06184 90.1181 8.5984 90.1574 9.01628 89.9031L12.678 87.6744C12.9288 87.5217 13.2406 87.5091 13.5029 87.6411L14.6235 88.2049C14.8988 88.3434 15.0777 88.6198 15.0912 88.9277L15.2701 93C15.2924 93.5079 15.6493 93.9429 16.1496 94.0333C16.7256 94.1372 17.3126 94.2121 17.9093 94.2562C18.5093 94.3006 19.1044 94.3127 19.6926 94.2941C20.1961 94.2782 20.6105 93.9068 20.712 93.4134L21.5513 89.3301C21.613 89.03 21.8313 88.7863 22.1227 88.6919L23.1757 88.351C23.4513 88.2618 23.7535 88.3189 23.9775 88.5027L27.3467 91.2666C27.7226 91.575 28.2554 91.6127 28.6552 91.3361C29.6408 90.6543 30.5515 89.8685 31.3703 88.9934C31.7277 88.6115 31.7441 88.03 31.4349 87.6082L29.0787 84.3928C28.8875 84.1318 28.8608 83.785 29.0098 83.4979L29.5558 82.4458C29.6846 82.1976 29.9272 82.0285 30.2046 81.9935L34.6644 81.4314C35.1368 81.3719 35.5255 81.0243 35.61 80.5558C35.7135 79.9813 35.7881 79.3958 35.8321 78.8008C35.8765 78.2003 35.8886 77.6048 35.8699 77.0161C35.8532 76.4888 35.4476 76.0636 34.9254 75.9884L31.0161 75.4256C30.684 75.3778 30.411 75.1393 30.3191 74.8166L29.9677 73.5839C29.8932 73.3225 29.9481 73.0413 30.1153 72.8271L32.8477 69.3264C33.1413 68.9503 33.1712 68.4286 32.8993 68.0366C32.2195 67.0566 31.4368 66.151 30.5656 65.3363C30.1925 64.9875 29.6275 64.9627 29.2065 65.2518L25.835 67.5679C25.5719 67.7487 25.2297 67.7669 24.9488 67.6152L23.8301 67.011C23.5766 66.8741 23.4096 66.6181 23.3864 66.3308L23.0184 61.775C22.9944 61.4773 22.7811 61.2277 22.4883 61.1684C21.8 61.0289 21.0953 60.9311 20.3766 60.878Z" stroke="#283141" stroke-width="1.80705"/>
<rect x="18.9336" y="9.00049" width="2.08281" height="2.08281" rx="0.520703" fill="#283141"/>
<rect x="23.0996" y="9.00049" width="2.08281" height="2.08281" rx="0.520703" fill="#283141"/>
<rect x="27.2656" y="9.00049" width="2.08281" height="2.08281" rx="0.520703" fill="#283141"/>
<path d="M86.4173 31.133V24.061C86.4173 22.3974 85.0687 21.0488 83.4052 21.0488H68.3529C66.6894 21.0488 65.3408 22.3974 65.3408 24.061V39.2664C65.3408 40.93 66.6894 42.2786 68.3529 42.2786H80.242" stroke="#283141" stroke-width="1.5" stroke-linecap="round"/>
<path d="M39.7598 72.9072H85.5816M42.8739 82.2271H85.5816" stroke="#283141" stroke-width="1.5" stroke-linecap="round"/>
<path d="M19.1465 56.4778C19.1465 51.4871 23.1922 47.4414 28.1829 47.4414C33.1735 47.4414 37.2192 51.4871 37.2192 56.4778C37.2192 58.9851 36.1981 61.2539 34.5489 62.891" stroke="#283141" stroke-width="1.5" stroke-linecap="round"/>
<circle cx="53.2843" cy="56.4776" r="8.78234" stroke="#283141" stroke-width="1.5"/>
<path d="M78.384 47.4414C77.707 47.4414 77.0473 47.5159 76.4127 47.6571C72.3701 48.5566 69.3477 52.1642 69.3477 56.4778C69.3477 61.4684 73.3934 65.5142 78.384 65.5142C83.3747 65.5142 87.4204 61.4684 87.4204 56.4778C87.4204 55.6977 87.3216 54.9407 87.1357 54.2187" stroke="#283141" stroke-width="1.5" stroke-linecap="round"/>
<path d="M13.625 15.0249H92.9443" stroke="#283141" stroke-width="2.5"/>
<rect x="19.8965" y="21.0752" width="40.6699" height="21.1731" rx="2.26213" stroke="#283141" stroke-width="1.5"/>
<circle cx="25.9614" cy="27.0054" r="2.5874" stroke="#283141" stroke-width="1.5"/>
<path d="M25.4268 41.958L35.2443 30.8647L42.1177 36.0331L51.4404 26.1616L60.3473 34.594" stroke="#283141" stroke-width="1.5" stroke-linecap="round"/>
</g>
<defs>
<clipPath id="clip0_463_2870">
<rect width="110" height="100" fill="white"/>
</clipPath>
</defs>
</svg>
