<svg width="110" height="100" viewBox="0 0 110 100" fill="none" xmlns="http://www.w3.org/2000/svg">
<g clip-path="url(#clip0_463_2870)">
<path d="M93.4445 19.2693V12.2246C93.4445 8.22595 90.2029 4.98438 86.2042 4.98438H20.3613C16.3627 4.98438 13.1211 8.22594 13.1211 12.2246V13.8707V61.4059M35.9424 89.8985H86.2042C90.2029 89.8985 93.4445 86.6569 93.4445 82.6582V49.9986" stroke="#283141" stroke-width="2.5" stroke-linecap="round"/>
<path d="M106.069 15.6677L106.985 16.2939L107.902 16.92C109.217 17.8187 109.554 19.6133 108.655 20.9283L107.09 23.2188L103.837 27.9795L88.7801 50.0114L81.8524 53.0703L82.1855 45.5046L97.2421 23.4728L100.496 18.7121L102.061 16.4216C102.96 15.1065 104.754 14.769 106.069 15.6677ZM81.1963 53.36C81.1966 53.3598 81.1968 53.3597 81.1971 53.3596L81.1963 53.36ZM81.8208 53.7859C81.8208 53.7862 81.8208 53.7865 81.8208 53.7868L81.8208 53.7859Z" stroke="#283141" stroke-width="2"/>
<path d="M82.6748 45.3607L88.6779 49.4632M100.979 18.5774L106.982 22.68M99.085 21.3481L105.088 25.4506" stroke="#283141" stroke-width="1.4798" stroke-linecap="round"/>
<circle cx="19.142" cy="77.5676" r="4.93978" transform="rotate(4.22767 19.142 77.5676)" stroke="#283141" stroke-width="2"/>
<path d="M7.41497 90.366L7.91171 91.1822L7.41496 90.366C7.31108 90.4292 7.21375 90.4017 7.16744 90.3583C6.25327 89.5013 5.43247 88.5486 4.7202 87.5176C4.68275 87.4634 4.67115 87.3553 4.76314 87.2623L7.85204 84.1397C8.38589 83.6 8.55629 82.7987 8.28825 82.0885L7.82691 80.8661C7.59446 80.2502 7.06581 79.794 6.42253 79.6543L1.79741 78.6493C1.6783 78.6234 1.62821 78.5356 1.62652 78.47C1.60726 77.7254 1.62246 76.9047 1.66898 76.2753C1.71752 75.6187 1.80962 74.8646 1.93219 74.1633C1.94285 74.1023 2.00715 74.0187 2.13856 74.02L6.63384 74.0637C7.42405 74.0714 8.1401 73.5995 8.44458 72.8702L8.88171 71.8233C9.11463 71.2655 9.07447 70.631 8.77307 70.107L6.32545 65.8516C6.2662 65.7485 6.29363 65.6536 6.33642 65.6078C7.20133 64.6829 8.16416 63.8532 9.20676 63.1344C9.26059 63.0973 9.36689 63.0855 9.46002 63.1743L12.6807 66.2446C13.2077 66.747 13.9715 66.9124 14.6592 66.6729L16.049 66.1889L15.7201 65.2445L16.049 66.1889C16.6782 65.9698 17.1511 65.4433 17.3018 64.7943L18.4012 60.0594C19.0708 60.032 19.7494 60.0425 20.4345 60.0932C21.1197 60.1438 21.7924 60.2331 22.4507 60.3588L22.8426 65.2115C22.8955 65.867 23.2767 66.4512 23.8553 66.7637L25.0935 67.4324C25.7344 67.7786 26.5152 67.7369 27.1157 67.3244L30.8472 64.761C30.9523 64.6889 31.0546 64.7162 31.1021 64.7607C32.0146 65.6139 32.8344 66.5625 33.5464 67.5889L34.3681 67.0189L33.5465 67.5889C33.5821 67.6402 33.5955 67.7378 33.5227 67.8311L30.4985 71.7056C30.1169 72.1945 29.9918 72.8362 30.1618 73.4326L30.5506 74.7969C30.7605 75.5333 31.3835 76.0775 32.1413 76.1866L36.4681 76.8096C36.5988 76.8284 36.6543 76.923 36.6564 76.9889C36.676 77.6054 36.6633 78.2292 36.6167 78.8587C36.5706 79.4825 36.4925 80.0959 36.384 80.6974C36.373 80.7587 36.3139 80.8371 36.1966 80.8519L31.2606 81.474C30.6274 81.5538 30.0739 81.9396 29.7799 82.5061L29.1757 83.6705C28.8356 84.3258 28.8966 85.1172 29.3329 85.7126L31.9407 89.2713C32.018 89.3768 31.9907 89.482 31.9456 89.5302C31.088 90.4468 30.1342 91.2698 29.1019 91.9839C29.0499 92.0198 28.9503 92.0328 28.8569 91.9562L25.1278 88.8972C24.6166 88.4779 23.9272 88.3474 23.2982 88.5511L22.1328 88.9284C21.4677 89.1437 20.9697 89.6999 20.8289 90.3847L19.8999 94.904C19.8746 95.027 19.784 95.0786 19.7196 95.0806C19.1036 95.1001 18.4802 95.0874 17.8512 95.0409C17.2257 94.9947 16.6107 94.9162 16.0075 94.8073C15.9438 94.7958 15.8611 94.7307 15.8555 94.6039L15.6575 90.0968C15.6266 89.3943 15.2184 88.7634 14.5903 88.4474L14.1409 89.3407L14.5903 88.4474L13.35 87.8234C12.7515 87.5223 12.04 87.551 11.4677 87.8993L7.41497 90.366ZM22.4354 60.1692L22.4355 60.1701C22.4354 60.1698 22.4354 60.1695 22.4354 60.1692L22.6972 60.1481L22.4354 60.1692Z" stroke="#283141" stroke-width="2"/>
<rect x="18.9336" y="9.00049" width="2.08281" height="2.08281" rx="0.520703" fill="#283141"/>
<rect x="23.0996" y="9.00049" width="2.08281" height="2.08281" rx="0.520703" fill="#283141"/>
<rect x="27.2656" y="9.00049" width="2.08281" height="2.08281" rx="0.520703" fill="#283141"/>
<path d="M86.4173 31.133V24.061C86.4173 22.3974 85.0687 21.0488 83.4052 21.0488H68.3529C66.6894 21.0488 65.3408 22.3974 65.3408 24.061V39.2664C65.3408 40.93 66.6894 42.2786 68.3529 42.2786H80.242" stroke="#283141" stroke-width="1.5" stroke-linecap="round"/>
<path d="M39.7598 72.9072H85.5816M42.8739 82.2271H85.5816" stroke="#283141" stroke-width="1.5" stroke-linecap="round"/>
<path d="M19.1465 56.4778C19.1465 51.4871 23.1922 47.4414 28.1829 47.4414C33.1735 47.4414 37.2192 51.4871 37.2192 56.4778C37.2192 58.9851 36.1981 61.2539 34.5489 62.891" stroke="#283141" stroke-width="1.5" stroke-linecap="round"/>
<circle cx="53.2843" cy="56.4776" r="8.78234" stroke="#283141" stroke-width="1.5"/>
<path d="M78.384 47.4414C77.707 47.4414 77.0473 47.5159 76.4127 47.6571C72.3701 48.5566 69.3477 52.1642 69.3477 56.4778C69.3477 61.4684 73.3934 65.5142 78.384 65.5142C83.3747 65.5142 87.4204 61.4684 87.4204 56.4778C87.4204 55.6977 87.3216 54.9407 87.1357 54.2187" stroke="#283141" stroke-width="1.5" stroke-linecap="round"/>
<path d="M13.625 15.0249H92.9443" stroke="#283141" stroke-width="2.5"/>
<rect x="19.8965" y="21.0752" width="40.6699" height="21.1731" rx="2.26213" stroke="#283141" stroke-width="1.5"/>
<circle cx="25.9614" cy="27.0054" r="2.5874" stroke="#283141" stroke-width="1.5"/>
<path d="M25.4268 41.958L35.2443 30.8647L42.1177 36.0331L51.4404 26.1616L60.3473 34.594" stroke="#283141" stroke-width="1.5" stroke-linecap="round"/>
</g>
<defs>
<clipPath id="clip0_463_2870">
<rect width="110" height="100" fill="white"/>
</clipPath>
</defs>
</svg>
