<svg width="110" height="100" viewBox="0 0 110 100" fill="none" xmlns="http://www.w3.org/2000/svg">
<path d="M12.29 77.8975L12.29 62M40.3149 80.8736V89.8019C40.3149 90.0758 40.0865 90.2979 39.8125 90.298C20.7232 90.3059 12.29 90.7359 12.29 84.0977C12.29 77.1535 37.3388 77.8975 40.3149 77.8975H67.3477M12.29 32V29.288C12.29 27.3704 13.8446 25.8159 15.7621 25.8159H76M100.581 56.5V29.288C100.581 27.3704 99.0262 25.8159 97.1086 25.8159H93.5" stroke="#131336" stroke-width="2.5" stroke-linecap="round"/>
<mask id="path-2-inside-1_189_85" fill="white">
<path fill-rule="evenodd" clip-rule="evenodd" d="M108.999 56.5708L108.999 90.5036C108.999 90.7776 108.777 90.9996 108.503 90.9996H53.9586C52.9596 90.9996 52.5871 89.6896 53.4367 89.164L107.485 55.7271C108.146 55.3183 108.999 55.7936 108.999 56.5708ZM99.9998 71.9999L99.9998 80.9999H82.9998L99.9998 71.9999Z"/>
</mask>
<path d="M108.999 90.5036L111.499 90.5036L111.499 90.5036L108.999 90.5036ZM108.999 56.5708L106.499 56.5708L106.499 56.5708L108.999 56.5708ZM53.4367 89.164L54.752 91.29L54.752 91.29L53.4367 89.164ZM107.485 55.7271L108.801 57.8532L108.801 57.8532L107.485 55.7271ZM99.9998 80.9999V83.4999C100.663 83.4999 101.299 83.2365 101.768 82.7677C102.236 82.2988 102.5 81.663 102.5 80.9999L99.9998 80.9999ZM99.9998 71.9999L102.5 71.9999C102.5 71.1231 102.04 70.3104 101.289 69.8582C100.538 69.4059 99.605 69.3802 98.8301 69.7905L99.9998 71.9999ZM82.9998 80.9999L81.8301 78.7905C80.815 79.3279 80.2967 80.4878 80.5735 81.6026C80.8504 82.7173 81.8512 83.4999 82.9998 83.4999V80.9999ZM111.499 90.5036L111.499 56.5708L106.499 56.5708L106.499 90.5036L111.499 90.5036ZM108.503 93.4996C110.158 93.4996 111.499 92.1583 111.499 90.5036H106.499C106.499 89.3968 107.396 88.4996 108.503 88.4996V93.4996ZM53.9586 93.4996H108.503V88.4996H53.9586V93.4996ZM52.1214 87.0379C49.1307 88.8881 50.4419 93.4996 53.9586 93.4996V88.4996C55.4773 88.4996 56.0435 90.491 54.752 91.29L52.1214 87.0379ZM106.17 53.6011L52.1214 87.0379L54.752 91.29L108.801 57.8532L106.17 53.6011ZM111.499 56.5708C111.499 53.8352 108.496 52.1619 106.17 53.6011L108.801 57.8532C107.796 58.4747 106.499 57.7521 106.499 56.5708H111.499ZM102.5 80.9999L102.5 71.9999L97.4998 71.9999L97.4998 80.9999L102.5 80.9999ZM82.9998 83.4999H99.9998V78.4999H82.9998V83.4999ZM98.8301 69.7905L81.8301 78.7905L84.1695 83.2094L101.17 74.2094L98.8301 69.7905Z" fill="#131336" mask="url(#path-2-inside-1_189_85)"/>
<path d="M66.5898 90.5038V86.5356M71.054 90.5038V88.2717" stroke="#131336" stroke-width="0.99203" stroke-linecap="round"/>
<path d="M62.0898 90.504V88.272" stroke="#131336" stroke-width="0.99203" stroke-linecap="round"/>
<path d="M83.7012 90.5038V86.5356M88.1653 90.5038V88.2717" stroke="#131336" stroke-width="0.99203" stroke-linecap="round"/>
<path d="M100.565 90.5038V86.5356M105.03 90.5038V88.2717" stroke="#131336" stroke-width="0.99203" stroke-linecap="round"/>
<path d="M75.2695 90.5038V86.5356M79.7337 90.5038V88.2717" stroke="#131336" stroke-width="0.99203" stroke-linecap="round"/>
<path d="M92.1328 90.5038V86.5356M96.5969 90.5038V88.2717" stroke="#131336" stroke-width="0.99203" stroke-linecap="round"/>
<circle cx="16.2589" cy="45.1619" r="4.85218" transform="rotate(4.22767 16.2589 45.1619)" stroke="#131336" stroke-width="2.2"/>
<path d="M25.149 40.2699L26.0162 40.9467L25.149 40.2699C24.7842 40.7374 24.6646 41.3509 24.8271 41.9212L25.1395 43.0173C25.3402 43.7214 25.9358 44.2418 26.6604 44.3461L30.0372 44.8323C30.0472 45.2762 30.036 45.7249 30.0025 46.1774C29.969 46.6314 29.9139 47.0782 29.8383 47.5171L25.9581 48.0062L26.0956 49.0975L25.9581 48.0062C25.3526 48.0825 24.8234 48.4514 24.5423 48.9931L25.5186 49.4997L24.5423 48.9931L24.0568 49.9286C23.7317 50.5551 23.79 51.3118 24.2072 51.8811L26.2438 54.6604C25.617 55.3184 24.9267 55.9135 24.1835 56.4365L21.2561 54.035C20.7673 53.6341 20.1081 53.5094 19.5067 53.7041L18.5704 54.0072C17.9344 54.2131 17.4582 54.745 17.3237 55.3997L16.5961 58.939C16.1498 58.9493 15.6987 58.9381 15.2437 58.9045C14.792 58.8711 14.3474 58.8164 13.9106 58.7414L13.7557 55.2151C13.7262 54.5434 13.3359 53.9402 12.7353 53.638L11.7388 53.1367C11.1665 52.8488 10.4863 52.8762 9.93907 53.2093L6.75945 55.1446C6.10305 54.5191 5.5092 53.8304 4.98718 53.0891L7.39924 50.6507L6.61721 49.8771L7.39925 50.6507C7.90969 50.1347 8.07262 49.3685 7.81633 48.6894L7.44568 47.7074C7.22343 47.1185 6.71795 46.6823 6.10288 46.5486L2.48054 45.7615C2.46966 45.2038 2.48252 44.607 2.51662 44.1457C2.55189 43.6686 2.61645 43.1251 2.70208 42.6094L6.20678 42.6435C6.96235 42.6509 7.647 42.1996 7.93813 41.5024L8.28933 40.6613C8.51203 40.1279 8.47363 39.5212 8.18545 39.0202L6.26224 35.6765C6.89527 35.0101 7.59347 34.4079 8.3456 33.8796L10.8632 36.2796C11.3671 36.76 12.0974 36.9181 12.7549 36.6892L13.8715 36.3003C14.4731 36.0908 14.9253 35.5874 15.0693 34.9669L13.9979 34.7181L15.0693 34.9669L15.9011 31.3847C16.3546 31.3735 16.813 31.3844 17.2755 31.4186C17.7379 31.4528 18.193 31.5094 18.6399 31.5871L18.9364 35.2588C18.987 35.8856 19.3514 36.4442 19.9047 36.743L20.8994 37.2802C21.5123 37.6112 22.2589 37.5714 22.833 37.177L25.7523 35.1715C26.409 35.7963 27.0032 36.4844 27.5257 37.2251L25.149 40.2699ZM2.59522 42.6084L2.59559 42.6084C2.59547 42.6084 2.59534 42.6084 2.59522 42.6084L2.59671 42.4557L2.59522 42.6084ZM25.831 35.1175C25.8309 35.1175 25.8308 35.1176 25.8307 35.1176L25.8309 35.1175L25.7496 34.9991L25.831 35.1175ZM27.5787 37.1571L27.5785 37.1574L27.5787 37.1571Z" stroke="#131336" stroke-width="2.2"/>
<path d="M95.3985 5.81859L96.2577 6.3146L97.1168 6.81061C98.1796 7.42423 98.5437 8.78325 97.9301 9.84607L96.6901 11.9939L94.1127 16.458L82.2358 37.0294L76.8632 39.9069L76.6688 33.8152L88.5457 13.2439L91.123 8.77974L92.3631 6.63193C92.9767 5.56912 94.3357 5.20497 95.3985 5.81859Z" stroke="#131336" stroke-width="2.5"/>
<mask id="path-13-inside-2_189_85" fill="white">
<rect x="37.5869" y="46.6484" width="48.6095" height="12.4004" rx="1.98406"/>
</mask>
<rect x="37.5869" y="46.6484" width="48.6095" height="12.4004" rx="1.98406" stroke="#131336" stroke-width="4" mask="url(#path-13-inside-2_189_85)"/>
<path d="M25.1855 64.0098H48.2503M25.1855 71.45H48.2503" stroke="#131336" stroke-width="2" stroke-linecap="round"/>
<path d="M37.5869 34.249H70.3239M37.5869 41.6892H70.3239" stroke="#131336" stroke-width="2" stroke-linecap="round"/>
<path d="M76.7373 33.564L82.3665 36.814M91.2373 8.44922L96.8665 11.6992M89.7373 11.0473L95.3665 14.2973" stroke="#131336" stroke-width="1.5" stroke-linecap="round"/>
</svg>
