<svg width="110" height="100" viewBox="0 0 110 100" fill="none" xmlns="http://www.w3.org/2000/svg">
<path d="M44.4201 77.153C56.7412 82.1426 71.3866 79.6418 81.378 69.6504C90.6689 60.3594 93.4828 47.044 89.8194 35.3154M23.3337 49.3389C22.2186 39.3805 25.4794 29.025 33.116 21.3884C41.3876 13.1168 52.8489 9.97905 63.5405 11.9751" stroke="#283141" stroke-width="5" stroke-linecap="round"/>
<rect x="79.7939" y="71.7632" width="5" height="13.1585" transform="rotate(-45 79.7939 71.7632)" fill="#283141"/>
<path d="M88.635 85.6067C87.4634 84.4351 87.4634 82.5356 88.635 81.364L92.8776 77.1214C94.0492 75.9498 95.9487 75.9498 97.1203 77.1214L109.848 89.8493L101.363 98.3346L88.635 85.6067Z" fill="#283141"/>
<circle cx="57" cy="38.3154" r="7.75" stroke="#283141" stroke-width="2.5"/>
<path d="M70 61.3154V58.3154C70 53.3449 65.9706 49.3154 61 49.3154H53C48.0294 49.3154 44 53.3449 44 58.3154V61.3154" stroke="#283141" stroke-width="2.5" stroke-linecap="round"/>
<path d="M75.1798 26.8489L75.5673 25.9372L74.7682 25.3516C71.2796 22.7953 69.25 19.3611 69.25 15.6829C69.25 12.0129 71.2704 8.58605 74.7448 6.03137C78.2186 3.47714 83.0777 1.85938 88.5 1.85938C93.9223 1.85938 98.7814 3.47714 102.255 6.03137C105.73 8.58605 107.75 12.0129 107.75 15.6829C107.75 19.3529 105.73 22.7798 102.255 25.3344C98.7814 27.8887 93.9223 29.5064 88.5 29.5064C86.2804 29.5064 84.1518 29.2352 82.1723 28.7378L81.7347 28.6278L81.3278 28.8227L72.5553 33.0233L75.1798 26.8489Z" stroke="#283141" stroke-width="2.5"/>
<path d="M34.8202 58.0466L34.4327 58.9583L35.2318 59.5439C38.7204 62.1003 40.75 65.5344 40.75 69.2126C40.75 72.8826 38.7296 76.3095 35.2552 78.8641C31.7814 81.4184 26.9223 83.0361 21.5 83.0361C16.0777 83.0361 11.2186 81.4184 7.7448 78.8641C4.27044 76.3095 2.25 72.8826 2.25 69.2126C2.25 65.5426 4.27044 62.1157 7.7448 59.5611C11.2186 57.0068 16.0777 55.3891 21.5 55.3891C23.7196 55.3891 25.8482 55.6604 27.8277 56.1577L28.2653 56.2677L28.6722 56.0728L37.4447 51.8722L34.8202 58.0466Z" stroke="#283141" stroke-width="2.5"/>
<path d="M10 65.5H32M10 73.5H23M27.5 73.5H32" stroke="#283141" stroke-width="2" stroke-linecap="round"/>
<path d="M78 11.5H100M78 19.5H91M95.5 19.5H100" stroke="#283141" stroke-width="2" stroke-linecap="round"/>
</svg>
