<svg width="187" height="77" viewBox="0 0 187 77" fill="none" xmlns="http://www.w3.org/2000/svg">
<g clip-path="url(#clip0_775_2559)">
<path d="M5.17929 21.0507L9.18628 0.436523L185.784 35.273L181.872 55.3963L175.001 54.0607L173.707 60.7145L166.836 59.3788L165.498 66.2641L158.626 64.9284L157.346 71.5127L116.796 63.6304L118.076 57.0462L111.297 55.7285L112.635 48.8433L105.975 47.5487L107.269 40.8948L100.397 39.5592L101.733 32.6878L87.99 30.0165L86.6544 36.8878L80.0044 35.5952L78.7111 42.2491L71.8258 40.9107L70.4875 47.796L63.6809 46.4729L62.4011 53.0572L21.8819 45.181L23.1221 38.8005L16.2507 37.4648L17.5864 30.5934L10.715 29.2577L12.0507 22.3864L5.17929 21.0507Z" fill="black" stroke="black"/>
<rect x="20.2578" y="16.8506" width="7" height="7" transform="rotate(11 20.2578 16.8506)" fill="white"/>
<rect x="114.985" y="35.2637" width="7" height="7" transform="rotate(11 114.985 35.2637)" fill="white"/>
<rect x="25.7935" y="25.0576" width="7" height="7" transform="rotate(11 25.7935 25.0576)" fill="white"/>
<rect x="120.521" y="43.4707" width="7" height="7" transform="rotate(11 120.521 43.4707)" fill="white"/>
<rect x="31.3293" y="33.2646" width="7" height="7" transform="rotate(11 31.3293 33.2646)" fill="white"/>
<rect x="126.056" y="51.6777" width="7" height="7" transform="rotate(11 126.056 51.6777)" fill="white"/>
</g>
<defs>
<clipPath id="clip0_775_2559">
<rect width="181" height="42" fill="white" transform="translate(8.69556 0.341064) rotate(11)"/>
</clipPath>
</defs>
</svg>
