<svg width="187" height="68" viewBox="0 0 187 68" fill="none" xmlns="http://www.w3.org/2000/svg">
<g clip-path="url(#clip0_293_4968)">
<path d="M4.37919 46.5403L1.45312 25.7451L179.767 1.15966L182.623 21.4597L175.692 22.435L176.636 29.1473L169.704 30.1227L170.682 37.0684L163.75 38.0437L164.685 44.6858L123.778 50.4417L122.843 43.7997L116.005 44.7619L115.028 37.8162L108.309 38.7615L107.365 32.0493L100.433 33.0246L99.4576 26.0929L85.5942 28.0436L86.5695 34.9753L79.8612 35.9192L80.8057 42.6315L73.86 43.6088L74.8374 50.5545L67.971 51.5207L68.9056 58.1627L28.0307 63.9142L27.1251 57.4776L20.1933 58.453L19.218 51.5213L12.2863 52.4966L11.3109 45.5649L4.37919 46.5403Z" fill="black" stroke="black"/>
<rect x="17.2656" y="37.6582" width="7" height="7" transform="rotate(-8.00946 17.2656 37.6582)" fill="white"/>
<rect x="112.824" y="24.2119" width="7" height="7" transform="rotate(-8.00946 112.824 24.2119)" fill="white"/>
<rect x="25.1738" y="43.6143" width="7" height="7" transform="rotate(-8.00946 25.1738 43.6143)" fill="white"/>
<rect x="120.732" y="30.1685" width="7" height="7" transform="rotate(-8.00946 120.732 30.1685)" fill="white"/>
<rect x="33.0801" y="49.5708" width="7" height="7" transform="rotate(-8.00946 33.0801 49.5708)" fill="white"/>
<rect x="128.639" y="36.1245" width="7" height="7" transform="rotate(-8.00946 128.639 36.1245)" fill="white"/>
</g>
<defs>
<clipPath id="clip0_293_4968">
<rect width="181" height="42" fill="white" transform="translate(0.957031 25.8149) rotate(-8.00946)"/>
</clipPath>
</defs>
</svg>
