<svg width="128" height="100" viewBox="0 0 128 100" fill="none" xmlns="http://www.w3.org/2000/svg">
<g clip-path="url(#clip0_464_2274)">
<path d="M103.5 81.2106H25.6015C21.1029 81.2106 17.4561 77.5638 17.4561 73.0652V11.1454C17.4561 6.64684 21.1029 3 25.6015 3H104.71C109.209 3 112.856 6.64684 112.856 11.1455V72.1863" stroke="#283141" stroke-width="2.32727" stroke-linecap="round"/>
<path d="M17.8857 10.6299H112.426" stroke="#283141" stroke-width="2.32727"/>
<circle cx="23.1446" cy="7.30721" r="0.859458" fill="#283141"/>
<circle cx="26.5987" cy="7.30721" r="0.859458" fill="#283141"/>
<circle cx="30.0528" cy="7.30721" r="0.859458" fill="#283141"/>
<path d="M30.8803 21.0483V20.5955H30.5664L30.4563 20.8895L30.8803 21.0483ZM23.9023 39.6711L23.4783 39.5122L23.2491 40.1239H23.9023V39.6711ZM33.8551 21.0483L34.2787 20.8885L34.1682 20.5955H33.8551V21.0483ZM40.8833 39.6711V40.1239H41.5381L41.3069 39.5112L40.8833 39.6711ZM37.6513 39.6711L37.2276 39.8306L37.338 40.1239H37.6513V39.6711ZM36.0097 35.3102L36.4335 35.1506L36.3231 34.8574H36.0097V35.3102ZM28.6225 35.3102V34.8574H28.2985L28.1939 35.164L28.6225 35.3102ZM27.1348 39.6711V40.1239H27.4587L27.5633 39.8173L27.1348 39.6711ZM29.4442 32.8994L29.0171 32.749L28.8046 33.3522H29.4442V32.8994ZM32.3171 24.7428L32.7442 24.5924L32.3171 23.3796L31.89 24.5924L32.3171 24.7428ZM35.1892 32.8994V33.3522H35.8287L35.6163 32.749L35.1892 32.8994ZM30.4563 20.8895L23.4783 39.5122L24.3264 39.8299L31.3043 21.2072L30.4563 20.8895ZM33.8551 20.5955H30.8803V21.5011H33.8551V20.5955ZM41.3069 39.5112L34.2787 20.8885L33.4315 21.2082L40.4596 39.8309L41.3069 39.5112ZM37.6513 40.1239H40.8833V39.2183H37.6513V40.1239ZM35.5859 35.4697L37.2276 39.8306L38.0751 39.5115L36.4335 35.1506L35.5859 35.4697ZM28.6225 35.763H36.0097V34.8574H28.6225V35.763ZM27.5633 39.8173L29.051 35.4564L28.1939 35.164L26.7062 39.5249L27.5633 39.8173ZM23.9023 40.1239H27.1348V39.2183H23.9023V40.1239ZM29.8712 33.0498L32.7441 24.8932L31.89 24.5924L29.0171 32.749L29.8712 33.0498ZM35.1892 32.4466H29.4442V33.3522H35.1892V32.4466ZM31.89 24.8932L34.7621 33.0498L35.6163 32.749L32.7442 24.5924L31.89 24.8932Z" fill="#283141"/>
<path d="M45.5609 29.6001V30.0529H45.9948L46.0133 29.6194L45.5609 29.6001ZM42.7788 29.6001L42.3364 29.5034L42.2163 30.0529H42.7788V29.6001ZM50.804 29.6001H51.2568V29.5905L51.2564 29.5809L50.804 29.6001ZM50.804 31.4554V31.9082H51.2568V31.4554H50.804ZM48.1825 31.4554L48.1794 31.9082H48.1825V31.4554ZM48.1825 39.8037L48.3431 40.2271L48.3431 40.2271L48.1825 39.8037ZM50.804 38.1098L51.2488 38.0251L51.1022 37.2555L50.5085 37.7667L50.804 38.1098ZM54.2723 39.8037V40.2565H55.1479L54.6418 39.542L54.2723 39.8037ZM53.5867 29.6001L53.1339 29.5954V29.6001H53.5867ZM50.8512 35.8926L51.2128 36.1651L51.304 36.0441V35.8926H50.8512ZM50.8512 33.0757H51.304V32.6229L50.8512 32.6229L50.8512 33.0757ZM46.7969 37.7132L46.965 37.2928L46.965 37.2928L46.7969 37.7132ZM46.3507 33.6595L46.143 33.2572L46.143 33.2572L46.3507 33.6595ZM45.5609 29.1473H42.7788V30.0529H45.5609V29.1473ZM48.1825 27.2516C47.0662 27.2516 46.2963 27.602 45.8006 28.0939C45.3156 28.5752 45.1264 29.1599 45.1085 29.5808L46.0133 29.6194C46.0223 29.4084 46.1276 29.0452 46.4385 28.7367C46.7388 28.4387 47.2662 28.1572 48.1825 28.1572V27.2516ZM51.2564 29.5809C51.2385 29.1599 51.0494 28.5752 50.5644 28.0939C50.0688 27.602 49.2989 27.2516 48.1825 27.2516V28.1572C49.0988 28.1572 49.6262 28.4387 49.9264 28.7366C50.2373 29.0452 50.3426 29.4084 50.3516 29.6194L51.2564 29.5809ZM51.2568 31.4554V29.6001H50.3512V31.4554H51.2568ZM48.1825 31.9082H50.804V31.0026H48.1825V31.9082ZM42.8278 35.69C42.8278 34.1945 43.6565 33.265 44.7627 32.6864C45.8881 32.0978 47.261 31.9018 48.1794 31.9082L48.1857 31.0026C47.1682 30.9955 45.6374 31.2069 44.343 31.8839C43.0294 32.571 41.9222 33.7655 41.9222 35.69H42.8278ZM48.0219 39.3803C47.8116 39.4601 47.3727 39.5263 46.805 39.4971C46.2485 39.4684 45.6121 39.3499 45.0158 39.099C44.4208 38.8486 43.8779 38.4717 43.4837 37.9317C43.0924 37.3957 42.8278 36.6721 42.8278 35.69H41.9222C41.9222 36.8454 42.2373 37.7602 42.7522 38.4657C43.2642 39.167 43.9539 39.6346 44.6646 39.9337C45.3739 40.2322 46.1164 40.3684 46.7584 40.4015C47.3893 40.434 47.9687 40.3691 48.3431 40.2271L48.0219 39.3803ZM50.5085 37.7667C50.0298 38.1789 48.8785 39.0554 48.0219 39.3803L48.3431 40.2271C49.3578 39.8422 50.6102 38.8742 51.0994 38.453L50.5085 37.7667ZM51.3282 39.3509C51.454 39.3509 51.5396 39.4058 51.5758 39.4341C51.6126 39.4629 51.6308 39.4888 51.6334 39.4925C51.6388 39.5002 51.6302 39.489 51.6107 39.4427C51.5739 39.3553 51.5296 39.2189 51.4824 39.048C51.3894 38.7111 51.3013 38.3006 51.2488 38.0251L50.3592 38.1945C50.4142 38.4837 50.5076 38.9201 50.6095 39.289C50.6597 39.471 50.7162 39.6522 50.7761 39.7942C50.8048 39.8625 50.8434 39.944 50.8942 40.0156C50.9194 40.0513 50.9597 40.102 51.0181 40.1476C51.0758 40.1927 51.1822 40.2565 51.3282 40.2565V39.3509ZM54.2723 39.3509H51.3282V40.2565H54.2723V39.3509ZM53.1339 37.2629C53.1339 38.6196 53.6228 39.6701 53.9028 40.0654L54.6418 39.542C54.4647 39.292 54.0395 38.4228 54.0395 37.2629H53.1339ZM53.1339 29.6001V37.2629H54.0395V29.6001H53.1339ZM48.6261 26.1813C50.5218 26.1813 51.6363 26.7886 52.2784 27.4869C52.9327 28.1984 53.1396 29.0505 53.1339 29.5954L54.0395 29.6048C54.0472 28.8592 53.7742 27.7755 52.945 26.8739C52.1037 25.959 50.7311 25.2757 48.6261 25.2757V26.1813ZM43.2211 29.6968C43.3522 29.0973 43.6455 28.2293 44.4096 27.5101C45.1658 26.7983 46.4376 26.1813 48.6261 26.1813V25.2757C46.2573 25.2757 44.7465 25.9493 43.7889 26.8506C42.8392 27.7446 42.4875 28.8124 42.3364 29.5034L43.2211 29.6968ZM51.304 35.8926V33.0757H50.3984V35.8926H51.304ZM46.6287 38.1336C47.6379 38.5373 48.6396 38.2333 49.4233 37.7709C50.2098 37.3069 50.8534 36.6421 51.2128 36.1651L50.4895 35.6201C50.1845 36.0249 49.6255 36.6001 48.9632 36.9909C48.2981 37.3832 47.6048 37.5487 46.965 37.2928L46.6287 38.1336ZM46.143 33.2572C45.1562 33.7666 44.6604 34.7477 44.7329 35.7288C44.8058 36.717 45.4483 37.6614 46.6287 38.1336L46.965 37.2928C46.0843 36.9405 45.6818 36.2824 45.636 35.6621C45.5897 35.0346 45.9015 34.4011 46.5585 34.0618L46.143 33.2572ZM50.8512 32.6229C48.1922 32.6226 47.3221 32.6484 46.143 33.2572L46.5585 34.0618C47.5089 33.5711 48.149 33.5282 50.8511 33.5285L50.8512 32.6229Z" fill="#283141"/>
<rect x="61.8719" y="17.7625" width="44.3876" height="25.4796" rx="1.74545" stroke="#283141" stroke-width="1.16364"/>
<path d="M27.0486 51.5593H105.121M25.1914 52.753L25.1914 71.852M106.41 52.8483V71.8522M105.121 73.0457H26.4806" stroke="#283141" stroke-width="0.930909"/>
<path d="M62.1494 18.0405C78.9314 27.1028 105.982 42.9648 105.982 42.9648M105.982 18.0405L62.1494 42.9648" stroke="#283141" stroke-width="1.16364"/>
<rect x="105.273" y="71.908" width="2.27419" height="2.27419" stroke="#283141" stroke-width="1.16364"/>
<rect x="24.0555" y="71.908" width="2.27419" height="2.27419" stroke="#283141" stroke-width="1.16364"/>
<rect x="24.0555" y="50.4217" width="2.27419" height="2.27419" stroke="#283141" stroke-width="1.16364"/>
<rect x="105.273" y="50.4217" width="2.27419" height="2.27419" stroke="#283141" stroke-width="1.16364"/>
<path d="M52.2656 56.2866H101.684M52.2656 62.3028H101.684M52.2656 68.319H73.7121" stroke="#283141" stroke-width="1.16364" stroke-linecap="round"/>
<rect x="30.0711" y="54.7195" width="15.1661" height="15.1661" rx="1.74545" stroke="#283141" stroke-width="1.16364"/>
<path d="M30.3486 54.9976L44.9594 69.6083M44.9594 54.9976L30.3486 69.6083" stroke="#283141" stroke-width="1.16364"/>
<path d="M111.233 96.5028L109.145 76.8142L125.152 88.4666L116.96 89.4307L116.463 89.4893L116.163 89.8908L111.233 96.5028Z" stroke="#283141" stroke-width="2.32727"/>
</g>
<defs>
<clipPath id="clip0_464_2274">
<rect width="128" height="100" fill="white"/>
</clipPath>
</defs>
</svg>
