<svg width="676" height="87" viewBox="0 0 676 87" fill="none" xmlns="http://www.w3.org/2000/svg">
<g clip-path="url(#clip0_140_1335)">
<path d="M1.992 70.636V75.928C1.992 76.672 2.172 77.224 2.532 77.584C2.9 77.944 3.408 78.124 4.056 78.124C4.696 78.124 5.196 77.944 5.556 77.584C5.924 77.224 6.108 76.672 6.108 75.928V70.636H7.2V75.916C7.2 76.612 7.06 77.2 6.78 77.68C6.5 78.152 6.12 78.504 5.64 78.736C5.168 78.968 4.636 79.084 4.044 79.084C3.452 79.084 2.916 78.968 2.436 78.736C1.964 78.504 1.588 78.152 1.308 77.68C1.036 77.2 0.9 76.612 0.9 75.916V70.636H1.992ZM11.3497 79.108C10.8457 79.108 10.3937 79.024 9.99366 78.856C9.59366 78.68 9.27766 78.44 9.04566 78.136C8.81366 77.824 8.68566 77.468 8.66166 77.068H9.78966C9.82166 77.396 9.97366 77.664 10.2457 77.872C10.5257 78.08 10.8897 78.184 11.3377 78.184C11.7537 78.184 12.0817 78.092 12.3217 77.908C12.5617 77.724 12.6817 77.492 12.6817 77.212C12.6817 76.924 12.5537 76.712 12.2977 76.576C12.0417 76.432 11.6457 76.292 11.1097 76.156C10.6217 76.028 10.2217 75.9 9.90966 75.772C9.60566 75.636 9.34166 75.44 9.11766 75.184C8.90166 74.92 8.79366 74.576 8.79366 74.152C8.79366 73.816 8.89366 73.508 9.09366 73.228C9.29366 72.948 9.57766 72.728 9.94566 72.568C10.3137 72.4 10.7337 72.316 11.2057 72.316C11.9337 72.316 12.5217 72.5 12.9697 72.868C13.4177 73.236 13.6577 73.74 13.6897 74.38H12.5977C12.5737 74.036 12.4337 73.76 12.1777 73.552C11.9297 73.344 11.5937 73.24 11.1697 73.24C10.7777 73.24 10.4657 73.324 10.2337 73.492C10.0017 73.66 9.88566 73.88 9.88566 74.152C9.88566 74.368 9.95366 74.548 10.0897 74.692C10.2337 74.828 10.4097 74.94 10.6177 75.028C10.8337 75.108 11.1297 75.2 11.5057 75.304C11.9777 75.432 12.3617 75.56 12.6577 75.688C12.9537 75.808 13.2057 75.992 13.4137 76.24C13.6297 76.488 13.7417 76.812 13.7497 77.212C13.7497 77.572 13.6497 77.896 13.4497 78.184C13.2497 78.472 12.9657 78.7 12.5977 78.868C12.2377 79.028 11.8217 79.108 11.3497 79.108ZM21.2912 75.46C21.2912 75.668 21.2792 75.888 21.2552 76.12H15.9992C16.0392 76.768 16.2592 77.276 16.6592 77.644C17.0672 78.004 17.5592 78.184 18.1352 78.184C18.6072 78.184 18.9992 78.076 19.3112 77.86C19.6312 77.636 19.8552 77.34 19.9832 76.972H21.1592C20.9832 77.604 20.6312 78.12 20.1032 78.52C19.5752 78.912 18.9192 79.108 18.1352 79.108C17.5112 79.108 16.9512 78.968 16.4552 78.688C15.9672 78.408 15.5832 78.012 15.3032 77.5C15.0232 76.98 14.8832 76.38 14.8832 75.7C14.8832 75.02 15.0192 74.424 15.2912 73.912C15.5632 73.4 15.9432 73.008 16.4312 72.736C16.9272 72.456 17.4952 72.316 18.1352 72.316C18.7592 72.316 19.3112 72.452 19.7912 72.724C20.2712 72.996 20.6392 73.372 20.8952 73.852C21.1592 74.324 21.2912 74.86 21.2912 75.46ZM20.1632 75.232C20.1632 74.816 20.0712 74.46 19.8872 74.164C19.7032 73.86 19.4512 73.632 19.1312 73.48C18.8192 73.32 18.4712 73.24 18.0872 73.24C17.5352 73.24 17.0632 73.416 16.6712 73.768C16.2872 74.12 16.0672 74.608 16.0112 75.232H20.1632ZM23.8246 73.492C24.0166 73.116 24.2886 72.824 24.6406 72.616C25.0006 72.408 25.4366 72.304 25.9486 72.304V73.432H25.6606C24.4366 73.432 23.8246 74.096 23.8246 75.424V79H22.7326V72.424H23.8246V73.492ZM32.7364 79.108C32.2324 79.108 31.7804 79.024 31.3804 78.856C30.9804 78.68 30.6644 78.44 30.4324 78.136C30.2004 77.824 30.0724 77.468 30.0484 77.068H31.1764C31.2084 77.396 31.3604 77.664 31.6324 77.872C31.9124 78.08 32.2764 78.184 32.7244 78.184C33.1404 78.184 33.4684 78.092 33.7084 77.908C33.9484 77.724 34.0684 77.492 34.0684 77.212C34.0684 76.924 33.9404 76.712 33.6844 76.576C33.4284 76.432 33.0324 76.292 32.4964 76.156C32.0084 76.028 31.6084 75.9 31.2964 75.772C30.9924 75.636 30.7284 75.44 30.5044 75.184C30.2884 74.92 30.1804 74.576 30.1804 74.152C30.1804 73.816 30.2804 73.508 30.4804 73.228C30.6804 72.948 30.9644 72.728 31.3324 72.568C31.7004 72.4 32.1204 72.316 32.5924 72.316C33.3204 72.316 33.9084 72.5 34.3564 72.868C34.8044 73.236 35.0444 73.74 35.0764 74.38H33.9844C33.9604 74.036 33.8204 73.76 33.5644 73.552C33.3164 73.344 32.9804 73.24 32.5564 73.24C32.1644 73.24 31.8524 73.324 31.6204 73.492C31.3884 73.66 31.2724 73.88 31.2724 74.152C31.2724 74.368 31.3404 74.548 31.4764 74.692C31.6204 74.828 31.7964 74.94 32.0044 75.028C32.2204 75.108 32.5164 75.2 32.8924 75.304C33.3644 75.432 33.7484 75.56 34.0444 75.688C34.3404 75.808 34.5924 75.992 34.8004 76.24C35.0164 76.488 35.1284 76.812 35.1364 77.212C35.1364 77.572 35.0364 77.896 34.8364 78.184C34.6364 78.472 34.3524 78.7 33.9844 78.868C33.6244 79.028 33.2084 79.108 32.7364 79.108ZM38.0099 73.324V77.2C38.0099 77.52 38.0779 77.748 38.2139 77.884C38.3499 78.012 38.5859 78.076 38.9219 78.076H39.7259V79H38.7419C38.1339 79 37.6779 78.86 37.3739 78.58C37.0699 78.3 36.9179 77.84 36.9179 77.2V73.324H36.0659V72.424H36.9179V70.768H38.0099V72.424H39.7259V73.324H38.0099ZM46.881 72.424V79H45.789V78.028C45.581 78.364 45.289 78.628 44.913 78.82C44.545 79.004 44.137 79.096 43.689 79.096C43.177 79.096 42.717 78.992 42.309 78.784C41.901 78.568 41.577 78.248 41.337 77.824C41.105 77.4 40.989 76.884 40.989 76.276V72.424H42.069V76.132C42.069 76.78 42.233 77.28 42.561 77.632C42.889 77.976 43.337 78.148 43.905 78.148C44.489 78.148 44.949 77.968 45.285 77.608C45.621 77.248 45.789 76.724 45.789 76.036V72.424H46.881ZM48.3168 75.688C48.3168 75.016 48.4528 74.428 48.7248 73.924C48.9968 73.412 49.3688 73.016 49.8408 72.736C50.3208 72.456 50.8568 72.316 51.4488 72.316C51.9608 72.316 52.4368 72.436 52.8768 72.676C53.3168 72.908 53.6528 73.216 53.8848 73.6V70.12H54.9888V79H53.8848V77.764C53.6688 78.156 53.3488 78.48 52.9248 78.736C52.5008 78.984 52.0048 79.108 51.4368 79.108C50.8528 79.108 50.3208 78.964 49.8408 78.676C49.3688 78.388 48.9968 77.984 48.7248 77.464C48.4528 76.944 48.3168 76.352 48.3168 75.688ZM53.8848 75.7C53.8848 75.204 53.7848 74.772 53.5848 74.404C53.3848 74.036 53.1128 73.756 52.7688 73.564C52.4328 73.364 52.0608 73.264 51.6528 73.264C51.2448 73.264 50.8728 73.36 50.5368 73.552C50.2008 73.744 49.9328 74.024 49.7328 74.392C49.5328 74.76 49.4328 75.192 49.4328 75.688C49.4328 76.192 49.5328 76.632 49.7328 77.008C49.9328 77.376 50.2008 77.66 50.5368 77.86C50.8728 78.052 51.2448 78.148 51.6528 78.148C52.0608 78.148 52.4328 78.052 52.7688 77.86C53.1128 77.66 53.3848 77.376 53.5848 77.008C53.7848 76.632 53.8848 76.196 53.8848 75.7ZM57.3982 71.356C57.1902 71.356 57.0142 71.284 56.8702 71.14C56.7262 70.996 56.6542 70.82 56.6542 70.612C56.6542 70.404 56.7262 70.228 56.8702 70.084C57.0142 69.94 57.1902 69.868 57.3982 69.868C57.5982 69.868 57.7662 69.94 57.9022 70.084C58.0462 70.228 58.1182 70.404 58.1182 70.612C58.1182 70.82 58.0462 70.996 57.9022 71.14C57.7662 71.284 57.5982 71.356 57.3982 71.356ZM57.9262 72.424V79H56.8342V72.424H57.9262ZM65.7873 75.46C65.7873 75.668 65.7753 75.888 65.7513 76.12H60.4953C60.5353 76.768 60.7553 77.276 61.1553 77.644C61.5633 78.004 62.0553 78.184 62.6313 78.184C63.1033 78.184 63.4953 78.076 63.8073 77.86C64.1273 77.636 64.3513 77.34 64.4793 76.972H65.6553C65.4793 77.604 65.1273 78.12 64.5993 78.52C64.0713 78.912 63.4153 79.108 62.6313 79.108C62.0073 79.108 61.4473 78.968 60.9513 78.688C60.4633 78.408 60.0793 78.012 59.7993 77.5C59.5193 76.98 59.3793 76.38 59.3793 75.7C59.3793 75.02 59.5153 74.424 59.7873 73.912C60.0593 73.4 60.4393 73.008 60.9273 72.736C61.4233 72.456 61.9913 72.316 62.6313 72.316C63.2553 72.316 63.8073 72.452 64.2873 72.724C64.7673 72.996 65.1353 73.372 65.3913 73.852C65.6553 74.324 65.7873 74.86 65.7873 75.46ZM64.6593 75.232C64.6593 74.816 64.5673 74.46 64.3833 74.164C64.1993 73.86 63.9473 73.632 63.6273 73.48C63.3153 73.32 62.9673 73.24 62.5833 73.24C62.0313 73.24 61.5593 73.416 61.1673 73.768C60.7833 74.12 60.5633 74.608 60.5073 75.232H64.6593ZM69.5567 79.108C69.0527 79.108 68.6007 79.024 68.2007 78.856C67.8007 78.68 67.4847 78.44 67.2527 78.136C67.0207 77.824 66.8927 77.468 66.8687 77.068H67.9967C68.0287 77.396 68.1807 77.664 68.4527 77.872C68.7327 78.08 69.0967 78.184 69.5447 78.184C69.9607 78.184 70.2887 78.092 70.5287 77.908C70.7687 77.724 70.8887 77.492 70.8887 77.212C70.8887 76.924 70.7607 76.712 70.5047 76.576C70.2487 76.432 69.8527 76.292 69.3167 76.156C68.8287 76.028 68.4287 75.9 68.1167 75.772C67.8127 75.636 67.5487 75.44 67.3247 75.184C67.1087 74.92 67.0007 74.576 67.0007 74.152C67.0007 73.816 67.1007 73.508 67.3007 73.228C67.5007 72.948 67.7847 72.728 68.1527 72.568C68.5207 72.4 68.9407 72.316 69.4127 72.316C70.1407 72.316 70.7287 72.5 71.1767 72.868C71.6247 73.236 71.8647 73.74 71.8967 74.38H70.8047C70.7807 74.036 70.6407 73.76 70.3847 73.552C70.1367 73.344 69.8007 73.24 69.3767 73.24C68.9847 73.24 68.6727 73.324 68.4407 73.492C68.2087 73.66 68.0927 73.88 68.0927 74.152C68.0927 74.368 68.1607 74.548 68.2967 74.692C68.4407 74.828 68.6167 74.94 68.8247 75.028C69.0407 75.108 69.3367 75.2 69.7127 75.304C70.1847 75.432 70.5687 75.56 70.8647 75.688C71.1607 75.808 71.4127 75.992 71.6207 76.24C71.8367 76.488 71.9487 76.812 71.9567 77.212C71.9567 77.572 71.8567 77.896 71.6567 78.184C71.4567 78.472 71.1727 78.7 70.8047 78.868C70.4447 79.028 70.0287 79.108 69.5567 79.108Z" fill="#323F56"/>
<path d="M159.016 70.636V79H157.924V70.636H159.016ZM160.469 75.688C160.469 75.016 160.605 74.428 160.877 73.924C161.149 73.412 161.521 73.016 161.993 72.736C162.473 72.456 163.009 72.316 163.601 72.316C164.113 72.316 164.589 72.436 165.029 72.676C165.469 72.908 165.805 73.216 166.037 73.6V70.12H167.141V79H166.037V77.764C165.821 78.156 165.501 78.48 165.077 78.736C164.653 78.984 164.157 79.108 163.589 79.108C163.005 79.108 162.473 78.964 161.993 78.676C161.521 78.388 161.149 77.984 160.877 77.464C160.605 76.944 160.469 76.352 160.469 75.688ZM166.037 75.7C166.037 75.204 165.937 74.772 165.737 74.404C165.537 74.036 165.265 73.756 164.921 73.564C164.585 73.364 164.213 73.264 163.805 73.264C163.397 73.264 163.025 73.36 162.689 73.552C162.353 73.744 162.085 74.024 161.885 74.392C161.685 74.76 161.585 75.192 161.585 75.688C161.585 76.192 161.685 76.632 161.885 77.008C162.085 77.376 162.353 77.66 162.689 77.86C163.025 78.052 163.397 78.148 163.805 78.148C164.213 78.148 164.585 78.052 164.921 77.86C165.265 77.66 165.537 77.376 165.737 77.008C165.937 76.632 166.037 76.196 166.037 75.7ZM174.987 75.46C174.987 75.668 174.975 75.888 174.951 76.12H169.695C169.735 76.768 169.955 77.276 170.355 77.644C170.763 78.004 171.255 78.184 171.831 78.184C172.303 78.184 172.695 78.076 173.007 77.86C173.327 77.636 173.551 77.34 173.679 76.972H174.855C174.679 77.604 174.327 78.12 173.799 78.52C173.271 78.912 172.615 79.108 171.831 79.108C171.207 79.108 170.647 78.968 170.151 78.688C169.663 78.408 169.279 78.012 168.999 77.5C168.719 76.98 168.579 76.38 168.579 75.7C168.579 75.02 168.715 74.424 168.987 73.912C169.259 73.4 169.639 73.008 170.127 72.736C170.623 72.456 171.191 72.316 171.831 72.316C172.455 72.316 173.007 72.452 173.487 72.724C173.967 72.996 174.335 73.372 174.591 73.852C174.855 74.324 174.987 74.86 174.987 75.46ZM173.859 75.232C173.859 74.816 173.767 74.46 173.583 74.164C173.399 73.86 173.147 73.632 172.827 73.48C172.515 73.32 172.167 73.24 171.783 73.24C171.231 73.24 170.759 73.416 170.367 73.768C169.983 74.12 169.763 74.608 169.707 75.232H173.859ZM176.02 75.688C176.02 75.016 176.156 74.428 176.428 73.924C176.7 73.412 177.072 73.016 177.544 72.736C178.024 72.456 178.556 72.316 179.14 72.316C179.716 72.316 180.216 72.44 180.64 72.688C181.064 72.936 181.38 73.248 181.588 73.624V72.424H182.692V79H181.588V77.776C181.372 78.16 181.048 78.48 180.616 78.736C180.192 78.984 179.696 79.108 179.128 79.108C178.544 79.108 178.016 78.964 177.544 78.676C177.072 78.388 176.7 77.984 176.428 77.464C176.156 76.944 176.02 76.352 176.02 75.688ZM181.588 75.7C181.588 75.204 181.488 74.772 181.288 74.404C181.088 74.036 180.816 73.756 180.472 73.564C180.136 73.364 179.764 73.264 179.356 73.264C178.948 73.264 178.576 73.36 178.24 73.552C177.904 73.744 177.636 74.024 177.436 74.392C177.236 74.76 177.136 75.192 177.136 75.688C177.136 76.192 177.236 76.632 177.436 77.008C177.636 77.376 177.904 77.66 178.24 77.86C178.576 78.052 178.948 78.148 179.356 78.148C179.764 78.148 180.136 78.052 180.472 77.86C180.816 77.66 181.088 77.376 181.288 77.008C181.488 76.632 181.588 76.196 181.588 75.7ZM185.869 73.324V77.2C185.869 77.52 185.937 77.748 186.073 77.884C186.209 78.012 186.445 78.076 186.781 78.076H187.585V79H186.601C185.993 79 185.537 78.86 185.233 78.58C184.929 78.3 184.777 77.84 184.777 77.2V73.324H183.925V72.424H184.777V70.768H185.869V72.424H187.585V73.324H185.869ZM194.908 75.46C194.908 75.668 194.896 75.888 194.872 76.12H189.616C189.656 76.768 189.876 77.276 190.276 77.644C190.684 78.004 191.176 78.184 191.752 78.184C192.224 78.184 192.616 78.076 192.928 77.86C193.248 77.636 193.472 77.34 193.6 76.972H194.776C194.6 77.604 194.248 78.12 193.72 78.52C193.192 78.912 192.536 79.108 191.752 79.108C191.128 79.108 190.568 78.968 190.072 78.688C189.584 78.408 189.2 78.012 188.92 77.5C188.64 76.98 188.5 76.38 188.5 75.7C188.5 75.02 188.636 74.424 188.908 73.912C189.18 73.4 189.56 73.008 190.048 72.736C190.544 72.456 191.112 72.316 191.752 72.316C192.376 72.316 192.928 72.452 193.408 72.724C193.888 72.996 194.256 73.372 194.512 73.852C194.776 74.324 194.908 74.86 194.908 75.46ZM193.78 75.232C193.78 74.816 193.688 74.46 193.504 74.164C193.32 73.86 193.068 73.632 192.748 73.48C192.436 73.32 192.088 73.24 191.704 73.24C191.152 73.24 190.68 73.416 190.288 73.768C189.904 74.12 189.684 74.608 189.628 75.232H193.78Z" fill="#323F56"/>
<path d="M286.016 71.524V74.32H289.064V75.22H286.016V78.1H289.424V79H284.924V70.624H289.424V71.524H286.016ZM293.524 77.992L295.564 72.424H296.728L294.148 79H292.876L290.296 72.424H291.472L293.524 77.992ZM297.395 75.688C297.395 75.016 297.531 74.428 297.803 73.924C298.075 73.412 298.447 73.016 298.919 72.736C299.399 72.456 299.931 72.316 300.515 72.316C301.091 72.316 301.591 72.44 302.015 72.688C302.439 72.936 302.755 73.248 302.963 73.624V72.424H304.067V79H302.963V77.776C302.747 78.16 302.423 78.48 301.991 78.736C301.567 78.984 301.071 79.108 300.503 79.108C299.919 79.108 299.391 78.964 298.919 78.676C298.447 78.388 298.075 77.984 297.803 77.464C297.531 76.944 297.395 76.352 297.395 75.688ZM302.963 75.7C302.963 75.204 302.863 74.772 302.663 74.404C302.463 74.036 302.191 73.756 301.847 73.564C301.511 73.364 301.139 73.264 300.731 73.264C300.323 73.264 299.951 73.36 299.615 73.552C299.279 73.744 299.011 74.024 298.811 74.392C298.611 74.76 298.511 75.192 298.511 75.688C298.511 76.192 298.611 76.632 298.811 77.008C299.011 77.376 299.279 77.66 299.615 77.86C299.951 78.052 300.323 78.148 300.731 78.148C301.139 78.148 301.511 78.052 301.847 77.86C302.191 77.66 302.463 77.376 302.663 77.008C302.863 76.632 302.963 76.196 302.963 75.7ZM307.004 70.12V79H305.912V70.12H307.004ZM314.697 72.424V79H313.605V78.028C313.397 78.364 313.105 78.628 312.729 78.82C312.361 79.004 311.953 79.096 311.505 79.096C310.993 79.096 310.533 78.992 310.125 78.784C309.717 78.568 309.393 78.248 309.153 77.824C308.921 77.4 308.805 76.884 308.805 76.276V72.424H309.885V76.132C309.885 76.78 310.049 77.28 310.377 77.632C310.705 77.976 311.153 78.148 311.721 78.148C312.305 78.148 312.765 77.968 313.101 77.608C313.437 77.248 313.605 76.724 313.605 76.036V72.424H314.697ZM316.133 75.688C316.133 75.016 316.269 74.428 316.541 73.924C316.813 73.412 317.185 73.016 317.657 72.736C318.137 72.456 318.669 72.316 319.253 72.316C319.829 72.316 320.329 72.44 320.753 72.688C321.177 72.936 321.493 73.248 321.701 73.624V72.424H322.805V79H321.701V77.776C321.485 78.16 321.161 78.48 320.729 78.736C320.305 78.984 319.809 79.108 319.241 79.108C318.657 79.108 318.129 78.964 317.657 78.676C317.185 78.388 316.813 77.984 316.541 77.464C316.269 76.944 316.133 76.352 316.133 75.688ZM321.701 75.7C321.701 75.204 321.601 74.772 321.401 74.404C321.201 74.036 320.929 73.756 320.585 73.564C320.249 73.364 319.877 73.264 319.469 73.264C319.061 73.264 318.689 73.36 318.353 73.552C318.017 73.744 317.749 74.024 317.549 74.392C317.349 74.76 317.249 75.192 317.249 75.688C317.249 76.192 317.349 76.632 317.549 77.008C317.749 77.376 318.017 77.66 318.353 77.86C318.689 78.052 319.061 78.148 319.469 78.148C319.877 78.148 320.249 78.052 320.585 77.86C320.929 77.66 321.201 77.376 321.401 77.008C321.601 76.632 321.701 76.196 321.701 75.7ZM325.983 73.324V77.2C325.983 77.52 326.051 77.748 326.187 77.884C326.323 78.012 326.559 78.076 326.895 78.076H327.699V79H326.715C326.107 79 325.651 78.86 325.347 78.58C325.043 78.3 324.891 77.84 324.891 77.2V73.324H324.039V72.424H324.891V70.768H325.983V72.424H327.699V73.324H325.983ZM335.022 75.46C335.022 75.668 335.01 75.888 334.986 76.12H329.73C329.77 76.768 329.99 77.276 330.39 77.644C330.798 78.004 331.29 78.184 331.866 78.184C332.338 78.184 332.73 78.076 333.042 77.86C333.362 77.636 333.586 77.34 333.714 76.972H334.89C334.714 77.604 334.362 78.12 333.834 78.52C333.306 78.912 332.65 79.108 331.866 79.108C331.242 79.108 330.682 78.968 330.186 78.688C329.698 78.408 329.314 78.012 329.034 77.5C328.754 76.98 328.614 76.38 328.614 75.7C328.614 75.02 328.75 74.424 329.022 73.912C329.294 73.4 329.674 73.008 330.162 72.736C330.658 72.456 331.226 72.316 331.866 72.316C332.49 72.316 333.042 72.452 333.522 72.724C334.002 72.996 334.37 73.372 334.626 73.852C334.89 74.324 335.022 74.86 335.022 75.46ZM333.894 75.232C333.894 74.816 333.802 74.46 333.618 74.164C333.434 73.86 333.182 73.632 332.862 73.48C332.55 73.32 332.202 73.24 331.818 73.24C331.266 73.24 330.794 73.416 330.402 73.768C330.018 74.12 329.798 74.608 329.742 75.232H333.894ZM340.226 71.356C340.018 71.356 339.842 71.284 339.698 71.14C339.554 70.996 339.482 70.82 339.482 70.612C339.482 70.404 339.554 70.228 339.698 70.084C339.842 69.94 340.018 69.868 340.226 69.868C340.426 69.868 340.594 69.94 340.73 70.084C340.874 70.228 340.946 70.404 340.946 70.612C340.946 70.82 340.874 70.996 340.73 71.14C340.594 71.284 340.426 71.356 340.226 71.356ZM340.754 72.424V79H339.662V72.424H340.754ZM342.207 75.688C342.207 75.016 342.343 74.428 342.615 73.924C342.887 73.412 343.259 73.016 343.731 72.736C344.211 72.456 344.747 72.316 345.339 72.316C345.851 72.316 346.327 72.436 346.767 72.676C347.207 72.908 347.543 73.216 347.775 73.6V70.12H348.879V79H347.775V77.764C347.559 78.156 347.239 78.48 346.815 78.736C346.391 78.984 345.895 79.108 345.327 79.108C344.743 79.108 344.211 78.964 343.731 78.676C343.259 78.388 342.887 77.984 342.615 77.464C342.343 76.944 342.207 76.352 342.207 75.688ZM347.775 75.7C347.775 75.204 347.675 74.772 347.475 74.404C347.275 74.036 347.003 73.756 346.659 73.564C346.323 73.364 345.951 73.264 345.543 73.264C345.135 73.264 344.763 73.36 344.427 73.552C344.091 73.744 343.823 74.024 343.623 74.392C343.423 74.76 343.323 75.192 343.323 75.688C343.323 76.192 343.423 76.632 343.623 77.008C343.823 77.376 344.091 77.66 344.427 77.86C344.763 78.052 345.135 78.148 345.543 78.148C345.951 78.148 346.323 78.052 346.659 77.86C347.003 77.66 347.275 77.376 347.475 77.008C347.675 76.632 347.775 76.196 347.775 75.7ZM356.725 75.46C356.725 75.668 356.713 75.888 356.689 76.12H351.433C351.473 76.768 351.693 77.276 352.093 77.644C352.501 78.004 352.993 78.184 353.569 78.184C354.041 78.184 354.433 78.076 354.745 77.86C355.065 77.636 355.289 77.34 355.417 76.972H356.593C356.417 77.604 356.065 78.12 355.537 78.52C355.009 78.912 354.353 79.108 353.569 79.108C352.945 79.108 352.385 78.968 351.889 78.688C351.401 78.408 351.017 78.012 350.737 77.5C350.457 76.98 350.317 76.38 350.317 75.7C350.317 75.02 350.453 74.424 350.725 73.912C350.997 73.4 351.377 73.008 351.865 72.736C352.361 72.456 352.929 72.316 353.569 72.316C354.193 72.316 354.745 72.452 355.225 72.724C355.705 72.996 356.073 73.372 356.329 73.852C356.593 74.324 356.725 74.86 356.725 75.46ZM355.597 75.232C355.597 74.816 355.505 74.46 355.321 74.164C355.137 73.86 354.885 73.632 354.565 73.48C354.253 73.32 353.905 73.24 353.521 73.24C352.969 73.24 352.497 73.416 352.105 73.768C351.721 74.12 351.501 74.608 351.445 75.232H355.597ZM357.758 75.688C357.758 75.016 357.894 74.428 358.166 73.924C358.438 73.412 358.81 73.016 359.282 72.736C359.762 72.456 360.294 72.316 360.878 72.316C361.454 72.316 361.954 72.44 362.378 72.688C362.802 72.936 363.118 73.248 363.326 73.624V72.424H364.43V79H363.326V77.776C363.11 78.16 362.786 78.48 362.354 78.736C361.93 78.984 361.434 79.108 360.866 79.108C360.282 79.108 359.754 78.964 359.282 78.676C358.81 78.388 358.438 77.984 358.166 77.464C357.894 76.944 357.758 76.352 357.758 75.688ZM363.326 75.7C363.326 75.204 363.226 74.772 363.026 74.404C362.826 74.036 362.554 73.756 362.21 73.564C361.874 73.364 361.502 73.264 361.094 73.264C360.686 73.264 360.314 73.36 359.978 73.552C359.642 73.744 359.374 74.024 359.174 74.392C358.974 74.76 358.874 75.192 358.874 75.688C358.874 76.192 358.974 76.632 359.174 77.008C359.374 77.376 359.642 77.66 359.978 77.86C360.314 78.052 360.686 78.148 361.094 78.148C361.502 78.148 361.874 78.052 362.21 77.86C362.554 77.66 362.826 77.376 363.026 77.008C363.226 76.632 363.326 76.196 363.326 75.7ZM368.604 79.108C368.1 79.108 367.648 79.024 367.248 78.856C366.848 78.68 366.532 78.44 366.3 78.136C366.068 77.824 365.94 77.468 365.916 77.068H367.044C367.076 77.396 367.228 77.664 367.5 77.872C367.78 78.08 368.144 78.184 368.592 78.184C369.008 78.184 369.336 78.092 369.576 77.908C369.816 77.724 369.936 77.492 369.936 77.212C369.936 76.924 369.808 76.712 369.552 76.576C369.296 76.432 368.9 76.292 368.364 76.156C367.876 76.028 367.476 75.9 367.164 75.772C366.86 75.636 366.596 75.44 366.372 75.184C366.156 74.92 366.048 74.576 366.048 74.152C366.048 73.816 366.148 73.508 366.348 73.228C366.548 72.948 366.832 72.728 367.2 72.568C367.568 72.4 367.988 72.316 368.46 72.316C369.188 72.316 369.776 72.5 370.224 72.868C370.672 73.236 370.912 73.74 370.944 74.38H369.852C369.828 74.036 369.688 73.76 369.432 73.552C369.184 73.344 368.848 73.24 368.424 73.24C368.032 73.24 367.72 73.324 367.488 73.492C367.256 73.66 367.14 73.88 367.14 74.152C367.14 74.368 367.208 74.548 367.344 74.692C367.488 74.828 367.664 74.94 367.872 75.028C368.088 75.108 368.384 75.2 368.76 75.304C369.232 75.432 369.616 75.56 369.912 75.688C370.208 75.808 370.46 75.992 370.668 76.24C370.884 76.488 370.996 76.812 371.004 77.212C371.004 77.572 370.904 77.896 370.704 78.184C370.504 78.472 370.22 78.7 369.852 78.868C369.492 79.028 369.076 79.108 368.604 79.108Z" fill="#323F56"/>
<path d="M432.016 71.524V74.32H435.064V75.22H432.016V78.1H435.424V79H430.924V70.624H435.424V71.524H432.016ZM439.524 77.992L441.564 72.424H442.728L440.148 79H438.876L436.296 72.424H437.472L439.524 77.992ZM443.395 75.688C443.395 75.016 443.531 74.428 443.803 73.924C444.075 73.412 444.447 73.016 444.919 72.736C445.399 72.456 445.931 72.316 446.515 72.316C447.091 72.316 447.591 72.44 448.015 72.688C448.439 72.936 448.755 73.248 448.963 73.624V72.424H450.067V79H448.963V77.776C448.747 78.16 448.423 78.48 447.991 78.736C447.567 78.984 447.071 79.108 446.503 79.108C445.919 79.108 445.391 78.964 444.919 78.676C444.447 78.388 444.075 77.984 443.803 77.464C443.531 76.944 443.395 76.352 443.395 75.688ZM448.963 75.7C448.963 75.204 448.863 74.772 448.663 74.404C448.463 74.036 448.191 73.756 447.847 73.564C447.511 73.364 447.139 73.264 446.731 73.264C446.323 73.264 445.951 73.36 445.615 73.552C445.279 73.744 445.011 74.024 444.811 74.392C444.611 74.76 444.511 75.192 444.511 75.688C444.511 76.192 444.611 76.632 444.811 77.008C445.011 77.376 445.279 77.66 445.615 77.86C445.951 78.052 446.323 78.148 446.731 78.148C447.139 78.148 447.511 78.052 447.847 77.86C448.191 77.66 448.463 77.376 448.663 77.008C448.863 76.632 448.963 76.196 448.963 75.7ZM453.004 70.12V79H451.912V70.12H453.004ZM460.697 72.424V79H459.605V78.028C459.397 78.364 459.105 78.628 458.729 78.82C458.361 79.004 457.953 79.096 457.505 79.096C456.993 79.096 456.533 78.992 456.125 78.784C455.717 78.568 455.393 78.248 455.153 77.824C454.921 77.4 454.805 76.884 454.805 76.276V72.424H455.885V76.132C455.885 76.78 456.049 77.28 456.377 77.632C456.705 77.976 457.153 78.148 457.721 78.148C458.305 78.148 458.765 77.968 459.101 77.608C459.437 77.248 459.605 76.724 459.605 76.036V72.424H460.697ZM462.133 75.688C462.133 75.016 462.269 74.428 462.541 73.924C462.813 73.412 463.185 73.016 463.657 72.736C464.137 72.456 464.669 72.316 465.253 72.316C465.829 72.316 466.329 72.44 466.753 72.688C467.177 72.936 467.493 73.248 467.701 73.624V72.424H468.805V79H467.701V77.776C467.485 78.16 467.161 78.48 466.729 78.736C466.305 78.984 465.809 79.108 465.241 79.108C464.657 79.108 464.129 78.964 463.657 78.676C463.185 78.388 462.813 77.984 462.541 77.464C462.269 76.944 462.133 76.352 462.133 75.688ZM467.701 75.7C467.701 75.204 467.601 74.772 467.401 74.404C467.201 74.036 466.929 73.756 466.585 73.564C466.249 73.364 465.877 73.264 465.469 73.264C465.061 73.264 464.689 73.36 464.353 73.552C464.017 73.744 463.749 74.024 463.549 74.392C463.349 74.76 463.249 75.192 463.249 75.688C463.249 76.192 463.349 76.632 463.549 77.008C463.749 77.376 464.017 77.66 464.353 77.86C464.689 78.052 465.061 78.148 465.469 78.148C465.877 78.148 466.249 78.052 466.585 77.86C466.929 77.66 467.201 77.376 467.401 77.008C467.601 76.632 467.701 76.196 467.701 75.7ZM471.983 73.324V77.2C471.983 77.52 472.051 77.748 472.187 77.884C472.323 78.012 472.559 78.076 472.895 78.076H473.699V79H472.715C472.107 79 471.651 78.86 471.347 78.58C471.043 78.3 470.891 77.84 470.891 77.2V73.324H470.039V72.424H470.891V70.768H471.983V72.424H473.699V73.324H471.983ZM481.022 75.46C481.022 75.668 481.01 75.888 480.986 76.12H475.73C475.77 76.768 475.99 77.276 476.39 77.644C476.798 78.004 477.29 78.184 477.866 78.184C478.338 78.184 478.73 78.076 479.042 77.86C479.362 77.636 479.586 77.34 479.714 76.972H480.89C480.714 77.604 480.362 78.12 479.834 78.52C479.306 78.912 478.65 79.108 477.866 79.108C477.242 79.108 476.682 78.968 476.186 78.688C475.698 78.408 475.314 78.012 475.034 77.5C474.754 76.98 474.614 76.38 474.614 75.7C474.614 75.02 474.75 74.424 475.022 73.912C475.294 73.4 475.674 73.008 476.162 72.736C476.658 72.456 477.226 72.316 477.866 72.316C478.49 72.316 479.042 72.452 479.522 72.724C480.002 72.996 480.37 73.372 480.626 73.852C480.89 74.324 481.022 74.86 481.022 75.46ZM479.894 75.232C479.894 74.816 479.802 74.46 479.618 74.164C479.434 73.86 479.182 73.632 478.862 73.48C478.55 73.32 478.202 73.24 477.818 73.24C477.266 73.24 476.794 73.416 476.402 73.768C476.018 74.12 475.798 74.608 475.742 75.232H479.894ZM485.254 75.7C485.254 75.02 485.39 74.428 485.662 73.924C485.934 73.412 486.31 73.016 486.79 72.736C487.278 72.456 487.834 72.316 488.458 72.316C489.266 72.316 489.93 72.512 490.45 72.904C490.978 73.296 491.326 73.84 491.494 74.536H490.318C490.206 74.136 489.986 73.82 489.658 73.588C489.338 73.356 488.938 73.24 488.458 73.24C487.834 73.24 487.33 73.456 486.946 73.888C486.562 74.312 486.37 74.916 486.37 75.7C486.37 76.492 486.562 77.104 486.946 77.536C487.33 77.968 487.834 78.184 488.458 78.184C488.938 78.184 489.338 78.072 489.658 77.848C489.978 77.624 490.198 77.304 490.318 76.888H491.494C491.318 77.56 490.966 78.1 490.438 78.508C489.91 78.908 489.25 79.108 488.458 79.108C487.834 79.108 487.278 78.968 486.79 78.688C486.31 78.408 485.934 78.012 485.662 77.5C485.39 76.988 485.254 76.388 485.254 75.7ZM495.819 79.108C495.203 79.108 494.643 78.968 494.139 78.688C493.643 78.408 493.251 78.012 492.963 77.5C492.683 76.98 492.543 76.38 492.543 75.7C492.543 75.028 492.687 74.436 492.975 73.924C493.271 73.404 493.671 73.008 494.175 72.736C494.679 72.456 495.243 72.316 495.867 72.316C496.491 72.316 497.055 72.456 497.559 72.736C498.063 73.008 498.459 73.4 498.747 73.912C499.043 74.424 499.191 75.02 499.191 75.7C499.191 76.38 499.039 76.98 498.735 77.5C498.439 78.012 498.035 78.408 497.523 78.688C497.011 78.968 496.443 79.108 495.819 79.108ZM495.819 78.148C496.211 78.148 496.579 78.056 496.923 77.872C497.267 77.688 497.543 77.412 497.751 77.044C497.967 76.676 498.075 76.228 498.075 75.7C498.075 75.172 497.971 74.724 497.763 74.356C497.555 73.988 497.283 73.716 496.947 73.54C496.611 73.356 496.247 73.264 495.855 73.264C495.455 73.264 495.087 73.356 494.751 73.54C494.423 73.716 494.159 73.988 493.959 74.356C493.759 74.724 493.659 75.172 493.659 75.7C493.659 76.236 493.755 76.688 493.947 77.056C494.147 77.424 494.411 77.7 494.739 77.884C495.067 78.06 495.427 78.148 495.819 78.148ZM503.831 72.304C504.631 72.304 505.279 72.548 505.775 73.036C506.271 73.516 506.519 74.212 506.519 75.124V79H505.439V75.28C505.439 74.624 505.275 74.124 504.947 73.78C504.619 73.428 504.171 73.252 503.603 73.252C503.027 73.252 502.567 73.432 502.223 73.792C501.887 74.152 501.719 74.676 501.719 75.364V79H500.627V72.424H501.719V73.36C501.935 73.024 502.227 72.764 502.595 72.58C502.971 72.396 503.383 72.304 503.831 72.304ZM507.895 75.7C507.895 75.02 508.031 74.428 508.303 73.924C508.575 73.412 508.951 73.016 509.431 72.736C509.919 72.456 510.475 72.316 511.099 72.316C511.907 72.316 512.571 72.512 513.091 72.904C513.619 73.296 513.967 73.84 514.135 74.536H512.959C512.847 74.136 512.627 73.82 512.299 73.588C511.979 73.356 511.579 73.24 511.099 73.24C510.475 73.24 509.971 73.456 509.587 73.888C509.203 74.312 509.011 74.916 509.011 75.7C509.011 76.492 509.203 77.104 509.587 77.536C509.971 77.968 510.475 78.184 511.099 78.184C511.579 78.184 511.979 78.072 512.299 77.848C512.619 77.624 512.839 77.304 512.959 76.888H514.135C513.959 77.56 513.607 78.1 513.079 78.508C512.551 78.908 511.891 79.108 511.099 79.108C510.475 79.108 509.919 78.968 509.431 78.688C508.951 78.408 508.575 78.012 508.303 77.5C508.031 76.988 507.895 76.388 507.895 75.7ZM521.592 75.46C521.592 75.668 521.58 75.888 521.556 76.12H516.3C516.34 76.768 516.56 77.276 516.96 77.644C517.368 78.004 517.86 78.184 518.436 78.184C518.908 78.184 519.3 78.076 519.612 77.86C519.932 77.636 520.156 77.34 520.284 76.972H521.46C521.284 77.604 520.932 78.12 520.404 78.52C519.876 78.912 519.22 79.108 518.436 79.108C517.812 79.108 517.252 78.968 516.756 78.688C516.268 78.408 515.884 78.012 515.604 77.5C515.324 76.98 515.184 76.38 515.184 75.7C515.184 75.02 515.32 74.424 515.592 73.912C515.864 73.4 516.244 73.008 516.732 72.736C517.228 72.456 517.796 72.316 518.436 72.316C519.06 72.316 519.612 72.452 520.092 72.724C520.572 72.996 520.94 73.372 521.196 73.852C521.46 74.324 521.592 74.86 521.592 75.46ZM520.464 75.232C520.464 74.816 520.372 74.46 520.188 74.164C520.004 73.86 519.752 73.632 519.432 73.48C519.12 73.32 518.772 73.24 518.388 73.24C517.836 73.24 517.364 73.416 516.972 73.768C516.588 74.12 516.368 74.608 516.312 75.232H520.464ZM524.125 73.636C524.341 73.26 524.661 72.948 525.085 72.7C525.517 72.444 526.017 72.316 526.585 72.316C527.169 72.316 527.697 72.456 528.169 72.736C528.649 73.016 529.025 73.412 529.297 73.924C529.569 74.428 529.705 75.016 529.705 75.688C529.705 76.352 529.569 76.944 529.297 77.464C529.025 77.984 528.649 78.388 528.169 78.676C527.697 78.964 527.169 79.108 526.585 79.108C526.025 79.108 525.529 78.984 525.097 78.736C524.673 78.48 524.349 78.164 524.125 77.788V82.12H523.033V72.424H524.125V73.636ZM528.589 75.688C528.589 75.192 528.489 74.76 528.289 74.392C528.089 74.024 527.817 73.744 527.473 73.552C527.137 73.36 526.765 73.264 526.357 73.264C525.957 73.264 525.585 73.364 525.241 73.564C524.905 73.756 524.633 74.04 524.425 74.416C524.225 74.784 524.125 75.212 524.125 75.7C524.125 76.196 524.225 76.632 524.425 77.008C524.633 77.376 524.905 77.66 525.241 77.86C525.585 78.052 525.957 78.148 526.357 78.148C526.765 78.148 527.137 78.052 527.473 77.86C527.817 77.66 528.089 77.376 528.289 77.008C528.489 76.632 528.589 76.192 528.589 75.688ZM532.475 73.324V77.2C532.475 77.52 532.543 77.748 532.679 77.884C532.815 78.012 533.051 78.076 533.387 78.076H534.191V79H533.207C532.599 79 532.143 78.86 531.839 78.58C531.535 78.3 531.383 77.84 531.383 77.2V73.324H530.531V72.424H531.383V70.768H532.475V72.424H534.191V73.324H532.475ZM537.842 79.108C537.338 79.108 536.886 79.024 536.486 78.856C536.086 78.68 535.77 78.44 535.538 78.136C535.306 77.824 535.178 77.468 535.154 77.068H536.282C536.314 77.396 536.466 77.664 536.738 77.872C537.018 78.08 537.382 78.184 537.83 78.184C538.246 78.184 538.574 78.092 538.814 77.908C539.054 77.724 539.174 77.492 539.174 77.212C539.174 76.924 539.046 76.712 538.79 76.576C538.534 76.432 538.138 76.292 537.602 76.156C537.114 76.028 536.714 75.9 536.402 75.772C536.098 75.636 535.834 75.44 535.61 75.184C535.394 74.92 535.286 74.576 535.286 74.152C535.286 73.816 535.386 73.508 535.586 73.228C535.786 72.948 536.07 72.728 536.438 72.568C536.806 72.4 537.226 72.316 537.698 72.316C538.426 72.316 539.014 72.5 539.462 72.868C539.91 73.236 540.15 73.74 540.182 74.38H539.09C539.066 74.036 538.926 73.76 538.67 73.552C538.422 73.344 538.086 73.24 537.662 73.24C537.27 73.24 536.958 73.324 536.726 73.492C536.494 73.66 536.378 73.88 536.378 74.152C536.378 74.368 536.446 74.548 536.582 74.692C536.726 74.828 536.902 74.94 537.11 75.028C537.326 75.108 537.622 75.2 537.998 75.304C538.47 75.432 538.854 75.56 539.15 75.688C539.446 75.808 539.698 75.992 539.906 76.24C540.122 76.488 540.234 76.812 540.242 77.212C540.242 77.572 540.142 77.896 539.942 78.184C539.742 78.472 539.458 78.7 539.09 78.868C538.73 79.028 538.314 79.108 537.842 79.108Z" fill="#323F56"/>
<path d="M612.516 73.084C612.516 73.78 612.276 74.36 611.796 74.824C611.324 75.28 610.6 75.508 609.624 75.508H608.016V79H606.924V70.636H609.624C610.568 70.636 611.284 70.864 611.772 71.32C612.268 71.776 612.516 72.364 612.516 73.084ZM609.624 74.608C610.232 74.608 610.68 74.476 610.968 74.212C611.256 73.948 611.4 73.572 611.4 73.084C611.4 72.052 610.808 71.536 609.624 71.536H608.016V74.608H609.624ZM614.965 73.492C615.157 73.116 615.429 72.824 615.781 72.616C616.141 72.408 616.577 72.304 617.089 72.304V73.432H616.801C615.577 73.432 614.965 74.096 614.965 75.424V79H613.873V72.424H614.965V73.492ZM621.218 79.108C620.602 79.108 620.042 78.968 619.538 78.688C619.042 78.408 618.65 78.012 618.362 77.5C618.082 76.98 617.942 76.38 617.942 75.7C617.942 75.028 618.086 74.436 618.374 73.924C618.67 73.404 619.07 73.008 619.574 72.736C620.078 72.456 620.642 72.316 621.266 72.316C621.89 72.316 622.454 72.456 622.958 72.736C623.462 73.008 623.858 73.4 624.146 73.912C624.442 74.424 624.59 75.02 624.59 75.7C624.59 76.38 624.438 76.98 624.134 77.5C623.838 78.012 623.434 78.408 622.922 78.688C622.41 78.968 621.842 79.108 621.218 79.108ZM621.218 78.148C621.61 78.148 621.978 78.056 622.322 77.872C622.666 77.688 622.942 77.412 623.15 77.044C623.366 76.676 623.474 76.228 623.474 75.7C623.474 75.172 623.37 74.724 623.162 74.356C622.954 73.988 622.682 73.716 622.346 73.54C622.01 73.356 621.646 73.264 621.254 73.264C620.854 73.264 620.486 73.356 620.15 73.54C619.822 73.716 619.558 73.988 619.358 74.356C619.158 74.724 619.058 75.172 619.058 75.7C619.058 76.236 619.154 76.688 619.346 77.056C619.546 77.424 619.81 77.7 620.138 77.884C620.466 78.06 620.826 78.148 621.218 78.148ZM627.358 73.324V77.2C627.358 77.52 627.426 77.748 627.562 77.884C627.698 78.012 627.934 78.076 628.27 78.076H629.074V79H628.09C627.482 79 627.026 78.86 626.722 78.58C626.418 78.3 626.266 77.84 626.266 77.2V73.324H625.414V72.424H626.266V70.768H627.358V72.424H629.074V73.324H627.358ZM633.265 79.108C632.649 79.108 632.089 78.968 631.585 78.688C631.089 78.408 630.697 78.012 630.409 77.5C630.129 76.98 629.989 76.38 629.989 75.7C629.989 75.028 630.133 74.436 630.421 73.924C630.717 73.404 631.117 73.008 631.621 72.736C632.125 72.456 632.689 72.316 633.313 72.316C633.937 72.316 634.501 72.456 635.005 72.736C635.509 73.008 635.905 73.4 636.193 73.912C636.489 74.424 636.637 75.02 636.637 75.7C636.637 76.38 636.485 76.98 636.181 77.5C635.885 78.012 635.481 78.408 634.969 78.688C634.457 78.968 633.889 79.108 633.265 79.108ZM633.265 78.148C633.657 78.148 634.025 78.056 634.369 77.872C634.713 77.688 634.989 77.412 635.197 77.044C635.413 76.676 635.521 76.228 635.521 75.7C635.521 75.172 635.417 74.724 635.209 74.356C635.001 73.988 634.729 73.716 634.393 73.54C634.057 73.356 633.693 73.264 633.301 73.264C632.901 73.264 632.533 73.356 632.197 73.54C631.869 73.716 631.605 73.988 631.405 74.356C631.205 74.724 631.105 75.172 631.105 75.7C631.105 76.236 631.201 76.688 631.393 77.056C631.593 77.424 631.857 77.7 632.185 77.884C632.513 78.06 632.873 78.148 633.265 78.148ZM639.404 73.324V77.2C639.404 77.52 639.472 77.748 639.608 77.884C639.744 78.012 639.98 78.076 640.316 78.076H641.12V79H640.136C639.528 79 639.072 78.86 638.768 78.58C638.464 78.3 638.312 77.84 638.312 77.2V73.324H637.46V72.424H638.312V70.768H639.404V72.424H641.12V73.324H639.404ZM648.108 72.424L644.148 82.096H643.02L644.316 78.928L641.664 72.424H642.876L644.94 77.752L646.98 72.424H648.108ZM650.297 73.636C650.513 73.26 650.833 72.948 651.257 72.7C651.689 72.444 652.189 72.316 652.757 72.316C653.341 72.316 653.869 72.456 654.341 72.736C654.821 73.016 655.197 73.412 655.469 73.924C655.741 74.428 655.877 75.016 655.877 75.688C655.877 76.352 655.741 76.944 655.469 77.464C655.197 77.984 654.821 78.388 654.341 78.676C653.869 78.964 653.341 79.108 652.757 79.108C652.197 79.108 651.701 78.984 651.269 78.736C650.845 78.48 650.521 78.164 650.297 77.788V82.12H649.205V72.424H650.297V73.636ZM654.761 75.688C654.761 75.192 654.661 74.76 654.461 74.392C654.261 74.024 653.989 73.744 653.645 73.552C653.309 73.36 652.937 73.264 652.529 73.264C652.129 73.264 651.757 73.364 651.413 73.564C651.077 73.756 650.805 74.04 650.597 74.416C650.397 74.784 650.297 75.212 650.297 75.7C650.297 76.196 650.397 76.632 650.597 77.008C650.805 77.376 651.077 77.66 651.413 77.86C651.757 78.052 652.129 78.148 652.529 78.148C652.937 78.148 653.309 78.052 653.645 77.86C653.989 77.66 654.261 77.376 654.461 77.008C654.661 76.632 654.761 76.192 654.761 75.688ZM663.315 75.46C663.315 75.668 663.303 75.888 663.279 76.12H658.023C658.063 76.768 658.283 77.276 658.683 77.644C659.091 78.004 659.583 78.184 660.159 78.184C660.631 78.184 661.023 78.076 661.335 77.86C661.655 77.636 661.879 77.34 662.007 76.972H663.183C663.007 77.604 662.655 78.12 662.127 78.52C661.599 78.912 660.943 79.108 660.159 79.108C659.535 79.108 658.975 78.968 658.479 78.688C657.991 78.408 657.607 78.012 657.327 77.5C657.047 76.98 656.907 76.38 656.907 75.7C656.907 75.02 657.043 74.424 657.315 73.912C657.587 73.4 657.967 73.008 658.455 72.736C658.951 72.456 659.519 72.316 660.159 72.316C660.783 72.316 661.335 72.452 661.815 72.724C662.295 72.996 662.663 73.372 662.919 73.852C663.183 74.324 663.315 74.86 663.315 75.46ZM662.187 75.232C662.187 74.816 662.095 74.46 661.911 74.164C661.727 73.86 661.475 73.632 661.155 73.48C660.843 73.32 660.495 73.24 660.111 73.24C659.559 73.24 659.087 73.416 658.695 73.768C658.311 74.12 658.091 74.608 658.035 75.232H662.187Z" fill="#323F56"/>
<path d="M5.84 28.064C5.84 20.6827 7.07733 14.9227 9.552 10.784C12.0693 6.60266 16.3787 4.512 22.48 4.512C28.5813 4.512 32.8693 6.60266 35.344 10.784C37.8613 14.9227 39.12 20.6827 39.12 28.064C39.12 35.5307 37.8613 41.376 35.344 45.6C32.8693 49.7813 28.5813 51.872 22.48 51.872C16.3787 51.872 12.0693 49.7813 9.552 45.6C7.07733 41.376 5.84 35.5307 5.84 28.064ZM31.952 28.064C31.952 24.608 31.7173 21.6853 31.248 19.296C30.8213 16.9067 29.9253 14.9653 28.56 13.472C27.1947 11.936 25.168 11.168 22.48 11.168C19.792 11.168 17.7653 11.936 16.4 13.472C15.0347 14.9653 14.1173 16.9067 13.648 19.296C13.2213 21.6853 13.008 24.608 13.008 28.064C13.008 31.648 13.2213 34.656 13.648 37.088C14.0747 39.52 14.9707 41.4827 16.336 42.976C17.744 44.4693 19.792 45.216 22.48 45.216C25.168 45.216 27.1947 44.4693 28.56 42.976C29.968 41.4827 30.8853 39.52 31.312 37.088C31.7387 34.656 31.952 31.648 31.952 28.064ZM45.88 12V5.344H59.192V52H51.832V12H45.88Z" fill="#323F56"/>
<path d="M291.84 28.064C291.84 20.6827 293.077 14.9227 295.552 10.784C298.069 6.60266 302.379 4.512 308.48 4.512C314.581 4.512 318.869 6.60266 321.344 10.784C323.861 14.9227 325.12 20.6827 325.12 28.064C325.12 35.5307 323.861 41.376 321.344 45.6C318.869 49.7813 314.581 51.872 308.48 51.872C302.379 51.872 298.069 49.7813 295.552 45.6C293.077 41.376 291.84 35.5307 291.84 28.064ZM317.952 28.064C317.952 24.608 317.717 21.6853 317.248 19.296C316.821 16.9067 315.925 14.9653 314.56 13.472C313.195 11.936 311.168 11.168 308.48 11.168C305.792 11.168 303.765 11.936 302.4 13.472C301.035 14.9653 300.117 16.9067 299.648 19.296C299.221 21.6853 299.008 24.608 299.008 28.064C299.008 31.648 299.221 34.656 299.648 37.088C300.075 39.52 300.971 41.4827 302.336 42.976C303.744 44.4693 305.792 45.216 308.48 45.216C311.168 45.216 313.195 44.4693 314.56 42.976C315.968 41.4827 316.885 39.52 317.312 37.088C317.739 34.656 317.952 31.648 317.952 28.064ZM332.712 16.864C332.968 12.896 334.483 9.80267 337.256 7.584C340.072 5.36533 343.656 4.256 348.008 4.256C350.995 4.256 353.576 4.78933 355.752 5.856C357.928 6.92266 359.571 8.37333 360.68 10.208C361.789 12.0427 362.344 14.112 362.344 16.416C362.344 19.0613 361.64 21.3227 360.232 23.2C358.824 25.0773 357.139 26.336 355.176 26.976V27.232C357.693 28 359.656 29.408 361.064 31.456C362.472 33.4613 363.176 36.0427 363.176 39.2C363.176 41.7173 362.6 43.9573 361.448 45.92C360.296 47.8827 358.589 49.44 356.328 50.592C354.067 51.7013 351.357 52.256 348.2 52.256C343.592 52.256 339.795 51.0827 336.808 48.736C333.864 46.3467 332.285 42.9333 332.072 38.496H339.112C339.283 40.7573 340.157 42.6133 341.736 44.064C343.315 45.472 345.448 46.176 348.136 46.176C350.739 46.176 352.744 45.472 354.152 44.064C355.56 42.6133 356.264 40.7573 356.264 38.496C356.264 35.5093 355.304 33.3973 353.384 32.16C351.507 30.88 348.605 30.24 344.68 30.24H343.016V24.224H344.744C348.2 24.1813 350.824 23.6053 352.616 22.496C354.451 21.3867 355.368 19.6373 355.368 17.248C355.368 15.2 354.707 13.5787 353.384 12.384C352.061 11.1467 350.184 10.528 347.752 10.528C345.363 10.528 343.507 11.1467 342.184 12.384C340.861 13.5787 340.072 15.072 339.816 16.864H332.712Z" fill="#323F56"/>
<path d="M141.84 28.064C141.84 20.6827 143.077 14.9227 145.552 10.784C148.069 6.60266 152.379 4.512 158.48 4.512C164.581 4.512 168.869 6.60266 171.344 10.784C173.861 14.9227 175.12 20.6827 175.12 28.064C175.12 35.5307 173.861 41.376 171.344 45.6C168.869 49.7813 164.581 51.872 158.48 51.872C152.379 51.872 148.069 49.7813 145.552 45.6C143.077 41.376 141.84 35.5307 141.84 28.064ZM167.952 28.064C167.952 24.608 167.717 21.6853 167.248 19.296C166.821 16.9067 165.925 14.9653 164.56 13.472C163.195 11.936 161.168 11.168 158.48 11.168C155.792 11.168 153.765 11.936 152.4 13.472C151.035 14.9653 150.117 16.9067 149.648 19.296C149.221 21.6853 149.008 24.608 149.008 28.064C149.008 31.648 149.221 34.656 149.648 37.088C150.075 39.52 150.971 41.4827 152.336 42.976C153.744 44.4693 155.792 45.216 158.48 45.216C161.168 45.216 163.195 44.4693 164.56 42.976C165.968 41.4827 166.885 39.52 167.312 37.088C167.739 34.656 167.952 31.648 167.952 28.064ZM186.872 42.08C190.968 38.5387 194.189 35.6373 196.536 33.376C198.925 31.072 200.909 28.6827 202.488 26.208C204.067 23.7333 204.856 21.2587 204.856 18.784C204.856 16.224 204.237 14.2187 203 12.768C201.805 11.3173 199.907 10.592 197.304 10.592C194.787 10.592 192.824 11.4027 191.416 13.024C190.051 14.6027 189.325 16.736 189.24 19.424H182.2C182.328 14.56 183.779 10.848 186.552 8.288C189.368 5.68533 192.931 4.384 197.24 4.384C201.891 4.384 205.517 5.664 208.12 8.224C210.765 10.784 212.088 14.1973 212.088 18.464C212.088 21.536 211.299 24.5013 209.72 27.36C208.184 30.176 206.328 32.7147 204.152 34.976C202.019 37.1947 199.288 39.776 195.96 42.72L193.08 45.28H213.368V51.36H182.264V46.048L186.872 42.08Z" fill="#323F56"/>
<path d="M442.84 28.064C442.84 20.6827 444.077 14.9227 446.552 10.784C449.069 6.60266 453.379 4.512 459.48 4.512C465.581 4.512 469.869 6.60266 472.344 10.784C474.861 14.9227 476.12 20.6827 476.12 28.064C476.12 35.5307 474.861 41.376 472.344 45.6C469.869 49.7813 465.581 51.872 459.48 51.872C453.379 51.872 449.069 49.7813 446.552 45.6C444.077 41.376 442.84 35.5307 442.84 28.064ZM468.952 28.064C468.952 24.608 468.717 21.6853 468.248 19.296C467.821 16.9067 466.925 14.9653 465.56 13.472C464.195 11.936 462.168 11.168 459.48 11.168C456.792 11.168 454.765 11.936 453.4 13.472C452.035 14.9653 451.117 16.9067 450.648 19.296C450.221 21.6853 450.008 24.608 450.008 28.064C450.008 31.648 450.221 34.656 450.648 37.088C451.075 39.52 451.971 41.4827 453.336 42.976C454.744 44.4693 456.792 45.216 459.48 45.216C462.168 45.216 464.195 44.4693 465.56 42.976C466.968 41.4827 467.885 39.52 468.312 37.088C468.739 34.656 468.952 31.648 468.952 28.064ZM482.944 42.272V36.768L504.448 5.92H513.28V35.936H519.232V42.272H513.28V52H506.112V42.272H482.944ZM506.432 13.344L491.328 35.936H506.432V13.344Z" fill="#323F56"/>
<path d="M597.84 28.064C597.84 20.6827 599.077 14.9227 601.552 10.784C604.069 6.60266 608.379 4.512 614.48 4.512C620.581 4.512 624.869 6.60266 627.344 10.784C629.861 14.9227 631.12 20.6827 631.12 28.064C631.12 35.5307 629.861 41.376 627.344 45.6C624.869 49.7813 620.581 51.872 614.48 51.872C608.379 51.872 604.069 49.7813 601.552 45.6C599.077 41.376 597.84 35.5307 597.84 28.064ZM623.952 28.064C623.952 24.608 623.717 21.6853 623.248 19.296C622.821 16.9067 621.925 14.9653 620.56 13.472C619.195 11.936 617.168 11.168 614.48 11.168C611.792 11.168 609.765 11.936 608.4 13.472C607.035 14.9653 606.117 16.9067 605.648 19.296C605.221 21.6853 605.008 24.608 605.008 28.064C605.008 31.648 605.221 34.656 605.648 37.088C606.075 39.52 606.971 41.4827 608.336 42.976C609.744 44.4693 611.792 45.216 614.48 45.216C617.168 45.216 619.195 44.4693 620.56 42.976C621.968 41.4827 622.885 39.52 623.312 37.088C623.739 34.656 623.952 31.648 623.952 28.064ZM668.92 11.616H647.48V24.352C648.376 23.1573 649.699 22.1547 651.448 21.344C653.24 20.5333 655.139 20.128 657.144 20.128C660.728 20.128 663.629 20.896 665.848 22.432C668.109 23.968 669.709 25.9093 670.648 28.256C671.629 30.6027 672.12 33.0773 672.12 35.68C672.12 38.8373 671.501 41.6533 670.264 44.128C669.069 46.56 667.256 48.48 664.824 49.888C662.435 51.296 659.491 52 655.992 52C651.341 52 647.608 50.848 644.792 48.544C641.976 46.24 640.291 43.1893 639.736 39.392H646.84C647.309 41.3973 648.355 42.9973 649.976 44.192C651.597 45.344 653.624 45.92 656.056 45.92C659.085 45.92 661.347 45.0027 662.84 43.168C664.376 41.3333 665.144 38.9013 665.144 35.872C665.144 32.8 664.376 30.4533 662.84 28.832C661.304 27.168 659.043 26.336 656.056 26.336C653.965 26.336 652.195 26.8693 650.744 27.936C649.336 28.96 648.312 30.368 647.672 32.16H640.76V5.216H668.92V11.616Z" fill="#323F56"/>
</g>
<defs>
<clipPath id="clip0_140_1335">
<rect width="676" height="87" fill="white"/>
</clipPath>
</defs>
</svg>
