<svg width="1026" height="1184" viewBox="0 0 1026 1184" fill="none" xmlns="http://www.w3.org/2000/svg">
<path d="M52.4062 59V80H155.406M973.406 59V80H871.156M155.406 80V59M155.406 80H257.906M257.906 59V80M257.906 80H360.406M360.406 59V80M360.406 80H462.406M462.406 59V80M462.406 80H564.406M564.406 59V80M564.406 80H666.406M666.406 59V80M666.406 80H768.906M768.906 59V80M768.906 80H871.156M870.906 59L871.156 80" stroke="black" stroke-width="2"/>
<path d="M52.4062 225V246H155.406M973.406 225V246H871.156M155.406 246V225M155.406 246H257.906M257.906 225V246M257.906 246H360.406M360.406 225V246M360.406 246H462.406M462.406 225V246M462.406 246H564.406M564.406 225V246M564.406 246H666.406M666.406 225V246M666.406 246H768.906M768.906 225V246M768.906 246H871.156M870.906 225L871.156 246" stroke="black" stroke-width="2"/>
<path d="M52.4062 406V427H155.406M973.406 406V427H871.156M155.406 427V406M155.406 427H257.906M257.906 406V427M257.906 427H360.406M360.406 406V427M360.406 427H462.406M462.406 406V427M462.406 427H564.406M564.406 406V427M564.406 427H666.406M666.406 406V427M666.406 427H768.906M768.906 406V427M768.906 427H871.156M870.906 406L871.156 427" stroke="black" stroke-width="2"/>
<path d="M52.4062 582V603H155.406M973.406 582V603H871.156M155.406 603V582M155.406 603H257.906M257.906 582V603M257.906 603H360.406M360.406 582V603M360.406 603H462.406M462.406 582V603M462.406 603H564.406M564.406 582V603M564.406 603H666.406M666.406 582V603M666.406 603H768.906M768.906 582V603M768.906 603H871.156M870.906 582L871.156 603" stroke="black" stroke-width="2"/>
<path d="M52.4062 764.494V785.494H155.406M973.406 764.494V785.494H871.156M155.406 785.494V764.494M155.406 785.494H257.906M257.906 764.494V785.494M257.906 785.494H360.406M360.406 764.494V785.494M360.406 785.494H462.406M462.406 764.494V785.494M462.406 785.494H564.406M564.406 764.494V785.494M564.406 785.494H666.406M666.406 764.494V785.494M666.406 785.494H768.906M768.906 764.494V785.494M768.906 785.494H871.156M870.906 764.494L871.156 785.494" stroke="black" stroke-width="2"/>
<path d="M52.4062 936.402V957.402H155.406M973.406 936.402V957.402H871.156M155.406 957.402V936.402M155.406 957.402H257.906M257.906 936.402V957.402M257.906 957.402H360.406M360.406 936.402V957.402M360.406 957.402H462.406M462.406 936.402V957.402M462.406 957.402H564.406M564.406 936.402V957.402M564.406 957.402H666.406M666.406 936.402V957.402M666.406 957.402H768.906M768.906 936.402V957.402M768.906 957.402H871.156M870.906 936.402L871.156 957.402" stroke="black" stroke-width="2"/>
<path d="M52.4062 1116.48V1137.48H155.406M973.406 1116.48V1137.48H871.156M155.406 1137.48V1116.48M155.406 1137.48H257.906M257.906 1116.48V1137.48M257.906 1137.48H360.406M360.406 1116.48V1137.48M360.406 1137.48H462.406M462.406 1116.48V1137.48M462.406 1137.48H564.406M564.406 1116.48V1137.48M564.406 1137.48H666.406M666.406 1116.48V1137.48M666.406 1137.48H768.906M768.906 1116.48V1137.48M768.906 1137.48H871.156M870.906 1116.48L871.156 1137.48" stroke="black" stroke-width="2"/>
<path d="M811.742 80L826.133 59.3738L840.523 80L826.133 100.626L811.742 80Z" fill="#455AA5" stroke="#303D6A"/>
<path d="M806.016 246L820.406 225.374L834.797 246L820.406 266.626L806.016 246Z" fill="#455AA5" stroke="#303D6A"/>
<path d="M883.955 427L898.346 406.374L912.736 427L898.346 447.626L883.955 427Z" fill="#455AA5" stroke="#303D6A"/>
<path d="M859.559 603L873.949 582.374L888.34 603L873.949 623.626L859.559 603Z" fill="#455AA5" stroke="#303D6A"/>
<path d="M859.559 785.494L873.949 764.868L888.34 785.494L873.949 806.12L859.559 785.494Z" fill="#455AA5" stroke="#303D6A"/>
<path d="M805.407 957.402L819.797 936.776L834.187 957.402L819.797 978.028L805.407 957.402Z" fill="#455AA5" stroke="#303D6A"/>
<path d="M881.885 1137.48L896.275 1116.85L910.666 1137.48L896.275 1158.11L881.885 1137.48Z" fill="#455AA5" stroke="#303D6A"/>
<path d="M20.1803 33.718C20.1803 32.494 20.4563 31.396 21.0083 30.424C21.5603 29.44 22.3103 28.672 23.2583 28.12C24.2183 27.568 25.2803 27.292 26.4443 27.292C27.8123 27.292 29.0063 27.622 30.0263 28.282C31.0463 28.942 31.7903 29.878 32.2583 31.09H30.2963C29.9483 30.334 29.4443 29.752 28.7843 29.344C28.1363 28.936 27.3563 28.732 26.4443 28.732C25.5683 28.732 24.7823 28.936 24.0863 29.344C23.3903 29.752 22.8443 30.334 22.4483 31.09C22.0523 31.834 21.8543 32.71 21.8543 33.718C21.8543 34.714 22.0523 35.59 22.4483 36.346C22.8443 37.09 23.3903 37.666 24.0863 38.074C24.7823 38.482 25.5683 38.686 26.4443 38.686C27.3563 38.686 28.1363 38.488 28.7843 38.092C29.4443 37.684 29.9483 37.102 30.2963 36.346H32.2583C31.7903 37.546 31.0463 38.476 30.0263 39.136C29.0063 39.784 27.8123 40.108 26.4443 40.108C25.2803 40.108 24.2183 39.838 23.2583 39.298C22.3103 38.746 21.5603 37.984 21.0083 37.012C20.4563 36.04 20.1803 34.942 20.1803 33.718ZM38.9985 40.162C38.0745 40.162 37.2345 39.952 36.4785 39.532C35.7345 39.112 35.1465 38.518 34.7145 37.75C34.2945 36.97 34.0845 36.07 34.0845 35.05C34.0845 34.042 34.3005 33.154 34.7325 32.386C35.1765 31.606 35.7765 31.012 36.5325 30.604C37.2885 30.184 38.1345 29.974 39.0705 29.974C40.0065 29.974 40.8525 30.184 41.6085 30.604C42.3645 31.012 42.9585 31.6 43.3905 32.368C43.8345 33.136 44.0565 34.03 44.0565 35.05C44.0565 36.07 43.8285 36.97 43.3725 37.75C42.9285 38.518 42.3225 39.112 41.5545 39.532C40.7865 39.952 39.9345 40.162 38.9985 40.162ZM38.9985 38.722C39.5865 38.722 40.1385 38.584 40.6545 38.308C41.1705 38.032 41.5845 37.618 41.8965 37.066C42.2205 36.514 42.3825 35.842 42.3825 35.05C42.3825 34.258 42.2265 33.586 41.9145 33.034C41.6025 32.482 41.1945 32.074 40.6905 31.81C40.1865 31.534 39.6405 31.396 39.0525 31.396C38.4525 31.396 37.9005 31.534 37.3965 31.81C36.9045 32.074 36.5085 32.482 36.2085 33.034C35.9085 33.586 35.7585 34.258 35.7585 35.05C35.7585 35.854 35.9025 36.532 36.1905 37.084C36.4905 37.636 36.8865 38.05 37.3785 38.326C37.8705 38.59 38.4105 38.722 38.9985 38.722ZM58.0722 29.956C58.8402 29.956 59.5242 30.118 60.1242 30.442C60.7242 30.754 61.1982 31.228 61.5462 31.864C61.8942 32.5 62.0682 33.274 62.0682 34.186V40H60.4482V34.42C60.4482 33.436 60.2022 32.686 59.7102 32.17C59.2302 31.642 58.5762 31.378 57.7482 31.378C56.8962 31.378 56.2182 31.654 55.7142 32.206C55.2102 32.746 54.9582 33.532 54.9582 34.564V40H53.3382V34.42C53.3382 33.436 53.0922 32.686 52.6002 32.17C52.1202 31.642 51.4662 31.378 50.6382 31.378C49.7862 31.378 49.1082 31.654 48.6042 32.206C48.1002 32.746 47.8482 33.532 47.8482 34.564V40H46.2102V30.136H47.8482V31.558C48.1722 31.042 48.6042 30.646 49.1442 30.37C49.6962 30.094 50.3022 29.956 50.9622 29.956C51.7902 29.956 52.5222 30.142 53.1582 30.514C53.7942 30.886 54.2682 31.432 54.5802 32.152C54.8562 31.456 55.3122 30.916 55.9482 30.532C56.5842 30.148 57.2922 29.956 58.0722 29.956ZM66.3931 31.954C66.7171 31.39 67.1971 30.922 67.8331 30.55C68.4811 30.166 69.2311 29.974 70.0831 29.974C70.9591 29.974 71.7511 30.184 72.4591 30.604C73.1791 31.024 73.7431 31.618 74.1511 32.386C74.5591 33.142 74.7631 34.024 74.7631 35.032C74.7631 36.028 74.5591 36.916 74.1511 37.696C73.7431 38.476 73.1791 39.082 72.4591 39.514C71.7511 39.946 70.9591 40.162 70.0831 40.162C69.2431 40.162 68.4991 39.976 67.8511 39.604C67.2151 39.22 66.7291 38.746 66.3931 38.182V44.68H64.7551V30.136H66.3931V31.954ZM73.0891 35.032C73.0891 34.288 72.9391 33.64 72.6391 33.088C72.3391 32.536 71.9311 32.116 71.4151 31.828C70.9111 31.54 70.3531 31.396 69.7411 31.396C69.1411 31.396 68.5831 31.546 68.0671 31.846C67.5631 32.134 67.1551 32.56 66.8431 33.124C66.5431 33.676 66.3931 34.318 66.3931 35.05C66.3931 35.794 66.5431 36.448 66.8431 37.012C67.1551 37.564 67.5631 37.99 68.0671 38.29C68.5831 38.578 69.1411 38.722 69.7411 38.722C70.3531 38.722 70.9111 38.578 71.4151 38.29C71.9311 37.99 72.3391 37.564 72.6391 37.012C72.9391 36.448 73.0891 35.788 73.0891 35.032ZM78.5572 26.68V40H76.9192V26.68H78.5572ZM82.1949 28.534C81.8829 28.534 81.6189 28.426 81.4029 28.21C81.1869 27.994 81.0789 27.73 81.0789 27.418C81.0789 27.106 81.1869 26.842 81.4029 26.626C81.6189 26.41 81.8829 26.302 82.1949 26.302C82.4949 26.302 82.7469 26.41 82.9509 26.626C83.1669 26.842 83.2749 27.106 83.2749 27.418C83.2749 27.73 83.1669 27.994 82.9509 28.21C82.7469 28.426 82.4949 28.534 82.1949 28.534ZM82.9869 30.136V40H81.3489V30.136H82.9869ZM85.1666 35.05C85.1666 34.03 85.3706 33.142 85.7786 32.386C86.1866 31.618 86.7506 31.024 87.4706 30.604C88.2026 30.184 89.0366 29.974 89.9726 29.974C91.1846 29.974 92.1806 30.268 92.9606 30.856C93.7526 31.444 94.2746 32.26 94.5266 33.304H92.7626C92.5946 32.704 92.2646 32.23 91.7726 31.882C91.2926 31.534 90.6926 31.36 89.9726 31.36C89.0366 31.36 88.2806 31.684 87.7046 32.332C87.1286 32.968 86.8406 33.874 86.8406 35.05C86.8406 36.238 87.1286 37.156 87.7046 37.804C88.2806 38.452 89.0366 38.776 89.9726 38.776C90.6926 38.776 91.2926 38.608 91.7726 38.272C92.2526 37.936 92.5826 37.456 92.7626 36.832H94.5266C94.2626 37.84 93.7346 38.65 92.9426 39.262C92.1506 39.862 91.1606 40.162 89.9726 40.162C89.0366 40.162 88.2026 39.952 87.4706 39.532C86.7506 39.112 86.1866 38.518 85.7786 37.75C85.3706 36.982 85.1666 36.082 85.1666 35.05ZM96.1002 35.032C96.1002 34.024 96.3042 33.142 96.7122 32.386C97.1202 31.618 97.6782 31.024 98.3862 30.604C99.1062 30.184 99.9042 29.974 100.78 29.974C101.644 29.974 102.394 30.16 103.03 30.532C103.666 30.904 104.14 31.372 104.452 31.936V30.136H106.108V40H104.452V38.164C104.128 38.74 103.642 39.22 102.994 39.604C102.358 39.976 101.614 40.162 100.762 40.162C99.8862 40.162 99.0942 39.946 98.3862 39.514C97.6782 39.082 97.1202 38.476 96.7122 37.696C96.3042 36.916 96.1002 36.028 96.1002 35.032ZM104.452 35.05C104.452 34.306 104.302 33.658 104.002 33.106C103.702 32.554 103.294 32.134 102.778 31.846C102.274 31.546 101.716 31.396 101.104 31.396C100.492 31.396 99.9342 31.54 99.4302 31.828C98.9262 32.116 98.5242 32.536 98.2242 33.088C97.9242 33.64 97.7742 34.288 97.7742 35.032C97.7742 35.788 97.9242 36.448 98.2242 37.012C98.5242 37.564 98.9262 37.99 99.4302 38.29C99.9342 38.578 100.492 38.722 101.104 38.722C101.716 38.722 102.274 38.578 102.778 38.29C103.294 37.99 103.702 37.564 104.002 37.012C104.302 36.448 104.452 35.794 104.452 35.05ZM110.874 31.486V37.3C110.874 37.78 110.976 38.122 111.18 38.326C111.384 38.518 111.738 38.614 112.242 38.614H113.448V40H111.972C111.06 40 110.376 39.79 109.92 39.37C109.464 38.95 109.236 38.26 109.236 37.3V31.486H107.958V30.136H109.236V27.652H110.874V30.136H113.448V31.486H110.874ZM124.433 34.69C124.433 35.002 124.415 35.332 124.379 35.68H116.495C116.555 36.652 116.885 37.414 117.485 37.966C118.097 38.506 118.835 38.776 119.699 38.776C120.407 38.776 120.995 38.614 121.463 38.29C121.943 37.954 122.279 37.51 122.471 36.958H124.235C123.971 37.906 123.443 38.68 122.651 39.28C121.859 39.868 120.875 40.162 119.699 40.162C118.763 40.162 117.923 39.952 117.179 39.532C116.447 39.112 115.871 38.518 115.451 37.75C115.031 36.97 114.821 36.07 114.821 35.05C114.821 34.03 115.025 33.136 115.433 32.368C115.841 31.6 116.411 31.012 117.143 30.604C117.887 30.184 118.739 29.974 119.699 29.974C120.635 29.974 121.463 30.178 122.183 30.586C122.903 30.994 123.455 31.558 123.839 32.278C124.235 32.986 124.433 33.79 124.433 34.69ZM122.741 34.348C122.741 33.724 122.603 33.19 122.327 32.746C122.051 32.29 121.673 31.948 121.193 31.72C120.725 31.48 120.203 31.36 119.627 31.36C118.799 31.36 118.091 31.624 117.503 32.152C116.927 32.68 116.597 33.412 116.513 34.348H122.741ZM125.983 35.032C125.983 34.024 126.187 33.142 126.595 32.386C127.003 31.618 127.561 31.024 128.269 30.604C128.989 30.184 129.793 29.974 130.681 29.974C131.449 29.974 132.163 30.154 132.823 30.514C133.483 30.862 133.987 31.324 134.335 31.9V26.68H135.991V40H134.335V38.146C134.011 38.734 133.531 39.22 132.895 39.604C132.259 39.976 131.515 40.162 130.663 40.162C129.787 40.162 128.989 39.946 128.269 39.514C127.561 39.082 127.003 38.476 126.595 37.696C126.187 36.916 125.983 36.028 125.983 35.032ZM134.335 35.05C134.335 34.306 134.185 33.658 133.885 33.106C133.585 32.554 133.177 32.134 132.661 31.846C132.157 31.546 131.599 31.396 130.987 31.396C130.375 31.396 129.817 31.54 129.313 31.828C128.809 32.116 128.407 32.536 128.107 33.088C127.807 33.64 127.657 34.288 127.657 35.032C127.657 35.788 127.807 36.448 128.107 37.012C128.407 37.564 128.809 37.99 129.313 38.29C129.817 38.578 130.375 38.722 130.987 38.722C131.599 38.722 132.157 38.578 132.661 38.29C133.177 37.99 133.585 37.564 133.885 37.012C134.185 36.448 134.335 35.794 134.335 35.05Z" fill="black"/>
<path d="M33.5183 193.544V206H31.8803V196.712L27.7403 206H26.5883L22.4303 196.694V206H20.7923V193.544H22.5563L27.1643 203.84L31.7723 193.544H33.5183ZM45.2962 200.69C45.2962 201.002 45.2782 201.332 45.2422 201.68H37.3582C37.4182 202.652 37.7482 203.414 38.3482 203.966C38.9602 204.506 39.6982 204.776 40.5622 204.776C41.2702 204.776 41.8582 204.614 42.3262 204.29C42.8062 203.954 43.1422 203.51 43.3342 202.958H45.0982C44.8342 203.906 44.3062 204.68 43.5142 205.28C42.7222 205.868 41.7382 206.162 40.5622 206.162C39.6262 206.162 38.7862 205.952 38.0422 205.532C37.3102 205.112 36.7342 204.518 36.3142 203.75C35.8942 202.97 35.6842 202.07 35.6842 201.05C35.6842 200.03 35.8882 199.136 36.2962 198.368C36.7042 197.6 37.2742 197.012 38.0062 196.604C38.7502 196.184 39.6022 195.974 40.5622 195.974C41.4982 195.974 42.3262 196.178 43.0462 196.586C43.7662 196.994 44.3182 197.558 44.7022 198.278C45.0982 198.986 45.2962 199.79 45.2962 200.69ZM43.6042 200.348C43.6042 199.724 43.4662 199.19 43.1902 198.746C42.9142 198.29 42.5362 197.948 42.0562 197.72C41.5882 197.48 41.0662 197.36 40.4902 197.36C39.6622 197.36 38.9542 197.624 38.3662 198.152C37.7902 198.68 37.4602 199.412 37.3762 200.348H43.6042ZM50.9503 206.162C50.1943 206.162 49.5163 206.036 48.9163 205.784C48.3163 205.52 47.8423 205.16 47.4943 204.704C47.1463 204.236 46.9543 203.702 46.9183 203.102H48.6103C48.6583 203.594 48.8863 203.996 49.2943 204.308C49.7143 204.62 50.2603 204.776 50.9323 204.776C51.5563 204.776 52.0483 204.638 52.4083 204.362C52.7683 204.086 52.9483 203.738 52.9483 203.318C52.9483 202.886 52.7563 202.568 52.3723 202.364C51.9883 202.148 51.3943 201.938 50.5903 201.734C49.8583 201.542 49.2583 201.35 48.7903 201.158C48.3343 200.954 47.9383 200.66 47.6023 200.276C47.2783 199.88 47.1163 199.364 47.1163 198.728C47.1163 198.224 47.2663 197.762 47.5663 197.342C47.8663 196.922 48.2923 196.592 48.8443 196.352C49.3963 196.1 50.0263 195.974 50.7343 195.974C51.8263 195.974 52.7083 196.25 53.3803 196.802C54.0523 197.354 54.4123 198.11 54.4603 199.07H52.8223C52.7863 198.554 52.5763 198.14 52.1923 197.828C51.8203 197.516 51.3163 197.36 50.6803 197.36C50.0923 197.36 49.6243 197.486 49.2763 197.738C48.9283 197.99 48.7543 198.32 48.7543 198.728C48.7543 199.052 48.8563 199.322 49.0603 199.538C49.2763 199.742 49.5403 199.91 49.8523 200.042C50.1763 200.162 50.6203 200.3 51.1843 200.456C51.8923 200.648 52.4683 200.84 52.9123 201.032C53.3563 201.212 53.7343 201.488 54.0463 201.86C54.3703 202.232 54.5383 202.718 54.5503 203.318C54.5503 203.858 54.4003 204.344 54.1003 204.776C53.8003 205.208 53.3743 205.55 52.8223 205.802C52.2823 206.042 51.6583 206.162 50.9503 206.162ZM60.3546 206.162C59.5986 206.162 58.9206 206.036 58.3206 205.784C57.7206 205.52 57.2466 205.16 56.8986 204.704C56.5506 204.236 56.3586 203.702 56.3226 203.102H58.0146C58.0626 203.594 58.2906 203.996 58.6986 204.308C59.1186 204.62 59.6646 204.776 60.3366 204.776C60.9606 204.776 61.4526 204.638 61.8126 204.362C62.1726 204.086 62.3526 203.738 62.3526 203.318C62.3526 202.886 62.1606 202.568 61.7766 202.364C61.3926 202.148 60.7986 201.938 59.9946 201.734C59.2626 201.542 58.6626 201.35 58.1946 201.158C57.7386 200.954 57.3426 200.66 57.0066 200.276C56.6826 199.88 56.5206 199.364 56.5206 198.728C56.5206 198.224 56.6706 197.762 56.9706 197.342C57.2706 196.922 57.6966 196.592 58.2486 196.352C58.8006 196.1 59.4306 195.974 60.1386 195.974C61.2306 195.974 62.1126 196.25 62.7846 196.802C63.4566 197.354 63.8166 198.11 63.8646 199.07H62.2266C62.1906 198.554 61.9806 198.14 61.5966 197.828C61.2246 197.516 60.7206 197.36 60.0846 197.36C59.4966 197.36 59.0286 197.486 58.6806 197.738C58.3326 197.99 58.1586 198.32 58.1586 198.728C58.1586 199.052 58.2606 199.322 58.4646 199.538C58.6806 199.742 58.9446 199.91 59.2566 200.042C59.5806 200.162 60.0246 200.3 60.5886 200.456C61.2966 200.648 61.8726 200.84 62.3166 201.032C62.7606 201.212 63.1386 201.488 63.4506 201.86C63.7746 202.232 63.9426 202.718 63.9546 203.318C63.9546 203.858 63.8046 204.344 63.5046 204.776C63.2046 205.208 62.7786 205.55 62.2266 205.802C61.6866 206.042 61.0626 206.162 60.3546 206.162ZM74.7629 196.136L68.8229 210.644H67.1309L69.0749 205.892L65.0969 196.136H66.9149L70.0109 204.128L73.0709 196.136H74.7629Z" fill="black"/>
<path d="M22.3943 374.454V382.392C22.3943 383.508 22.6643 384.336 23.2043 384.876C23.7563 385.416 24.5183 385.686 25.4903 385.686C26.4503 385.686 27.2003 385.416 27.7403 384.876C28.2923 384.336 28.5683 383.508 28.5683 382.392V374.454H30.2063V382.374C30.2063 383.418 29.9963 384.3 29.5762 385.02C29.1563 385.728 28.5863 386.256 27.8663 386.604C27.1583 386.952 26.3603 387.126 25.4723 387.126C24.5843 387.126 23.7803 386.952 23.0603 386.604C22.3523 386.256 21.7883 385.728 21.3683 385.02C20.9603 384.3 20.7563 383.418 20.7563 382.374V374.454H22.3943ZM37.7447 376.956C38.9447 376.956 39.9167 377.322 40.6607 378.054C41.4047 378.774 41.7767 379.818 41.7767 381.186V387H40.1567V381.42C40.1567 380.436 39.9107 379.686 39.4187 379.17C38.9267 378.642 38.2547 378.378 37.4027 378.378C36.5387 378.378 35.8487 378.648 35.3327 379.188C34.8287 379.728 34.5767 380.514 34.5767 381.546V387H32.9387V377.136H34.5767V378.54C34.9007 378.036 35.3387 377.646 35.8907 377.37C36.4547 377.094 37.0727 376.956 37.7447 376.956ZM43.8404 382.032C43.8404 381.024 44.0444 380.142 44.4524 379.386C44.8604 378.618 45.4184 378.024 46.1264 377.604C46.8464 377.184 47.6444 376.974 48.5204 376.974C49.3844 376.974 50.1344 377.16 50.7704 377.532C51.4064 377.904 51.8804 378.372 52.1924 378.936V377.136H53.8484V387H52.1924V385.164C51.8684 385.74 51.3824 386.22 50.7344 386.604C50.0984 386.976 49.3544 387.162 48.5024 387.162C47.6264 387.162 46.8344 386.946 46.1264 386.514C45.4184 386.082 44.8604 385.476 44.4524 384.696C44.0444 383.916 43.8404 383.028 43.8404 382.032ZM52.1924 382.05C52.1924 381.306 52.0424 380.658 51.7424 380.106C51.4424 379.554 51.0344 379.134 50.5184 378.846C50.0144 378.546 49.4564 378.396 48.8444 378.396C48.2324 378.396 47.6744 378.54 47.1704 378.828C46.6664 379.116 46.2644 379.536 45.9644 380.088C45.6644 380.64 45.5144 381.288 45.5144 382.032C45.5144 382.788 45.6644 383.448 45.9644 384.012C46.2644 384.564 46.6664 384.99 47.1704 385.29C47.6744 385.578 48.2324 385.722 48.8444 385.722C49.4564 385.722 50.0144 385.578 50.5184 385.29C51.0344 384.99 51.4424 384.564 51.7424 384.012C52.0424 383.448 52.1924 382.794 52.1924 382.05ZM58.6145 378.486V384.3C58.6145 384.78 58.7165 385.122 58.9205 385.326C59.1245 385.518 59.4785 385.614 59.9825 385.614H61.1885V387H59.7125C58.8005 387 58.1165 386.79 57.6605 386.37C57.2045 385.95 56.9765 385.26 56.9765 384.3V378.486H55.6985V377.136H56.9765V374.652H58.6145V377.136H61.1885V378.486H58.6145ZM65.1711 378.486V384.3C65.1711 384.78 65.2731 385.122 65.4771 385.326C65.6811 385.518 66.0351 385.614 66.5391 385.614H67.7451V387H66.2691C65.3571 387 64.6731 386.79 64.2171 386.37C63.7611 385.95 63.5331 385.26 63.5331 384.3V378.486H62.2551V377.136H63.5331V374.652H65.1711V377.136H67.7451V378.486H65.1711ZM71.3678 378.738C71.6558 378.174 72.0638 377.736 72.5918 377.424C73.1318 377.112 73.7858 376.956 74.5538 376.956V378.648H74.1218C72.2858 378.648 71.3678 379.644 71.3678 381.636V387H69.7298V377.136H71.3678V378.738ZM75.8326 382.032C75.8326 381.024 76.0366 380.142 76.4446 379.386C76.8526 378.618 77.4106 378.024 78.1186 377.604C78.8386 377.184 79.6366 376.974 80.5126 376.974C81.3766 376.974 82.1266 377.16 82.7626 377.532C83.3986 377.904 83.8726 378.372 84.1846 378.936V377.136H85.8406V387H84.1846V385.164C83.8606 385.74 83.3746 386.22 82.7266 386.604C82.0906 386.976 81.3466 387.162 80.4946 387.162C79.6186 387.162 78.8266 386.946 78.1186 386.514C77.4106 386.082 76.8526 385.476 76.4446 384.696C76.0366 383.916 75.8326 383.028 75.8326 382.032ZM84.1846 382.05C84.1846 381.306 84.0346 380.658 83.7346 380.106C83.4346 379.554 83.0266 379.134 82.5106 378.846C82.0066 378.546 81.4486 378.396 80.8366 378.396C80.2246 378.396 79.6666 378.54 79.1626 378.828C78.6586 379.116 78.2566 379.536 77.9566 380.088C77.6566 380.64 77.5066 381.288 77.5066 382.032C77.5066 382.788 77.6566 383.448 77.9566 384.012C78.2566 384.564 78.6586 384.99 79.1626 385.29C79.6666 385.578 80.2246 385.722 80.8366 385.722C81.4486 385.722 82.0066 385.578 82.5106 385.29C83.0266 384.99 83.4346 384.564 83.7346 384.012C84.0346 383.448 84.1846 382.794 84.1846 382.05ZM87.9967 382.05C87.9967 381.03 88.2007 380.142 88.6087 379.386C89.0167 378.618 89.5807 378.024 90.3007 377.604C91.0327 377.184 91.8667 376.974 92.8027 376.974C94.0147 376.974 95.0107 377.268 95.7907 377.856C96.5827 378.444 97.1047 379.26 97.3567 380.304H95.5927C95.4247 379.704 95.0947 379.23 94.6027 378.882C94.1227 378.534 93.5227 378.36 92.8027 378.36C91.8667 378.36 91.1107 378.684 90.5347 379.332C89.9587 379.968 89.6707 380.874 89.6707 382.05C89.6707 383.238 89.9587 384.156 90.5347 384.804C91.1107 385.452 91.8667 385.776 92.8027 385.776C93.5227 385.776 94.1227 385.608 94.6027 385.272C95.0827 384.936 95.4127 384.456 95.5927 383.832H97.3567C97.0927 384.84 96.5647 385.65 95.7727 386.262C94.9807 386.862 93.9907 387.162 92.8027 387.162C91.8667 387.162 91.0327 386.952 90.3007 386.532C89.5807 386.112 89.0167 385.518 88.6087 384.75C88.2007 383.982 87.9967 383.082 87.9967 382.05ZM101.54 378.486V384.3C101.54 384.78 101.642 385.122 101.846 385.326C102.05 385.518 102.404 385.614 102.908 385.614H104.114V387H102.638C101.726 387 101.042 386.79 100.586 386.37C100.13 385.95 99.9023 385.26 99.9023 384.3V378.486H98.6243V377.136H99.9023V374.652H101.54V377.136H104.114V378.486H101.54ZM106.945 375.534C106.633 375.534 106.369 375.426 106.153 375.21C105.937 374.994 105.829 374.73 105.829 374.418C105.829 374.106 105.937 373.842 106.153 373.626C106.369 373.41 106.633 373.302 106.945 373.302C107.245 373.302 107.497 373.41 107.701 373.626C107.917 373.842 108.025 374.106 108.025 374.418C108.025 374.73 107.917 374.994 107.701 375.21C107.497 375.426 107.245 375.534 106.945 375.534ZM107.737 377.136V387H106.099V377.136H107.737ZM114.201 385.488L117.261 377.136H119.007L115.137 387H113.229L109.359 377.136H111.123L114.201 385.488ZM129.618 381.69C129.618 382.002 129.6 382.332 129.564 382.68H121.68C121.74 383.652 122.07 384.414 122.67 384.966C123.282 385.506 124.02 385.776 124.884 385.776C125.592 385.776 126.18 385.614 126.648 385.29C127.128 384.954 127.464 384.51 127.656 383.958H129.42C129.156 384.906 128.628 385.68 127.836 386.28C127.044 386.868 126.06 387.162 124.884 387.162C123.948 387.162 123.108 386.952 122.364 386.532C121.632 386.112 121.056 385.518 120.636 384.75C120.216 383.97 120.006 383.07 120.006 382.05C120.006 381.03 120.21 380.136 120.618 379.368C121.026 378.6 121.596 378.012 122.328 377.604C123.072 377.184 123.924 376.974 124.884 376.974C125.82 376.974 126.648 377.178 127.368 377.586C128.088 377.994 128.64 378.558 129.024 379.278C129.42 379.986 129.618 380.79 129.618 381.69ZM127.926 381.348C127.926 380.724 127.788 380.19 127.512 379.746C127.236 379.29 126.858 378.948 126.378 378.72C125.91 378.48 125.388 378.36 124.812 378.36C123.984 378.36 123.276 378.624 122.688 379.152C122.112 379.68 121.782 380.412 121.698 381.348H127.926Z" fill="black"/>
<path d="M22.3943 550.454V558.392C22.3943 559.508 22.6643 560.336 23.2043 560.876C23.7563 561.416 24.5183 561.686 25.4903 561.686C26.4503 561.686 27.2003 561.416 27.7403 560.876C28.2923 560.336 28.5683 559.508 28.5683 558.392V550.454H30.2063V558.374C30.2063 559.418 29.9963 560.3 29.5762 561.02C29.1563 561.728 28.5863 562.256 27.8663 562.604C27.1583 562.952 26.3603 563.126 25.4723 563.126C24.5843 563.126 23.7803 562.952 23.0603 562.604C22.3523 562.256 21.7883 561.728 21.3683 561.02C20.9603 560.3 20.7563 559.418 20.7563 558.374V550.454H22.3943ZM37.7447 552.956C38.9447 552.956 39.9167 553.322 40.6607 554.054C41.4047 554.774 41.7767 555.818 41.7767 557.186V563H40.1567V557.42C40.1567 556.436 39.9107 555.686 39.4187 555.17C38.9267 554.642 38.2547 554.378 37.4027 554.378C36.5387 554.378 35.8487 554.648 35.3327 555.188C34.8287 555.728 34.5767 556.514 34.5767 557.546V563H32.9387V553.136H34.5767V554.54C34.9007 554.036 35.3387 553.646 35.8907 553.37C36.4547 553.094 37.0727 552.956 37.7447 552.956ZM49.3484 552.956C50.0924 552.956 50.7644 553.118 51.3644 553.442C51.9644 553.754 52.4324 554.228 52.7684 554.864C53.1164 555.5 53.2904 556.274 53.2904 557.186V563H51.6704V557.42C51.6704 556.436 51.4244 555.686 50.9324 555.17C50.4404 554.642 49.7684 554.378 48.9164 554.378C48.0524 554.378 47.3624 554.648 46.8464 555.188C46.3424 555.728 46.0904 556.514 46.0904 557.546V563H44.4524V549.68H46.0904V554.54C46.4144 554.036 46.8584 553.646 47.4224 553.37C47.9984 553.094 48.6404 552.956 49.3484 552.956ZM64.9661 557.69C64.9661 558.002 64.9481 558.332 64.9121 558.68H57.0281C57.0881 559.652 57.4181 560.414 58.0181 560.966C58.6301 561.506 59.3681 561.776 60.2321 561.776C60.9401 561.776 61.5281 561.614 61.9961 561.29C62.4761 560.954 62.8121 560.51 63.0041 559.958H64.7681C64.5041 560.906 63.9761 561.68 63.1841 562.28C62.3921 562.868 61.4081 563.162 60.2321 563.162C59.2961 563.162 58.4561 562.952 57.7121 562.532C56.9801 562.112 56.4041 561.518 55.9841 560.75C55.5641 559.97 55.3541 559.07 55.3541 558.05C55.3541 557.03 55.5581 556.136 55.9661 555.368C56.3741 554.6 56.9441 554.012 57.6761 553.604C58.4201 553.184 59.2721 552.974 60.2321 552.974C61.1681 552.974 61.9961 553.178 62.7161 553.586C63.4361 553.994 63.9881 554.558 64.3721 555.278C64.7681 555.986 64.9661 556.79 64.9661 557.69ZM63.2741 557.348C63.2741 556.724 63.1361 556.19 62.8601 555.746C62.5841 555.29 62.2061 554.948 61.7261 554.72C61.2581 554.48 60.7361 554.36 60.1601 554.36C59.3321 554.36 58.6241 554.624 58.0361 555.152C57.4601 555.68 57.1301 556.412 57.0461 557.348H63.2741ZM68.7662 549.68V563H67.1282V549.68H68.7662ZM73.1959 554.954C73.5199 554.39 73.9999 553.922 74.6359 553.55C75.2839 553.166 76.0339 552.974 76.8859 552.974C77.7619 552.974 78.5539 553.184 79.2619 553.604C79.9819 554.024 80.5459 554.618 80.9539 555.386C81.3619 556.142 81.5659 557.024 81.5659 558.032C81.5659 559.028 81.3619 559.916 80.9539 560.696C80.5459 561.476 79.9819 562.082 79.2619 562.514C78.5539 562.946 77.7619 563.162 76.8859 563.162C76.0459 563.162 75.3019 562.976 74.6539 562.604C74.0179 562.22 73.5319 561.746 73.1959 561.182V567.68H71.5579V553.136H73.1959V554.954ZM79.8919 558.032C79.8919 557.288 79.7419 556.64 79.4419 556.088C79.1419 555.536 78.7339 555.116 78.2179 554.828C77.7139 554.54 77.1559 554.396 76.5439 554.396C75.9439 554.396 75.3859 554.546 74.8699 554.846C74.3659 555.134 73.9579 555.56 73.6459 556.124C73.3459 556.676 73.1959 557.318 73.1959 558.05C73.1959 558.794 73.3459 559.448 73.6459 560.012C73.9579 560.564 74.3659 560.99 74.8699 561.29C75.3859 561.578 75.9439 561.722 76.5439 561.722C77.1559 561.722 77.7139 561.578 78.2179 561.29C78.7339 560.99 79.1419 560.564 79.4419 560.012C79.7419 559.448 79.8919 558.788 79.8919 558.032ZM87.7359 554.486H85.6659V563H84.0279V554.486H82.7499V553.136H84.0279V552.434C84.0279 551.33 84.3099 550.526 84.8739 550.022C85.4499 549.506 86.3679 549.248 87.6279 549.248V550.616C86.9079 550.616 86.3979 550.76 86.0979 551.048C85.8099 551.324 85.6659 551.786 85.6659 552.434V553.136H87.7359V554.486ZM98.3938 553.136V563H96.7558V561.542C96.4438 562.046 96.0058 562.442 95.4418 562.73C94.8898 563.006 94.2778 563.144 93.6058 563.144C92.8378 563.144 92.1478 562.988 91.5358 562.676C90.9238 562.352 90.4378 561.872 90.0778 561.236C89.7298 560.6 89.5558 559.826 89.5558 558.914V553.136H91.1758V558.698C91.1758 559.67 91.4218 560.42 91.9138 560.948C92.4058 561.464 93.0778 561.722 93.9298 561.722C94.8058 561.722 95.4958 561.452 95.9998 560.912C96.5038 560.372 96.7558 559.586 96.7558 558.554V553.136H98.3938ZM102.797 549.68V563H101.159V549.68H102.797Z" fill="black"/>
<path d="M24.6982 732.948C26.0663 732.948 27.2483 733.206 28.2443 733.722C29.2523 734.226 30.0203 734.952 30.5483 735.9C31.0883 736.848 31.3583 737.964 31.3583 739.248C31.3583 740.532 31.0883 741.648 30.5483 742.596C30.0203 743.532 29.2523 744.252 28.2443 744.756C27.2483 745.248 26.0663 745.494 24.6982 745.494H20.7923V732.948H24.6982ZM24.6982 744.144C26.3183 744.144 27.5543 743.718 28.4062 742.866C29.2583 742.002 29.6843 740.796 29.6843 739.248C29.6843 737.688 29.2523 736.47 28.3883 735.594C27.5363 734.718 26.3063 734.28 24.6982 734.28H22.4303V744.144H24.6982ZM34.3648 734.028C34.0528 734.028 33.7888 733.92 33.5728 733.704C33.3568 733.488 33.2488 733.224 33.2488 732.912C33.2488 732.6 33.3568 732.336 33.5728 732.12C33.7888 731.904 34.0528 731.796 34.3648 731.796C34.6648 731.796 34.9168 731.904 35.1208 732.12C35.3368 732.336 35.4448 732.6 35.4448 732.912C35.4448 733.224 35.3368 733.488 35.1208 733.704C34.9168 733.92 34.6648 734.028 34.3648 734.028ZM35.1568 735.63V745.494H33.5188V735.63H35.1568ZM41.4405 745.656C40.6845 745.656 40.0065 745.53 39.4065 745.278C38.8065 745.014 38.3325 744.654 37.9845 744.198C37.6365 743.73 37.4445 743.196 37.4085 742.596H39.1005C39.1485 743.088 39.3765 743.49 39.7845 743.802C40.2045 744.114 40.7505 744.27 41.4225 744.27C42.0465 744.27 42.5385 744.132 42.8985 743.856C43.2585 743.58 43.4385 743.232 43.4385 742.812C43.4385 742.38 43.2465 742.062 42.8625 741.858C42.4785 741.642 41.8845 741.432 41.0805 741.228C40.3485 741.036 39.7485 740.844 39.2805 740.652C38.8245 740.448 38.4285 740.154 38.0925 739.77C37.7685 739.374 37.6065 738.858 37.6065 738.222C37.6065 737.718 37.7565 737.256 38.0565 736.836C38.3565 736.416 38.7825 736.086 39.3345 735.846C39.8865 735.594 40.5165 735.468 41.2245 735.468C42.3165 735.468 43.1985 735.744 43.8705 736.296C44.5425 736.848 44.9025 737.604 44.9505 738.564H43.3125C43.2765 738.048 43.0665 737.634 42.6825 737.322C42.3105 737.01 41.8065 736.854 41.1705 736.854C40.5825 736.854 40.1145 736.98 39.7665 737.232C39.4185 737.484 39.2445 737.814 39.2445 738.222C39.2445 738.546 39.3465 738.816 39.5505 739.032C39.7665 739.236 40.0305 739.404 40.3425 739.536C40.6665 739.656 41.1105 739.794 41.6745 739.95C42.3825 740.142 42.9585 740.334 43.4025 740.526C43.8465 740.706 44.2245 740.982 44.5365 741.354C44.8605 741.726 45.0285 742.212 45.0405 742.812C45.0405 743.352 44.8905 743.838 44.5905 744.27C44.2905 744.702 43.8645 745.044 43.3125 745.296C42.7725 745.536 42.1485 745.656 41.4405 745.656ZM46.7408 740.544C46.7408 739.524 46.9448 738.636 47.3528 737.88C47.7608 737.112 48.3248 736.518 49.0448 736.098C49.7768 735.678 50.6108 735.468 51.5468 735.468C52.7588 735.468 53.7548 735.762 54.5348 736.35C55.3268 736.938 55.8488 737.754 56.1008 738.798H54.3368C54.1688 738.198 53.8388 737.724 53.3468 737.376C52.8668 737.028 52.2668 736.854 51.5468 736.854C50.6108 736.854 49.8548 737.178 49.2788 737.826C48.7028 738.462 48.4148 739.368 48.4148 740.544C48.4148 741.732 48.7028 742.65 49.2788 743.298C49.8548 743.946 50.6108 744.27 51.5468 744.27C52.2668 744.27 52.8668 744.102 53.3468 743.766C53.8268 743.43 54.1568 742.95 54.3368 742.326H56.1008C55.8368 743.334 55.3088 744.144 54.5168 744.756C53.7248 745.356 52.7348 745.656 51.5468 745.656C50.6108 745.656 49.7768 745.446 49.0448 745.026C48.3248 744.606 47.7608 744.012 47.3528 743.244C46.9448 742.476 46.7408 741.576 46.7408 740.544ZM62.5884 745.656C61.6644 745.656 60.8244 745.446 60.0684 745.026C59.3244 744.606 58.7364 744.012 58.3044 743.244C57.8844 742.464 57.6744 741.564 57.6744 740.544C57.6744 739.536 57.8904 738.648 58.3224 737.88C58.7664 737.1 59.3664 736.506 60.1224 736.098C60.8784 735.678 61.7244 735.468 62.6604 735.468C63.5964 735.468 64.4424 735.678 65.1984 736.098C65.9544 736.506 66.5484 737.094 66.9804 737.862C67.4244 738.63 67.6464 739.524 67.6464 740.544C67.6464 741.564 67.4184 742.464 66.9624 743.244C66.5184 744.012 65.9124 744.606 65.1444 745.026C64.3764 745.446 63.5244 745.656 62.5884 745.656ZM62.5884 744.216C63.1764 744.216 63.7284 744.078 64.2444 743.802C64.7604 743.526 65.1744 743.112 65.4864 742.56C65.8104 742.008 65.9724 741.336 65.9724 740.544C65.9724 739.752 65.8164 739.08 65.5044 738.528C65.1924 737.976 64.7844 737.568 64.2804 737.304C63.7764 737.028 63.2304 736.89 62.6424 736.89C62.0424 736.89 61.4904 737.028 60.9864 737.304C60.4944 737.568 60.0984 737.976 59.7984 738.528C59.4984 739.08 59.3484 739.752 59.3484 740.544C59.3484 741.348 59.4924 742.026 59.7804 742.578C60.0804 743.13 60.4764 743.544 60.9684 743.82C61.4604 744.084 62.0004 744.216 62.5884 744.216ZM78.5481 735.63V745.494H76.9101V744.036C76.5981 744.54 76.1601 744.936 75.5961 745.224C75.0441 745.5 74.4321 745.638 73.7601 745.638C72.9921 745.638 72.3021 745.482 71.6901 745.17C71.0781 744.846 70.5921 744.366 70.2321 743.73C69.8841 743.094 69.7101 742.32 69.7101 741.408V735.63H71.3301V741.192C71.3301 742.164 71.5761 742.914 72.0681 743.442C72.5601 743.958 73.2321 744.216 74.0841 744.216C74.9601 744.216 75.6501 743.946 76.1541 743.406C76.6581 742.866 76.9101 742.08 76.9101 741.048V735.63H78.5481ZM82.9517 737.232C83.2397 736.668 83.6477 736.23 84.1757 735.918C84.7157 735.606 85.3697 735.45 86.1377 735.45V737.142H85.7057C83.8697 737.142 82.9517 738.138 82.9517 740.13V745.494H81.3137V735.63H82.9517V737.232ZM87.4166 740.526C87.4166 739.518 87.6206 738.636 88.0286 737.88C88.4366 737.112 88.9946 736.518 89.7026 736.098C90.4226 735.678 91.2206 735.468 92.0966 735.468C92.9606 735.468 93.7106 735.654 94.3466 736.026C94.9826 736.398 95.4566 736.866 95.7686 737.43V735.63H97.4246V745.494H95.7686V743.658C95.4446 744.234 94.9586 744.714 94.3106 745.098C93.6746 745.47 92.9306 745.656 92.0786 745.656C91.2026 745.656 90.4106 745.44 89.7026 745.008C88.9946 744.576 88.4366 743.97 88.0286 743.19C87.6206 742.41 87.4166 741.522 87.4166 740.526ZM95.7686 740.544C95.7686 739.8 95.6186 739.152 95.3186 738.6C95.0186 738.048 94.6106 737.628 94.0946 737.34C93.5906 737.04 93.0326 736.89 92.4206 736.89C91.8086 736.89 91.2506 737.034 90.7466 737.322C90.2426 737.61 89.8406 738.03 89.5406 738.582C89.2406 739.134 89.0906 739.782 89.0906 740.526C89.0906 741.282 89.2406 741.942 89.5406 742.506C89.8406 743.058 90.2426 743.484 90.7466 743.784C91.2506 744.072 91.8086 744.216 92.4206 744.216C93.0326 744.216 93.5906 744.072 94.0946 743.784C94.6106 743.484 95.0186 743.058 95.3186 742.506C95.6186 741.942 95.7686 741.288 95.7686 740.544ZM104.261 735.468C105.113 735.468 105.857 735.654 106.493 736.026C107.141 736.398 107.621 736.866 107.933 737.43V735.63H109.589V745.71C109.589 746.61 109.397 747.408 109.013 748.104C108.629 748.812 108.077 749.364 107.357 749.76C106.649 750.156 105.821 750.354 104.873 750.354C103.577 750.354 102.497 750.048 101.633 749.436C100.769 748.824 100.259 747.99 100.103 746.934H101.723C101.903 747.534 102.275 748.014 102.839 748.374C103.403 748.746 104.081 748.932 104.873 748.932C105.773 748.932 106.505 748.65 107.069 748.086C107.645 747.522 107.933 746.73 107.933 745.71V743.64C107.609 744.216 107.129 744.696 106.493 745.08C105.857 745.464 105.113 745.656 104.261 745.656C103.385 745.656 102.587 745.44 101.867 745.008C101.159 744.576 100.601 743.97 100.193 743.19C99.7846 742.41 99.5806 741.522 99.5806 740.526C99.5806 739.518 99.7846 738.636 100.193 737.88C100.601 737.112 101.159 736.518 101.867 736.098C102.587 735.678 103.385 735.468 104.261 735.468ZM107.933 740.544C107.933 739.8 107.783 739.152 107.483 738.6C107.183 738.048 106.775 737.628 106.259 737.34C105.755 737.04 105.197 736.89 104.585 736.89C103.973 736.89 103.415 737.034 102.911 737.322C102.407 737.61 102.005 738.03 101.705 738.582C101.405 739.134 101.255 739.782 101.255 740.526C101.255 741.282 101.405 741.942 101.705 742.506C102.005 743.058 102.407 743.484 102.911 743.784C103.415 744.072 103.973 744.216 104.585 744.216C105.197 744.216 105.755 744.072 106.259 743.784C106.775 743.484 107.183 743.058 107.483 742.506C107.783 741.942 107.933 741.288 107.933 740.544ZM113.203 734.028C112.891 734.028 112.627 733.92 112.411 733.704C112.195 733.488 112.087 733.224 112.087 732.912C112.087 732.6 112.195 732.336 112.411 732.12C112.627 731.904 112.891 731.796 113.203 731.796C113.503 731.796 113.755 731.904 113.959 732.12C114.175 732.336 114.283 732.6 114.283 732.912C114.283 733.224 114.175 733.488 113.959 733.704C113.755 733.92 113.503 734.028 113.203 734.028ZM113.995 735.63V745.494H112.357V735.63H113.995ZM121.592 735.45C122.792 735.45 123.764 735.816 124.508 736.548C125.252 737.268 125.624 738.312 125.624 739.68V745.494H124.004V739.914C124.004 738.93 123.758 738.18 123.266 737.664C122.774 737.136 122.102 736.872 121.25 736.872C120.386 736.872 119.696 737.142 119.18 737.682C118.676 738.222 118.424 739.008 118.424 740.04V745.494H116.786V735.63H118.424V737.034C118.748 736.53 119.186 736.14 119.738 735.864C120.302 735.588 120.92 735.45 121.592 735.45ZM132.368 735.468C133.22 735.468 133.964 735.654 134.6 736.026C135.248 736.398 135.728 736.866 136.04 737.43V735.63H137.696V745.71C137.696 746.61 137.504 747.408 137.12 748.104C136.736 748.812 136.184 749.364 135.464 749.76C134.756 750.156 133.928 750.354 132.98 750.354C131.684 750.354 130.604 750.048 129.74 749.436C128.876 748.824 128.366 747.99 128.21 746.934H129.83C130.01 747.534 130.382 748.014 130.946 748.374C131.51 748.746 132.188 748.932 132.98 748.932C133.88 748.932 134.612 748.65 135.176 748.086C135.752 747.522 136.04 746.73 136.04 745.71V743.64C135.716 744.216 135.236 744.696 134.6 745.08C133.964 745.464 133.22 745.656 132.368 745.656C131.492 745.656 130.694 745.44 129.974 745.008C129.266 744.576 128.708 743.97 128.3 743.19C127.892 742.41 127.688 741.522 127.688 740.526C127.688 739.518 127.892 738.636 128.3 737.88C128.708 737.112 129.266 736.518 129.974 736.098C130.694 735.678 131.492 735.468 132.368 735.468ZM136.04 740.544C136.04 739.8 135.89 739.152 135.59 738.6C135.29 738.048 134.882 737.628 134.366 737.34C133.862 737.04 133.304 736.89 132.692 736.89C132.08 736.89 131.522 737.034 131.018 737.322C130.514 737.61 130.112 738.03 129.812 738.582C129.512 739.134 129.362 739.782 129.362 740.526C129.362 741.282 129.512 741.942 129.812 742.506C130.112 743.058 130.514 743.484 131.018 743.784C131.522 744.072 132.08 744.216 132.692 744.216C133.304 744.216 133.862 744.072 134.366 743.784C134.882 743.484 135.29 743.058 135.59 742.506C135.89 741.942 136.04 741.288 136.04 740.544Z" fill="black"/>
<path d="M24.7703 917.528C23.9423 917.528 23.1983 917.384 22.5383 917.096C21.8903 916.796 21.3803 916.388 21.0083 915.872C20.6363 915.344 20.4443 914.738 20.4323 914.054H22.1783C22.2383 914.642 22.4783 915.14 22.8983 915.548C23.3303 915.944 23.9543 916.142 24.7703 916.142C25.5503 916.142 26.1623 915.95 26.6063 915.566C27.0623 915.17 27.2903 914.666 27.2903 914.054C27.2903 913.574 27.1583 913.184 26.8943 912.884C26.6303 912.584 26.3003 912.356 25.9043 912.2C25.5083 912.044 24.9743 911.876 24.3023 911.696C23.4743 911.48 22.8083 911.264 22.3043 911.048C21.8123 910.832 21.3863 910.496 21.0263 910.04C20.6783 909.572 20.5043 908.948 20.5043 908.168C20.5043 907.484 20.6783 906.878 21.0263 906.35C21.3743 905.822 21.8603 905.414 22.4843 905.126C23.1203 904.838 23.8463 904.694 24.6623 904.694C25.8383 904.694 26.7983 904.988 27.5423 905.576C28.2983 906.164 28.7243 906.944 28.8203 907.916H27.0203C26.9603 907.436 26.7083 907.016 26.2643 906.656C25.8203 906.284 25.2323 906.098 24.5003 906.098C23.8163 906.098 23.2583 906.278 22.8263 906.638C22.3943 906.986 22.1783 907.478 22.1783 908.114C22.1783 908.57 22.3043 908.942 22.5563 909.23C22.8203 909.518 23.1383 909.74 23.5103 909.896C23.8943 910.04 24.4283 910.208 25.1123 910.4C25.9403 910.628 26.6063 910.856 27.1103 911.084C27.6143 911.3 28.0463 911.642 28.4062 912.11C28.7663 912.566 28.9463 913.19 28.9463 913.982C28.9463 914.594 28.7843 915.17 28.4603 915.71C28.1363 916.25 27.6563 916.688 27.0203 917.024C26.3843 917.36 25.6343 917.528 24.7703 917.528ZM32.9947 904.082V917.402H31.3567V904.082H32.9947ZM40.0884 917.564C39.1644 917.564 38.3244 917.354 37.5684 916.934C36.8244 916.514 36.2364 915.92 35.8044 915.152C35.3844 914.372 35.1744 913.472 35.1744 912.452C35.1744 911.444 35.3904 910.556 35.8224 909.788C36.2664 909.008 36.8664 908.414 37.6224 908.006C38.3784 907.586 39.2244 907.376 40.1604 907.376C41.0964 907.376 41.9424 907.586 42.6984 908.006C43.4544 908.414 44.0484 909.002 44.4804 909.77C44.9244 910.538 45.1464 911.432 45.1464 912.452C45.1464 913.472 44.9184 914.372 44.4624 915.152C44.0184 915.92 43.4124 916.514 42.6444 916.934C41.8764 917.354 41.0244 917.564 40.0884 917.564ZM40.0884 916.124C40.6764 916.124 41.2284 915.986 41.7444 915.71C42.2604 915.434 42.6744 915.02 42.9864 914.468C43.3104 913.916 43.4724 913.244 43.4724 912.452C43.4724 911.66 43.3164 910.988 43.0044 910.436C42.6924 909.884 42.2844 909.476 41.7804 909.212C41.2764 908.936 40.7304 908.798 40.1424 908.798C39.5424 908.798 38.9904 908.936 38.4864 909.212C37.9944 909.476 37.5984 909.884 37.2984 910.436C36.9984 910.988 36.8484 911.66 36.8484 912.452C36.8484 913.256 36.9924 913.934 37.2804 914.486C37.5804 915.038 37.9764 915.452 38.4684 915.728C38.9604 915.992 39.5004 916.124 40.0884 916.124ZM60.4401 907.538L57.3621 917.402H55.6701L53.2941 909.572L50.9181 917.402H49.2261L46.1301 907.538H47.8041L50.0721 915.818L52.5201 907.538H54.1941L56.5881 915.836L58.8201 907.538H60.4401Z" fill="black"/>
<path d="M22.3943 1084.93V1092.87C22.3943 1093.99 22.6643 1094.82 23.2043 1095.36C23.7563 1095.9 24.5183 1096.17 25.4903 1096.17C26.4503 1096.17 27.2003 1095.9 27.7403 1095.36C28.2923 1094.82 28.5683 1093.99 28.5683 1092.87V1084.93H30.2063V1092.85C30.2063 1093.9 29.9963 1094.78 29.5762 1095.5C29.1563 1096.21 28.5863 1096.74 27.8663 1097.08C27.1583 1097.43 26.3603 1097.61 25.4723 1097.61C24.5843 1097.61 23.7803 1097.43 23.0603 1097.08C22.3523 1096.74 21.7883 1096.21 21.3683 1095.5C20.9603 1094.78 20.7563 1093.9 20.7563 1092.85V1084.93H22.3943ZM37.7447 1087.44C38.9447 1087.44 39.9167 1087.8 40.6607 1088.53C41.4047 1089.25 41.7767 1090.3 41.7767 1091.67V1097.48H40.1567V1091.9C40.1567 1090.92 39.9107 1090.17 39.4187 1089.65C38.9267 1089.12 38.2547 1088.86 37.4027 1088.86C36.5387 1088.86 35.8487 1089.13 35.3327 1089.67C34.8287 1090.21 34.5767 1090.99 34.5767 1092.03V1097.48H32.9387V1087.62H34.5767V1089.02C34.9007 1088.52 35.3387 1088.13 35.8907 1087.85C36.4547 1087.57 37.0727 1087.44 37.7447 1087.44ZM46.0904 1089.22C46.3784 1088.65 46.7864 1088.22 47.3144 1087.9C47.8544 1087.59 48.5084 1087.44 49.2764 1087.44V1089.13H48.8444C47.0084 1089.13 46.0904 1090.12 46.0904 1092.12V1097.48H44.4524V1087.62H46.0904V1089.22ZM60.1673 1092.17C60.1673 1092.48 60.1493 1092.81 60.1133 1093.16H52.2293C52.2893 1094.13 52.6193 1094.89 53.2193 1095.45C53.8313 1095.99 54.5693 1096.26 55.4333 1096.26C56.1413 1096.26 56.7293 1096.09 57.1973 1095.77C57.6773 1095.43 58.0133 1094.99 58.2053 1094.44H59.9693C59.7053 1095.39 59.1773 1096.16 58.3853 1096.76C57.5933 1097.35 56.6093 1097.64 55.4333 1097.64C54.4973 1097.64 53.6573 1097.43 52.9133 1097.01C52.1813 1096.59 51.6053 1096 51.1853 1095.23C50.7653 1094.45 50.5553 1093.55 50.5553 1092.53C50.5553 1091.51 50.7593 1090.62 51.1673 1089.85C51.5753 1089.08 52.1453 1088.49 52.8773 1088.08C53.6213 1087.66 54.4733 1087.45 55.4333 1087.45C56.3693 1087.45 57.1973 1087.66 57.9173 1088.07C58.6373 1088.47 59.1893 1089.04 59.5733 1089.76C59.9693 1090.47 60.1673 1091.27 60.1673 1092.17ZM58.4753 1091.83C58.4753 1091.2 58.3373 1090.67 58.0613 1090.23C57.7853 1089.77 57.4073 1089.43 56.9273 1089.2C56.4593 1088.96 55.9373 1088.84 55.3613 1088.84C54.5333 1088.84 53.8253 1089.1 53.2373 1089.63C52.6613 1090.16 52.3313 1090.89 52.2473 1091.83H58.4753ZM61.7174 1092.51C61.7174 1091.5 61.9214 1090.62 62.3294 1089.87C62.7374 1089.1 63.2954 1088.5 64.0034 1088.08C64.7234 1087.66 65.5214 1087.45 66.3974 1087.45C67.2614 1087.45 68.0114 1087.64 68.6474 1088.01C69.2834 1088.38 69.7574 1088.85 70.0694 1089.42V1087.62H71.7254V1097.48H70.0694V1095.64C69.7454 1096.22 69.2594 1096.7 68.6114 1097.08C67.9754 1097.46 67.2314 1097.64 66.3794 1097.64C65.5034 1097.64 64.7114 1097.43 64.0034 1096.99C63.2954 1096.56 62.7374 1095.96 62.3294 1095.18C61.9214 1094.4 61.7174 1093.51 61.7174 1092.51ZM70.0694 1092.53C70.0694 1091.79 69.9194 1091.14 69.6194 1090.59C69.3194 1090.03 68.9114 1089.61 68.3954 1089.33C67.8914 1089.03 67.3334 1088.88 66.7214 1088.88C66.1094 1088.88 65.5514 1089.02 65.0474 1089.31C64.5434 1089.6 64.1414 1090.02 63.8414 1090.57C63.5414 1091.12 63.3914 1091.77 63.3914 1092.51C63.3914 1093.27 63.5414 1093.93 63.8414 1094.49C64.1414 1095.04 64.5434 1095.47 65.0474 1095.77C65.5514 1096.06 66.1094 1096.2 66.7214 1096.2C67.3334 1096.2 67.8914 1096.06 68.3954 1095.77C68.9114 1095.47 69.3194 1095.04 69.6194 1094.49C69.9194 1093.93 70.0694 1093.27 70.0694 1092.53ZM73.8814 1092.51C73.8814 1091.5 74.0854 1090.62 74.4934 1089.87C74.9014 1089.1 75.4594 1088.5 76.1674 1088.08C76.8874 1087.66 77.6914 1087.45 78.5794 1087.45C79.3474 1087.45 80.0614 1087.63 80.7214 1087.99C81.3814 1088.34 81.8854 1088.8 82.2334 1089.38V1084.16H83.8894V1097.48H82.2334V1095.63C81.9094 1096.21 81.4294 1096.7 80.7934 1097.08C80.1574 1097.46 79.4134 1097.64 78.5614 1097.64C77.6854 1097.64 76.8874 1097.43 76.1674 1096.99C75.4594 1096.56 74.9014 1095.96 74.4934 1095.18C74.0854 1094.4 73.8814 1093.51 73.8814 1092.51ZM82.2334 1092.53C82.2334 1091.79 82.0834 1091.14 81.7834 1090.59C81.4834 1090.03 81.0754 1089.61 80.5594 1089.33C80.0554 1089.03 79.4974 1088.88 78.8854 1088.88C78.2734 1088.88 77.7154 1089.02 77.2114 1089.31C76.7074 1089.6 76.3054 1090.02 76.0054 1090.57C75.7054 1091.12 75.5554 1091.77 75.5554 1092.51C75.5554 1093.27 75.7054 1093.93 76.0054 1094.49C76.3054 1095.04 76.7074 1095.47 77.2114 1095.77C77.7154 1096.06 78.2734 1096.2 78.8854 1096.2C79.4974 1096.2 80.0554 1096.06 80.5594 1095.77C81.0754 1095.47 81.4834 1095.04 81.7834 1094.49C82.0834 1093.93 82.2334 1093.27 82.2334 1092.53ZM86.0455 1092.51C86.0455 1091.5 86.2495 1090.62 86.6575 1089.87C87.0655 1089.1 87.6235 1088.5 88.3315 1088.08C89.0515 1087.66 89.8495 1087.45 90.7255 1087.45C91.5895 1087.45 92.3395 1087.64 92.9755 1088.01C93.6115 1088.38 94.0855 1088.85 94.3975 1089.42V1087.62H96.0535V1097.48H94.3975V1095.64C94.0735 1096.22 93.5875 1096.7 92.9395 1097.08C92.3035 1097.46 91.5595 1097.64 90.7075 1097.64C89.8315 1097.64 89.0395 1097.43 88.3315 1096.99C87.6235 1096.56 87.0655 1095.96 86.6575 1095.18C86.2495 1094.4 86.0455 1093.51 86.0455 1092.51ZM94.3975 1092.53C94.3975 1091.79 94.2475 1091.14 93.9475 1090.59C93.6475 1090.03 93.2395 1089.61 92.7235 1089.33C92.2195 1089.03 91.6615 1088.88 91.0495 1088.88C90.4375 1088.88 89.8795 1089.02 89.3755 1089.31C88.8715 1089.6 88.4695 1090.02 88.1695 1090.57C87.8695 1091.12 87.7195 1091.77 87.7195 1092.51C87.7195 1093.27 87.8695 1093.93 88.1695 1094.49C88.4695 1095.04 88.8715 1095.47 89.3755 1095.77C89.8795 1096.06 90.4375 1096.2 91.0495 1096.2C91.6615 1096.2 92.2195 1096.06 92.7235 1095.77C93.2395 1095.47 93.6475 1095.04 93.9475 1094.49C94.2475 1093.93 94.3975 1093.27 94.3975 1092.53ZM100.46 1089.45C100.796 1088.86 101.288 1088.38 101.936 1088.01C102.584 1087.64 103.322 1087.45 104.15 1087.45C105.038 1087.45 105.836 1087.66 106.544 1088.08C107.252 1088.5 107.81 1089.1 108.218 1089.87C108.626 1090.62 108.83 1091.5 108.83 1092.51C108.83 1093.51 108.626 1094.4 108.218 1095.18C107.81 1095.96 107.246 1096.56 106.526 1096.99C105.818 1097.43 105.026 1097.64 104.15 1097.64C103.298 1097.64 102.548 1097.46 101.9 1097.08C101.264 1096.71 100.784 1096.24 100.46 1095.66V1097.48H98.8215V1084.16H100.46V1089.45ZM107.156 1092.51C107.156 1091.77 107.006 1091.12 106.706 1090.57C106.406 1090.02 105.998 1089.6 105.482 1089.31C104.978 1089.02 104.42 1088.88 103.808 1088.88C103.208 1088.88 102.65 1089.03 102.134 1089.33C101.63 1089.61 101.222 1090.04 100.91 1090.6C100.61 1091.16 100.46 1091.8 100.46 1092.53C100.46 1093.27 100.61 1093.93 100.91 1094.49C101.222 1095.04 101.63 1095.47 102.134 1095.77C102.65 1096.06 103.208 1096.2 103.808 1096.2C104.42 1096.2 104.978 1096.06 105.482 1095.77C105.998 1095.47 106.406 1095.04 106.706 1094.49C107.006 1093.93 107.156 1093.27 107.156 1092.51ZM112.624 1084.16V1097.48H110.986V1084.16H112.624ZM124.415 1092.17C124.415 1092.48 124.397 1092.81 124.361 1093.16H116.477C116.537 1094.13 116.867 1094.89 117.467 1095.45C118.079 1095.99 118.817 1096.26 119.681 1096.26C120.389 1096.26 120.977 1096.09 121.445 1095.77C121.925 1095.43 122.261 1094.99 122.453 1094.44H124.217C123.953 1095.39 123.425 1096.16 122.633 1096.76C121.841 1097.35 120.857 1097.64 119.681 1097.64C118.745 1097.64 117.905 1097.43 117.161 1097.01C116.429 1096.59 115.853 1096 115.433 1095.23C115.013 1094.45 114.803 1093.55 114.803 1092.53C114.803 1091.51 115.007 1090.62 115.415 1089.85C115.823 1089.08 116.393 1088.49 117.125 1088.08C117.869 1087.66 118.721 1087.45 119.681 1087.45C120.617 1087.45 121.445 1087.66 122.165 1088.07C122.885 1088.47 123.437 1089.04 123.821 1089.76C124.217 1090.47 124.415 1091.27 124.415 1092.17ZM122.723 1091.83C122.723 1091.2 122.585 1090.67 122.309 1090.23C122.033 1089.77 121.655 1089.43 121.175 1089.2C120.707 1088.96 120.185 1088.84 119.609 1088.84C118.781 1088.84 118.073 1089.1 117.485 1089.63C116.909 1090.16 116.579 1090.89 116.495 1091.83H122.723Z" fill="black"/>
<path d="M950.661 40.126C949.833 40.126 949.089 39.982 948.429 39.694C947.781 39.394 947.271 38.986 946.899 38.47C946.527 37.942 946.335 37.336 946.323 36.652H948.069C948.129 37.24 948.369 37.738 948.789 38.146C949.221 38.542 949.845 38.74 950.661 38.74C951.441 38.74 952.053 38.548 952.497 38.164C952.953 37.768 953.181 37.264 953.181 36.652C953.181 36.172 953.049 35.782 952.785 35.482C952.521 35.182 952.191 34.954 951.795 34.798C951.399 34.642 950.865 34.474 950.193 34.294C949.365 34.078 948.699 33.862 948.195 33.646C947.703 33.43 947.277 33.094 946.917 32.638C946.569 32.17 946.395 31.546 946.395 30.766C946.395 30.082 946.569 29.476 946.917 28.948C947.265 28.42 947.751 28.012 948.375 27.724C949.011 27.436 949.737 27.292 950.553 27.292C951.729 27.292 952.689 27.586 953.433 28.174C954.189 28.762 954.615 29.542 954.711 30.514H952.911C952.851 30.034 952.599 29.614 952.155 29.254C951.711 28.882 951.123 28.696 950.391 28.696C949.707 28.696 949.149 28.876 948.717 29.236C948.285 29.584 948.069 30.076 948.069 30.712C948.069 31.168 948.195 31.54 948.447 31.828C948.711 32.116 949.029 32.338 949.401 32.494C949.785 32.638 950.319 32.806 951.003 32.998C951.831 33.226 952.497 33.454 953.001 33.682C953.505 33.898 953.937 34.24 954.297 34.708C954.657 35.164 954.837 35.788 954.837 36.58C954.837 37.192 954.675 37.768 954.351 38.308C954.027 38.848 953.547 39.286 952.911 39.622C952.275 39.958 951.525 40.126 950.661 40.126ZM958.093 28.534C957.781 28.534 957.517 28.426 957.301 28.21C957.085 27.994 956.977 27.73 956.977 27.418C956.977 27.106 957.085 26.842 957.301 26.626C957.517 26.41 957.781 26.302 958.093 26.302C958.393 26.302 958.645 26.41 958.849 26.626C959.065 26.842 959.173 27.106 959.173 27.418C959.173 27.73 959.065 27.994 958.849 28.21C958.645 28.426 958.393 28.534 958.093 28.534ZM958.885 30.136V40H957.247V30.136H958.885ZM973.539 29.956C974.307 29.956 974.991 30.118 975.591 30.442C976.191 30.754 976.665 31.228 977.013 31.864C977.361 32.5 977.535 33.274 977.535 34.186V40H975.915V34.42C975.915 33.436 975.669 32.686 975.177 32.17C974.697 31.642 974.043 31.378 973.215 31.378C972.363 31.378 971.685 31.654 971.181 32.206C970.677 32.746 970.425 33.532 970.425 34.564V40H968.805V34.42C968.805 33.436 968.559 32.686 968.067 32.17C967.587 31.642 966.933 31.378 966.105 31.378C965.253 31.378 964.575 31.654 964.071 32.206C963.567 32.746 963.315 33.532 963.315 34.564V40H961.677V30.136H963.315V31.558C963.639 31.042 964.071 30.646 964.611 30.37C965.163 30.094 965.769 29.956 966.429 29.956C967.257 29.956 967.989 30.142 968.625 30.514C969.261 30.886 969.735 31.432 970.047 32.152C970.323 31.456 970.779 30.916 971.415 30.532C972.051 30.148 972.759 29.956 973.539 29.956ZM981.86 31.954C982.184 31.39 982.664 30.922 983.3 30.55C983.948 30.166 984.698 29.974 985.55 29.974C986.426 29.974 987.218 30.184 987.926 30.604C988.646 31.024 989.21 31.618 989.618 32.386C990.026 33.142 990.23 34.024 990.23 35.032C990.23 36.028 990.026 36.916 989.618 37.696C989.21 38.476 988.646 39.082 987.926 39.514C987.218 39.946 986.426 40.162 985.55 40.162C984.71 40.162 983.966 39.976 983.318 39.604C982.682 39.22 982.196 38.746 981.86 38.182V44.68H980.222V30.136H981.86V31.954ZM988.556 35.032C988.556 34.288 988.406 33.64 988.106 33.088C987.806 32.536 987.398 32.116 986.882 31.828C986.378 31.54 985.82 31.396 985.208 31.396C984.608 31.396 984.05 31.546 983.534 31.846C983.03 32.134 982.622 32.56 982.31 33.124C982.01 33.676 981.86 34.318 981.86 35.05C981.86 35.794 982.01 36.448 982.31 37.012C982.622 37.564 983.03 37.99 983.534 38.29C984.05 38.578 984.608 38.722 985.208 38.722C985.82 38.722 986.378 38.578 986.882 38.29C987.398 37.99 987.806 37.564 988.106 37.012C988.406 36.448 988.556 35.788 988.556 35.032ZM994.024 26.68V40H992.386V26.68H994.024ZM1005.82 34.69C1005.82 35.002 1005.8 35.332 1005.76 35.68H997.878C997.938 36.652 998.268 37.414 998.868 37.966C999.48 38.506 1000.22 38.776 1001.08 38.776C1001.79 38.776 1002.38 38.614 1002.85 38.29C1003.33 37.954 1003.66 37.51 1003.85 36.958H1005.62C1005.35 37.906 1004.83 38.68 1004.03 39.28C1003.24 39.868 1002.26 40.162 1001.08 40.162C1000.15 40.162 999.306 39.952 998.562 39.532C997.83 39.112 997.254 38.518 996.834 37.75C996.414 36.97 996.204 36.07 996.204 35.05C996.204 34.03 996.408 33.136 996.816 32.368C997.224 31.6 997.794 31.012 998.526 30.604C999.27 30.184 1000.12 29.974 1001.08 29.974C1002.02 29.974 1002.85 30.178 1003.57 30.586C1004.29 30.994 1004.84 31.558 1005.22 32.278C1005.62 32.986 1005.82 33.79 1005.82 34.69ZM1004.12 34.348C1004.12 33.724 1003.99 33.19 1003.71 32.746C1003.43 32.29 1003.06 31.948 1002.58 31.72C1002.11 31.48 1001.59 31.36 1001.01 31.36C1000.18 31.36 999.474 31.624 998.886 32.152C998.31 32.68 997.98 33.412 997.896 34.348H1004.12Z" fill="black"/>
<path d="M919.799 206.126C918.635 206.126 917.573 205.856 916.613 205.316C915.653 204.764 914.891 204.002 914.327 203.03C913.775 202.046 913.499 200.942 913.499 199.718C913.499 198.494 913.775 197.396 914.327 196.424C914.891 195.44 915.653 194.678 916.613 194.138C917.573 193.586 918.635 193.31 919.799 193.31C920.975 193.31 922.043 193.586 923.003 194.138C923.963 194.678 924.719 195.434 925.271 196.406C925.823 197.378 926.099 198.482 926.099 199.718C926.099 200.954 925.823 202.058 925.271 203.03C924.719 204.002 923.963 204.764 923.003 205.316C922.043 205.856 920.975 206.126 919.799 206.126ZM919.799 204.704C920.675 204.704 921.461 204.5 922.157 204.092C922.865 203.684 923.417 203.102 923.813 202.346C924.221 201.59 924.425 200.714 924.425 199.718C924.425 198.71 924.221 197.834 923.813 197.09C923.417 196.334 922.871 195.752 922.175 195.344C921.479 194.936 920.687 194.732 919.799 194.732C918.911 194.732 918.119 194.936 917.423 195.344C916.727 195.752 916.175 196.334 915.767 197.09C915.371 197.834 915.173 198.71 915.173 199.718C915.173 200.714 915.371 201.59 915.767 202.346C916.175 203.102 916.727 203.684 917.423 204.092C918.131 204.5 918.923 204.704 919.799 204.704ZM929.899 197.738C930.187 197.174 930.595 196.736 931.123 196.424C931.663 196.112 932.317 195.956 933.085 195.956V197.648H932.653C930.817 197.648 929.899 198.644 929.899 200.636V206H928.261V196.136H929.899V197.738ZM939.044 195.974C939.896 195.974 940.64 196.16 941.276 196.532C941.924 196.904 942.404 197.372 942.716 197.936V196.136H944.372V206.216C944.372 207.116 944.18 207.914 943.796 208.61C943.412 209.318 942.86 209.87 942.14 210.266C941.432 210.662 940.604 210.86 939.656 210.86C938.36 210.86 937.28 210.554 936.416 209.942C935.552 209.33 935.042 208.496 934.886 207.44H936.506C936.686 208.04 937.058 208.52 937.622 208.88C938.186 209.252 938.864 209.438 939.656 209.438C940.556 209.438 941.288 209.156 941.852 208.592C942.428 208.028 942.716 207.236 942.716 206.216V204.146C942.392 204.722 941.912 205.202 941.276 205.586C940.64 205.97 939.896 206.162 939.044 206.162C938.168 206.162 937.37 205.946 936.65 205.514C935.942 205.082 935.384 204.476 934.976 203.696C934.568 202.916 934.364 202.028 934.364 201.032C934.364 200.024 934.568 199.142 934.976 198.386C935.384 197.618 935.942 197.024 936.65 196.604C937.37 196.184 938.168 195.974 939.044 195.974ZM942.716 201.05C942.716 200.306 942.566 199.658 942.266 199.106C941.966 198.554 941.558 198.134 941.042 197.846C940.538 197.546 939.98 197.396 939.368 197.396C938.756 197.396 938.198 197.54 937.694 197.828C937.19 198.116 936.788 198.536 936.488 199.088C936.188 199.64 936.038 200.288 936.038 201.032C936.038 201.788 936.188 202.448 936.488 203.012C936.788 203.564 937.19 203.99 937.694 204.29C938.198 204.578 938.756 204.722 939.368 204.722C939.98 204.722 940.538 204.578 941.042 204.29C941.558 203.99 941.966 203.564 942.266 203.012C942.566 202.448 942.716 201.794 942.716 201.05ZM946.528 201.032C946.528 200.024 946.732 199.142 947.14 198.386C947.548 197.618 948.106 197.024 948.814 196.604C949.534 196.184 950.332 195.974 951.208 195.974C952.072 195.974 952.822 196.16 953.458 196.532C954.094 196.904 954.568 197.372 954.88 197.936V196.136H956.536V206H954.88V204.164C954.556 204.74 954.07 205.22 953.422 205.604C952.786 205.976 952.042 206.162 951.19 206.162C950.314 206.162 949.522 205.946 948.814 205.514C948.106 205.082 947.548 204.476 947.14 203.696C946.732 202.916 946.528 202.028 946.528 201.032ZM954.88 201.05C954.88 200.306 954.73 199.658 954.43 199.106C954.13 198.554 953.722 198.134 953.206 197.846C952.702 197.546 952.144 197.396 951.532 197.396C950.92 197.396 950.362 197.54 949.858 197.828C949.354 198.116 948.952 198.536 948.652 199.088C948.352 199.64 948.202 200.288 948.202 201.032C948.202 201.788 948.352 202.448 948.652 203.012C948.952 203.564 949.354 203.99 949.858 204.29C950.362 204.578 950.92 204.722 951.532 204.722C952.144 204.722 952.702 204.578 953.206 204.29C953.722 203.99 954.13 203.564 954.43 203.012C954.73 202.448 954.88 201.794 954.88 201.05ZM964.11 195.956C965.31 195.956 966.282 196.322 967.026 197.054C967.77 197.774 968.142 198.818 968.142 200.186V206H966.522V200.42C966.522 199.436 966.276 198.686 965.784 198.17C965.292 197.642 964.62 197.378 963.768 197.378C962.904 197.378 962.214 197.648 961.698 198.188C961.194 198.728 960.942 199.514 960.942 200.546V206H959.304V196.136H960.942V197.54C961.266 197.036 961.704 196.646 962.256 196.37C962.82 196.094 963.438 195.956 964.11 195.956ZM971.664 194.534C971.352 194.534 971.088 194.426 970.872 194.21C970.656 193.994 970.548 193.73 970.548 193.418C970.548 193.106 970.656 192.842 970.872 192.626C971.088 192.41 971.352 192.302 971.664 192.302C971.964 192.302 972.216 192.41 972.42 192.626C972.636 192.842 972.744 193.106 972.744 193.418C972.744 193.73 972.636 193.994 972.42 194.21C972.216 194.426 971.964 194.534 971.664 194.534ZM972.456 196.136V206H970.818V196.136H972.456ZM978.739 206.162C977.983 206.162 977.305 206.036 976.705 205.784C976.105 205.52 975.631 205.16 975.283 204.704C974.935 204.236 974.743 203.702 974.707 203.102H976.399C976.447 203.594 976.675 203.996 977.083 204.308C977.503 204.62 978.049 204.776 978.721 204.776C979.345 204.776 979.837 204.638 980.197 204.362C980.557 204.086 980.737 203.738 980.737 203.318C980.737 202.886 980.545 202.568 980.161 202.364C979.777 202.148 979.183 201.938 978.379 201.734C977.647 201.542 977.047 201.35 976.579 201.158C976.123 200.954 975.727 200.66 975.391 200.276C975.067 199.88 974.905 199.364 974.905 198.728C974.905 198.224 975.055 197.762 975.355 197.342C975.655 196.922 976.081 196.592 976.633 196.352C977.185 196.1 977.815 195.974 978.523 195.974C979.615 195.974 980.497 196.25 981.169 196.802C981.841 197.354 982.201 198.11 982.249 199.07H980.611C980.575 198.554 980.365 198.14 979.981 197.828C979.609 197.516 979.105 197.36 978.469 197.36C977.881 197.36 977.413 197.486 977.065 197.738C976.717 197.99 976.543 198.32 976.543 198.728C976.543 199.052 976.645 199.322 976.849 199.538C977.065 199.742 977.329 199.91 977.641 200.042C977.965 200.162 978.409 200.3 978.973 200.456C979.681 200.648 980.257 200.84 980.701 201.032C981.145 201.212 981.523 201.488 981.835 201.86C982.159 202.232 982.327 202.718 982.339 203.318C982.339 203.858 982.189 204.344 981.889 204.776C981.589 205.208 981.163 205.55 980.611 205.802C980.071 206.042 979.447 206.162 978.739 206.162ZM993.652 200.69C993.652 201.002 993.634 201.332 993.598 201.68H985.714C985.774 202.652 986.104 203.414 986.704 203.966C987.316 204.506 988.054 204.776 988.918 204.776C989.626 204.776 990.214 204.614 990.682 204.29C991.162 203.954 991.498 203.51 991.69 202.958H993.454C993.19 203.906 992.662 204.68 991.87 205.28C991.078 205.868 990.094 206.162 988.918 206.162C987.982 206.162 987.142 205.952 986.398 205.532C985.666 205.112 985.09 204.518 984.67 203.75C984.25 202.97 984.04 202.07 984.04 201.05C984.04 200.03 984.244 199.136 984.652 198.368C985.06 197.6 985.63 197.012 986.362 196.604C987.106 196.184 987.958 195.974 988.918 195.974C989.854 195.974 990.682 196.178 991.402 196.586C992.122 196.994 992.674 197.558 993.058 198.278C993.454 198.986 993.652 199.79 993.652 200.69ZM991.96 200.348C991.96 199.724 991.822 199.19 991.546 198.746C991.27 198.29 990.892 197.948 990.412 197.72C989.944 197.48 989.422 197.36 988.846 197.36C988.018 197.36 987.31 197.624 986.722 198.152C986.146 198.68 985.816 199.412 985.732 200.348H991.96ZM995.202 201.032C995.202 200.024 995.406 199.142 995.814 198.386C996.222 197.618 996.78 197.024 997.488 196.604C998.208 196.184 999.012 195.974 999.9 195.974C1000.67 195.974 1001.38 196.154 1002.04 196.514C1002.7 196.862 1003.21 197.324 1003.55 197.9V192.68H1005.21V206H1003.55V204.146C1003.23 204.734 1002.75 205.22 1002.11 205.604C1001.48 205.976 1000.73 206.162 999.882 206.162C999.006 206.162 998.208 205.946 997.488 205.514C996.78 205.082 996.222 204.476 995.814 203.696C995.406 202.916 995.202 202.028 995.202 201.032ZM1003.55 201.05C1003.55 200.306 1003.4 199.658 1003.1 199.106C1002.8 198.554 1002.4 198.134 1001.88 197.846C1001.38 197.546 1000.82 197.396 1000.21 197.396C999.594 197.396 999.036 197.54 998.532 197.828C998.028 198.116 997.626 198.536 997.326 199.088C997.026 199.64 996.876 200.288 996.876 201.032C996.876 201.788 997.026 202.448 997.326 203.012C997.626 203.564 998.028 203.99 998.532 204.29C999.036 204.578 999.594 204.722 1000.21 204.722C1000.82 204.722 1001.38 204.578 1001.88 204.29C1002.4 203.99 1002.8 203.564 1003.1 203.012C1003.4 202.448 1003.55 201.794 1003.55 201.05Z" fill="black"/>
<path d="M923.073 384.21H917.601L916.593 387H914.865L919.401 374.526H921.291L925.809 387H924.081L923.073 384.21ZM922.605 382.878L920.337 376.542L918.069 382.878H922.605ZM929.424 378.954C929.748 378.39 930.228 377.922 930.864 377.55C931.512 377.166 932.262 376.974 933.114 376.974C933.99 376.974 934.782 377.184 935.49 377.604C936.21 378.024 936.774 378.618 937.182 379.386C937.59 380.142 937.794 381.024 937.794 382.032C937.794 383.028 937.59 383.916 937.182 384.696C936.774 385.476 936.21 386.082 935.49 386.514C934.782 386.946 933.99 387.162 933.114 387.162C932.274 387.162 931.53 386.976 930.882 386.604C930.246 386.22 929.76 385.746 929.424 385.182V391.68H927.786V377.136H929.424V378.954ZM936.12 382.032C936.12 381.288 935.97 380.64 935.67 380.088C935.37 379.536 934.962 379.116 934.446 378.828C933.942 378.54 933.384 378.396 932.772 378.396C932.172 378.396 931.614 378.546 931.098 378.846C930.594 379.134 930.186 379.56 929.874 380.124C929.574 380.676 929.424 381.318 929.424 382.05C929.424 382.794 929.574 383.448 929.874 384.012C930.186 384.564 930.594 384.99 931.098 385.29C931.614 385.578 932.172 385.722 932.772 385.722C933.384 385.722 933.942 385.578 934.446 385.29C934.962 384.99 935.37 384.564 935.67 384.012C935.97 383.448 936.12 382.788 936.12 382.032ZM941.588 378.954C941.912 378.39 942.392 377.922 943.028 377.55C943.676 377.166 944.426 376.974 945.278 376.974C946.154 376.974 946.946 377.184 947.654 377.604C948.374 378.024 948.938 378.618 949.346 379.386C949.754 380.142 949.958 381.024 949.958 382.032C949.958 383.028 949.754 383.916 949.346 384.696C948.938 385.476 948.374 386.082 947.654 386.514C946.946 386.946 946.154 387.162 945.278 387.162C944.438 387.162 943.694 386.976 943.046 386.604C942.41 386.22 941.924 385.746 941.588 385.182V391.68H939.95V377.136H941.588V378.954ZM948.284 382.032C948.284 381.288 948.134 380.64 947.834 380.088C947.534 379.536 947.126 379.116 946.61 378.828C946.106 378.54 945.548 378.396 944.936 378.396C944.336 378.396 943.778 378.546 943.262 378.846C942.758 379.134 942.35 379.56 942.038 380.124C941.738 380.676 941.588 381.318 941.588 382.05C941.588 382.794 941.738 383.448 942.038 384.012C942.35 384.564 942.758 384.99 943.262 385.29C943.778 385.578 944.336 385.722 944.936 385.722C945.548 385.722 946.106 385.578 946.61 385.29C947.126 384.99 947.534 384.564 947.834 384.012C948.134 383.448 948.284 382.788 948.284 382.032ZM961.115 381.69C961.115 382.002 961.097 382.332 961.061 382.68H953.177C953.237 383.652 953.567 384.414 954.167 384.966C954.779 385.506 955.517 385.776 956.381 385.776C957.089 385.776 957.677 385.614 958.145 385.29C958.625 384.954 958.961 384.51 959.153 383.958H960.917C960.653 384.906 960.125 385.68 959.333 386.28C958.541 386.868 957.557 387.162 956.381 387.162C955.445 387.162 954.605 386.952 953.861 386.532C953.129 386.112 952.553 385.518 952.133 384.75C951.713 383.97 951.503 383.07 951.503 382.05C951.503 381.03 951.707 380.136 952.115 379.368C952.523 378.6 953.093 378.012 953.825 377.604C954.569 377.184 955.421 376.974 956.381 376.974C957.317 376.974 958.145 377.178 958.865 377.586C959.585 377.994 960.137 378.558 960.521 379.278C960.917 379.986 961.115 380.79 961.115 381.69ZM959.423 381.348C959.423 380.724 959.285 380.19 959.009 379.746C958.733 379.29 958.355 378.948 957.875 378.72C957.407 378.48 956.885 378.36 956.309 378.36C955.481 378.36 954.773 378.624 954.185 379.152C953.609 379.68 953.279 380.412 953.195 381.348H959.423ZM962.665 382.032C962.665 381.024 962.869 380.142 963.277 379.386C963.685 378.618 964.243 378.024 964.951 377.604C965.671 377.184 966.469 376.974 967.345 376.974C968.209 376.974 968.959 377.16 969.595 377.532C970.231 377.904 970.705 378.372 971.017 378.936V377.136H972.673V387H971.017V385.164C970.693 385.74 970.207 386.22 969.559 386.604C968.923 386.976 968.179 387.162 967.327 387.162C966.451 387.162 965.659 386.946 964.951 386.514C964.243 386.082 963.685 385.476 963.277 384.696C962.869 383.916 962.665 383.028 962.665 382.032ZM971.017 382.05C971.017 381.306 970.867 380.658 970.567 380.106C970.267 379.554 969.859 379.134 969.343 378.846C968.839 378.546 968.281 378.396 967.669 378.396C967.057 378.396 966.499 378.54 965.995 378.828C965.491 379.116 965.089 379.536 964.789 380.088C964.489 380.64 964.339 381.288 964.339 382.032C964.339 382.788 964.489 383.448 964.789 384.012C965.089 384.564 965.491 384.99 965.995 385.29C966.499 385.578 967.057 385.722 967.669 385.722C968.281 385.722 968.839 385.578 969.343 385.29C969.859 384.99 970.267 384.564 970.567 384.012C970.867 383.448 971.017 382.794 971.017 382.05ZM977.079 373.68V387H975.441V373.68H977.079ZM980.716 375.534C980.404 375.534 980.14 375.426 979.924 375.21C979.708 374.994 979.6 374.73 979.6 374.418C979.6 374.106 979.708 373.842 979.924 373.626C980.14 373.41 980.404 373.302 980.716 373.302C981.016 373.302 981.268 373.41 981.472 373.626C981.688 373.842 981.796 374.106 981.796 374.418C981.796 374.73 981.688 374.994 981.472 375.21C981.268 375.426 981.016 375.534 980.716 375.534ZM981.508 377.136V387H979.87V377.136H981.508ZM989.106 376.956C990.306 376.956 991.278 377.322 992.022 378.054C992.766 378.774 993.138 379.818 993.138 381.186V387H991.518V381.42C991.518 380.436 991.272 379.686 990.78 379.17C990.288 378.642 989.616 378.378 988.764 378.378C987.9 378.378 987.21 378.648 986.694 379.188C986.19 379.728 985.938 380.514 985.938 381.546V387H984.3V377.136H985.938V378.54C986.262 378.036 986.7 377.646 987.252 377.37C987.816 377.094 988.434 376.956 989.106 376.956ZM999.882 376.974C1000.73 376.974 1001.48 377.16 1002.11 377.532C1002.76 377.904 1003.24 378.372 1003.55 378.936V377.136H1005.21V387.216C1005.21 388.116 1005.02 388.914 1004.63 389.61C1004.25 390.318 1003.7 390.87 1002.98 391.266C1002.27 391.662 1001.44 391.86 1000.49 391.86C999.198 391.86 998.118 391.554 997.254 390.942C996.39 390.33 995.88 389.496 995.724 388.44H997.344C997.524 389.04 997.896 389.52 998.46 389.88C999.024 390.252 999.702 390.438 1000.49 390.438C1001.39 390.438 1002.13 390.156 1002.69 389.592C1003.27 389.028 1003.55 388.236 1003.55 387.216V385.146C1003.23 385.722 1002.75 386.202 1002.11 386.586C1001.48 386.97 1000.73 387.162 999.882 387.162C999.006 387.162 998.208 386.946 997.488 386.514C996.78 386.082 996.222 385.476 995.814 384.696C995.406 383.916 995.202 383.028 995.202 382.032C995.202 381.024 995.406 380.142 995.814 379.386C996.222 378.618 996.78 378.024 997.488 377.604C998.208 377.184 999.006 376.974 999.882 376.974ZM1003.55 382.05C1003.55 381.306 1003.4 380.658 1003.1 380.106C1002.8 379.554 1002.4 379.134 1001.88 378.846C1001.38 378.546 1000.82 378.396 1000.21 378.396C999.594 378.396 999.036 378.54 998.532 378.828C998.028 379.116 997.626 379.536 997.326 380.088C997.026 380.64 996.876 381.288 996.876 382.032C996.876 382.788 997.026 383.448 997.326 384.012C997.626 384.564 998.028 384.99 998.532 385.29C999.036 385.578 999.594 385.722 1000.21 385.722C1000.82 385.722 1001.38 385.578 1001.88 385.29C1002.4 384.99 1002.8 384.564 1003.1 384.012C1003.4 383.448 1003.55 382.794 1003.55 382.05Z" fill="black"/>
<path d="M915.083 563.126C914.255 563.126 913.511 562.982 912.851 562.694C912.203 562.394 911.693 561.986 911.321 561.47C910.949 560.942 910.757 560.336 910.745 559.652H912.491C912.551 560.24 912.791 560.738 913.211 561.146C913.643 561.542 914.267 561.74 915.083 561.74C915.863 561.74 916.475 561.548 916.919 561.164C917.375 560.768 917.603 560.264 917.603 559.652C917.603 559.172 917.471 558.782 917.207 558.482C916.943 558.182 916.613 557.954 916.217 557.798C915.821 557.642 915.287 557.474 914.615 557.294C913.787 557.078 913.121 556.862 912.617 556.646C912.125 556.43 911.699 556.094 911.339 555.638C910.991 555.17 910.817 554.546 910.817 553.766C910.817 553.082 910.991 552.476 911.339 551.948C911.687 551.42 912.173 551.012 912.797 550.724C913.433 550.436 914.159 550.292 914.975 550.292C916.151 550.292 917.111 550.586 917.855 551.174C918.611 551.762 919.037 552.542 919.133 553.514H917.333C917.273 553.034 917.021 552.614 916.577 552.254C916.133 551.882 915.545 551.696 914.813 551.696C914.129 551.696 913.571 551.876 913.139 552.236C912.707 552.584 912.491 553.076 912.491 553.712C912.491 554.168 912.617 554.54 912.869 554.828C913.133 555.116 913.451 555.338 913.823 555.494C914.207 555.638 914.741 555.806 915.425 555.998C916.253 556.226 916.919 556.454 917.423 556.682C917.927 556.898 918.359 557.24 918.719 557.708C919.079 558.164 919.259 558.788 919.259 559.58C919.259 560.192 919.097 560.768 918.773 561.308C918.449 561.848 917.969 562.286 917.333 562.622C916.697 562.958 915.947 563.126 915.083 563.126ZM930.417 553.136V563H928.779V561.542C928.467 562.046 928.029 562.442 927.465 562.73C926.913 563.006 926.301 563.144 925.629 563.144C924.861 563.144 924.171 562.988 923.559 562.676C922.947 562.352 922.461 561.872 922.101 561.236C921.753 560.6 921.579 559.826 921.579 558.914V553.136H923.199V558.698C923.199 559.67 923.445 560.42 923.937 560.948C924.429 561.464 925.101 561.722 925.953 561.722C926.829 561.722 927.519 561.452 928.023 560.912C928.527 560.372 928.779 559.586 928.779 558.554V553.136H930.417ZM934.821 554.954C935.145 554.39 935.625 553.922 936.261 553.55C936.909 553.166 937.659 552.974 938.511 552.974C939.387 552.974 940.179 553.184 940.887 553.604C941.607 554.024 942.171 554.618 942.579 555.386C942.987 556.142 943.191 557.024 943.191 558.032C943.191 559.028 942.987 559.916 942.579 560.696C942.171 561.476 941.607 562.082 940.887 562.514C940.179 562.946 939.387 563.162 938.511 563.162C937.671 563.162 936.927 562.976 936.279 562.604C935.643 562.22 935.157 561.746 934.821 561.182V567.68H933.183V553.136H934.821V554.954ZM941.517 558.032C941.517 557.288 941.367 556.64 941.067 556.088C940.767 555.536 940.359 555.116 939.843 554.828C939.339 554.54 938.781 554.396 938.169 554.396C937.569 554.396 937.011 554.546 936.495 554.846C935.991 555.134 935.583 555.56 935.271 556.124C934.971 556.676 934.821 557.318 934.821 558.05C934.821 558.794 934.971 559.448 935.271 560.012C935.583 560.564 935.991 560.99 936.495 561.29C937.011 561.578 937.569 561.722 938.169 561.722C938.781 561.722 939.339 561.578 939.843 561.29C940.359 560.99 940.767 560.564 941.067 560.012C941.367 559.448 941.517 558.788 941.517 558.032ZM946.985 554.954C947.309 554.39 947.789 553.922 948.425 553.55C949.073 553.166 949.823 552.974 950.675 552.974C951.551 552.974 952.343 553.184 953.051 553.604C953.771 554.024 954.335 554.618 954.743 555.386C955.151 556.142 955.355 557.024 955.355 558.032C955.355 559.028 955.151 559.916 954.743 560.696C954.335 561.476 953.771 562.082 953.051 562.514C952.343 562.946 951.551 563.162 950.675 563.162C949.835 563.162 949.091 562.976 948.443 562.604C947.807 562.22 947.321 561.746 946.985 561.182V567.68H945.347V553.136H946.985V554.954ZM953.681 558.032C953.681 557.288 953.531 556.64 953.231 556.088C952.931 555.536 952.523 555.116 952.007 554.828C951.503 554.54 950.945 554.396 950.333 554.396C949.733 554.396 949.175 554.546 948.659 554.846C948.155 555.134 947.747 555.56 947.435 556.124C947.135 556.676 946.985 557.318 946.985 558.05C946.985 558.794 947.135 559.448 947.435 560.012C947.747 560.564 948.155 560.99 948.659 561.29C949.175 561.578 949.733 561.722 950.333 561.722C950.945 561.722 951.503 561.578 952.007 561.29C952.523 560.99 952.931 560.564 953.231 560.012C953.531 559.448 953.681 558.788 953.681 558.032ZM961.813 563.162C960.889 563.162 960.049 562.952 959.293 562.532C958.549 562.112 957.961 561.518 957.529 560.75C957.109 559.97 956.899 559.07 956.899 558.05C956.899 557.042 957.115 556.154 957.547 555.386C957.991 554.606 958.591 554.012 959.347 553.604C960.103 553.184 960.949 552.974 961.885 552.974C962.821 552.974 963.667 553.184 964.423 553.604C965.179 554.012 965.773 554.6 966.205 555.368C966.649 556.136 966.871 557.03 966.871 558.05C966.871 559.07 966.643 559.97 966.187 560.75C965.743 561.518 965.137 562.112 964.369 562.532C963.601 562.952 962.749 563.162 961.813 563.162ZM961.813 561.722C962.401 561.722 962.953 561.584 963.469 561.308C963.985 561.032 964.399 560.618 964.711 560.066C965.035 559.514 965.197 558.842 965.197 558.05C965.197 557.258 965.041 556.586 964.729 556.034C964.417 555.482 964.009 555.074 963.505 554.81C963.001 554.534 962.455 554.396 961.867 554.396C961.267 554.396 960.715 554.534 960.211 554.81C959.719 555.074 959.323 555.482 959.023 556.034C958.723 556.586 958.573 557.258 958.573 558.05C958.573 558.854 958.717 559.532 959.005 560.084C959.305 560.636 959.701 561.05 960.193 561.326C960.685 561.59 961.225 561.722 961.813 561.722ZM970.663 554.738C970.951 554.174 971.359 553.736 971.887 553.424C972.427 553.112 973.081 552.956 973.849 552.956V554.648H973.417C971.581 554.648 970.663 555.644 970.663 557.636V563H969.025V553.136H970.663V554.738ZM977.738 554.486V560.3C977.738 560.78 977.84 561.122 978.044 561.326C978.248 561.518 978.602 561.614 979.106 561.614H980.312V563H978.836C977.924 563 977.24 562.79 976.784 562.37C976.328 561.95 976.1 561.26 976.1 560.3V554.486H974.822V553.136H976.1V550.652H977.738V553.136H980.312V554.486H977.738ZM983.142 551.534C982.83 551.534 982.566 551.426 982.35 551.21C982.134 550.994 982.026 550.73 982.026 550.418C982.026 550.106 982.134 549.842 982.35 549.626C982.566 549.41 982.83 549.302 983.142 549.302C983.442 549.302 983.694 549.41 983.898 549.626C984.114 549.842 984.222 550.106 984.222 550.418C984.222 550.73 984.114 550.994 983.898 551.21C983.694 551.426 983.442 551.534 983.142 551.534ZM983.934 553.136V563H982.296V553.136H983.934ZM990.398 561.488L993.458 553.136H995.204L991.334 563H989.426L985.556 553.136H987.32L990.398 561.488ZM1005.82 557.69C1005.82 558.002 1005.8 558.332 1005.76 558.68H997.878C997.938 559.652 998.268 560.414 998.868 560.966C999.48 561.506 1000.22 561.776 1001.08 561.776C1001.79 561.776 1002.38 561.614 1002.85 561.29C1003.33 560.954 1003.66 560.51 1003.85 559.958H1005.62C1005.35 560.906 1004.83 561.68 1004.03 562.28C1003.24 562.868 1002.26 563.162 1001.08 563.162C1000.15 563.162 999.306 562.952 998.562 562.532C997.83 562.112 997.254 561.518 996.834 560.75C996.414 559.97 996.204 559.07 996.204 558.05C996.204 557.03 996.408 556.136 996.816 555.368C997.224 554.6 997.794 554.012 998.526 553.604C999.27 553.184 1000.12 552.974 1001.08 552.974C1002.02 552.974 1002.85 553.178 1003.57 553.586C1004.29 553.994 1004.84 554.558 1005.22 555.278C1005.62 555.986 1005.82 556.79 1005.82 557.69ZM1004.12 557.348C1004.12 556.724 1003.99 556.19 1003.71 555.746C1003.43 555.29 1003.06 554.948 1002.58 554.72C1002.11 554.48 1001.59 554.36 1001.01 554.36C1000.18 554.36 999.474 554.624 998.886 555.152C998.31 555.68 997.98 556.412 997.896 557.348H1004.12Z" fill="black"/>
<path d="M925.782 733.038V745.494H924.144V736.206L920.004 745.494H918.852L914.694 736.188V745.494H913.056V733.038H914.82L919.428 743.334L924.036 733.038H925.782ZM932.862 745.656C931.938 745.656 931.098 745.446 930.342 745.026C929.598 744.606 929.01 744.012 928.578 743.244C928.158 742.464 927.948 741.564 927.948 740.544C927.948 739.536 928.164 738.648 928.596 737.88C929.04 737.1 929.64 736.506 930.396 736.098C931.152 735.678 931.998 735.468 932.934 735.468C933.87 735.468 934.716 735.678 935.472 736.098C936.228 736.506 936.822 737.094 937.254 737.862C937.698 738.63 937.92 739.524 937.92 740.544C937.92 741.564 937.692 742.464 937.236 743.244C936.792 744.012 936.186 744.606 935.418 745.026C934.65 745.446 933.798 745.656 932.862 745.656ZM932.862 744.216C933.45 744.216 934.002 744.078 934.518 743.802C935.034 743.526 935.448 743.112 935.76 742.56C936.084 742.008 936.246 741.336 936.246 740.544C936.246 739.752 936.09 739.08 935.778 738.528C935.466 737.976 935.058 737.568 934.554 737.304C934.05 737.028 933.504 736.89 932.916 736.89C932.316 736.89 931.764 737.028 931.26 737.304C930.768 737.568 930.372 737.976 930.072 738.528C929.772 739.08 929.622 739.752 929.622 740.544C929.622 741.348 929.766 742.026 930.054 742.578C930.354 743.13 930.75 743.544 931.242 743.82C931.734 744.084 932.274 744.216 932.862 744.216ZM942.072 736.98V742.794C942.072 743.274 942.174 743.616 942.378 743.82C942.582 744.012 942.936 744.108 943.439 744.108H944.646V745.494H943.17C942.258 745.494 941.574 745.284 941.118 744.864C940.662 744.444 940.434 743.754 940.434 742.794V736.98H939.156V735.63H940.434V733.146H942.072V735.63H944.646V736.98H942.072ZM947.476 734.028C947.164 734.028 946.9 733.92 946.684 733.704C946.468 733.488 946.36 733.224 946.36 732.912C946.36 732.6 946.468 732.336 946.684 732.12C946.9 731.904 947.164 731.796 947.476 731.796C947.776 731.796 948.028 731.904 948.232 732.12C948.448 732.336 948.556 732.6 948.556 732.912C948.556 733.224 948.448 733.488 948.232 733.704C948.028 733.92 947.776 734.028 947.476 734.028ZM948.268 735.63V745.494H946.63V735.63H948.268ZM954.732 743.982L957.792 735.63H959.538L955.668 745.494H953.76L949.89 735.63H951.654L954.732 743.982ZM960.538 740.526C960.538 739.518 960.742 738.636 961.15 737.88C961.558 737.112 962.116 736.518 962.824 736.098C963.544 735.678 964.342 735.468 965.218 735.468C966.082 735.468 966.832 735.654 967.468 736.026C968.104 736.398 968.578 736.866 968.89 737.43V735.63H970.546V745.494H968.89V743.658C968.566 744.234 968.08 744.714 967.432 745.098C966.796 745.47 966.052 745.656 965.2 745.656C964.324 745.656 963.532 745.44 962.824 745.008C962.116 744.576 961.558 743.97 961.15 743.19C960.742 742.41 960.538 741.522 960.538 740.526ZM968.89 740.544C968.89 739.8 968.74 739.152 968.44 738.6C968.14 738.048 967.732 737.628 967.216 737.34C966.712 737.04 966.154 736.89 965.542 736.89C964.93 736.89 964.372 737.034 963.868 737.322C963.364 737.61 962.962 738.03 962.662 738.582C962.362 739.134 962.212 739.782 962.212 740.526C962.212 741.282 962.362 741.942 962.662 742.506C962.962 743.058 963.364 743.484 963.868 743.784C964.372 744.072 964.93 744.216 965.542 744.216C966.154 744.216 966.712 744.072 967.216 743.784C967.732 743.484 968.14 743.058 968.44 742.506C968.74 741.942 968.89 741.288 968.89 740.544ZM975.312 736.98V742.794C975.312 743.274 975.414 743.616 975.618 743.82C975.822 744.012 976.176 744.108 976.68 744.108H977.886V745.494H976.41C975.498 745.494 974.814 745.284 974.358 744.864C973.902 744.444 973.674 743.754 973.674 742.794V736.98H972.396V735.63H973.674V733.146H975.312V735.63H977.886V736.98H975.312ZM980.716 734.028C980.404 734.028 980.14 733.92 979.924 733.704C979.708 733.488 979.6 733.224 979.6 732.912C979.6 732.6 979.708 732.336 979.924 732.12C980.14 731.904 980.404 731.796 980.716 731.796C981.016 731.796 981.268 731.904 981.472 732.12C981.688 732.336 981.796 732.6 981.796 732.912C981.796 733.224 981.688 733.488 981.472 733.704C981.268 733.92 981.016 734.028 980.716 734.028ZM981.508 735.63V745.494H979.87V735.63H981.508ZM989.106 735.45C990.306 735.45 991.278 735.816 992.022 736.548C992.766 737.268 993.138 738.312 993.138 739.68V745.494H991.518V739.914C991.518 738.93 991.272 738.18 990.78 737.664C990.288 737.136 989.616 736.872 988.764 736.872C987.9 736.872 987.21 737.142 986.694 737.682C986.19 738.222 985.938 739.008 985.938 740.04V745.494H984.3V735.63H985.938V737.034C986.262 736.53 986.7 736.14 987.252 735.864C987.816 735.588 988.434 735.45 989.106 735.45ZM999.882 735.468C1000.73 735.468 1001.48 735.654 1002.11 736.026C1002.76 736.398 1003.24 736.866 1003.55 737.43V735.63H1005.21V745.71C1005.21 746.61 1005.02 747.408 1004.63 748.104C1004.25 748.812 1003.7 749.364 1002.98 749.76C1002.27 750.156 1001.44 750.354 1000.49 750.354C999.198 750.354 998.118 750.048 997.254 749.436C996.39 748.824 995.88 747.99 995.724 746.934H997.344C997.524 747.534 997.896 748.014 998.46 748.374C999.024 748.746 999.702 748.932 1000.49 748.932C1001.39 748.932 1002.13 748.65 1002.69 748.086C1003.27 747.522 1003.55 746.73 1003.55 745.71V743.64C1003.23 744.216 1002.75 744.696 1002.11 745.08C1001.48 745.464 1000.73 745.656 999.882 745.656C999.006 745.656 998.208 745.44 997.488 745.008C996.78 744.576 996.222 743.97 995.814 743.19C995.406 742.41 995.202 741.522 995.202 740.526C995.202 739.518 995.406 738.636 995.814 737.88C996.222 737.112 996.78 736.518 997.488 736.098C998.208 735.678 999.006 735.468 999.882 735.468ZM1003.55 740.544C1003.55 739.8 1003.4 739.152 1003.1 738.6C1002.8 738.048 1002.4 737.628 1001.88 737.34C1001.38 737.04 1000.82 736.89 1000.21 736.89C999.594 736.89 999.036 737.034 998.532 737.322C998.028 737.61 997.626 738.03 997.326 738.582C997.026 739.134 996.876 739.782 996.876 740.526C996.876 741.282 997.026 741.942 997.326 742.506C997.626 743.058 998.028 743.484 998.532 743.784C999.036 744.072 999.594 744.216 1000.21 744.216C1000.82 744.216 1001.38 744.072 1001.88 743.784C1002.4 743.484 1002.8 743.058 1003.1 742.506C1003.4 741.942 1003.55 741.288 1003.55 740.544Z" fill="black"/>
<path d="M977.874 904.856V906.188H972.42V910.418H976.848V911.75H972.42V917.402H970.782V904.856H977.874ZM979.241 912.434C979.241 911.426 979.445 910.544 979.853 909.788C980.261 909.02 980.819 908.426 981.527 908.006C982.247 907.586 983.045 907.376 983.921 907.376C984.785 907.376 985.535 907.562 986.171 907.934C986.807 908.306 987.281 908.774 987.593 909.338V907.538H989.249V917.402H987.593V915.566C987.269 916.142 986.783 916.622 986.135 917.006C985.499 917.378 984.755 917.564 983.903 917.564C983.027 917.564 982.235 917.348 981.527 916.916C980.819 916.484 980.261 915.878 979.853 915.098C979.445 914.318 979.241 913.43 979.241 912.434ZM987.593 912.452C987.593 911.708 987.443 911.06 987.143 910.508C986.843 909.956 986.435 909.536 985.919 909.248C985.415 908.948 984.857 908.798 984.245 908.798C983.633 908.798 983.075 908.942 982.571 909.23C982.067 909.518 981.665 909.938 981.365 910.49C981.065 911.042 980.915 911.69 980.915 912.434C980.915 913.19 981.065 913.85 981.365 914.414C981.665 914.966 982.067 915.392 982.571 915.692C983.075 915.98 983.633 916.124 984.245 916.124C984.857 916.124 985.415 915.98 985.919 915.692C986.435 915.392 986.843 914.966 987.143 914.414C987.443 913.85 987.593 913.196 987.593 912.452ZM995.509 917.564C994.753 917.564 994.075 917.438 993.475 917.186C992.875 916.922 992.401 916.562 992.053 916.106C991.705 915.638 991.513 915.104 991.477 914.504H993.169C993.217 914.996 993.445 915.398 993.853 915.71C994.273 916.022 994.819 916.178 995.491 916.178C996.115 916.178 996.607 916.04 996.967 915.764C997.327 915.488 997.507 915.14 997.507 914.72C997.507 914.288 997.315 913.97 996.931 913.766C996.547 913.55 995.953 913.34 995.149 913.136C994.417 912.944 993.817 912.752 993.349 912.56C992.893 912.356 992.497 912.062 992.161 911.678C991.837 911.282 991.675 910.766 991.675 910.13C991.675 909.626 991.825 909.164 992.125 908.744C992.425 908.324 992.851 907.994 993.403 907.754C993.955 907.502 994.585 907.376 995.293 907.376C996.385 907.376 997.267 907.652 997.939 908.204C998.611 908.756 998.971 909.512 999.019 910.472H997.381C997.345 909.956 997.135 909.542 996.751 909.23C996.379 908.918 995.875 908.762 995.239 908.762C994.651 908.762 994.183 908.888 993.835 909.14C993.487 909.392 993.313 909.722 993.313 910.13C993.313 910.454 993.415 910.724 993.619 910.94C993.835 911.144 994.099 911.312 994.411 911.444C994.735 911.564 995.179 911.702 995.743 911.858C996.451 912.05 997.027 912.242 997.471 912.434C997.915 912.614 998.293 912.89 998.605 913.262C998.929 913.634 999.097 914.12 999.109 914.72C999.109 915.26 998.959 915.746 998.659 916.178C998.359 916.61 997.933 916.952 997.381 917.204C996.841 917.444 996.217 917.564 995.509 917.564ZM1003.42 908.888V914.702C1003.42 915.182 1003.52 915.524 1003.73 915.728C1003.93 915.92 1004.28 916.016 1004.79 916.016H1005.99V917.402H1004.52C1003.61 917.402 1002.92 917.192 1002.47 916.772C1002.01 916.352 1001.78 915.662 1001.78 914.702V908.888H1000.5V907.538H1001.78V905.054H1003.42V907.538H1005.99V908.888H1003.42Z" fill="black"/>
<path d="M928.222 1097.48L925.234 1092.35H923.254V1097.48H921.616V1084.93H925.666C926.614 1084.93 927.412 1085.1 928.06 1085.42C928.72 1085.74 929.212 1086.18 929.536 1086.73C929.86 1087.29 930.022 1087.92 930.022 1088.62C930.022 1089.49 929.77 1090.25 929.266 1090.91C928.774 1091.57 928.03 1092.01 927.034 1092.22L930.184 1097.48H928.222ZM923.254 1091.04H925.666C926.554 1091.04 927.22 1090.82 927.664 1090.39C928.108 1089.94 928.33 1089.36 928.33 1088.62C928.33 1087.88 928.108 1087.3 927.664 1086.9C927.232 1086.49 926.566 1086.28 925.666 1086.28H923.254V1091.04ZM941.568 1092.17C941.568 1092.48 941.55 1092.81 941.514 1093.16H933.63C933.69 1094.13 934.02 1094.89 934.62 1095.45C935.232 1095.99 935.97 1096.26 936.834 1096.26C937.542 1096.26 938.13 1096.09 938.598 1095.77C939.078 1095.43 939.414 1094.99 939.606 1094.44H941.37C941.106 1095.39 940.578 1096.16 939.786 1096.76C938.994 1097.35 938.01 1097.64 936.834 1097.64C935.898 1097.64 935.058 1097.43 934.314 1097.01C933.582 1096.59 933.006 1096 932.586 1095.23C932.166 1094.45 931.956 1093.55 931.956 1092.53C931.956 1091.51 932.16 1090.62 932.568 1089.85C932.976 1089.08 933.546 1088.49 934.278 1088.08C935.022 1087.66 935.874 1087.45 936.834 1087.45C937.77 1087.45 938.598 1087.66 939.318 1088.07C940.038 1088.47 940.59 1089.04 940.974 1089.76C941.37 1090.47 941.568 1091.27 941.568 1092.17ZM939.876 1091.83C939.876 1091.2 939.738 1090.67 939.462 1090.23C939.186 1089.77 938.808 1089.43 938.328 1089.2C937.86 1088.96 937.338 1088.84 936.762 1088.84C935.934 1088.84 935.226 1089.1 934.638 1089.63C934.062 1090.16 933.732 1090.89 933.648 1091.83H939.876ZM943.118 1092.51C943.118 1091.5 943.322 1090.62 943.73 1089.87C944.138 1089.1 944.696 1088.5 945.404 1088.08C946.124 1087.66 946.922 1087.45 947.798 1087.45C948.662 1087.45 949.412 1087.64 950.048 1088.01C950.684 1088.38 951.158 1088.85 951.47 1089.42V1087.62H953.126V1097.48H951.47V1095.64C951.146 1096.22 950.66 1096.7 950.012 1097.08C949.376 1097.46 948.632 1097.64 947.78 1097.64C946.904 1097.64 946.112 1097.43 945.404 1096.99C944.696 1096.56 944.138 1095.96 943.73 1095.18C943.322 1094.4 943.118 1093.51 943.118 1092.51ZM951.47 1092.53C951.47 1091.79 951.32 1091.14 951.02 1090.59C950.72 1090.03 950.312 1089.61 949.796 1089.33C949.292 1089.03 948.734 1088.88 948.122 1088.88C947.51 1088.88 946.952 1089.02 946.448 1089.31C945.944 1089.6 945.542 1090.02 945.242 1090.57C944.942 1091.12 944.792 1091.77 944.792 1092.51C944.792 1093.27 944.942 1093.93 945.242 1094.49C945.542 1095.04 945.944 1095.47 946.448 1095.77C946.952 1096.06 947.51 1096.2 948.122 1096.2C948.734 1096.2 949.292 1096.06 949.796 1095.77C950.312 1095.47 950.72 1095.04 951.02 1094.49C951.32 1093.93 951.47 1093.27 951.47 1092.53ZM955.282 1092.51C955.282 1091.5 955.486 1090.62 955.894 1089.87C956.302 1089.1 956.86 1088.5 957.568 1088.08C958.288 1087.66 959.092 1087.45 959.98 1087.45C960.748 1087.45 961.462 1087.63 962.122 1087.99C962.782 1088.34 963.286 1088.8 963.634 1089.38V1084.16H965.29V1097.48H963.634V1095.63C963.31 1096.21 962.83 1096.7 962.194 1097.08C961.558 1097.46 960.814 1097.64 959.962 1097.64C959.086 1097.64 958.288 1097.43 957.568 1096.99C956.86 1096.56 956.302 1095.96 955.894 1095.18C955.486 1094.4 955.282 1093.51 955.282 1092.51ZM963.634 1092.53C963.634 1091.79 963.484 1091.14 963.184 1090.59C962.884 1090.03 962.476 1089.61 961.96 1089.33C961.456 1089.03 960.898 1088.88 960.286 1088.88C959.674 1088.88 959.116 1089.02 958.612 1089.31C958.108 1089.6 957.706 1090.02 957.406 1090.57C957.106 1091.12 956.956 1091.77 956.956 1092.51C956.956 1093.27 957.106 1093.93 957.406 1094.49C957.706 1095.04 958.108 1095.47 958.612 1095.77C959.116 1096.06 959.674 1096.2 960.286 1096.2C960.898 1096.2 961.456 1096.06 961.96 1095.77C962.476 1095.47 962.884 1095.04 963.184 1094.49C963.484 1093.93 963.634 1093.27 963.634 1092.53ZM967.446 1092.51C967.446 1091.5 967.65 1090.62 968.058 1089.87C968.466 1089.1 969.024 1088.5 969.732 1088.08C970.452 1087.66 971.25 1087.45 972.126 1087.45C972.99 1087.45 973.74 1087.64 974.376 1088.01C975.012 1088.38 975.486 1088.85 975.798 1089.42V1087.62H977.454V1097.48H975.798V1095.64C975.474 1096.22 974.988 1096.7 974.34 1097.08C973.704 1097.46 972.96 1097.64 972.108 1097.64C971.232 1097.64 970.44 1097.43 969.732 1096.99C969.024 1096.56 968.466 1095.96 968.058 1095.18C967.65 1094.4 967.446 1093.51 967.446 1092.51ZM975.798 1092.53C975.798 1091.79 975.648 1091.14 975.348 1090.59C975.048 1090.03 974.64 1089.61 974.124 1089.33C973.62 1089.03 973.062 1088.88 972.45 1088.88C971.838 1088.88 971.28 1089.02 970.776 1089.31C970.272 1089.6 969.87 1090.02 969.57 1090.57C969.27 1091.12 969.12 1091.77 969.12 1092.51C969.12 1093.27 969.27 1093.93 969.57 1094.49C969.87 1095.04 970.272 1095.47 970.776 1095.77C971.28 1096.06 971.838 1096.2 972.45 1096.2C973.062 1096.2 973.62 1096.06 974.124 1095.77C974.64 1095.47 975.048 1095.04 975.348 1094.49C975.648 1093.93 975.798 1093.27 975.798 1092.53ZM981.86 1089.45C982.196 1088.86 982.688 1088.38 983.336 1088.01C983.984 1087.64 984.722 1087.45 985.55 1087.45C986.438 1087.45 987.236 1087.66 987.944 1088.08C988.652 1088.5 989.21 1089.1 989.618 1089.87C990.026 1090.62 990.23 1091.5 990.23 1092.51C990.23 1093.51 990.026 1094.4 989.618 1095.18C989.21 1095.96 988.646 1096.56 987.926 1096.99C987.218 1097.43 986.426 1097.64 985.55 1097.64C984.698 1097.64 983.948 1097.46 983.3 1097.08C982.664 1096.71 982.184 1096.24 981.86 1095.66V1097.48H980.222V1084.16H981.86V1089.45ZM988.556 1092.51C988.556 1091.77 988.406 1091.12 988.106 1090.57C987.806 1090.02 987.398 1089.6 986.882 1089.31C986.378 1089.02 985.82 1088.88 985.208 1088.88C984.608 1088.88 984.05 1089.03 983.534 1089.33C983.03 1089.61 982.622 1090.04 982.31 1090.6C982.01 1091.16 981.86 1091.8 981.86 1092.53C981.86 1093.27 982.01 1093.93 982.31 1094.49C982.622 1095.04 983.03 1095.47 983.534 1095.77C984.05 1096.06 984.608 1096.2 985.208 1096.2C985.82 1096.2 986.378 1096.06 986.882 1095.77C987.398 1095.47 987.806 1095.04 988.106 1094.49C988.406 1093.93 988.556 1093.27 988.556 1092.51ZM994.024 1084.16V1097.48H992.386V1084.16H994.024ZM1005.82 1092.17C1005.82 1092.48 1005.8 1092.81 1005.76 1093.16H997.878C997.938 1094.13 998.268 1094.89 998.868 1095.45C999.48 1095.99 1000.22 1096.26 1001.08 1096.26C1001.79 1096.26 1002.38 1096.09 1002.85 1095.77C1003.33 1095.43 1003.66 1094.99 1003.85 1094.44H1005.62C1005.35 1095.39 1004.83 1096.16 1004.03 1096.76C1003.24 1097.35 1002.26 1097.64 1001.08 1097.64C1000.15 1097.64 999.306 1097.43 998.562 1097.01C997.83 1096.59 997.254 1096 996.834 1095.23C996.414 1094.45 996.204 1093.55 996.204 1092.53C996.204 1091.51 996.408 1090.62 996.816 1089.85C997.224 1089.08 997.794 1088.49 998.526 1088.08C999.27 1087.66 1000.12 1087.45 1001.08 1087.45C1002.02 1087.45 1002.85 1087.66 1003.57 1088.07C1004.29 1088.47 1004.84 1089.04 1005.22 1089.76C1005.62 1090.47 1005.82 1091.27 1005.82 1092.17ZM1004.12 1091.83C1004.12 1091.2 1003.99 1090.67 1003.71 1090.23C1003.43 1089.77 1003.06 1089.43 1002.58 1089.2C1002.11 1088.96 1001.59 1088.84 1001.01 1088.84C1000.18 1088.84 999.474 1089.1 998.886 1089.63C998.31 1090.16 997.98 1090.89 997.896 1091.83H1004.12Z" fill="black"/>
</svg>
